0
SECTION
2
HEADER
9
$INSUNITS
70
4
9
$ACADVER
1
AC1014
9
$HANDSEED
5
FFFF
0
ENDSEC
0
SECTION
2
TABLES
0
TABLE
2
VPORT
5
8
100
AcDbSymbolTable
0
ENDTAB
0
TABLE
2
LTYPE
5
5
100
AcDbSymbolTable
0
LTYPE
5
14
100
AcDbSymbolTableRecord
100
AcDbLinetypeTableRecord
2
BYBLOCK
70
0
0
LTYPE
5
15
100
AcDbSymbolTableRecord
100
AcDbLinetypeTableRecord
2
BYLAYER
70
0
0
ENDTAB
0
TABLE
2
LAYER
5
2
100
AcDbSymbolTable
70
2
0
LAYER
5
50
100
AcDbSymbolTableRecord
100
AcDbLayerTableRecord
2
0
70
0
6
CONTINUOUS
0
ENDTAB
0
TABLE
2
STYLE
5
3
100
AcDbSymbolTable
70
1
0
STYLE
5
11
100
AcDbSymbolTableRecord
100
AcDbTextStyleTableRecord
2
STANDARD
70
0
0
ENDTAB
0
TABLE
2
VIEW
5
6
100
AcDbSymbolTable
70
0
0
ENDTAB
0
TABLE
2
UCS
5
7
100
AcDbSymbolTable
70
0
0
ENDTAB
0
TABLE
2
APPID
5
9
100
AcDbSymbolTable
70
2
0
APPID
5
12
100
AcDbSymbolTableRecord
100
AcDbRegAppTableRecord
2
ACAD
70
0
0
ENDTAB
0
TABLE
2
DIMSTYLE
5
A
100
AcDbSymbolTable
70
1
0
ENDTAB
0
TABLE
2
BLOCK_RECORD
5
1
100
AcDbSymbolTable
70
1
0
BLOCK_RECORD
5
1F
100
AcDbSymbolTableRecord
100
AcDbBlockTableRecord
2
*MODEL_SPACE
0
BLOCK_RECORD
5
1B
100
AcDbSymbolTableRecord
100
AcDbBlockTableRecord
2
*PAPER_SPACE
0
ENDTAB
0
ENDSEC
0
SECTION
2
BLOCKS
0
BLOCK
5
20
100
AcDbEntity
100
AcDbBlockBegin
2
*MODEL_SPACE
0
ENDBLK
5
21
100
AcDbEntity
100
AcDbBlockEnd
0
BLOCK
5
1C
100
AcDbEntity
100
AcDbBlockBegin
2
*PAPER_SPACE
0
ENDBLK
5
1D
100
AcDbEntity
100
AcDbBlockEnd
0
ENDSEC
0
SECTION
2
ENTITIES
0
CIRCLE
5
100
100
AcDbEntity
8
0
100
AcDbCircle
10
13.506285739311227
20
-7.7719210070101719
30
-1.7763568394002505e-14
40
0.99999999999999911
210
2.2160799282903947e-21
220
1.2274156346410805e-40
230
1
0
CIRCLE
5
101
100
AcDbEntity
8
0
100
AcDbCircle
10
-13.493713689818792
20
-7.7775349654050929
30
-1.7763568394002505e-14
40
0.99999999999999911
210
2.2160799282903947e-21
220
1.2274156346410805e-40
230
1
0
LWPOLYLINE
5
102
100
AcDbEntity
8
0
100
AcDbPolyline
90
6
70
1
43
0.0
10
9.5092949067003758
20
-22.814557563109407
10
9.5053429701342491
20
-4.8677020086608103
10
9.5050382896782519
20
-1.772801944920612
10
-9.4947581004645105
20
-1.7769857413452783
10
-9.4911582420919984
20
-18.124955185423957
10
-9.4906961577288556
20
-22.818741402401777
0
ELLIPSE
5
103
100
AcDbEntity
8
0
100
AcDbEllipse
10
-38.488418818730771
20
-5.4002197914513017
30
-1.7763568394002505e-14
11
0.99999991622320594
21
0.0004158487613725238
31
0.0
40
0.99999999731169553
41
0
42
6.2831853071795862
0
CIRCLE
5
104
100
AcDbEntity
8
0
100
AcDbCircle
10
38.500000000000284
20
-5.384212021477941
30
-1.7763568394002505e-14
40
1.0000000000000016
210
6.3530931929149775e-22
220
-2.7755575615628901e-17
230
1
0
LINE
5
105
100
AcDbEntity
8
0
100
AcDbLine
10
4.0157279557134178
20
-46.414749953229219
30
0
11
4.0157279557134169
21
-50.914749953229204
31
-1.3877787807814457e-16
0
LINE
5
106
100
AcDbEntity
8
0
100
AcDbLine
10
4.0157279557134169
20
-50.914749953229204
30
-1.3877787807814457e-16
11
50.448072262049848
21
-50.914749953229361
31
-1.7763836675351743e-14
0
LINE
5
107
100
AcDbEntity
8
0
100
AcDbLine
10
50.448072262049848
20
-50.914749953229361
30
-1.7763836675351743e-14
11
48.636135477413362
21
-26.589671169621951
31
-1.7763568394002505e-14
0
LINE
5
108
100
AcDbEntity
8
0
100
AcDbLine
10
48.636135477413362
20
-26.589671169621951
30
-1.7763568394002505e-14
11
52.126465778966136
21
-26.329681965879665
31
-1.7754894776622621e-14
0
LINE
5
109
100
AcDbEntity
8
0
100
AcDbLine
10
52.126465778966136
20
-26.329681965879665
30
-1.7754894776622621e-14
11
53.957768749671587
21
-50.914749953229361
31
-1.8318679906315083e-14
0
LINE
5
110
100
AcDbEntity
8
0
100
AcDbLine
10
53.957768749671587
20
-50.914749953229361
30
-1.8318679906315083e-14
11
67.448072262049848
21
-50.914749953229418
31
-1.7763667278439053e-14
0
SPLINE
5
111
100
AcDbEntity
8
0
100
AcDbSpline
70
4
71
5
72
41
73
35
74
0
42
0.000000001
43
0.0000000001
44
0.0000000001
40
0
40
0
40
0
40
0
40
0
40
0
40
0.033333333333333333
40
0.066666666666666666
40
0.10000000000000001
40
0.13333333333333333
40
0.16666666666666666
40
0.19999999999999998
40
0.23333333333333331
40
0.26666666666666666
40
0.29999999999999999
40
0.33333333333333331
40
0.36666666666666664
40
0.39999999999999997
40
0.43333333333333329
40
0.46666666666666662
40
0.49999999999999994
40
0.53333333333333333
40
0.56666666666666665
40
0.59999999999999998
40
0.6333333333333333
40
0.66666666666666663
40
0.69999999999999996
40
0.73333333333333328
40
0.76666666666666661
40
0.79999999999999993
40
0.83333333333333326
40
0.86666666666666659
40
0.89999999999999991
40
0.93333333333333324
40
0.96666666666666656
40
1
40
1
40
1
40
1
40
1
40
1
41
1
41
1
41
1
41
1
41
1
41
1
41
1
41
1
41
1
41
1
41
1
41
1
41
1
41
1
41
1
41
1
41
1
41
1
41
1
41
1
41
1
41
1
41
1
41
1
41
1
41
1
41
1
41
1
41
1
41
1
41
1
41
1
41
1
41
1
41
1
10
0.00096778061375726984
20
15.225105650270924
30
-1.7763568394002505e-14
10
0.63739458731959897
20
15.225245792835809
30
-1.7763568394002505e-14
10
1.9416990929993494
20
15.213961590478334
30
0
10
3.9925063223395947
20
15.162340906655556
30
0
10
6.9182055058736989
20
15.028142375889924
30
0
10
10.902120960926531
20
14.773712685927105
30
-1.7763568394002505e-14
10
15.211382050935429
20
14.459572347808747
30
0
10
19.823053786012309
20
14.109423769024911
30
0
10
24.682792904973851
20
13.736800215147378
30
-1.7763568394002505e-14
10
29.689064620659632
20
13.335487277574101
30
-1.7763568394002505e-14
10
34.699216843181802
20
12.880146150053729
30
-1.7763568394002505e-14
10
39.553664810937697
20
12.335356049853861
30
0
10
44.094295579785395
20
11.662002478572759
30
0
10
48.186222811622258
20
10.825117340985342
30
0
10
51.736025057125197
20
9.8002432781696935
30
0
10
54.717384245073752
20
8.5827039707268948
30
0
10
57.175051562585459
20
7.1883550054653744
30
0
10
59.184553397263009
20
5.6376269988844658
30
0
10
60.826088503989759
20
3.9442004361935301
30
-1.7763568394002505e-14
10
62.143566555903078
20
2.0997965265445329
30
-1.7763568394002505e-14
10
63.144438531721207
20
0.068368652667083474
30
-1.7763568394002505e-14
10
63.839020016487012
20
-2.2087506442357663
30
-1.7763568394002505e-14
10
64.275967501977334
20
-4.8124777611200775
30
-1.7763568394002505e-14
10
64.56000432665941
20
-7.8374235907612588
30
-1.7763568394002505e-14
10
64.802815448091238
20
-11.352812277913982
30
0
10
65.096108366453521
20
-15.38209626402411
30
0
10
65.457268562852903
20
-19.847005447421338
30
0
10
65.83071587511327
20
-24.592878865886259
30
-1.7763568394002505e-14
10
66.199038302090031
20
-29.547416827182268
30
-1.7763568394002505e-14
10
66.546814225187319
20
-34.661648938663326
30
0
10
66.870965022579639
20
-39.920009636372086
30
-1.7763568394002505e-14
10
67.111658949758564
20
-44.241488263411966
30
0
10
67.283158451331616
20
-47.55089837197648
30
-1.7763568394002505e-14
10
67.393727426238854
20
-49.788280036127048
30
-1.7763568394002505e-14
10
67.448072262049863
20
-50.914749953229418
30
-1.7763568394002505e-14
0
SPLINE
5
112
100
AcDbEntity
8
0
100
AcDbSpline
70
4
71
5
72
41
73
35
74
0
42
0.000000001
43
0.0000000001
44
0.0000000001
40
0
40
0
40
0
40
0
40
0
40
0
40
0.033333333333333333
40
0.066666666666666666
40
0.10000000000000001
40
0.13333333333333333
40
0.16666666666666666
40
0.19999999999999998
40
0.23333333333333331
40
0.26666666666666666
40
0.29999999999999999
40
0.33333333333333331
40
0.36666666666666664
40
0.39999999999999997
40
0.43333333333333329
40
0.46666666666666662
40
0.49999999999999994
40
0.53333333333333333
40
0.56666666666666665
40
0.59999999999999998
40
0.6333333333333333
40
0.66666666666666663
40
0.69999999999999996
40
0.73333333333333328
40
0.76666666666666661
40
0.79999999999999993
40
0.83333333333333326
40
0.86666666666666659
40
0.89999999999999991
40
0.93333333333333324
40
0.96666666666666656
40
1
40
1
40
1
40
1
40
1
40
1
41
1
41
1
41
1
41
1
41
1
41
1
41
1
41
1
41
1
41
1
41
1
41
1
41
1
41
1
41
1
41
1
41
1
41
1
41
1
41
1
41
1
41
1
41
1
41
1
41
1
41
1
41
1
41
1
41
1
41
1
41
1
41
1
41
1
41
1
41
1
10
0.00096778061375727385
20
15.225105650270915
30
-1.7763568394002505e-14
10
-0.63545902609208438
20
15.224965507706031
30
-1.7763568394002505e-14
10
-1.9397584356715216
20
15.213106885101642
30
0
10
-3.9905427321563569
20
15.160583021917953
30
0
10
-6.9161825303491131
20
15.025096013601885
30
-1.7763568394002505e-14
10
-10.899985547114788
20
14.76891181472903
30
0
10
-15.209107870457654
20
14.452873689867545
30
0
10
-19.820624951356514
20
14.100694144877565
30
0
10
-24.6801994940068
20
13.725930377025497
30
-1.7763568394002505e-14
10
-29.686293984242319
20
13.322412694671012
30
0
10
-34.696245186689559
20
12.864865118617029
30
-1.7763568394002505e-14
10
-39.550452755756254
20
12.317937151384836
30
0
10
-44.090786536439815
20
11.642583931989886
30
-1.7763568394002505e-14
10
-48.182344803618371
20
10.803896773124507
30
0
10
-51.731695345902068
20
9.7774594614486325
30
-1.7763568394002505e-14
10
-54.712518035151433
20
8.5586072686091104
30
0
10
-57.169571037013107
20
7.1631760712605663
30
-1.7763568394002505e-14
10
-59.178389729497162
20
5.611563221773479
30
0
10
-60.819178884654278
20
3.9174138841522566
30
-1.7763568394002505e-14
10
-62.135844525348283
20
2.0724299303418969
30
-1.7763568394002505e-14
10
-63.135821754488745
20
0.040561465124513418
30
0
10
-63.829400318715834
20
-2.2368635076356336
30
0
10
-64.265201069156788
20
-4.8407828055767332
30
-1.7763568394002505e-14
10
-64.547905667076947
20
-7.865853432909895
30
-1.7763568394002505e-14
10
-64.789168572590825
20
-11.381348714214564
30
0
10
-65.080686948428891
20
-15.41076147704163
30
-1.7763568394002505e-14
10
-65.439880744502844
20
-19.87582928395231
30
-1.7763568394002505e-14
10
-65.811237917382812
20
-24.621866709982257
30
-1.7763568394002505e-14
10
-66.17737830870972
20
-29.576566401585819
30
0
10
-66.522901868155799
20
-34.6909511791185
30
-1.7763568394002505e-14
10
-66.844736829335758
20
-39.949454124294085
30
-1.7763568394002505e-14
10
-67.083527535308747
20
-44.271038334891415
30
-1.7763568394002505e-14
10
-67.2535695417357
20
-47.580523651637691
30
-1.7763568394002505e-14
10
-67.363153153365772
20
-49.817953793865868
30
-1.7763568394002505e-14
10
-67.41700188168663
20
-50.944447535426022
30
-1.7763568394002505e-14
0
LINE
5
113
100
AcDbEntity
8
0
100
AcDbLine
10
-67.417002064857826
20
-50.944447535506683
30
0
11
-53.926699677570873
21
-50.938506347456673
31
0
0
LINE
5
114
100
AcDbEntity
8
0
100
AcDbLine
10
-53.926699677570873
20
-50.938506347456673
30
0
11
-52.106224254654954
21
-26.352634230574566
31
1.1102230246251565e-15
0
LINE
5
115
100
AcDbEntity
8
0
100
AcDbLine
10
-52.106224254654954
20
-26.352634230574566
30
1.1102230246251565e-15
11
-48.616411720945635
21
-26.611039460944411
31
-1.7763568394002505e-14
0
LINE
5
116
100
AcDbEntity
8
0
100
AcDbLine
10
-48.616411720945635
20
-26.611039460944411
30
-1.7763568394002505e-14
11
-50.416616350623016
21
-50.914749953228977
31
-1.7763568394002505e-14
0
LINE
5
117
100
AcDbEntity
8
0
100
AcDbLine
10
-50.416616350623016
20
-50.914749953228977
30
-1.7763568394002505e-14
11
-3.9842720442865787
21
-50.914749953229197
31
-1.7763753794132602e-14
0
LINE
5
118
100
AcDbEntity
8
0
100
AcDbLine
10
-3.9842720442865787
20
-50.914749953229197
30
-1.7763753794132602e-14
11
-3.9842720442865835
21
-46.414749953229219
31
-1.7763568394002505e-14
0
ARC
5
119
100
AcDbEntity
8
0
100
AcDbCircle
10
-2.4842720442865702
20
-46.414749953229219
30
-1.3019286424057714e-30
40
1.5000000000000124
210
5.2844483608460786e-21
220
-8.3266726846887628e-17
230
1
100
AcDbArc
50
90.000000000000057
51
180
0
LINE
5
120
100
AcDbEntity
8
0
100
AcDbLine
10
-2.4842720442865716
20
-44.914749953229204
30
1.2490009027033115e-16
11
2.5157279557134054
21
-44.91474995322919
31
-1.7763611434715501e-14
0
ARC
5
121
100
AcDbEntity
8
0
100
AcDbCircle
10
2.5157279557134031
20
-46.414749953229219
30
4.622231866529366e-32
40
1.5000000000000147
210
3.0814879110195473e-32
220
-2.7755575615628901e-17
230
1
100
AcDbArc
50
0
51
89.999999999999929
0
ELLIPSE
5
122
100
AcDbEntity
8
0
100
AcDbEllipse
10
-27.992760358505361
20
-48.267679132102813
30
0
11
-0.99999991622320117
21
-0.00041584876136234515
31
0.0
40
0.99999999731169587
41
0
42
6.2831853071795862
0
ELLIPSE
5
123
100
AcDbEntity
8
0
100
AcDbEllipse
10
-43.992759018076626
20
-48.274332712284611
30
-1.7763568394002505e-14
11
-0.99999991622321005
21
-0.00041584876136234884
31
0.0
40
0.99999999731169587
41
0
42
6.2831853071795862
0
CIRCLE
5
124
100
AcDbEntity
8
0
100
AcDbCircle
10
28.022168855320544
20
-48.25603226214902
30
0
40
0.99999999999999667
210
6.5539164057057345e-21
220
-2.7755575615628901e-17
230
1
0
CIRCLE
5
125
100
AcDbEntity
8
0
100
AcDbCircle
10
44.022168855320544
20
-48.256032262148892
30
-1.7763568394002505e-14
40
1.0000000000000056
210
2.3226024838547103e-21
220
1.9045556968259778e-35
230
1
0
ENDSEC
0
SECTION
2
OBJECTS
0
DICTIONARY
5
C
100
AcDbDictionary
3
ACAD_GROUP
350
D
3
ACAD_MLINESTYLE
350
17
0
DICTIONARY
5
D
100
AcDbDictionary
0
DICTIONARY
5
1A
330
C
100
AcDbDictionary
0
DICTIONARY
5
17
100
AcDbDictionary
0
ENDSEC
0
EOF
