0
SECTION
2
HEADER
9
$INSUNITS
70
4
9
$ACADVER
1
AC1014
9
$HANDSEED
5
FFFF
0
ENDSEC
0
SECTION
2
TABLES
0
TABLE
2
VPORT
5
8
100
AcDbSymbolTable
0
ENDTAB
0
TABLE
2
LTYPE
5
5
100
AcDbSymbolTable
0
LTYPE
5
14
100
AcDbSymbolTableRecord
100
AcDbLinetypeTableRecord
2
BYBLOCK
70
0
0
LTYPE
5
15
100
AcDbSymbolTableRecord
100
AcDbLinetypeTableRecord
2
BYLAYER
70
0
0
ENDTAB
0
TABLE
2
LAYER
5
2
100
AcDbSymbolTable
70
2
0
LAYER
5
50
100
AcDbSymbolTableRecord
100
AcDbLayerTableRecord
2
0
70
0
6
CONTINUOUS
0
ENDTAB
0
TABLE
2
STYLE
5
3
100
AcDbSymbolTable
70
1
0
STYLE
5
11
100
AcDbSymbolTableRecord
100
AcDbTextStyleTableRecord
2
STANDARD
70
0
0
ENDTAB
0
TABLE
2
VIEW
5
6
100
AcDbSymbolTable
70
0
0
ENDTAB
0
TABLE
2
UCS
5
7
100
AcDbSymbolTable
70
0
0
ENDTAB
0
TABLE
2
APPID
5
9
100
AcDbSymbolTable
70
2
0
APPID
5
12
100
AcDbSymbolTableRecord
100
AcDbRegAppTableRecord
2
ACAD
70
0
0
ENDTAB
0
TABLE
2
DIMSTYLE
5
A
100
AcDbSymbolTable
70
1
0
ENDTAB
0
TABLE
2
BLOCK_RECORD
5
1
100
AcDbSymbolTable
70
1
0
BLOCK_RECORD
5
1F
100
AcDbSymbolTableRecord
100
AcDbBlockTableRecord
2
*MODEL_SPACE
0
BLOCK_RECORD
5
1B
100
AcDbSymbolTableRecord
100
AcDbBlockTableRecord
2
*PAPER_SPACE
0
ENDTAB
0
ENDSEC
0
SECTION
2
BLOCKS
0
BLOCK
5
20
100
AcDbEntity
100
AcDbBlockBegin
2
*MODEL_SPACE
0
ENDBLK
5
21
100
AcDbEntity
100
AcDbBlockEnd
0
BLOCK
5
1C
100
AcDbEntity
100
AcDbBlockBegin
2
*PAPER_SPACE
0
ENDBLK
5
1D
100
AcDbEntity
100
AcDbBlockEnd
0
ENDSEC
0
SECTION
2
ENTITIES
0
ELLIPSE
5
100
100
AcDbEntity
8
0
100
AcDbEllipse
10
-39.991509412967716
20
-25.08215239613056
30
-1.7763568394002505e-14
11
-0.022614124655343685
21
-1.4998338401639488
31
0.0
40
0.99999712296022625
41
0
42
6.2831853071795862
0
ELLIPSE
5
101
100
AcDbEntity
8
0
100
AcDbEllipse
10
40.008488910033648
20
-25.065511410518361
30
-1.7763568394002505e-14
11
0.022614124655343685
21
1.4998338401639488
31
0.0
40
0.99999712296022625
41
0
42
6.2831853071795862
0
ELLIPSE
5
102
100
AcDbEntity
8
0
100
AcDbEllipse
10
-67.777930516813356
20
-55.296950407939178
30
-1.7763568394002505e-14
11
1.4999998743348106
21
0.00062377314204352125
31
0.0
40
0.99999999731169631
41
0
42
6.2831853071795862
0
ELLIPSE
5
103
100
AcDbEntity
8
0
100
AcDbEllipse
10
-25.492630697810746
20
-55.279366116912165
30
0
11
1.4999998743348062
21
0.00062377314204351941
31
0.0
40
0.9999999973116962
41
0
42
6.2831853071795862
0
CIRCLE
5
104
100
AcDbEntity
8
0
100
AcDbCircle
10
67.807472216850314
20
-55.26875889586492
30
-1.7763568394002505e-14
40
1.5000000000000044
210
2.2872249214543073e-21
220
-2.7755575615628907e-17
230
1
0
CIRCLE
5
105
100
AcDbEntity
8
0
100
AcDbCircle
10
25.522168855320491
20
-55.268758895864984
30
-1.7763568394002505e-14
40
1.4999999999999996
210
2.9556366192600077e-21
220
2.7755575615628901e-17
230
1
0
LINE
5
106
100
AcDbEntity
8
0
100
AcDbLine
10
-18.984464901403864
20
-33.33320916021934
30
-1.7763568394002505e-14
11
-18.984464901404007
21
-51.083209160219297
31
-1.6653345369377348e-14
0
LINE
5
107
100
AcDbEntity
8
0
100
AcDbLine
10
-18.984464901404007
20
-51.083209160219297
30
-1.6653345369377348e-14
11
19.015535098596065
21
-51.083209160219425
31
3.8714389774409635e-20
0
LINE
5
108
100
AcDbEntity
8
0
100
AcDbLine
10
19.015535098596065
20
-51.083209160219425
30
3.8714389774409635e-20
11
19.015535098596104
21
-33.333209160219475
31
-1.7763568394002505e-14
0
LINE
5
109
100
AcDbEntity
8
0
100
AcDbLine
10
19.015535098596104
20
-33.333209160219475
30
-1.7763568394002505e-14
11
22.015535098596107
21
-33.333209160219411
31
-1.0428335988339332e-21
0
LINE
5
110
100
AcDbEntity
8
0
100
AcDbLine
10
22.015535098596107
20
-33.333209160219411
30
-1.0428335988339332e-21
11
22.015535098595986
21
-64.083209160219425
31
0
0
LINE
5
111
100
AcDbEntity
8
0
100
AcDbLine
10
22.015535098595986
20
-64.083209160219425
30
0
11
57.733719882856889
21
-64.083209160219582
31
-1.7763804469352073e-14
0
LINE
5
112
100
AcDbEntity
8
0
100
AcDbLine
10
57.733719882856889
20
-64.083209160219582
30
-1.7763804469352073e-14
11
55.876654141841612
21
-39.152278434842586
31
-1.8318679906315083e-14
0
LINE
5
113
100
AcDbEntity
8
0
100
AcDbLine
10
55.876654141841612
20
-39.152278434842586
30
-1.8318679906315083e-14
11
59.366984443394401
21
-38.892289231100406
31
-1.7772242011382389e-14
0
LINE
5
114
100
AcDbEntity
8
0
100
AcDbLine
10
59.366984443394401
20
-38.892289231100406
30
-1.7772242011382389e-14
11
61.243416370478784
21
-64.083209160219582
31
5.5511151231257827e-16
0
LINE
5
115
100
AcDbEntity
8
0
100
AcDbLine
10
61.243416370478784
20
-64.083209160219582
30
5.5511151231257827e-16
11
75.020423125496706
21
-64.083209160219653
31
1.5822945972958746e-20
0
SPLINE
5
116
100
AcDbEntity
8
0
100
AcDbSpline
70
4
71
5
72
46
73
40
74
0
42
0.000000001
43
0.0000000001
44
0.0000000001
40
0
40
0
40
0
40
0
40
0
40
0
40
0.028571428571428571
40
0.057142857142857141
40
0.085714285714285715
40
0.11428571428571428
40
0.14285714285714285
40
0.17142857142857143
40
0.20000000000000001
40
0.22857142857142859
40
0.25714285714285717
40
0.28571428571428575
40
0.31428571428571433
40
0.34285714285714292
40
0.3714285714285715
40
0.40000000000000008
40
0.42857142857142866
40
0.45714285714285724
40
0.48571428571428582
40
0.51428571428571435
40
0.54285714285714293
40
0.57142857142857151
40
0.60000000000000009
40
0.62857142857142867
40
0.65714285714285725
40
0.68571428571428583
40
0.71428571428571441
40
0.74285714285714299
40
0.77142857142857157
40
0.80000000000000016
40
0.82857142857142874
40
0.85714285714285732
40
0.8857142857142859
40
0.91428571428571448
40
0.94285714285714306
40
0.97142857142857164
40
1
40
1
40
1
40
1
40
1
40
1
41
1
41
1
41
1
41
1
41
1
41
1
41
1
41
1
41
1
41
1
41
1
41
1
41
1
41
1
41
1
41
1
41
1
41
1
41
1
41
1
41
1
41
1
41
1
41
1
41
1
41
1
41
1
41
1
41
1
41
1
41
1
41
1
41
1
41
1
41
1
41
1
41
1
41
1
41
1
41
1
10
75.020423125496706
20
-64.083209160219653
30
0
10
75.009092591425414
20
-63.373426774650767
30
-1.7763568394002505e-14
10
74.980241750253541
20
-61.934392473709217
30
0
10
74.918396967433395
20
-59.717434699529804
30
-1.7763568394002505e-14
10
74.798743886464337
20
-56.644503270345929
30
-1.7763568394002505e-14
10
74.588542526895793
20
-52.614005454097111
30
-1.7763568394002505e-14
10
74.32214481628084
20
-48.412342309028418
30
0
10
74.009052429591989
20
-44.077761721061847
30
-1.7763568394002505e-14
10
73.665008747574518
20
-39.673902159061612
30
-1.7763568394002505e-14
10
73.315198978093662
20
-35.300873167621809
30
0
10
72.990355259975644
20
-31.086229809657723
30
0
10
72.715226375174865
20
-27.15431670072693
30
-1.7763568394002505e-14
10
72.498805535535794
20
-23.600643905697439
30
-1.7763568394002505e-14
10
72.324279068428126
20
-20.465537464557158
30
-1.7763568394002505e-14
10
72.13774221750063
20
-17.704295737497592
30
-1.7763568394002505e-14
10
71.8408530301231
20
-15.168976201026316
30
-1.7763568394002505e-14
10
71.312578406103654
20
-12.68575872491893
30
0
10
70.427091058524326
20
-10.114152011667574
30
-1.7763568394002505e-14
10
69.074428408696406
20
-7.4297420560036409
30
-1.7763568394002505e-14
10
67.175336512395077
20
-4.7384088049945543
30
-1.7763568394002505e-14
10
64.689137678210756
20
-2.2034366512204739
30
-1.7763568394002505e-14
10
61.623852009728694
20
0.006171000683754535
30
0
10
58.045041379310661
20
1.7742432418999377
30
-1.7763568394002505e-14
10
54.087413895081127
20
3.097577988762692
30
0
10
49.924494731011279
20
4.0520369395285982
30
0
10
45.736858446551935
20
4.7552675215990847
30
0
10
41.679632657590197
20
5.3263682309524558
30
-1.7763568394002505e-14
10
37.853303709457755
20
5.8575326503236926
30
-1.7763568394002505e-14
10
34.265488264548836
20
6.353707389067563
30
-1.7763568394002505e-14
10
30.81832961238262
20
6.8097421415050174
30
-1.7763568394002505e-14
10
27.366733752086532
20
7.2200119391390718
30
-1.7763568394002505e-14
10
23.765048642111111
20
7.5768701603411408
30
-1.7763568394002505e-14
10
19.913235852071967
20
7.8742970379478425
30
-1.7763568394002505e-14
10
15.815495497246379
20
8.1097659006142884
30
0
10
11.590757205296786
20
8.2852053082039561
30
-1.7763568394002505e-14
10
7.4127476054001997
20
8.4047835757952942
30
0
10
4.2566576580459223
20
8.4598120637572709
30
-1.7763568394002505e-14
10
2.0615409482232074
20
8.4801529461622032
30
-1.7763568394002505e-14
10
0.68333661344542351
20
8.4846732161761746
30
-1.7763568394002505e-14
10
0.015535098596245266
20
8.4846732161761764
30
-1.7763568394002505e-14
0
SPLINE
5
117
100
AcDbEntity
8
0
100
AcDbSpline
70
4
71
5
72
46
73
40
74
0
42
0.000000001
43
0.0000000001
44
0.0000000001
40
0
40
0
40
0
40
0
40
0
40
0
40
0.028571428571428571
40
0.057142857142857141
40
0.085714285714285715
40
0.11428571428571428
40
0.14285714285714285
40
0.17142857142857143
40
0.20000000000000001
40
0.22857142857142859
40
0.25714285714285717
40
0.28571428571428575
40
0.31428571428571433
40
0.34285714285714292
40
0.3714285714285715
40
0.40000000000000008
40
0.42857142857142866
40
0.45714285714285724
40
0.48571428571428582
40
0.51428571428571435
40
0.54285714285714293
40
0.57142857142857151
40
0.60000000000000009
40
0.62857142857142867
40
0.65714285714285725
40
0.68571428571428583
40
0.71428571428571441
40
0.74285714285714299
40
0.77142857142857157
40
0.80000000000000016
40
0.82857142857142874
40
0.85714285714285732
40
0.8857142857142859
40
0.91428571428571448
40
0.94285714285714306
40
0.97142857142857164
40
1
40
1
40
1
40
1
40
1
40
1
41
1
41
1
41
1
41
1
41
1
41
1
41
1
41
1
41
1
41
1
41
1
41
1
41
1
41
1
41
1
41
1
41
1
41
1
41
1
41
1
41
1
41
1
41
1
41
1
41
1
41
1
41
1
41
1
41
1
41
1
41
1
41
1
41
1
41
1
41
1
41
1
41
1
41
1
41
1
41
1
10
-74.989352928304726
20
-64.083209160219099
30
-1.7763568394002505e-14
10
-74.978022394233449
20
-63.373426774650213
30
-1.7763568394002505e-14
10
-74.948904766671362
20
-61.93221214311378
30
-1.7763568394002505e-14
10
-74.885859322381378
20
-59.705441148038467
30
0
10
-74.763388491348607
20
-56.609630899408891
30
-1.7763568394002505e-14
10
-74.549719881263982
20
-52.551643927221377
30
0
10
-74.282354899160225
20
-48.343475817349088
30
-1.7763568394002505e-14
10
-73.972782343245058
20
-44.038097367413712
30
-1.7763568394002505e-14
10
-73.637583781751829
20
-39.702951799720822
30
-1.7763568394002505e-14
10
-73.300706128394907
20
-35.421064707691002
30
0
10
-72.986617808576611
20
-31.276721462384593
30
-1.7763568394002505e-14
10
-72.712769027833531
20
-27.347982749683037
30
-1.7763568394002505e-14
10
-72.485370436120093
20
-23.716371770090632
30
0
10
-72.288700137183156
20
-20.434133706065964
30
0
10
-72.089035459896181
20
-17.593557994761618
30
-1.7763568394002505e-14
10
-71.794619266494081
20
-15.088876207601905
30
-1.7763568394002505e-14
10
-71.275787804619085
20
-12.672850792088639
30
-1.7763568394002505e-14
10
-70.398832188030923
20
-10.12963098666275
30
0
10
-69.066995400054054
20
-7.457826775958674
30
0
10
-67.186582089291903
20
-4.770405691950983
30
0
10
-64.698242304757812
20
-2.2276101684617733
30
0
10
-61.596562265709551
20
0.0046626445264319472
30
0
10
-57.974612824643515
20
1.7964543827461688
30
-1.7763568394002505e-14
10
-54.004765613164565
20
3.1264037782470044
30
-1.7763568394002505e-14
10
-49.855183260039617
20
4.0735442314528907
30
-1.7763568394002505e-14
10
-45.691869692440505
20
4.7633927724013443
30
0
10
-41.651032305298074
20
5.3251736863481529
30
0
10
-37.822105959837707
20
5.8572531156598071
30
0
10
-34.23084619217812
20
6.3566144121563086
30
0
10
-30.785521709280385
20
6.8139409587357482
30
0
10
-27.33788398518492
20
7.2231711995008174
30
-1.7763568394002505e-14
10
-23.737268805327624
20
7.5777729521260708
30
-1.7763568394002505e-14
10
-19.880176001104704
20
7.8734725863519675
30
-1.7763568394002505e-14
10
-15.778211670733082
20
8.108189618088943
30
-1.7763568394002505e-14
10
-11.552963995861766
20
8.283745312812691
30
-1.7763568394002505e-14
10
-7.3775232571365166
20
8.4039605152584045
30
-1.7763568394002505e-14
10
-4.2241135455311927
20
8.4595282678006711
30
-1.7763568394002505e-14
10
-2.0302027194369545
20
8.4801013636574432
30
-1.7763568394002505e-14
10
-0.65226641625293191
20
8.4846732161761764
30
-1.7763568394002505e-14
10
0.015535098596245266
20
8.4846732161761764
30
-1.7763568394002505e-14
0
LINE
5
118
100
AcDbEntity
8
0
100
AcDbLine
10
-74.989352928304726
20
-64.083209160219099
30
-1.7763568394002505e-14
11
-61.212346173286811
21
-64.083209160219141
31
-1.7763509615312507e-14
0
LINE
5
119
100
AcDbEntity
8
0
100
AcDbLine
10
-61.212346173286811
20
-64.083209160219141
30
-1.7763509615312507e-14
11
-59.33591424620225
21
-38.892289231099994
31
-1.7208456881689926e-14
0
LINE
5
120
100
AcDbEntity
8
0
100
AcDbLine
10
-59.33591424620225
20
-38.892289231099994
30
-1.7208456881689926e-14
11
-55.845583944649455
21
-39.15227843484216
31
-1.7772242011382389e-14
0
LINE
5
121
100
AcDbEntity
8
0
100
AcDbLine
10
-55.845583944649455
20
-39.15227843484216
30
-1.7772242011382389e-14
11
-57.702649685664909
21
-64.083209160219155
31
5.5511151231257827e-16
0
LINE
5
122
100
AcDbEntity
8
0
100
AcDbLine
10
-57.702649685664909
20
-64.083209160219155
30
5.5511151231257827e-16
11
-21.984464901404031
21
-64.083209160219269
31
-1.7763580219263974e-14
0
LINE
5
123
100
AcDbEntity
8
0
100
AcDbLine
10
-21.984464901404031
20
-64.083209160219269
30
-1.7763580219263974e-14
11
-21.984464901403918
21
-33.333209160219269
31
-1.7763568394002505e-14
0
LINE
5
124
100
AcDbEntity
8
0
100
AcDbLine
10
-21.984464901403918
20
-33.333209160219269
30
-1.7763568394002505e-14
11
-18.984464901403864
21
-33.33320916021934
31
-1.7763568394002505e-14
0
ENDSEC
0
SECTION
2
OBJECTS
0
DICTIONARY
5
C
100
AcDbDictionary
3
ACAD_GROUP
350
D
3
ACAD_MLINESTYLE
350
17
0
DICTIONARY
5
D
100
AcDbDictionary
0
DICTIONARY
5
1A
330
C
100
AcDbDictionary
0
DICTIONARY
5
17
100
AcDbDictionary
0
ENDSEC
0
EOF
