0
SECTION
2
HEADER
9
$INSUNITS
70
4
9
$ACADVER
1
AC1014
9
$HANDSEED
5
FFFF
0
ENDSEC
0
SECTION
2
TABLES
0
TABLE
2
VPORT
5
8
100
AcDbSymbolTable
0
ENDTAB
0
TABLE
2
LTYPE
5
5
100
AcDbSymbolTable
0
LTYPE
5
14
100
AcDbSymbolTableRecord
100
AcDbLinetypeTableRecord
2
BYBLOCK
70
0
0
LTYPE
5
15
100
AcDbSymbolTableRecord
100
AcDbLinetypeTableRecord
2
BYLAYER
70
0
0
ENDTAB
0
TABLE
2
LAYER
5
2
100
AcDbSymbolTable
70
2
0
LAYER
5
50
100
AcDbSymbolTableRecord
100
AcDbLayerTableRecord
2
0
70
0
6
CONTINUOUS
0
ENDTAB
0
TABLE
2
STYLE
5
3
100
AcDbSymbolTable
70
1
0
STYLE
5
11
100
AcDbSymbolTableRecord
100
AcDbTextStyleTableRecord
2
STANDARD
70
0
0
ENDTAB
0
TABLE
2
VIEW
5
6
100
AcDbSymbolTable
70
0
0
ENDTAB
0
TABLE
2
UCS
5
7
100
AcDbSymbolTable
70
0
0
ENDTAB
0
TABLE
2
APPID
5
9
100
AcDbSymbolTable
70
2
0
APPID
5
12
100
AcDbSymbolTableRecord
100
AcDbRegAppTableRecord
2
ACAD
70
0
0
ENDTAB
0
TABLE
2
DIMSTYLE
5
A
100
AcDbSymbolTable
70
1
0
ENDTAB
0
TABLE
2
BLOCK_RECORD
5
1
100
AcDbSymbolTable
70
1
0
BLOCK_RECORD
5
1F
100
AcDbSymbolTableRecord
100
AcDbBlockTableRecord
2
*MODEL_SPACE
0
BLOCK_RECORD
5
1B
100
AcDbSymbolTableRecord
100
AcDbBlockTableRecord
2
*PAPER_SPACE
0
ENDTAB
0
ENDSEC
0
SECTION
2
BLOCKS
0
BLOCK
5
20
100
AcDbEntity
100
AcDbBlockBegin
2
*MODEL_SPACE
0
ENDBLK
5
21
100
AcDbEntity
100
AcDbBlockEnd
0
BLOCK
5
1C
100
AcDbEntity
100
AcDbBlockBegin
2
*PAPER_SPACE
0
ENDBLK
5
1D
100
AcDbEntity
100
AcDbBlockEnd
0
ENDSEC
0
SECTION
2
ENTITIES
0
CIRCLE
5
100
100
AcDbEntity
8
0
100
AcDbCircle
10
270.74999999999994
20
75.000000000000128
30
0
40
1.4999999999999858
210
0
220
0
230
1
0
CIRCLE
5
101
100
AcDbEntity
8
0
100
AcDbCircle
10
295.25
20
73.000000000000099
30
0
40
1.4999999999999858
210
0
220
0
230
1
0
CIRCLE
5
102
100
AcDbEntity
8
0
100
AcDbCircle
10
270.74999999999994
20
-75.000000000000128
30
0
40
1.4999999999999858
210
0
220
0
230
1
0
CIRCLE
5
103
100
AcDbEntity
8
0
100
AcDbCircle
10
295.25
20
-73.000000000000099
30
0
40
1.4999999999999858
210
0
220
0
230
1
0
CIRCLE
5
104
100
AcDbEntity
8
0
100
AcDbCircle
10
140.00000000000307
20
51.000000000006025
30
0
40
1.5000000000000036
210
0
220
-0
230
1
0
CIRCLE
5
105
100
AcDbEntity
8
0
100
AcDbCircle
10
220
20
7.5495165674510645e-13
30
0
40
1.5000000000000213
210
0
220
-0
230
1
0
CIRCLE
5
106
100
AcDbEntity
8
0
100
AcDbCircle
10
140.00000000000307
20
-51.000000000006025
30
0
40
1.5000000000000036
210
-0
220
0
230
1
0
CIRCLE
5
107
100
AcDbEntity
8
0
100
AcDbCircle
10
285.25
20
8.0000000000000089
30
0
40
1.4999999999999858
210
0
220
0
230
1
0
CIRCLE
5
108
100
AcDbEntity
8
0
100
AcDbCircle
10
285.25
20
-7.9999999999999911
30
0
40
1.4999999999999858
210
0
220
0
230
1
0
LINE
5
109
100
AcDbEntity
8
0
100
AcDbLine
10
267.99999999999994
20
-24.000000000000114
30
0
11
267.99999999999977
21
-80.000000000000071
31
0
0
LINE
5
110
100
AcDbEntity
8
0
100
AcDbLine
10
267.99999999999977
20
-80.000000000000071
30
0
11
300
21
-80.000000000000114
31
0
0
LINE
5
111
100
AcDbEntity
8
0
100
AcDbLine
10
300
20
-80.000000000000114
30
0
11
300
21
-28.900738657076843
31
0
0
SPLINE
5
112
100
AcDbEntity
8
0
100
AcDbSpline
70
4
71
5
72
21
73
15
74
0
42
0.000000001
43
0.0000000001
44
0.0000000001
40
-1
40
-1
40
-1
40
-1
40
-1
40
-1
40
-0.89999999999999991
40
-0.79999999999999993
40
-0.69999999999999996
40
-0.59999999999999998
40
-0.5
40
-0.40000000000000002
40
-0.30000000000000004
40
-0.20000000000000001
40
-0.10000000000000001
40
0
40
0
40
0
40
0
40
0
40
0
41
1
41
1
41
1
41
1
41
1
41
1
41
1
41
1
41
1
41
1
41
1
41
1
41
1
41
1
41
1
10
300
20
-28.900738657076843
30
0
10
300
20
-28.61213950767468
30
0
10
299.98136123282268
20
-28.043956730361053
30
0
10
299.89749024524934
20
-27.218727462031232
30
0
10
299.68003798505504
20
-26.170715944251626
30
0
10
299.26723462881932
20
-24.937764468854667
30
0
10
298.75968611407183
20
-23.76827223836824
30
0
10
298.20872075537289
20
-22.645980774904903
30
0
10
297.66623607088121
20
-21.552123942532617
30
0
10
297.18031175146814
20
-20.464334153757999
30
0
10
296.7939968378094
20
-19.359105956784525
30
0
10
296.59386115775681
20
-18.443769448129476
30
0
10
296.5170661840757
20
-17.73239125579591
30
0
10
296.5
20
-17.246131818898768
30
0
10
296.5
20
-17
30
0
0
LINE
5
113
100
AcDbEntity
8
0
100
AcDbLine
10
296.5
20
-17.000000000000004
30
0
11
296.5
21
17
31
0
0
SPLINE
5
114
100
AcDbEntity
8
0
100
AcDbSpline
70
4
71
5
72
21
73
15
74
0
42
0.000000001
43
0.0000000001
44
0.0000000001
40
0
40
0
40
0
40
0
40
0
40
0
40
0.10000000000000001
40
0.20000000000000001
40
0.30000000000000004
40
0.40000000000000002
40
0.5
40
0.59999999999999998
40
0.69999999999999996
40
0.79999999999999993
40
0.89999999999999991
40
1
40
1
40
1
40
1
40
1
40
1
41
1
41
1
41
1
41
1
41
1
41
1
41
1
41
1
41
1
41
1
41
1
41
1
41
1
41
1
41
1
10
296.5
20
17
30
0
10
296.5
20
17.246131818898768
30
0
10
296.5170661840757
20
17.73239125579591
30
0
10
296.59386115775681
20
18.443769448129476
30
0
10
296.7939968378094
20
19.359105956784525
30
0
10
297.18031175146814
20
20.464334153757999
30
0
10
297.66623607088121
20
21.552123942532617
30
0
10
298.20872075537289
20
22.645980774904903
30
0
10
298.75968611407183
20
23.76827223836824
30
0
10
299.26723462881932
20
24.937764468854667
30
0
10
299.68003798505504
20
26.170715944251626
30
0
10
299.89749024524934
20
27.218727462031232
30
0
10
299.98136123282268
20
28.043956730361053
30
0
10
300
20
28.61213950767468
30
0
10
300
20
28.900738657076843
30
0
0
LINE
5
115
100
AcDbEntity
8
0
100
AcDbLine
10
300
20
28.900738657076847
30
0
11
300
21
80.000000000000114
31
0
0
LINE
5
116
100
AcDbEntity
8
0
100
AcDbLine
10
300
20
80.000000000000114
30
0
11
267.99999999999994
21
80.000000000000085
31
0
0
LINE
5
117
100
AcDbEntity
8
0
100
AcDbLine
10
267.99999999999994
20
80.000000000000085
30
0
11
267.99999999999994
21
24.000000000000128
31
0
0
ARC
5
118
100
AcDbEntity
8
0
100
AcDbCircle
10
259
20
24.000000000000071
30
0
40
8.9999999999999503
210
0
220
0
230
1
100
AcDbArc
50
-90.000000000000369
51
0
0
LINE
5
119
100
AcDbEntity
8
0
100
AcDbLine
10
258.99999999999994
20
15.000000000000121
30
0
11
221
21
15.000000000000139
31
0
0
ARC
5
120
100
AcDbEntity
8
0
100
AcDbCircle
10
220.99999999999997
20
24.000000000000089
30
0
40
8.9999999999999503
210
0
220
0
230
1
100
AcDbArc
50
180
51
270.00000000000023
0
LINE
5
121
100
AcDbEntity
8
0
100
AcDbLine
10
212.00000000000003
20
24.00000000000011
30
0
11
212
21
40.000000000000071
31
0
0
LINE
5
122
100
AcDbEntity
8
0
100
AcDbLine
10
212
20
40.000000000000071
30
0
11
205.99999999999997
21
40.000000000000071
31
0
0
LINE
5
123
100
AcDbEntity
8
0
100
AcDbLine
10
205.99999999999997
20
40.000000000000071
30
0
11
205.99999999999997
21
60.000000000000071
31
0
0
LINE
5
124
100
AcDbEntity
8
0
100
AcDbLine
10
205.99999999999997
20
60.000000000000071
30
0
11
212
21
60.000000000000071
31
0
0
LINE
5
125
100
AcDbEntity
8
0
100
AcDbLine
10
212
20
60.000000000000071
30
0
11
211.99999999999994
21
80.000000000000028
31
0
0
LINE
5
126
100
AcDbEntity
8
0
100
AcDbLine
10
211.99999999999994
20
80.000000000000028
30
0
11
206.00000000000034
21
80.000000000000028
31
0
0
LINE
5
127
100
AcDbEntity
8
0
100
AcDbLine
10
206.00000000000034
20
80.000000000000028
30
0
11
206.00000000000054
21
78.84615384615374
31
0
0
LINE
5
128
100
AcDbEntity
8
0
100
AcDbLine
10
206.00000000000054
20
78.84615384615374
30
0
11
200.00000000000068
21
78.846153846153939
31
0
0
LINE
5
129
100
AcDbEntity
8
0
100
AcDbLine
10
200.00000000000068
20
78.846153846153939
30
0
11
160
21
70.000000000000114
31
0
0
LINE
5
130
100
AcDbEntity
8
0
100
AcDbLine
10
160
20
70.000000000000114
30
0
11
153.99999999999966
21
70
31
0
0
LINE
5
131
100
AcDbEntity
8
0
100
AcDbLine
10
153.99999999999966
20
70
30
0
11
154
21
67.228471413257267
31
0
0
LINE
5
132
100
AcDbEntity
8
0
100
AcDbLine
10
154
20
67.228471413257267
30
0
11
148
21
67.228471413257267
31
0
0
LINE
5
133
100
AcDbEntity
8
0
100
AcDbLine
10
148
20
67.228471413257267
30
0
11
86.968174784087608
21
39.036563365424314
31
0
0
ARC
5
134
100
AcDbEntity
8
0
100
AcDbCircle
10
105
20
-4.4408920985006262e-15
30
0
40
43
210
0
220
0
230
1
100
AcDbArc
50
-114.79322714940352
51
114.79322714940351
0
LINE
5
135
100
AcDbEntity
8
0
100
AcDbLine
10
86.968174784087608
20
-39.0365633654243
30
0
11
148
21
-67.228471413257267
31
0
0
LINE
5
136
100
AcDbEntity
8
0
100
AcDbLine
10
148
20
-67.228471413257267
30
0
11
154
21
-67.228471413257267
31
0
0
LINE
5
137
100
AcDbEntity
8
0
100
AcDbLine
10
154
20
-67.228471413257267
30
0
11
153.99999999999966
21
-70
31
0
0
LINE
5
138
100
AcDbEntity
8
0
100
AcDbLine
10
153.99999999999966
20
-70
30
0
11
160
21
-70.000000000000114
31
0
0
LINE
5
139
100
AcDbEntity
8
0
100
AcDbLine
10
160
20
-70.000000000000114
30
0
11
200.00000000000068
21
-78.846153846153939
31
0
0
LINE
5
140
100
AcDbEntity
8
0
100
AcDbLine
10
200.00000000000068
20
-78.846153846153939
30
0
11
206.00000000000054
21
-78.84615384615374
31
0
0
LINE
5
141
100
AcDbEntity
8
0
100
AcDbLine
10
206.00000000000054
20
-78.84615384615374
30
0
11
206.00000000000034
21
-80.000000000000028
31
0
0
LINE
5
142
100
AcDbEntity
8
0
100
AcDbLine
10
206.00000000000034
20
-80.000000000000028
30
0
11
211.99999999999994
21
-80.000000000000028
31
0
0
LINE
5
143
100
AcDbEntity
8
0
100
AcDbLine
10
211.99999999999994
20
-80.000000000000028
30
0
11
212
21
-59.999999999999929
31
0
0
LINE
5
144
100
AcDbEntity
8
0
100
AcDbLine
10
212
20
-59.999999999999929
30
0
11
205.99999999999997
21
-59.999999999999929
31
0
0
LINE
5
145
100
AcDbEntity
8
0
100
AcDbLine
10
205.99999999999997
20
-59.999999999999929
30
0
11
205.99999999999997
21
-39.999999999999929
31
0
0
LINE
5
146
100
AcDbEntity
8
0
100
AcDbLine
10
205.99999999999997
20
-39.999999999999929
30
0
11
212
21
-39.999999999999929
31
0
0
LINE
5
147
100
AcDbEntity
8
0
100
AcDbLine
10
212
20
-39.999999999999929
30
0
11
212.00000000000003
21
-24.000000000000057
31
0
0
ARC
5
148
100
AcDbEntity
8
0
100
AcDbCircle
10
220.99999999999997
20
-24.000000000000028
30
0
40
8.9999999999999503
210
0
220
-0
230
1
100
AcDbArc
50
89.999999999999815
51
180
0
LINE
5
149
100
AcDbEntity
8
0
100
AcDbLine
10
221
20
-15.00000000000008
30
0
11
258.99999999999994
21
-15.000000000000124
31
0
0
ARC
5
150
100
AcDbEntity
8
0
100
AcDbCircle
10
258.99999999999989
20
-24.000000000000131
30
0
40
9.0000000000000213
210
0
220
-0
230
1
100
AcDbArc
50
0
51
89.999999999999645
0
CIRCLE
5
151
100
AcDbEntity
8
0
100
AcDbCircle
10
178.99999999999994
20
-59.99999999999892
30
0
40
1.0500000000000043
210
0
220
0
230
1
0
CIRCLE
5
152
100
AcDbEntity
8
0
100
AcDbCircle
10
172.99999999999997
20
44.000000000001251
30
0
40
1.0500000000000043
210
0
220
0
230
1
0
CIRCLE
5
153
100
AcDbEntity
8
0
100
AcDbCircle
10
163.00000000000864
20
5.8597571239715762e-12
30
0
40
1.4999999999999858
210
0
220
0
230
1
0
LWPOLYLINE
5
154
100
AcDbEntity
8
0
100
AcDbPolyline
90
6
70
1
43
0.0
10
160.00000000000222
20
-49.999999999994145
10
160.00000000000347
20
-39.999999999994145
10
154.0000000000035
20
-39.999999999993371
10
154.00000000000477
20
-30.000000000013543
10
148.00000000000477
20
-30.000000000012776
10
148.00000000000222
20
-50.000000000012776
0
LWPOLYLINE
5
155
100
AcDbEntity
8
0
100
AcDbPolyline
90
4
70
1
43
0.0
10
200
20
-29.999999999998685
10
200
20
-35.999999999998685
10
206
20
-35.999999999998685
10
206
20
-29.999999999998685
0
LWPOLYLINE
5
156
100
AcDbEntity
8
0
100
AcDbPolyline
90
4
70
1
43
0.0
10
274
20
6.0000000000001119
10
274
20
17.000000000000117
10
268
20
17.000000000000117
10
268
20
6.0000000000001119
0
LWPOLYLINE
5
157
100
AcDbEntity
8
0
100
AcDbPolyline
90
4
70
1
43
0.0
10
205.99999999999997
20
10.000000000000071
10
205.99999999999997
20
-9.9999999999999289
10
212
20
-9.9999999999999289
10
212
20
10.000000000000071
0
LWPOLYLINE
5
158
100
AcDbEntity
8
0
100
AcDbPolyline
90
4
70
1
43
0.0
10
154.00000000000927
20
5.0000000000066294
10
154.00000000000799
20
-4.9999999999933706
10
160.00000000000799
20
-4.9999999999941398
10
160.00000000000927
20
5.0000000000058602
0
CIRCLE
5
159
100
AcDbEntity
8
0
100
AcDbCircle
10
163.00000000000864
20
30.000000000005862
30
0
40
1.4999999999999858
210
0
220
0
230
1
0
CIRCLE
5
160
100
AcDbEntity
8
0
100
AcDbCircle
10
189
20
44.000000000001251
30
0
40
1.0500000000000043
210
0
220
0
230
1
0
CIRCLE
5
161
100
AcDbEntity
8
0
100
AcDbCircle
10
194.99999999999997
20
-59.99999999999892
30
0
40
1.0500000000000043
210
0
220
0
230
1
0
CIRCLE
5
162
100
AcDbEntity
8
0
100
AcDbCircle
10
194.99999999999997
20
-43.999999999998884
30
0
40
1.0500000000000043
210
0
220
0
230
1
0
CIRCLE
5
163
100
AcDbEntity
8
0
100
AcDbCircle
10
189
20
60.000000000001279
30
0
40
1.0500000000000043
210
0
220
0
230
1
0
CIRCLE
5
164
100
AcDbEntity
8
0
100
AcDbCircle
10
163.00000000000864
20
-29.999999999994138
30
0
40
1.4999999999999858
210
0
220
0
230
1
0
LWPOLYLINE
5
165
100
AcDbEntity
8
0
100
AcDbPolyline
90
4
70
1
43
0.0
10
200
20
72.999999999998749
10
200
20
67.999999999998749
10
206
20
67.999999999998749
10
206
20
72.999999999998749
0
LWPOLYLINE
5
166
100
AcDbEntity
8
0
100
AcDbPolyline
90
4
70
1
43
0.0
10
200
20
-67.99999999999865
10
200
20
-72.99999999999865
10
206
20
-72.99999999999865
10
206
20
-67.99999999999865
0
LWPOLYLINE
5
167
100
AcDbEntity
8
0
100
AcDbPolyline
90
4
70
1
43
0.0
10
274
20
-17.000000000000107
10
274
20
-6.000000000000103
10
268
20
-6.000000000000103
10
268
20
-17.000000000000107
0
LWPOLYLINE
5
168
100
AcDbEntity
8
0
100
AcDbPolyline
90
4
70
1
43
0.0
10
200
20
35.999999999998792
10
200
20
29.999999999998792
10
206
20
29.999999999998792
10
206
20
35.999999999998792
0
LWPOLYLINE
5
169
100
AcDbEntity
8
0
100
AcDbPolyline
90
6
70
1
43
0.0
10
154.00000000001245
20
29.999999999989278
10
154.00000000001376
20
40.000000000006622
10
160.00000000001376
20
40.000000000005855
10
160.00000000001504
20
50.000000000005855
10
148.00000000001504
20
49.999999999990052
10
148.00000000001245
20
29.999999999990052
0
CIRCLE
5
170
100
AcDbEntity
8
0
100
AcDbCircle
10
172.99999999999997
20
60.000000000001279
30
0
40
1.0500000000000043
210
0
220
0
230
1
0
CIRCLE
5
171
100
AcDbEntity
8
0
100
AcDbCircle
10
178.99999999999994
20
-43.999999999998884
30
0
40
1.0500000000000043
210
0
220
0
230
1
0
ENDSEC
0
SECTION
2
OBJECTS
0
DICTIONARY
5
C
100
AcDbDictionary
3
ACAD_GROUP
350
D
3
ACAD_MLINESTYLE
350
17
0
DICTIONARY
5
D
100
AcDbDictionary
0
DICTIONARY
5
1A
330
C
100
AcDbDictionary
0
DICTIONARY
5
17
100
AcDbDictionary
0
ENDSEC
0
EOF
