0
SECTION
2
HEADER
9
$INSUNITS
70
4
9
$ACADVER
1
AC1014
9
$HANDSEED
5
FFFF
0
ENDSEC
0
SECTION
2
TABLES
0
TABLE
2
VPORT
5
8
100
AcDbSymbolTable
0
ENDTAB
0
TABLE
2
LTYPE
5
5
100
AcDbSymbolTable
0
LTYPE
5
14
100
AcDbSymbolTableRecord
100
AcDbLinetypeTableRecord
2
BYBLOCK
70
0
0
LTYPE
5
15
100
AcDbSymbolTableRecord
100
AcDbLinetypeTableRecord
2
BYLAYER
70
0
0
ENDTAB
0
TABLE
2
LAYER
5
2
100
AcDbSymbolTable
70
2
0
LAYER
5
50
100
AcDbSymbolTableRecord
100
AcDbLayerTableRecord
2
0
70
0
6
CONTINUOUS
0
ENDTAB
0
TABLE
2
STYLE
5
3
100
AcDbSymbolTable
70
1
0
STYLE
5
11
100
AcDbSymbolTableRecord
100
AcDbTextStyleTableRecord
2
STANDARD
70
0
0
ENDTAB
0
TABLE
2
VIEW
5
6
100
AcDbSymbolTable
70
0
0
ENDTAB
0
TABLE
2
UCS
5
7
100
AcDbSymbolTable
70
0
0
ENDTAB
0
TABLE
2
APPID
5
9
100
AcDbSymbolTable
70
2
0
APPID
5
12
100
AcDbSymbolTableRecord
100
AcDbRegAppTableRecord
2
ACAD
70
0
0
ENDTAB
0
TABLE
2
DIMSTYLE
5
A
100
AcDbSymbolTable
70
1
0
ENDTAB
0
TABLE
2
BLOCK_RECORD
5
1
100
AcDbSymbolTable
70
1
0
BLOCK_RECORD
5
1F
100
AcDbSymbolTableRecord
100
AcDbBlockTableRecord
2
*MODEL_SPACE
0
BLOCK_RECORD
5
1B
100
AcDbSymbolTableRecord
100
AcDbBlockTableRecord
2
*PAPER_SPACE
0
ENDTAB
0
ENDSEC
0
SECTION
2
BLOCKS
0
BLOCK
5
20
100
AcDbEntity
100
AcDbBlockBegin
2
*MODEL_SPACE
0
ENDBLK
5
21
100
AcDbEntity
100
AcDbBlockEnd
0
BLOCK
5
1C
100
AcDbEntity
100
AcDbBlockBegin
2
*PAPER_SPACE
0
ENDBLK
5
1D
100
AcDbEntity
100
AcDbBlockEnd
0
ENDSEC
0
SECTION
2
ENTITIES
0
LWPOLYLINE
5
100
100
AcDbEntity
8
0
100
AcDbPolyline
90
38
70
1
43
0.0
10
55.925928863833825
20
69.000000000000696
10
55.925928863833825
20
72.000000000000696
10
65.925928863833832
20
72.00000000000081
10
67.832514686172729
20
61.187214488229515
10
75.833507512243003
20
52.243830688057827
10
81.472561099046345
20
43.985436495167804
10
84.030140423510588
20
34.318027948971263
10
84.757120691839717
20
24.344487971136918
10
83.241745133802141
20
14.459972964415435
10
80.000000000000114
20
5.0000000000000178
10
80.000000000000028
20
11
10
59.999999999999929
20
10.999999999999773
10
59.999999999999929
20
4.9999999999997708
10
39.999999999999929
20
4.9999999999997708
10
39.999999999999929
20
10.999999999999773
10
9.9999999999999289
20
10.999999999999089
10
9.9999999999999289
20
4.9999999999997673
10
-10.000000000000071
20
4.9999999999997673
10
-10.000000000000071
20
10.999999999999089
10
-40.000000000000071
20
10.999999999999773
10
-40.000000000000071
20
4.9999999999997708
10
-60.000000000000071
20
4.9999999999997708
10
-60.000000000000071
20
10.999999999999773
10
-80.000000000000171
20
10.999999999998176
10
-80.000000000000114
20
4.999999999998197
10
-83.241745133802354
20
14.459972964413543
10
-84.757120691840186
20
24.344487971134996
10
-84.030140423511256
20
34.318027948969359
10
-81.47256109904724
20
43.985436495165956
10
-75.833507512244068
20
52.243830688056107
10
-67.832514686173994
20
61.187214488227973
10
-65.925928863835338
20
71.999999999999304
10
-55.925928863833967
20
72.000000000000696
10
-55.925928863833967
20
69.000000000000696
42
0.99999999999999989
10
-49.925928863833953
20
69.000000000000696
10
-49.925928863833953
20
72.000000000001336
10
49.925928863833811
20
72.000000000001336
10
49.925928863833811
20
69.000000000000696
42
0.99999999999999989
0
LWPOLYLINE
5
101
100
AcDbEntity
8
0
100
AcDbPolyline
90
8
70
1
43
0.0
10
-35.999999999998749
20
29.999999999999353
10
-35.999999999998742
20
40.199999999999761
42
0.99999999999999989
10
-40.999999999998742
20
40.199999999999783
10
-40.999999999998735
20
24.999999999999346
42
0.41421356237309503
10
-38.499999999998742
20
22.499999999999346
10
-19.999999999998739
20
22.499999999999318
42
0.99999999999999989
10
-19.999999999998739
20
27.499999999999325
10
-33.499999999998749
20
27.499999999999346
42
-0.41421356237309398
0
LWPOLYLINE
5
102
100
AcDbEntity
8
0
100
AcDbPolyline
90
12
70
1
43
0.0
10
19.999999999998597
20
22.499999999999321
10
38.4999999999986
20
22.499999999999343
42
0.41421356237309398
10
40.9999999999986
20
24.999999999999346
10
40.999999999998494
20
35.199999999999783
42
-0.41421356237309503
10
43.499999999998494
20
37.699999999999783
10
70.499999999998607
20
37.699999999999804
42
0.99999999999999989
10
70.499999999998607
20
42.699999999999804
10
38.4999999999986
20
42.699999999999761
42
0.41421356237309193
10
35.999999999998607
20
40.199999999999783
10
35.999999999998607
20
29.999999999999346
42
-0.41421356237309398
10
33.499999999998607
20
27.499999999999343
10
19.999999999998597
20
27.499999999999321
42
0.99999999999999989
0
CIRCLE
5
103
100
AcDbEntity
8
0
100
AcDbCircle
10
-4.3520742565306136e-13
20
41.499999999999623
30
0
40
1.5000000000000002
210
0
220
-0
230
1
0
CIRCLE
5
104
100
AcDbEntity
8
0
100
AcDbCircle
10
-4.2075433175943691e-13
20
57.000000000000064
30
0
40
1.5000000000000002
210
0
220
-0
230
1
0
ENDSEC
0
SECTION
2
OBJECTS
0
DICTIONARY
5
C
100
AcDbDictionary
3
ACAD_GROUP
350
D
3
ACAD_MLINESTYLE
350
17
0
DICTIONARY
5
D
100
AcDbDictionary
0
DICTIONARY
5
1A
330
C
100
AcDbDictionary
0
DICTIONARY
5
17
100
AcDbDictionary
0
ENDSEC
0
EOF
