0
SECTION
2
HEADER
9
$INSUNITS
70
4
9
$ACADVER
1
AC1014
9
$HANDSEED
5
FFFF
0
ENDSEC
0
SECTION
2
TABLES
0
TABLE
2
VPORT
5
8
100
AcDbSymbolTable
0
ENDTAB
0
TABLE
2
LTYPE
5
5
100
AcDbSymbolTable
0
LTYPE
5
14
100
AcDbSymbolTableRecord
100
AcDbLinetypeTableRecord
2
BYBLOCK
70
0
0
LTYPE
5
15
100
AcDbSymbolTableRecord
100
AcDbLinetypeTableRecord
2
BYLAYER
70
0
0
ENDTAB
0
TABLE
2
LAYER
5
2
100
AcDbSymbolTable
70
2
0
LAYER
5
50
100
AcDbSymbolTableRecord
100
AcDbLayerTableRecord
2
0
70
0
6
CONTINUOUS
0
ENDTAB
0
TABLE
2
STYLE
5
3
100
AcDbSymbolTable
70
1
0
STYLE
5
11
100
AcDbSymbolTableRecord
100
AcDbTextStyleTableRecord
2
STANDARD
70
0
0
ENDTAB
0
TABLE
2
VIEW
5
6
100
AcDbSymbolTable
70
0
0
ENDTAB
0
TABLE
2
UCS
5
7
100
AcDbSymbolTable
70
0
0
ENDTAB
0
TABLE
2
APPID
5
9
100
AcDbSymbolTable
70
2
0
APPID
5
12
100
AcDbSymbolTableRecord
100
AcDbRegAppTableRecord
2
ACAD
70
0
0
ENDTAB
0
TABLE
2
DIMSTYLE
5
A
100
AcDbSymbolTable
70
1
0
ENDTAB
0
TABLE
2
BLOCK_RECORD
5
1
100
AcDbSymbolTable
70
1
0
BLOCK_RECORD
5
1F
100
AcDbSymbolTableRecord
100
AcDbBlockTableRecord
2
*MODEL_SPACE
0
BLOCK_RECORD
5
1B
100
AcDbSymbolTableRecord
100
AcDbBlockTableRecord
2
*PAPER_SPACE
0
ENDTAB
0
ENDSEC
0
SECTION
2
BLOCKS
0
BLOCK
5
20
100
AcDbEntity
100
AcDbBlockBegin
2
*MODEL_SPACE
0
ENDBLK
5
21
100
AcDbEntity
100
AcDbBlockEnd
0
BLOCK
5
1C
100
AcDbEntity
100
AcDbBlockBegin
2
*PAPER_SPACE
0
ENDBLK
5
1D
100
AcDbEntity
100
AcDbBlockEnd
0
ENDSEC
0
SECTION
2
ENTITIES
0
CIRCLE
5
100
100
AcDbEntity
8
0
100
AcDbCircle
10
48.000000000024613
20
55.999999999998813
30
0
40
1.4999999999999947
210
0
220
-0
230
1
0
CIRCLE
5
101
100
AcDbEntity
8
0
100
AcDbCircle
10
48.000000000024613
20
20.999999999998813
30
0
40
1.5000000000000036
210
0
220
-0
230
1
0
LWPOLYLINE
5
102
100
AcDbEntity
8
0
100
AcDbPolyline
90
4
70
1
43
0.0
10
-65.046797163487497
20
32.36593133640342
10
-70.046797163487497
20
32.36593133640342
10
-70.046797163487497
20
22.365931336403424
10
-65.046797163487497
20
22.365931336403424
0
LWPOLYLINE
5
103
100
AcDbEntity
8
0
100
AcDbPolyline
90
4
70
1
43
0.0
10
70.046797163540532
20
32.365931336403101
10
65.046797163540532
20
32.365931336403122
10
65.046797163540475
20
22.365931336403122
10
70.046797163540475
20
22.365931336403094
0
CIRCLE
5
104
100
AcDbEntity
8
0
100
AcDbCircle
10
-47.999999999986485
20
55.999999999998813
30
0
40
1.4999999999999947
210
0
220
-0
230
1
0
CIRCLE
5
105
100
AcDbEntity
8
0
100
AcDbCircle
10
-47.999999999986485
20
20.999999999998813
30
0
40
1.5000000000000036
210
0
220
-0
230
1
0
ELLIPSE
5
106
100
AcDbEntity
8
0
100
AcDbEllipse
10
-11.996921593568359
20
82.671622504090834
30
0
11
-1.500000033432527
21
-8.4385282113463109e-18
31
0.0
40
0.99999997771164872
41
0
42
6.2831853071795862
0
ELLIPSE
5
107
100
AcDbEntity
8
0
100
AcDbEllipse
10
12.003078941352088
20
82.671622504090863
30
0
11
-1.500000033432527
21
-8.4385282113463109e-18
31
0.0
40
0.99999997771164872
41
0
42
6.2831853071795862
0
LWPOLYLINE
5
108
100
AcDbEntity
8
0
100
AcDbPolyline
90
52
70
1
43
0.0
10
21.989654044131921
20
14.99999999997498
42
-0.99999999999999989
10
25.989654044130237
20
14.999999999973861
10
25.989654044129669
20
10.999999999973863
10
30.000000000009386
20
10.999999999972736
10
30.000000000009113
20
4.9999999999745608
10
50.000000000009109
20
4.9999999999689537
10
50.000000000010786
20
10.999999999967127
10
67.228471413256202
20
10.999999999962302
10
67.228471413252834
20
4.9999999999623057
10
68.634030886180625
20
4.9999999999615223
10
73.833792540396843
20
18.060384985640781
10
75.225529918209105
20
17.50628932476884
10
75.996385787637394
20
33.755567343944804
10
76.654551311048436
20
33.724344371688559
10
71.564279908489141
20
49.103602195245905
10
71.426199563934659
20
49.05789996193888
10
64.066742951377861
20
57.284184684057493
10
64.222438394266021
20
57.423474034646951
10
61.601306323802163
20
72.288652692733621
10
57.169671435246826
20
71.507235893234764
10
55.606837836249319
20
80.370505670345523
10
60.038472724804691
20
81.151922469844337
10
58.301990948140805
20
90.999999999967386
10
-58.30199094807719
20
91.000000000000071
10
-60.038472724746583
20
81.151922469878002
10
-55.606837836191659
20
80.370505670376701
10
-57.169671435194132
20
71.507235893266824
10
-61.601306323749029
20
72.288652692768181
10
-64.222438394221243
20
57.423474034682954
10
-64.066742951333154
20
57.284184684093404
10
-71.426199563894556
20
49.057899961978919
10
-71.564279908449024
20
49.103602195286022
10
-76.654551311016931
20
33.724344371731526
10
-75.996385787605874
20
33.755567343987401
10
-75.225529918186695
20
17.506289324811007
10
-73.833792540374134
20
18.060384985682173
10
-68.634030886165235
20
5
10
-67.228471413237429
20
5
10
-67.228471413237457
20
11
10
-49.999999999992028
20
10.999999999995172
10
-49.999999999993712
20
4.999999999996998
10
-29.999999999993715
20
4.9999999999913864
10
-29.999999999990624
20
10.999999999989562
10
-25.98965404411091
20
10.999999999988439
10
-25.989654044109791
20
14.999999999988438
42
-0.99999999999999989
10
-21.989654044110356
20
14.999999999987319
10
-21.989654044110939
20
30.999999999999943
10
-18.989654110975991
20
30.999999999999979
10
-18.989654110975966
20
10.999999999999979
10
18.989654111015625
20
10.999999999999979
10
18.989654111015646
20
30.999999999999979
10
21.989654044150594
20
30.999999999999943
0
LWPOLYLINE
5
109
100
AcDbEntity
8
0
100
AcDbPolyline
90
4
70
1
43
0.0
10
18.989654111015714
20
82.999999999967301
10
18.989654111015689
20
62.999999999967301
10
21.989654044150633
20
62.999999999967287
10
21.989654044150658
20
82.999999999967287
0
LWPOLYLINE
5
110
100
AcDbEntity
8
0
100
AcDbPolyline
90
4
70
1
43
0.0
10
-18.98965411097603
20
62.999999999967301
10
-18.989654110976055
20
82.999999999967301
10
-21.989654044110999
20
82.999999999967287
10
-21.989654044110978
20
62.999999999967287
0
ENDSEC
0
SECTION
2
OBJECTS
0
DICTIONARY
5
C
100
AcDbDictionary
3
ACAD_GROUP
350
D
3
ACAD_MLINESTYLE
350
17
0
DICTIONARY
5
D
100
AcDbDictionary
0
DICTIONARY
5
1A
330
C
100
AcDbDictionary
0
DICTIONARY
5
17
100
AcDbDictionary
0
ENDSEC
0
EOF
