0
SECTION
2
HEADER
9
$INSUNITS
70
4
9
$ACADVER
1
AC1014
9
$HANDSEED
5
FFFF
0
ENDSEC
0
SECTION
2
TABLES
0
TABLE
2
VPORT
5
8
100
AcDbSymbolTable
0
ENDTAB
0
TABLE
2
LTYPE
5
5
100
AcDbSymbolTable
0
LTYPE
5
14
100
AcDbSymbolTableRecord
100
AcDbLinetypeTableRecord
2
BYBLOCK
70
0
0
LTYPE
5
15
100
AcDbSymbolTableRecord
100
AcDbLinetypeTableRecord
2
BYLAYER
70
0
0
ENDTAB
0
TABLE
2
LAYER
5
2
100
AcDbSymbolTable
70
2
0
LAYER
5
50
100
AcDbSymbolTableRecord
100
AcDbLayerTableRecord
2
0
70
0
6
CONTINUOUS
0
ENDTAB
0
TABLE
2
STYLE
5
3
100
AcDbSymbolTable
70
1
0
STYLE
5
11
100
AcDbSymbolTableRecord
100
AcDbTextStyleTableRecord
2
STANDARD
70
0
0
ENDTAB
0
TABLE
2
VIEW
5
6
100
AcDbSymbolTable
70
0
0
ENDTAB
0
TABLE
2
UCS
5
7
100
AcDbSymbolTable
70
0
0
ENDTAB
0
TABLE
2
APPID
5
9
100
AcDbSymbolTable
70
2
0
APPID
5
12
100
AcDbSymbolTableRecord
100
AcDbRegAppTableRecord
2
ACAD
70
0
0
ENDTAB
0
TABLE
2
DIMSTYLE
5
A
100
AcDbSymbolTable
70
1
0
ENDTAB
0
TABLE
2
BLOCK_RECORD
5
1
100
AcDbSymbolTable
70
1
0
BLOCK_RECORD
5
1F
100
AcDbSymbolTableRecord
100
AcDbBlockTableRecord
2
*MODEL_SPACE
0
BLOCK_RECORD
5
1B
100
AcDbSymbolTableRecord
100
AcDbBlockTableRecord
2
*PAPER_SPACE
0
ENDTAB
0
ENDSEC
0
SECTION
2
BLOCKS
0
BLOCK
5
20
100
AcDbEntity
100
AcDbBlockBegin
2
*MODEL_SPACE
0
ENDBLK
5
21
100
AcDbEntity
100
AcDbBlockEnd
0
BLOCK
5
1C
100
AcDbEntity
100
AcDbBlockBegin
2
*PAPER_SPACE
0
ENDBLK
5
1D
100
AcDbEntity
100
AcDbBlockEnd
0
ENDSEC
0
SECTION
2
ENTITIES
0
CIRCLE
5
100
100
AcDbEntity
8
0
100
AcDbCircle
10
-47.977774932059958
20
46.789759262110366
30
0
40
1.5000000000002696
210
-4.6322114302969303e-23
220
-4.8605977217590883e-30
230
1
0
CIRCLE
5
101
100
AcDbEntity
8
0
100
AcDbCircle
10
-47.977772799924836
20
26.470240466123709
30
0
40
1.5000000000002696
210
-4.6322114302969303e-23
220
-4.8605977217590883e-30
230
1
0
CIRCLE
5
102
100
AcDbEntity
8
0
100
AcDbCircle
10
47.977806874107984
20
46.789764296438889
30
0
40
1.500000000000004
210
-8.6320892545587404e-25
220
-2.775557561562891e-17
230
1
0
CIRCLE
5
103
100
AcDbEntity
8
0
100
AcDbCircle
10
47.977806874107969
20
26.470245500452116
30
0
40
1.500000000000004
210
-8.6320892545587404e-25
220
-2.775557561562891e-17
230
1
0
CIRCLE
5
104
100
AcDbEntity
8
0
100
AcDbCircle
10
-35.539733754271246
20
65.5529090044122
30
8.8817841970012523e-15
40
1.5000000000000697
210
4.8174634559934893e-23
220
2.775557561563149e-17
230
1
0
CIRCLE
5
105
100
AcDbEntity
8
0
100
AcDbCircle
10
35.539763727503122
20
65.552912733613184
30
-8.8817841970012523e-15
40
1.5000000000000697
210
4.8174634559934893e-23
220
2.775557561563149e-17
230
1
0
LWPOLYLINE
5
106
100
AcDbEntity
8
0
100
AcDbPolyline
90
4
70
1
43
0.0
10
-19.01200221744401
20
40.249357019235191
10
-19.012737434913557
20
60.24935652339871
10
-22.012737367857007
20
60.249246377966216
10
-22.012002150387453
20
40.249246873802676
0
LWPOLYLINE
5
107
100
AcDbEntity
8
0
100
AcDbPolyline
90
4
70
1
43
0.0
10
19.01129815824633
20
20.249359509933079
10
19.010565041998468
20
0.24936000569252936
10
22.010564975324659
20
0.24925017505117442
10
22.011298091572513
20
20.249249679291729
0
LWPOLYLINE
5
108
100
AcDbEntity
8
0
100
AcDbPolyline
90
4
70
1
43
0.0
10
19.012764390742049
20
60.249358518414191
10
19.012031274494191
20
40.249359014173635
10
22.012031207820382
20
40.249249183532292
10
22.012764324068236
20
60.249248687772841
0
LWPOLYLINE
5
109
100
AcDbEntity
8
0
100
AcDbPolyline
90
4
70
1
43
0.0
10
-19.010531782504913
20
0.24935801090818055
10
-19.01126699997446
20
20.24935751507169
10
-22.011266932917906
20
20.249247369639171
10
-22.010531715448352
20
0.24924786547564776
0
LWPOLYLINE
5
110
100
AcDbEntity
8
0
100
AcDbPolyline
90
30
70
1
43
0.0
10
-60.786902924968402
20
45.327088419612963
10
-59.871014660656883
20
47.668898594763661
10
-55.937791655898046
20
69.357851749711543
10
55.937829120641553
20
69.357851749711884
10
59.871052125400453
20
47.668898594763682
10
60.786940389711965
20
45.327088419612984
10
61.080871235424368
20
44.997276899956731
10
62.761946349392197
20
37.456042216518433
10
63.309431525529511
20
37.225417563926236
10
63.566239159093705
20
36.474424438686412
10
60.725487896132002
20
25.876368802978881
10
60.604223596220059
20
25.156441940651071
10
60.599625511418232
20
24.916765237126839
10
55.530576524644289
20
16.425315457526818
10
54.930461481021553
20
16.119811055266982
10
54.826657638617291
20
15.825211712785347
10
29.148265031119919
20
-1.6522354517000692
10
23.611292993415532
20
-5.8421482502881341
10
-23.61125552867194
20
-5.8421482502881332
10
-29.148227566376338
20
-1.6522354517000859
10
-54.826620173873749
20
15.825211712785343
10
-54.930424016277968
20
16.119811055266958
10
-55.530539059900732
20
16.425315457526796
10
-60.599588046674668
20
24.91676523712681
10
-60.604186131476496
20
25.15644194065105
10
-60.725450431388445
20
25.876368802978853
10
-63.566201694350148
20
36.474424438686384
10
-63.309394060785934
20
37.225417563926214
10
-62.761908884648676
20
37.456042216518384
10
-61.080833770680833
20
44.997276899956695
0
ENDSEC
0
SECTION
2
OBJECTS
0
DICTIONARY
5
C
100
AcDbDictionary
3
ACAD_GROUP
350
D
3
ACAD_MLINESTYLE
350
17
0
DICTIONARY
5
D
100
AcDbDictionary
0
DICTIONARY
5
1A
330
C
100
AcDbDictionary
0
DICTIONARY
5
17
100
AcDbDictionary
0
ENDSEC
0
EOF
