0
SECTION
2
HEADER
9
$INSUNITS
70
4
9
$ACADVER
1
AC1014
9
$HANDSEED
5
FFFF
0
ENDSEC
0
SECTION
2
TABLES
0
TABLE
2
VPORT
5
8
100
AcDbSymbolTable
0
ENDTAB
0
TABLE
2
LTYPE
5
5
100
AcDbSymbolTable
0
LTYPE
5
14
100
AcDbSymbolTableRecord
100
AcDbLinetypeTableRecord
2
BYBLOCK
70
0
0
LTYPE
5
15
100
AcDbSymbolTableRecord
100
AcDbLinetypeTableRecord
2
BYLAYER
70
0
0
ENDTAB
0
TABLE
2
LAYER
5
2
100
AcDbSymbolTable
70
2
0
LAYER
5
50
100
AcDbSymbolTableRecord
100
AcDbLayerTableRecord
2
0
70
0
6
CONTINUOUS
0
ENDTAB
0
TABLE
2
STYLE
5
3
100
AcDbSymbolTable
70
1
0
STYLE
5
11
100
AcDbSymbolTableRecord
100
AcDbTextStyleTableRecord
2
STANDARD
70
0
0
ENDTAB
0
TABLE
2
VIEW
5
6
100
AcDbSymbolTable
70
0
0
ENDTAB
0
TABLE
2
UCS
5
7
100
AcDbSymbolTable
70
0
0
ENDTAB
0
TABLE
2
APPID
5
9
100
AcDbSymbolTable
70
2
0
APPID
5
12
100
AcDbSymbolTableRecord
100
AcDbRegAppTableRecord
2
ACAD
70
0
0
ENDTAB
0
TABLE
2
DIMSTYLE
5
A
100
AcDbSymbolTable
70
1
0
ENDTAB
0
TABLE
2
BLOCK_RECORD
5
1
100
AcDbSymbolTable
70
1
0
BLOCK_RECORD
5
1F
100
AcDbSymbolTableRecord
100
AcDbBlockTableRecord
2
*MODEL_SPACE
0
BLOCK_RECORD
5
1B
100
AcDbSymbolTableRecord
100
AcDbBlockTableRecord
2
*PAPER_SPACE
0
ENDTAB
0
ENDSEC
0
SECTION
2
BLOCKS
0
BLOCK
5
20
100
AcDbEntity
100
AcDbBlockBegin
2
*MODEL_SPACE
0
ENDBLK
5
21
100
AcDbEntity
100
AcDbBlockEnd
0
BLOCK
5
1C
100
AcDbEntity
100
AcDbBlockBegin
2
*PAPER_SPACE
0
ENDBLK
5
1D
100
AcDbEntity
100
AcDbBlockEnd
0
ENDSEC
0
SECTION
2
ENTITIES
0
SPLINE
5
100
100
AcDbEntity
8
0
100
AcDbSpline
70
4
71
5
72
25
73
19
74
0
42
0.000000001
43
0.0000000001
44
0.0000000001
40
0.62790240525811092
40
0.62790240525811092
40
0.62790240525811092
40
0.62790240525811092
40
0.62790240525811092
40
0.62790240525811092
40
0.62857142857142867
40
0.65714285714285725
40
0.68571428571428583
40
0.71428571428571441
40
0.74285714285714299
40
0.77142857142857157
40
0.80000000000000016
40
0.82857142857142874
40
0.85714285714285732
40
0.8857142857142859
40
0.91428571428571448
40
0.94285714285714306
40
0.97142857142857164
40
1
40
1
40
1
40
1
40
1
40
1
41
1
41
1
41
1
41
1
41
1
41
1
41
1
41
1
41
1
41
1
41
1
41
1
41
1
41
1
41
1
41
1
41
1
41
1
41
1
10
50.015535098595699
20
3.9695338185002882
30
0
10
49.996050489128301
20
3.9734893056265252
30
0
10
49.144413267722307
20
4.1460644751347742
30
0
10
47.457354461728684
20
4.461087878512644
30
0
10
44.944413939240903
20
4.8668131056473722
30
1.7763568394002505e-14
10
41.679632657590048
20
5.3263682309517879
30
0
10
37.853303709457606
20
5.8575326503230718
30
0
10
34.265488264548701
20
6.3537073890669937
30
0
10
30.818329612382488
20
6.8097421415044899
30
0
10
27.366733752086397
20
7.2200119391385966
30
0
10
23.76504864211099
20
7.5768701603407127
30
0
10
19.91323585207185
20
7.8742970379474695
30
1.7763568394002505e-14
10
15.815495497246264
20
8.1097659006139704
30
0
10
11.590757205296669
20
8.2852053082036967
30
1.7763568394002505e-14
10
7.4127476054000816
20
8.4047835757950882
30
1.7763568394002505e-14
10
4.2566576580458069
20
8.459812063757111
30
0
10
2.0615409482230902
20
8.4801529461620699
30
1.7763568394002505e-14
10
0.68333661344530627
20
8.4846732161760556
30
0
10
0.015535098596127804
20
8.4846732161760734
30
0
0
SPLINE
5
101
100
AcDbEntity
8
0
100
AcDbSpline
70
4
71
5
72
25
73
19
74
0
42
0.000000001
43
0.0000000001
44
0.0000000001
40
-1
40
-1
40
-1
40
-1
40
-1
40
-1
40
-0.97142857142857164
40
-0.94285714285714306
40
-0.91428571428571448
40
-0.8857142857142859
40
-0.85714285714285732
40
-0.82857142857142874
40
-0.80000000000000016
40
-0.77142857142857157
40
-0.74285714285714299
40
-0.71428571428571441
40
-0.68571428571428583
40
-0.65714285714285725
40
-0.62857142857142867
40
-0.62790240525811081
40
-0.62790240525811081
40
-0.62790240525811081
40
-0.62790240525811081
40
-0.62790240525811081
40
-0.62790240525811081
41
1
41
1
41
1
41
1
41
1
41
1
41
1
41
1
41
1
41
1
41
1
41
1
41
1
41
1
41
1
41
1
41
1
41
1
41
1
10
0.015535098596128382
20
8.4846732161760734
30
0
10
-0.65226641625305004
20
8.4846732161760556
30
0
10
-2.0304707510308342
20
8.4801529461620699
30
1.7763568394002505e-14
10
-4.2255874608535509
20
8.459812063757111
30
0
10
-7.3816774082078265
20
8.4047835757950882
30
1.7763568394002505e-14
10
-11.559687008104412
20
8.2852053082036967
30
1.7763568394002505e-14
10
-15.784425300054004
20
8.1097659006139686
30
0
10
-19.882165654879589
20
7.8742970379474686
30
1.7763568394002505e-14
10
-23.733978444918733
20
7.5768701603407127
30
0
10
-27.335663554894154
20
7.2200119391385966
30
0
10
-30.787259415190235
20
6.8097421415044899
30
0
10
-34.234418067356451
20
6.3537073890669902
30
0
10
-37.822233512265356
20
5.8575326503230718
30
0
10
-41.648562460397791
20
5.3263682309517861
30
0
10
-44.913343742048639
20
4.866813105647374
30
1.7763568394002505e-14
10
-47.426284264536434
20
4.4610878785126413
30
0
10
-49.113343070530064
20
4.1460644751347697
30
1.7763568394002505e-14
10
-49.964980291936065
20
3.9734893056265186
30
1.7763568394002505e-14
10
-49.984464901403456
20
3.9695338185002771
30
0
0
LINE
5
102
100
AcDbEntity
8
0
100
AcDbLine
10
-49.984464901403463
20
3.9695338185002771
30
-1.4857586555975331e-29
11
-49.98446490140266
21
-91.515326783824605
31
0
0
LINE
5
103
100
AcDbEntity
8
0
100
AcDbLine
10
-49.98446490140266
20
-91.515326783824605
30
0
11
-29.491098658126795
21
-91.515326783824307
31
-7.3934734179217775e-20
0
LINE
5
104
100
AcDbEntity
8
0
100
AcDbLine
10
-29.491098658126795
20
-91.515326783824307
30
-7.3934734179217775e-20
11
-29.491098658127331
21
-49.508286629365088
31
-1.1102230246251565e-15
0
LINE
5
105
100
AcDbEntity
8
0
100
AcDbLine
10
-29.491098658127331
20
-49.508286629365088
30
-1.1102230246251565e-15
11
29.522168855319578
21
-49.508286629365116
31
1.776361697842917e-14
0
LINE
5
106
100
AcDbEntity
8
0
100
AcDbLine
10
29.522168855319578
20
-49.508286629365116
30
1.776361697842917e-14
11
29.522168855319073
21
-91.515326783824349
31
1.8873791418627661e-14
0
LINE
5
107
100
AcDbEntity
8
0
100
AcDbLine
10
29.522168855319073
20
-91.515326783824349
30
1.8873791418627661e-14
11
50.015535098594945
21
-91.515326783824577
31
3.3748159983750789e-20
0
LINE
5
108
100
AcDbEntity
8
0
100
AcDbLine
10
50.015535098594945
20
-91.515326783824577
30
3.3748159983750789e-20
11
50.015535098595699
21
3.9695338185002882
31
0
0
ELLIPSE
5
109
100
AcDbEntity
8
0
100
AcDbEllipse
10
4.0073750950845541
20
5.155757364355436
30
0
11
-0.00028069791940977417
21
1.3499999708180297
31
0.0
40
0.99999999932792316
41
0
42
6.2831853071795862
0
ENDSEC
0
SECTION
2
OBJECTS
0
DICTIONARY
5
C
100
AcDbDictionary
3
ACAD_GROUP
350
D
3
ACAD_MLINESTYLE
350
17
0
DICTIONARY
5
D
100
AcDbDictionary
0
DICTIONARY
5
1A
330
C
100
AcDbDictionary
0
DICTIONARY
5
17
100
AcDbDictionary
0
ENDSEC
0
EOF
