0
SECTION
2
HEADER
9
$INSUNITS
70
4
9
$ACADVER
1
AC1014
9
$HANDSEED
5
FFFF
0
ENDSEC
0
SECTION
2
TABLES
0
TABLE
2
VPORT
5
8
100
AcDbSymbolTable
0
ENDTAB
0
TABLE
2
LTYPE
5
5
100
AcDbSymbolTable
0
LTYPE
5
14
100
AcDbSymbolTableRecord
100
AcDbLinetypeTableRecord
2
BYBLOCK
70
0
0
LTYPE
5
15
100
AcDbSymbolTableRecord
100
AcDbLinetypeTableRecord
2
BYLAYER
70
0
0
ENDTAB
0
TABLE
2
LAYER
5
2
100
AcDbSymbolTable
70
2
0
LAYER
5
50
100
AcDbSymbolTableRecord
100
AcDbLayerTableRecord
2
0
70
0
6
CONTINUOUS
0
ENDTAB
0
TABLE
2
STYLE
5
3
100
AcDbSymbolTable
70
1
0
STYLE
5
11
100
AcDbSymbolTableRecord
100
AcDbTextStyleTableRecord
2
STANDARD
70
0
0
ENDTAB
0
TABLE
2
VIEW
5
6
100
AcDbSymbolTable
70
0
0
ENDTAB
0
TABLE
2
UCS
5
7
100
AcDbSymbolTable
70
0
0
ENDTAB
0
TABLE
2
APPID
5
9
100
AcDbSymbolTable
70
2
0
APPID
5
12
100
AcDbSymbolTableRecord
100
AcDbRegAppTableRecord
2
ACAD
70
0
0
ENDTAB
0
TABLE
2
DIMSTYLE
5
A
100
AcDbSymbolTable
70
1
0
ENDTAB
0
TABLE
2
BLOCK_RECORD
5
1
100
AcDbSymbolTable
70
1
0
BLOCK_RECORD
5
1F
100
AcDbSymbolTableRecord
100
AcDbBlockTableRecord
2
*MODEL_SPACE
0
BLOCK_RECORD
5
1B
100
AcDbSymbolTableRecord
100
AcDbBlockTableRecord
2
*PAPER_SPACE
0
ENDTAB
0
ENDSEC
0
SECTION
2
BLOCKS
0
BLOCK
5
20
100
AcDbEntity
100
AcDbBlockBegin
2
*MODEL_SPACE
0
ENDBLK
5
21
100
AcDbEntity
100
AcDbBlockEnd
0
BLOCK
5
1C
100
AcDbEntity
100
AcDbBlockBegin
2
*PAPER_SPACE
0
ENDBLK
5
1D
100
AcDbEntity
100
AcDbBlockEnd
0
ENDSEC
0
SECTION
2
ENTITIES
0
SPLINE
5
100
100
AcDbEntity
8
0
100
AcDbSpline
70
4
71
5
72
25
73
19
74
0
42
0.000000001
43
0.0000000001
44
0.0000000001
40
0.62790240525811092
40
0.62790240525811092
40
0.62790240525811092
40
0.62790240525811092
40
0.62790240525811092
40
0.62790240525811092
40
0.62857142857142867
40
0.65714285714285725
40
0.68571428571428583
40
0.71428571428571441
40
0.74285714285714299
40
0.77142857142857157
40
0.80000000000000016
40
0.82857142857142874
40
0.85714285714285732
40
0.8857142857142859
40
0.91428571428571448
40
0.94285714285714306
40
0.97142857142857164
40
1
40
1
40
1
40
1
40
1
40
1
41
1
41
1
41
1
41
1
41
1
41
1
41
1
41
1
41
1
41
1
41
1
41
1
41
1
41
1
41
1
41
1
41
1
41
1
41
1
10
50.015535098595699
20
3.9695338185002882
30
0
10
49.996050489128301
20
3.9734893056265252
30
0
10
49.144413267722307
20
4.1460644751347742
30
0
10
47.457354461728684
20
4.461087878512644
30
0
10
44.944413939240903
20
4.8668131056473722
30
1.7763568394002505e-14
10
41.679632657590048
20
5.3263682309517879
30
0
10
37.853303709457606
20
5.8575326503230718
30
0
10
34.265488264548701
20
6.3537073890669937
30
0
10
30.818329612382488
20
6.8097421415044899
30
0
10
27.366733752086397
20
7.2200119391385966
30
0
10
23.76504864211099
20
7.5768701603407127
30
0
10
19.91323585207185
20
7.8742970379474695
30
1.7763568394002505e-14
10
15.815495497246264
20
8.1097659006139704
30
0
10
11.590757205296669
20
8.2852053082036967
30
1.7763568394002505e-14
10
7.4127476054000816
20
8.4047835757950882
30
1.7763568394002505e-14
10
4.2566576580458069
20
8.459812063757111
30
0
10
2.0615409482230902
20
8.4801529461620699
30
1.7763568394002505e-14
10
0.68333661344530627
20
8.4846732161760556
30
0
10
0.015535098596127804
20
8.4846732161760734
30
0
0
SPLINE
5
101
100
AcDbEntity
8
0
100
AcDbSpline
70
4
71
5
72
25
73
19
74
0
42
0.000000001
43
0.0000000001
44
0.0000000001
40
-1
40
-1
40
-1
40
-1
40
-1
40
-1
40
-0.97142857142857164
40
-0.94285714285714306
40
-0.91428571428571448
40
-0.8857142857142859
40
-0.85714285714285732
40
-0.82857142857142874
40
-0.80000000000000016
40
-0.77142857142857157
40
-0.74285714285714299
40
-0.71428571428571441
40
-0.68571428571428583
40
-0.65714285714285725
40
-0.62857142857142867
40
-0.62790240525811081
40
-0.62790240525811081
40
-0.62790240525811081
40
-0.62790240525811081
40
-0.62790240525811081
40
-0.62790240525811081
41
1
41
1
41
1
41
1
41
1
41
1
41
1
41
1
41
1
41
1
41
1
41
1
41
1
41
1
41
1
41
1
41
1
41
1
41
1
10
0.015535098596128382
20
8.4846732161760734
30
0
10
-0.65226641625305004
20
8.4846732161760556
30
0
10
-2.0304707510308342
20
8.4801529461620699
30
1.7763568394002505e-14
10
-4.2255874608535509
20
8.459812063757111
30
0
10
-7.3816774082078265
20
8.4047835757950882
30
1.7763568394002505e-14
10
-11.559687008104412
20
8.2852053082036967
30
1.7763568394002505e-14
10
-15.784425300054004
20
8.1097659006139686
30
0
10
-19.882165654879589
20
7.8742970379474686
30
1.7763568394002505e-14
10
-23.733978444918733
20
7.5768701603407127
30
0
10
-27.335663554894154
20
7.2200119391385966
30
0
10
-30.787259415190235
20
6.8097421415044899
30
0
10
-34.234418067356451
20
6.3537073890669902
30
0
10
-37.822233512265356
20
5.8575326503230718
30
0
10
-41.648562460397791
20
5.3263682309517861
30
0
10
-44.913343742048639
20
4.866813105647374
30
1.7763568394002505e-14
10
-47.426284264536434
20
4.4610878785126413
30
0
10
-49.113343070530064
20
4.1460644751347697
30
1.7763568394002505e-14
10
-49.964980291936065
20
3.9734893056265186
30
1.7763568394002505e-14
10
-49.984464901403456
20
3.9695338185002771
30
0
0
LINE
5
102
100
AcDbEntity
8
0
100
AcDbLine
10
-49.984464901403463
20
3.9695338185002771
30
-1.4857586555975331e-29
11
-49.98446490140266
21
-91.515326783824605
31
0
0
LINE
5
103
100
AcDbEntity
8
0
100
AcDbLine
10
-49.98446490140266
20
-91.515326783824605
30
0
11
-29.491098658126795
21
-91.515326783824307
31
-7.3934734179217775e-20
0
LINE
5
104
100
AcDbEntity
8
0
100
AcDbLine
10
-29.491098658126795
20
-91.515326783824307
30
-7.3934734179217775e-20
11
-29.491098658127331
21
-49.508286629365088
31
-1.1102230246251565e-15
0
LINE
5
105
100
AcDbEntity
8
0
100
AcDbLine
10
-29.491098658127331
20
-49.508286629365088
30
-1.1102230246251565e-15
11
29.522168855319578
21
-49.508286629365116
31
1.776361697842917e-14
0
LINE
5
106
100
AcDbEntity
8
0
100
AcDbLine
10
29.522168855319578
20
-49.508286629365116
30
1.776361697842917e-14
11
29.522168855319073
21
-91.515326783824349
31
1.8873791418627661e-14
0
LINE
5
107
100
AcDbEntity
8
0
100
AcDbLine
10
29.522168855319073
20
-91.515326783824349
30
1.8873791418627661e-14
11
50.015535098594945
21
-91.515326783824577
31
3.3748159983750789e-20
0
LINE
5
108
100
AcDbEntity
8
0
100
AcDbLine
10
50.015535098594945
20
-91.515326783824577
30
3.3748159983750789e-20
11
50.015535098595699
21
3.9695338185002882
31
0
0
LWPOLYLINE
5
109
100
AcDbEntity
8
0
100
AcDbPolyline
90
128
70
1
43
0.0
10
-49.584464901403237
20
-43.850271383643161
10
-49.984464901403236
20
-44.250271383643167
10
-49.984464901403214
20
-45.990271383643176
10
-49.584464901403194
20
-46.390271383643167
10
-47.844464901403214
20
-46.390271383643153
10
-47.444464901403201
20
-45.990271383643147
10
-47.044464901403202
20
-46.390271383643132
10
-45.304464901403215
20
-46.390271383643118
10
-44.904464901403202
20
-45.990271383643119
10
-44.504464901403196
20
-46.39027138364311
10
-42.764464901403215
20
-46.390271383643082
10
-42.364464901403203
20
-45.990271383643091
10
-41.964464901403211
20
-46.390271383643068
10
-40.224464901403209
20
-46.390271383643061
10
-39.824464901403211
20
-45.990271383643062
10
-39.424464901403212
20
-46.390271383643039
10
-37.68446490140321
20
-46.390271383643025
10
-37.284464901403211
20
-45.990271383643027
10
-36.884464901403206
20
-46.390271383643018
10
-35.144464901403211
20
-46.39027138364299
10
-34.744464901403212
20
-45.990271383642991
10
-34.344464901403214
20
-46.390271383642983
10
-32.604464901403212
20
-46.390271383642954
10
-32.204464901403213
20
-45.990271383642963
10
-31.804464901403211
20
-46.390271383642947
10
-30.064464901403213
20
-46.390271383642926
10
-29.66446490140321
20
-45.990271383642927
10
-29.264464901403212
20
-46.390271383642919
10
-27.524464901403213
20
-46.390271383642904
10
-27.124464901403211
20
-45.990271383642906
10
-26.724464901403206
20
-46.390271383642897
10
-24.984464901403207
20
-46.390271383642869
10
-24.584464901403212
20
-45.990271383642863
10
-24.184464901403206
20
-46.390271383642876
10
-22.444464901403208
20
-46.39027138364284
10
-22.044464901403209
20
-45.990271383642856
10
-21.644464901403207
20
-46.39027138364284
10
-19.904464901403209
20
-46.390271383642812
10
-19.50446490140321
20
-45.990271383642821
10
-19.104464901403208
20
-46.390271383642805
10
-17.364464901403206
20
-46.390271383642784
10
-16.964464901403215
20
-45.990271383642778
10
-16.564464901403213
20
-46.390271383642769
10
-14.824464901403205
20
-46.390271383642762
10
-14.424464901403214
20
-45.990271383642764
10
-14.024464901403208
20
-46.390271383642755
10
-12.284464901403203
20
-46.390271383642713
10
-11.884464901403211
20
-45.990271383642721
10
-11.484464901403207
20
-46.390271383642713
10
-9.7444649014032052
20
-46.390271383642698
10
-9.344464901403212
20
-45.990271383642707
10
-8.944464901403208
20
-46.390271383642684
10
-7.2044649014032034
20
-46.390271383642663
10
-6.8044649014032075
20
-45.990271383642671
10
-6.4044649014032062
20
-46.390271383642641
10
-4.664464901403198
20
-46.390271383642627
10
-4.2644649014032163
20
-45.990271383642629
10
-3.8644649014032089
20
-46.39027138364262
10
-2.1244649014032011
20
-46.390271383642613
10
-1.7244649014032123
20
-45.9902713836426
10
-1.3244649014032095
20
-46.390271383642592
10
0.41553509859679866
20
-46.390271383642585
10
0.81553509859679307
20
-45.990271383642572
10
0.81553509859676965
20
-44.250271383642563
10
0.41553509859676396
20
-43.850271383642571
10
0.81553509859675843
20
-43.450271383642573
10
0.81553509859673934
20
-41.710271383642564
10
0.41553509859673154
20
-41.310271383642586
10
-1.3244649014032719
20
-41.310271383642608
10
-1.7244649014032607
20
-41.710271383642599
10
-2.1244649014032682
20
-41.310271383642601
10
-3.8644649014032719
20
-41.310271383642629
10
-4.2644649014032669
20
-41.71027138364262
10
-4.664464901403262
20
-41.310271383642636
10
-6.4044649014032684
20
-41.310271383642664
10
-6.8044649014032634
20
-41.710271383642656
10
-7.2044649014032665
20
-41.310271383642672
10
-8.9444649014032702
20
-41.310271383642679
10
-9.3444649014032652
20
-41.710271383642677
10
-9.7444649014032692
20
-41.3102713836427
10
-11.484464901403268
20
-41.310271383642728
10
-11.884464901403266
20
-41.71027138364272
10
-12.284464901403267
20
-41.310271383642728
10
-14.024464901403269
20
-41.31027138364275
10
-14.424464901403269
20
-41.710271383642741
10
-14.824464901403269
20
-41.310271383642757
10
-16.564464901403273
20
-41.310271383642771
10
-16.964464901403268
20
-41.710271383642777
10
-17.364464901403267
20
-41.310271383642799
10
-19.104464901403272
20
-41.310271383642814
10
-19.504464901403264
20
-41.710271383642812
10
-19.904464901403273
20
-41.310271383642828
10
-21.644464901403268
20
-41.310271383642842
10
-22.04446490140327
20
-41.710271383642841
10
-22.444464901403268
20
-41.310271383642842
10
-24.184464901403267
20
-41.310271383642878
10
-24.584464901403265
20
-41.710271383642869
10
-24.984464901403271
20
-41.310271383642878
10
-26.72446490140327
20
-41.310271383642892
10
-27.124464901403268
20
-41.71027138364289
10
-27.52446490140327
20
-41.310271383642892
10
-29.264464901403272
20
-41.310271383642927
10
-29.664464901403271
20
-41.710271383642912
10
-30.064464901403273
20
-41.310271383642942
10
-31.804464901403271
20
-41.310271383642949
10
-32.20446490140327
20
-41.710271383642954
10
-32.604464901403276
20
-41.310271383642963
10
-34.344464901403278
20
-41.310271383642984
10
-34.744464901403262
20
-41.710271383642976
10
-35.144464901403275
20
-41.310271383642991
10
-36.884464901403277
20
-41.31027138364302
10
-37.284464901403268
20
-41.710271383643011
10
-37.684464901403274
20
-41.31027138364302
10
-39.424464901403269
20
-41.310271383643041
10
-39.824464901403253
20
-41.710271383643047
10
-40.224464901403266
20
-41.310271383643055
10
-41.964464901403275
20
-41.310271383643069
10
-42.364464901403267
20
-41.710271383643075
10
-42.764464901403272
20
-41.310271383643091
10
-44.504464901403281
20
-41.310271383643112
10
-44.904464901403259
20
-41.710271383643104
10
-45.304464901403279
20
-41.310271383643112
10
-47.044464901403273
20
-41.310271383643133
10
-47.444464901403265
20
-41.710271383643125
10
-47.844464901403256
20
-41.310271383643155
10
-49.584464901403265
20
-41.310271383643155
10
-49.984464901403271
20
-41.710271383643153
10
-49.98446490140325
20
-43.45027138364317
0
LWPOLYLINE
5
110
100
AcDbEntity
8
0
100
AcDbPolyline
90
4
70
1
43
0.0
10
-48.394464901403218
20
-44.80027138364315
10
-48.394464901403211
20
-45.44027138364315
10
-49.034464901403219
20
-45.440271383643164
10
-49.034464901403226
20
-44.800271383643164
0
LWPOLYLINE
5
111
100
AcDbEntity
8
0
100
AcDbPolyline
90
4
70
1
43
0.0
10
-45.854464901403233
20
-44.800271383643121
10
-45.854464901403219
20
-45.440271383643122
10
-46.494464901403212
20
-45.440271383643129
10
-46.494464901403241
20
-44.800271383643135
0
LWPOLYLINE
5
112
100
AcDbEntity
8
0
100
AcDbPolyline
90
4
70
1
43
0.0
10
-43.314464901403227
20
-44.800271383643093
10
-43.31446490140322
20
-45.440271383643093
10
-43.95446490140322
20
-45.440271383643093
10
-43.954464901403234
20
-44.800271383643093
0
LWPOLYLINE
5
113
100
AcDbEntity
8
0
100
AcDbPolyline
90
4
70
1
43
0.0
10
-40.774464901403221
20
-44.800271383643064
10
-40.774464901403213
20
-45.440271383643065
10
-41.414464901403214
20
-45.440271383643065
10
-41.414464901403221
20
-44.800271383643071
0
LWPOLYLINE
5
114
100
AcDbEntity
8
0
100
AcDbPolyline
90
4
70
1
43
0.0
10
-38.234464901403229
20
-44.800271383643029
10
-38.234464901403214
20
-45.440271383643029
10
-38.874464901403215
20
-45.440271383643051
10
-38.874464901403229
20
-44.80027138364305
0
LWPOLYLINE
5
115
100
AcDbEntity
8
0
100
AcDbPolyline
90
4
70
1
43
0.0
10
-35.694464901403229
20
-44.800271383643
10
-35.694464901403215
20
-45.440271383643001
10
-36.334464901403216
20
-45.440271383643008
10
-36.33446490140323
20
-44.800271383643
0
LWPOLYLINE
5
116
100
AcDbEntity
8
0
100
AcDbPolyline
90
4
70
1
43
0.0
10
-33.15446490140323
20
-44.800271383642965
10
-33.154464901403216
20
-45.440271383642965
10
-33.794464901403217
20
-45.44027138364298
10
-33.794464901403231
20
-44.800271383642986
0
LWPOLYLINE
5
117
100
AcDbEntity
8
0
100
AcDbPolyline
90
4
70
1
43
0.0
10
-30.614464901403231
20
-44.800271383642936
10
-30.614464901403224
20
-45.440271383642937
10
-31.254464901403225
20
-45.440271383642958
10
-31.254464901403228
20
-44.800271383642951
0
LWPOLYLINE
5
118
100
AcDbEntity
8
0
100
AcDbPolyline
90
4
70
1
43
0.0
10
-28.074464901403225
20
-44.800271383642922
10
-28.074464901403218
20
-45.440271383642923
10
-28.714464901403218
20
-45.440271383642923
10
-28.714464901403225
20
-44.800271383642915
0
LWPOLYLINE
5
119
100
AcDbEntity
8
0
100
AcDbPolyline
90
4
70
1
43
0.0
10
-25.534464901403226
20
-44.800271383642887
10
-25.534464901403219
20
-45.440271383642887
10
-26.174464901403219
20
-45.440271383642894
10
-26.174464901403233
20
-44.800271383642894
0
LWPOLYLINE
5
120
100
AcDbEntity
8
0
100
AcDbPolyline
90
4
70
1
43
0.0
10
-22.994464901403227
20
-44.800271383642851
10
-22.994464901403219
20
-45.440271383642852
10
-23.63446490140322
20
-45.440271383642859
10
-23.634464901403227
20
-44.800271383642858
0
LWPOLYLINE
5
121
100
AcDbEntity
8
0
100
AcDbPolyline
90
4
70
1
43
0.0
10
-20.454464901403227
20
-44.800271383642823
10
-20.454464901403217
20
-45.440271383642823
10
-21.094464901403217
20
-45.440271383642823
10
-21.094464901403228
20
-44.800271383642837
0
LWPOLYLINE
5
122
100
AcDbEntity
8
0
100
AcDbPolyline
90
4
70
1
43
0.0
10
-17.914464901403228
20
-44.800271383642794
10
-17.914464901403221
20
-45.440271383642795
10
-18.554464901403222
20
-45.440271383642809
10
-18.554464901403229
20
-44.800271383642809
0
LWPOLYLINE
5
123
100
AcDbEntity
8
0
100
AcDbPolyline
90
4
70
1
43
0.0
10
-15.374464901403231
20
-44.800271383642766
10
-15.374464901403222
20
-45.440271383642767
10
-16.014464901403219
20
-45.440271383642774
10
-16.01446490140323
20
-44.800271383642773
0
LWPOLYLINE
5
124
100
AcDbEntity
8
0
100
AcDbPolyline
90
4
70
1
43
0.0
10
-12.834464901403226
20
-44.800271383642723
10
-12.834464901403217
20
-45.440271383642724
10
-13.474464901403218
20
-45.440271383642745
10
-13.474464901403229
20
-44.800271383642738
0
LWPOLYLINE
5
125
100
AcDbEntity
8
0
100
AcDbPolyline
90
4
70
1
43
0.0
10
-10.294464901403224
20
-44.800271383642709
10
-10.294464901403215
20
-45.44027138364271
10
-10.934464901403215
20
-45.44027138364271
10
-10.934464901403228
20
-44.800271383642702
0
LWPOLYLINE
5
126
100
AcDbEntity
8
0
100
AcDbPolyline
90
4
70
1
43
0.0
10
-7.7544649014032228
20
-44.800271383642674
10
-7.7544649014032156
20
-45.440271383642674
10
-8.3944649014032162
20
-45.440271383642674
10
-8.3944649014032233
20
-44.800271383642681
0
LWPOLYLINE
5
127
100
AcDbEntity
8
0
100
AcDbPolyline
90
4
70
1
43
0.0
10
-5.2144649014032227
20
-44.800271383642638
10
-5.2144649014032147
20
-45.440271383642639
10
-5.8544649014032153
20
-45.440271383642653
10
-5.8544649014032242
20
-44.800271383642645
0
LWPOLYLINE
5
128
100
AcDbEntity
8
0
100
AcDbPolyline
90
4
70
1
43
0.0
10
-2.6744649014032236
20
-44.800271383642603
10
-2.6744649014032156
20
-45.440271383642603
10
-3.3144649014032188
20
-45.440271383642624
10
-3.3144649014032268
20
-44.80027138364261
0
LWPOLYLINE
5
129
100
AcDbEntity
8
0
100
AcDbPolyline
90
4
70
1
43
0.0
10
-0.13446490140322404
20
-44.800271383642574
10
-0.13446490140321607
20
-45.440271383642575
10
-0.774464901403219
20
-45.440271383642596
10
-0.77446490140322699
20
-44.800271383642581
0
LWPOLYLINE
5
130
100
AcDbEntity
8
0
100
AcDbPolyline
90
4
70
1
43
0.0
10
-48.394464901403254
20
-42.260271383643151
10
-48.394464901403246
20
-42.900271383643151
10
-49.034464901403254
20
-42.900271383643158
10
-49.034464901403254
20
-42.260271383643151
0
LWPOLYLINE
5
131
100
AcDbEntity
8
0
100
AcDbPolyline
90
4
70
1
43
0.0
10
-45.854464901403247
20
-42.260271383643115
10
-45.85446490140324
20
-42.900271383643116
10
-46.494464901403248
20
-42.900271383643123
10
-46.494464901403262
20
-42.260271383643129
0
LWPOLYLINE
5
132
100
AcDbEntity
8
0
100
AcDbPolyline
90
4
70
1
43
0.0
10
-43.314464901403262
20
-42.260271383643087
10
-43.314464901403255
20
-42.900271383643087
10
-43.954464901403242
20
-42.900271383643101
10
-43.954464901403256
20
-42.260271383643094
0
LWPOLYLINE
5
133
100
AcDbEntity
8
0
100
AcDbPolyline
90
4
70
1
43
0.0
10
-40.774464901403256
20
-42.260271383643051
10
-40.774464901403249
20
-42.900271383643052
10
-41.41446490140325
20
-42.900271383643073
10
-41.414464901403264
20
-42.260271383643072
0
LWPOLYLINE
5
134
100
AcDbEntity
8
0
100
AcDbPolyline
90
4
70
1
43
0.0
10
-38.234464901403264
20
-42.26027138364303
10
-38.234464901403257
20
-42.90027138364303
10
-38.874464901403257
20
-42.90027138364303
10
-38.874464901403265
20
-42.260271383643044
0
LWPOLYLINE
5
135
100
AcDbEntity
8
0
100
AcDbPolyline
90
4
70
1
43
0.0
10
-35.694464901403258
20
-42.260271383643008
10
-35.694464901403251
20
-42.900271383643009
10
-36.334464901403244
20
-42.900271383643009
10
-36.334464901403251
20
-42.260271383643015
0
LWPOLYLINE
5
136
100
AcDbEntity
8
0
100
AcDbPolyline
90
4
70
1
43
0.0
10
-33.154464901403266
20
-42.260271383642973
10
-33.154464901403259
20
-42.900271383642973
10
-33.794464901403252
20
-42.900271383642981
10
-33.794464901403259
20
-42.260271383642987
0
LWPOLYLINE
5
137
100
AcDbEntity
8
0
100
AcDbPolyline
90
4
70
1
43
0.0
10
-30.614464901403259
20
-42.260271383642937
10
-30.614464901403249
20
-42.900271383642938
10
-31.254464901403249
20
-42.900271383642945
10
-31.25446490140326
20
-42.260271383642944
0
LWPOLYLINE
5
138
100
AcDbEntity
8
0
100
AcDbPolyline
90
4
70
1
43
0.0
10
-28.07446490140326
20
-42.260271383642909
10
-28.074464901403253
20
-42.900271383642909
10
-28.714464901403254
20
-42.900271383642917
10
-28.714464901403257
20
-42.260271383642916
0
LWPOLYLINE
5
139
100
AcDbEntity
8
0
100
AcDbPolyline
90
4
70
1
43
0.0
10
-25.534464901403258
20
-42.26027138364288
10
-25.534464901403247
20
-42.900271383642881
10
-26.174464901403248
20
-42.900271383642888
10
-26.174464901403258
20
-42.260271383642902
0
LWPOLYLINE
5
140
100
AcDbEntity
8
0
100
AcDbPolyline
90
4
70
1
43
0.0
10
-22.994464901403258
20
-42.260271383642859
10
-22.994464901403248
20
-42.90027138364286
10
-23.634464901403248
20
-42.90027138364286
10
-23.634464901403259
20
-42.260271383642866
0
LWPOLYLINE
5
141
100
AcDbEntity
8
0
100
AcDbPolyline
90
4
70
1
43
0.0
10
-20.454464901403252
20
-42.260271383642817
10
-20.454464901403245
20
-42.900271383642817
10
-21.094464901403253
20
-42.900271383642817
10
-21.094464901403256
20
-42.260271383642831
0
LWPOLYLINE
5
142
100
AcDbEntity
8
0
100
AcDbPolyline
90
4
70
1
43
0.0
10
-17.914464901403264
20
-42.260271383642774
10
-17.914464901403253
20
-42.900271383642774
10
-18.55446490140325
20
-42.900271383642803
10
-18.554464901403261
20
-42.260271383642795
0
LWPOLYLINE
5
143
100
AcDbEntity
8
0
100
AcDbPolyline
90
4
70
1
43
0.0
10
-15.374464901403261
20
-42.26027138364276
10
-15.374464901403254
20
-42.90027138364276
10
-16.014464901403251
20
-42.900271383642767
10
-16.014464901403262
20
-42.26027138364276
0
LWPOLYLINE
5
144
100
AcDbEntity
8
0
100
AcDbPolyline
90
4
70
1
43
0.0
10
-12.834464901403258
20
-42.260271383642731
10
-12.834464901403248
20
-42.900271383642732
10
-13.474464901403252
20
-42.900271383642739
10
-13.474464901403261
20
-42.260271383642738
0
LWPOLYLINE
5
145
100
AcDbEntity
8
0
100
AcDbPolyline
90
4
70
1
43
0.0
10
-10.294464901403256
20
-42.260271383642703
10
-10.294464901403247
20
-42.900271383642703
10
-10.934464901403249
20
-42.900271383642718
10
-10.934464901403258
20
-42.260271383642717
0
LWPOLYLINE
5
146
100
AcDbEntity
8
0
100
AcDbPolyline
90
4
70
1
43
0.0
10
-7.7544649014032547
20
-42.260271383642667
10
-7.7544649014032476
20
-42.900271383642668
10
-8.39446490140325
20
-42.900271383642675
10
-8.3944649014032571
20
-42.260271383642689
0
LWPOLYLINE
5
147
100
AcDbEntity
8
0
100
AcDbPolyline
90
4
70
1
43
0.0
10
-5.2144649014032565
20
-42.260271383642646
10
-5.2144649014032485
20
-42.900271383642647
10
-5.854464901403249
20
-42.900271383642654
10
-5.854464901403257
20
-42.260271383642653
0
LWPOLYLINE
5
148
100
AcDbEntity
8
0
100
AcDbPolyline
90
4
70
1
43
0.0
10
-2.6744649014032533
20
-42.260271383642618
10
-2.6744649014032458
20
-42.900271383642618
10
-3.3144649014032495
20
-42.900271383642625
10
-3.314464901403257
20
-42.260271383642625
0
LWPOLYLINE
5
149
100
AcDbEntity
8
0
100
AcDbPolyline
90
4
70
1
43
0.0
10
-0.13446490140325429
20
-42.260271383642575
10
-0.13446490140324632
20
-42.900271383642576
10
-0.7744649014032492
20
-42.90027138364259
10
-0.7744649014032573
20
-42.260271383642589
0
CIRCLE
5
150
100
AcDbEntity
8
0
100
AcDbCircle
10
4.4155350985962292
20
5.1497286163574785
30
0
40
1.350000000000001
210
8.6342636945452863e-21
220
-2.7755575615628901e-17
230
1
0
ARC
5
151
100
AcDbEntity
8
0
100
AcDbCircle
10
0.015535098596046737
20
-270.61927704921266
30
-1.2814625493896482e-27
40
279.10395026538873
210
-1.4857586555975415e-31
220
-4.6397875867033976e-30
230
1
100
AcDbArc
50
79.680053659051879
51
100.31994634094811
0
ENDSEC
0
SECTION
2
OBJECTS
0
DICTIONARY
5
C
100
AcDbDictionary
3
ACAD_GROUP
350
D
3
ACAD_MLINESTYLE
350
17
0
DICTIONARY
5
D
100
AcDbDictionary
0
DICTIONARY
5
1A
330
C
100
AcDbDictionary
0
DICTIONARY
5
17
100
AcDbDictionary
0
ENDSEC
0
EOF
