0
SECTION
2
HEADER
9
$INSUNITS
70
4
9
$ACADVER
1
AC1014
9
$HANDSEED
5
FFFF
0
ENDSEC
0
SECTION
2
TABLES
0
TABLE
2
VPORT
5
8
100
AcDbSymbolTable
0
ENDTAB
0
TABLE
2
LTYPE
5
5
100
AcDbSymbolTable
0
LTYPE
5
14
100
AcDbSymbolTableRecord
100
AcDbLinetypeTableRecord
2
BYBLOCK
70
0
0
LTYPE
5
15
100
AcDbSymbolTableRecord
100
AcDbLinetypeTableRecord
2
BYLAYER
70
0
0
ENDTAB
0
TABLE
2
LAYER
5
2
100
AcDbSymbolTable
70
2
0
LAYER
5
50
100
AcDbSymbolTableRecord
100
AcDbLayerTableRecord
2
0
70
0
6
CONTINUOUS
0
ENDTAB
0
TABLE
2
STYLE
5
3
100
AcDbSymbolTable
70
1
0
STYLE
5
11
100
AcDbSymbolTableRecord
100
AcDbTextStyleTableRecord
2
STANDARD
70
0
0
ENDTAB
0
TABLE
2
VIEW
5
6
100
AcDbSymbolTable
70
0
0
ENDTAB
0
TABLE
2
UCS
5
7
100
AcDbSymbolTable
70
0
0
ENDTAB
0
TABLE
2
APPID
5
9
100
AcDbSymbolTable
70
2
0
APPID
5
12
100
AcDbSymbolTableRecord
100
AcDbRegAppTableRecord
2
ACAD
70
0
0
ENDTAB
0
TABLE
2
DIMSTYLE
5
A
100
AcDbSymbolTable
70
1
0
ENDTAB
0
TABLE
2
BLOCK_RECORD
5
1
100
AcDbSymbolTable
70
1
0
BLOCK_RECORD
5
1F
100
AcDbSymbolTableRecord
100
AcDbBlockTableRecord
2
*MODEL_SPACE
0
BLOCK_RECORD
5
1B
100
AcDbSymbolTableRecord
100
AcDbBlockTableRecord
2
*PAPER_SPACE
0
ENDTAB
0
ENDSEC
0
SECTION
2
BLOCKS
0
BLOCK
5
20
100
AcDbEntity
100
AcDbBlockBegin
2
*MODEL_SPACE
0
ENDBLK
5
21
100
AcDbEntity
100
AcDbBlockEnd
0
BLOCK
5
1C
100
AcDbEntity
100
AcDbBlockBegin
2
*PAPER_SPACE
0
ENDBLK
5
1D
100
AcDbEntity
100
AcDbBlockEnd
0
ENDSEC
0
SECTION
2
ENTITIES
0
LWPOLYLINE
5
100
100
AcDbEntity
8
0
100
AcDbPolyline
90
50
70
1
43
0.0
10
-62.832514686163698
20
56.000248206519885
10
62.832514686184531
20
56.000248206519885
10
62.832514686184531
20
71.087430726852688
10
65.02887756421633
20
77.087430726852688
10
67.832514686184538
20
61.187214488229515
10
75.833507512254997
20
52.243830688057614
10
81.472561099058183
20
43.985436495167804
10
84.030140423522411
20
34.318027948971263
10
84.757120691851554
20
24.344487971136918
10
83.241745133813964
20
14.459972964415435
10
80.000000000011923
20
5.0000000000000178
10
80.000000000010402
20
11
10
71.000000000011553
20
11
10
71.000000000011553
20
5
10
68.000000000011568
20
5
10
68.000000000011553
20
50.000248206519935
42
0.41421356237309243
10
64.000000000011539
20
54.000248206519942
10
48.000000000010047
20
54.000248206519942
42
0.4142135623730937
10
44.000000000010033
20
50.000248206519942
10
44.00000000001004
20
11
10
35.000000000010417
20
11
10
35.000000000010417
20
5
10
25.000000000010417
20
5
10
25.000000000010417
20
11
10
17.000000000010417
20
11
10
17.000000000010417
20
27
10
-16.999999999989587
20
27
10
-16.999999999989583
20
11
10
-24.999999999989583
20
11
10
-24.999999999989583
20
5
10
-34.999999999989583
20
5
10
-34.999999999989583
20
11
10
-43.9999999999892
20
11
10
-43.999999999989214
20
50.000248206519942
42
0.41421356237309503
10
-47.999999999989207
20
54.000248206519942
10
-63.999999999990713
20
54.000248206519942
42
0.41421356237309243
10
-67.999999999990735
20
50.000248206519935
10
-67.999999999990735
20
5
10
-70.99999999999072
20
5
10
-70.99999999999072
20
11
10
-79.999999999989598
20
11
10
-79.999999999991104
20
5.0000000000000178
10
-83.241745133793131
20
14.459972964415435
10
-84.757120691830721
20
24.344487971136918
10
-84.030140423501578
20
34.318027948971263
10
-81.47256109903735
20
43.985436495167804
10
-75.833507512234178
20
52.243830688057614
10
-67.832514686163705
20
61.187214488229515
10
-65.028877564195511
20
77.087430726852688
10
-62.832514686163705
20
71.087430726852688
0
CIRCLE
5
101
100
AcDbEntity
8
0
100
AcDbCircle
10
75.000000000011568
20
35
30
0
40
2.5
210
0
220
-0
230
1
0
CIRCLE
5
102
100
AcDbEntity
8
0
100
AcDbCircle
10
29.000000000010424
20
48.000248206519274
30
0
40
1.4999999999999991
210
0
220
-0
230
1
0
CIRCLE
5
103
100
AcDbEntity
8
0
100
AcDbCircle
10
29.000000000010424
20
19
30
0
40
1.4999999999999991
210
0
220
-0
230
1
0
CIRCLE
5
104
100
AcDbEntity
8
0
100
AcDbCircle
10
1.0418043274812466e-11
20
35
30
0
40
4
210
0
220
-0
230
1
0
CIRCLE
5
105
100
AcDbEntity
8
0
100
AcDbCircle
10
-28.999999999989583
20
19
30
0
40
1.4999999999999991
210
0
220
-0
230
1
0
CIRCLE
5
106
100
AcDbEntity
8
0
100
AcDbCircle
10
-28.999999999989583
20
48.000248206519274
30
0
40
1.4999999999999991
210
0
220
-0
230
1
0
CIRCLE
5
107
100
AcDbEntity
8
0
100
AcDbCircle
10
-74.999999999990735
20
35
30
0
40
2.5
210
0
220
-0
230
1
0
ENDSEC
0
SECTION
2
OBJECTS
0
DICTIONARY
5
C
100
AcDbDictionary
3
ACAD_GROUP
350
D
3
ACAD_MLINESTYLE
350
17
0
DICTIONARY
5
D
100
AcDbDictionary
0
DICTIONARY
5
1A
330
C
100
AcDbDictionary
0
DICTIONARY
5
17
100
AcDbDictionary
0
ENDSEC
0
EOF
