0
SECTION
2
HEADER
9
$INSUNITS
70
4
9
$ACADVER
1
AC1014
9
$HANDSEED
5
FFFF
0
ENDSEC
0
SECTION
2
TABLES
0
TABLE
2
VPORT
5
8
100
AcDbSymbolTable
0
ENDTAB
0
TABLE
2
LTYPE
5
5
100
AcDbSymbolTable
0
LTYPE
5
14
100
AcDbSymbolTableRecord
100
AcDbLinetypeTableRecord
2
BYBLOCK
70
0
0
LTYPE
5
15
100
AcDbSymbolTableRecord
100
AcDbLinetypeTableRecord
2
BYLAYER
70
0
0
ENDTAB
0
TABLE
2
LAYER
5
2
100
AcDbSymbolTable
70
2
0
LAYER
5
50
100
AcDbSymbolTableRecord
100
AcDbLayerTableRecord
2
0
70
0
6
CONTINUOUS
0
ENDTAB
0
TABLE
2
STYLE
5
3
100
AcDbSymbolTable
70
1
0
STYLE
5
11
100
AcDbSymbolTableRecord
100
AcDbTextStyleTableRecord
2
STANDARD
70
0
0
ENDTAB
0
TABLE
2
VIEW
5
6
100
AcDbSymbolTable
70
0
0
ENDTAB
0
TABLE
2
UCS
5
7
100
AcDbSymbolTable
70
0
0
ENDTAB
0
TABLE
2
APPID
5
9
100
AcDbSymbolTable
70
2
0
APPID
5
12
100
AcDbSymbolTableRecord
100
AcDbRegAppTableRecord
2
ACAD
70
0
0
ENDTAB
0
TABLE
2
DIMSTYLE
5
A
100
AcDbSymbolTable
70
1
0
ENDTAB
0
TABLE
2
BLOCK_RECORD
5
1
100
AcDbSymbolTable
70
1
0
BLOCK_RECORD
5
1F
100
AcDbSymbolTableRecord
100
AcDbBlockTableRecord
2
*MODEL_SPACE
0
BLOCK_RECORD
5
1B
100
AcDbSymbolTableRecord
100
AcDbBlockTableRecord
2
*PAPER_SPACE
0
ENDTAB
0
ENDSEC
0
SECTION
2
BLOCKS
0
BLOCK
5
20
100
AcDbEntity
100
AcDbBlockBegin
2
*MODEL_SPACE
0
ENDBLK
5
21
100
AcDbEntity
100
AcDbBlockEnd
0
BLOCK
5
1C
100
AcDbEntity
100
AcDbBlockBegin
2
*PAPER_SPACE
0
ENDBLK
5
1D
100
AcDbEntity
100
AcDbBlockEnd
0
ENDSEC
0
SECTION
2
ENTITIES
0
LWPOLYLINE
5
100
100
AcDbEntity
8
0
100
AcDbPolyline
90
8
70
1
43
0.0
10
344.00000000002103
20
-68.00000000000108
10
344.00000000002092
20
-71.000000000001066
10
356.00000000002098
20
-71.000000000001421
10
356.00000000002103
20
-68.000000000001435
10
366.00000000000023
20
-68.000000000000227
10
366.00000000000023
20
-44.000000000000206
10
316.00000000000023
20
-44.000000000000206
10
316.00000000000023
20
-68.000000000000227
0
LWPOLYLINE
5
101
100
AcDbEntity
8
0
100
AcDbPolyline
90
8
70
1
43
0.0
10
356.00000000002518
20
68.000000000000853
10
356.0000000000253
20
71.000000000000853
10
344.0000000000253
20
71.000000000001208
10
344.00000000002512
20
68.000000000001222
10
316.00000000000017
20
68.000000000000242
10
316.00000000000017
20
44.000000000000227
10
366.00000000000017
20
44.000000000000277
10
366.00000000000017
20
68.000000000000298
0
CIRCLE
5
102
100
AcDbEntity
8
0
100
AcDbCircle
10
434.21736794814763
20
-40.53203949874667
30
0
40
1.0000000000000142
210
0
220
0
230
1
0
CIRCLE
5
103
100
AcDbEntity
8
0
100
AcDbCircle
10
381.00000000002376
20
-15.000000000000187
30
0
40
1.4999999999999858
210
0
220
0
230
1
0
CIRCLE
5
104
100
AcDbEntity
8
0
100
AcDbCircle
10
381.00000000002359
20
14.999999999999813
30
0
40
1.4999999999999858
210
0
220
0
230
1
0
CIRCLE
5
105
100
AcDbEntity
8
0
100
AcDbCircle
10
398.05187067568204
20
69.156297174942992
30
0
40
1.0000000000000142
210
0
220
0
230
1
0
CIRCLE
5
106
100
AcDbEntity
8
0
100
AcDbCircle
10
307.99999999999994
20
75.000000000000114
30
0
40
0.99999999999997868
210
0
220
0
230
1
0
CIRCLE
5
107
100
AcDbEntity
8
0
100
AcDbCircle
10
361.84903100148267
20
74.282362969520037
30
0
40
1.0000000000000142
210
0
220
0
230
1
0
CIRCLE
5
108
100
AcDbEntity
8
0
100
AcDbCircle
10
438.31831139329768
20
21.57630685875548
30
0
40
1.0000000000000142
210
0
220
0
230
1
0
LWPOLYLINE
5
109
100
AcDbEntity
8
0
100
AcDbPolyline
90
4
70
1
43
0.0
10
350.00000000002336
20
7.9999999999855733
10
350.00000000002285
20
-7.9999999999857865
10
356.00000000002291
20
-7.9999999999859694
10
356.00000000002342
20
7.9999999999853921
0
CIRCLE
5
110
100
AcDbEntity
8
0
100
AcDbCircle
10
438.31831139329779
20
-21.576306858755391
30
0
40
1.0000000000000142
210
0
220
0
230
1
0
CIRCLE
5
111
100
AcDbEntity
8
0
100
AcDbCircle
10
361.84903100148335
20
-74.282362969520563
30
0
40
1.0000000000000142
210
0
220
0
230
1
0
CIRCLE
5
112
100
AcDbEntity
8
0
100
AcDbCircle
10
339.00000000002592
20
-75.000000000000824
30
0
40
1.0000000000000142
210
0
220
0
230
1
0
CIRCLE
5
113
100
AcDbEntity
8
0
100
AcDbCircle
10
398.05187067568261
20
-69.156297174943219
30
0
40
1.0000000000000142
210
0
220
0
230
1
0
CIRCLE
5
114
100
AcDbEntity
8
0
100
AcDbCircle
10
334.0000000000241
20
-29.000000000000998
30
0
40
1.4999999999999858
210
0
220
0
230
1
0
CIRCLE
5
115
100
AcDbEntity
8
0
100
AcDbCircle
10
334.00000000002387
20
29.000000000000242
30
0
40
1.4999999999999858
210
0
220
0
230
1
0
CIRCLE
5
116
100
AcDbEntity
8
0
100
AcDbCircle
10
408.09594735581095
20
65.020871304061885
30
0
40
1.0000000000000142
210
0
220
0
230
1
0
CIRCLE
5
117
100
AcDbEntity
8
0
100
AcDbCircle
10
339.0000000000253
20
75.000000000000114
30
0
40
1.0000000000000142
210
0
220
0
230
1
0
CIRCLE
5
118
100
AcDbEntity
8
0
100
AcDbCircle
10
434.21736794814728
20
40.53203949874672
30
0
40
1.0000000000000142
210
0
220
0
230
1
0
LWPOLYLINE
5
119
100
AcDbEntity
8
0
100
AcDbPolyline
90
4
70
1
43
0.0
10
350.00000000002382
20
24.999999999999893
10
350.00000000002416
20
34.999999999999893
10
344.00000000002416
20
35.000000000000078
10
344.00000000002376
20
25.000000000000075
0
LWPOLYLINE
5
120
100
AcDbEntity
8
0
100
AcDbPolyline
90
4
70
1
43
0.0
10
350.00000000002206
20
-35.000000000000107
10
350.00000000002228
20
-25.000000000000107
10
344.00000000002228
20
-24.999999999999925
10
344.000000000022
20
-34.999999999999922
0
CIRCLE
5
121
100
AcDbEntity
8
0
100
AcDbCircle
10
408.0959473558114
20
-65.020871304062041
30
0
40
1.0000000000000142
210
0
220
0
230
1
0
CIRCLE
5
122
100
AcDbEntity
8
0
100
AcDbCircle
10
308.00000000000057
20
-75.000000000001094
30
0
40
0.99999999999997868
210
0
220
0
230
1
0
LWPOLYLINE
5
123
100
AcDbEntity
8
0
100
AcDbPolyline
90
4
70
1
43
0.0
10
416.5
20
21.000000000000085
10
396.5
20
21.000000000000085
10
396.5
20
14.000000000000082
10
416.5
20
14.000000000000082
0
LWPOLYLINE
5
124
100
AcDbEntity
8
0
100
AcDbPolyline
90
4
70
1
43
0.0
10
396.5
20
-20.999999999999872
10
416.5
20
-20.999999999999901
10
416.5
20
-13.99999999999989
10
396.5
20
-13.999999999999869
0
CIRCLE
5
125
100
AcDbEntity
8
0
100
AcDbCircle
10
339.99999999999858
20
-9.7499999999995701
30
0
40
1.4500000000000313
210
0
220
0
230
1
0
CIRCLE
5
126
100
AcDbEntity
8
0
100
AcDbCircle
10
339.99999999999989
20
9.7500000000000586
30
0
40
1.4500000000000313
210
0
220
0
230
1
0
CIRCLE
5
127
100
AcDbEntity
8
0
100
AcDbCircle
10
306.49999999999869
20
-9.7499999999946461
30
0
40
1.4499999999999957
210
0
220
0
230
1
0
CIRCLE
5
128
100
AcDbEntity
8
0
100
AcDbCircle
10
306.5
20
9.7500000000000586
30
0
40
1.4499999999999957
210
0
220
0
230
1
0
LINE
5
129
100
AcDbEntity
8
0
100
AcDbLine
10
296.5
20
2.5000000000001199
30
0
11
344.49999999999989
21
2.5000000000001279
31
0
0
LINE
5
130
100
AcDbEntity
8
0
100
AcDbLine
10
344.49999999999989
20
2.5000000000001279
30
0
11
344.49999999999989
21
-2.499999999999857
31
0
0
LINE
5
131
100
AcDbEntity
8
0
100
AcDbLine
10
344.49999999999989
20
-2.499999999999857
30
0
11
296.5
21
-2.499999999999865
31
0
0
LINE
5
132
100
AcDbEntity
8
0
100
AcDbLine
10
296.5
20
-2.499999999999865
30
0
11
296.5
21
-17.000000000000004
31
0
0
SPLINE
5
133
100
AcDbEntity
8
0
100
AcDbSpline
70
4
71
5
72
21
73
15
74
0
42
0.000000001
43
0.0000000001
44
0.0000000001
40
-1
40
-1
40
-1
40
-1
40
-1
40
-1
40
-0.89999999999999991
40
-0.79999999999999993
40
-0.69999999999999996
40
-0.59999999999999998
40
-0.5
40
-0.40000000000000002
40
-0.30000000000000004
40
-0.20000000000000001
40
-0.10000000000000001
40
0
40
0
40
0
40
0
40
0
40
0
41
1
41
1
41
1
41
1
41
1
41
1
41
1
41
1
41
1
41
1
41
1
41
1
41
1
41
1
41
1
10
300
20
-28.900738657076843
30
0
10
300
20
-28.61213950767468
30
0
10
299.98136123282268
20
-28.043956730361053
30
0
10
299.89749024524934
20
-27.218727462031232
30
0
10
299.68003798505504
20
-26.170715944251626
30
0
10
299.26723462881932
20
-24.937764468854667
30
0
10
298.75968611407183
20
-23.76827223836824
30
0
10
298.20872075537289
20
-22.645980774904903
30
0
10
297.66623607088121
20
-21.552123942532617
30
0
10
297.18031175146814
20
-20.464334153757999
30
0
10
296.7939968378094
20
-19.359105956784525
30
0
10
296.59386115775681
20
-18.443769448129476
30
0
10
296.5170661840757
20
-17.73239125579591
30
0
10
296.5
20
-17.246131818898768
30
0
10
296.5
20
-17
30
0
0
LINE
5
134
100
AcDbEntity
8
0
100
AcDbLine
10
300
20
-28.900738657076843
30
0
11
300
21
-80.000000000000114
31
0
0
LINE
5
135
100
AcDbEntity
8
0
100
AcDbLine
10
300
20
-80.000000000000114
30
0
11
350
21
-80.000000000000114
31
0
0
LINE
5
136
100
AcDbEntity
8
0
100
AcDbLine
10
350
20
-80.000000000000114
30
0
11
350.00000000000023
21
-79.150442477876211
31
0
0
LINE
5
137
100
AcDbEntity
8
0
100
AcDbLine
10
350.00000000000023
20
-79.150442477876211
30
0
11
356.00000000000023
21
-79.150442477876211
31
0
0
LINE
5
138
100
AcDbEntity
8
0
100
AcDbLine
10
356.00000000000023
20
-79.150442477876211
30
0
11
406.5
21
-71.999999999999915
31
0
0
LINE
5
139
100
AcDbEntity
8
0
100
AcDbLine
10
406.5
20
-71.999999999999915
30
0
11
438.5
21
-41.999999999999922
31
0
0
LINE
5
140
100
AcDbEntity
8
0
100
AcDbLine
10
438.5
20
-41.999999999999922
30
0
11
446.5
21
7.9936057773011271e-14
31
0
0
LINE
5
141
100
AcDbEntity
8
0
100
AcDbLine
10
446.5
20
7.9936057773011271e-14
30
0
11
438.5
21
42.000000000000085
31
0
0
LINE
5
142
100
AcDbEntity
8
0
100
AcDbLine
10
438.5
20
42.000000000000085
30
0
11
406.49999999999983
21
72.000000000000043
31
0
0
LINE
5
143
100
AcDbEntity
8
0
100
AcDbLine
10
406.49999999999983
20
72.000000000000043
30
0
11
356.00000000000011
21
79.150442477876297
31
0
0
LINE
5
144
100
AcDbEntity
8
0
100
AcDbLine
10
356.00000000000011
20
79.150442477876297
30
0
11
349.99999999999989
21
79.150442477876283
31
0
0
LINE
5
145
100
AcDbEntity
8
0
100
AcDbLine
10
349.99999999999989
20
79.150442477876283
30
0
11
349.99999999999989
21
80.000000000000171
31
0
0
LINE
5
146
100
AcDbEntity
8
0
100
AcDbLine
10
349.99999999999989
20
80.000000000000171
30
0
11
299.99999999999994
21
80.000000000000114
31
0
0
LINE
5
147
100
AcDbEntity
8
0
100
AcDbLine
10
299.99999999999994
20
80.000000000000114
30
0
11
300
21
28.900738657076843
31
0
0
SPLINE
5
148
100
AcDbEntity
8
0
100
AcDbSpline
70
4
71
5
72
21
73
15
74
0
42
0.000000001
43
0.0000000001
44
0.0000000001
40
0
40
0
40
0
40
0
40
0
40
0
40
0.10000000000000001
40
0.20000000000000001
40
0.30000000000000004
40
0.40000000000000002
40
0.5
40
0.59999999999999998
40
0.69999999999999996
40
0.79999999999999993
40
0.89999999999999991
40
1
40
1
40
1
40
1
40
1
40
1
41
1
41
1
41
1
41
1
41
1
41
1
41
1
41
1
41
1
41
1
41
1
41
1
41
1
41
1
41
1
10
296.5
20
17
30
0
10
296.5
20
17.246131818898768
30
0
10
296.5170661840757
20
17.73239125579591
30
0
10
296.59386115775681
20
18.443769448129476
30
0
10
296.7939968378094
20
19.359105956784525
30
0
10
297.18031175146814
20
20.464334153757999
30
0
10
297.66623607088121
20
21.552123942532617
30
0
10
298.20872075537289
20
22.645980774904903
30
0
10
298.75968611407183
20
23.76827223836824
30
0
10
299.26723462881932
20
24.937764468854667
30
0
10
299.68003798505504
20
26.170715944251626
30
0
10
299.89749024524934
20
27.218727462031232
30
0
10
299.98136123282268
20
28.043956730361053
30
0
10
300
20
28.61213950767468
30
0
10
300
20
28.900738657076843
30
0
0
LINE
5
149
100
AcDbEntity
8
0
100
AcDbLine
10
296.5
20
17
30
0
11
296.5
21
2.5000000000001199
31
0
0
CIRCLE
5
150
100
AcDbEntity
8
0
100
AcDbCircle
10
430
20
-5.8444931240708297e-17
30
0
40
16.000000000000014
210
0
220
-0
230
1
0
ENDSEC
0
SECTION
2
OBJECTS
0
DICTIONARY
5
C
100
AcDbDictionary
3
ACAD_GROUP
350
D
3
ACAD_MLINESTYLE
350
17
0
DICTIONARY
5
D
100
AcDbDictionary
0
DICTIONARY
5
1A
330
C
100
AcDbDictionary
0
DICTIONARY
5
17
100
AcDbDictionary
0
ENDSEC
0
EOF
