0
SECTION
2
HEADER
9
$INSUNITS
70
4
9
$ACADVER
1
AC1014
9
$HANDSEED
5
FFFF
0
ENDSEC
0
SECTION
2
TABLES
0
TABLE
2
VPORT
5
8
100
AcDbSymbolTable
0
ENDTAB
0
TABLE
2
LTYPE
5
5
100
AcDbSymbolTable
0
LTYPE
5
14
100
AcDbSymbolTableRecord
100
AcDbLinetypeTableRecord
2
BYBLOCK
70
0
0
LTYPE
5
15
100
AcDbSymbolTableRecord
100
AcDbLinetypeTableRecord
2
BYLAYER
70
0
0
ENDTAB
0
TABLE
2
LAYER
5
2
100
AcDbSymbolTable
70
2
0
LAYER
5
50
100
AcDbSymbolTableRecord
100
AcDbLayerTableRecord
2
0
70
0
6
CONTINUOUS
0
ENDTAB
0
TABLE
2
STYLE
5
3
100
AcDbSymbolTable
70
1
0
STYLE
5
11
100
AcDbSymbolTableRecord
100
AcDbTextStyleTableRecord
2
STANDARD
70
0
0
ENDTAB
0
TABLE
2
VIEW
5
6
100
AcDbSymbolTable
70
0
0
ENDTAB
0
TABLE
2
UCS
5
7
100
AcDbSymbolTable
70
0
0
ENDTAB
0
TABLE
2
APPID
5
9
100
AcDbSymbolTable
70
2
0
APPID
5
12
100
AcDbSymbolTableRecord
100
AcDbRegAppTableRecord
2
ACAD
70
0
0
ENDTAB
0
TABLE
2
DIMSTYLE
5
A
100
AcDbSymbolTable
70
1
0
ENDTAB
0
TABLE
2
BLOCK_RECORD
5
1
100
AcDbSymbolTable
70
1
0
BLOCK_RECORD
5
1F
100
AcDbSymbolTableRecord
100
AcDbBlockTableRecord
2
*MODEL_SPACE
0
BLOCK_RECORD
5
1B
100
AcDbSymbolTableRecord
100
AcDbBlockTableRecord
2
*PAPER_SPACE
0
ENDTAB
0
ENDSEC
0
SECTION
2
BLOCKS
0
BLOCK
5
20
100
AcDbEntity
100
AcDbBlockBegin
2
*MODEL_SPACE
0
ENDBLK
5
21
100
AcDbEntity
100
AcDbBlockEnd
0
BLOCK
5
1C
100
AcDbEntity
100
AcDbBlockBegin
2
*PAPER_SPACE
0
ENDBLK
5
1D
100
AcDbEntity
100
AcDbBlockEnd
0
ENDSEC
0
SECTION
2
ENTITIES
0
SPLINE
5
100
100
AcDbEntity
8
0
100
AcDbSpline
70
4
71
5
72
21
73
15
74
0
42
0.000000001
43
0.0000000001
44
0.0000000001
40
-1
40
-1
40
-1
40
-1
40
-1
40
-1
40
-0.89999999999999991
40
-0.79999999999999993
40
-0.69999999999999996
40
-0.59999999999999998
40
-0.5
40
-0.40000000000000002
40
-0.30000000000000004
40
-0.20000000000000001
40
-0.10000000000000001
40
0
40
0
40
0
40
0
40
0
40
0
41
1
41
1
41
1
41
1
41
1
41
1
41
1
41
1
41
1
41
1
41
1
41
1
41
1
41
1
41
1
10
-300
20
7.9999999999999556
30
0
10
-300
20
7.762875564468227
30
0
10
-299.97773558253027
20
7.3139600717060747
30
0
10
-299.87754033044632
20
6.7165601898375122
30
0
10
-299.61884495610025
20
6.0507723113175791
30
0
10
-299.13585603725886
20
5.3277183745116838
30
0
10
-298.561256896869
20
4.5991277138938793
30
0
10
-297.97194513349575
20
3.7835230035293286
30
0
10
-297.4553069300332
20
2.8928172518461492
30
0
10
-297.08828841663467
20
2.0567216230601817
30
0
10
-296.86717928899657
20
1.2976574132657837
30
0
10
-296.78331128696681
20
0.75227928241247155
30
0
10
-296.75490808901276
20
0.36795226062655922
30
0
10
-296.74860375817707
20
0.1210985334049956
30
0
10
-296.74860375817707
20
-4.2189428867952803e-14
30
0
0
SPLINE
5
101
100
AcDbEntity
8
0
100
AcDbSpline
70
4
71
5
72
21
73
15
74
0
42
0.000000001
43
0.0000000001
44
0.0000000001
40
0
40
0
40
0
40
0
40
0
40
0
40
0.10000000000000001
40
0.20000000000000001
40
0.30000000000000004
40
0.40000000000000002
40
0.5
40
0.59999999999999998
40
0.69999999999999996
40
0.79999999999999993
40
0.89999999999999991
40
1
40
1
40
1
40
1
40
1
40
1
41
1
41
1
41
1
41
1
41
1
41
1
41
1
41
1
41
1
41
1
41
1
41
1
41
1
41
1
41
1
10
-296.74860375817707
20
-4.8849813083506888e-14
30
0
10
-296.74860375817707
20
-0.12109853340508664
30
0
10
-296.75490808901276
20
-0.36795226062665026
30
0
10
-296.78331128696681
20
-0.75227928241256259
30
0
10
-296.86717928899657
20
-1.2976574132658745
30
0
10
-297.08828841663467
20
-2.0567216230602723
30
0
10
-297.4553069300332
20
-2.8928172518462398
30
0
10
-297.97194513349575
20
-3.7835230035294187
30
0
10
-298.561256896869
20
-4.599127713893969
30
0
10
-299.13585603725886
20
-5.3277183745117735
30
0
10
-299.61884495610025
20
-6.0507723113176688
30
0
10
-299.87754033044632
20
-6.7165601898376011
30
0
10
-299.97773558253027
20
-7.3139600717061635
30
0
10
-300
20
-7.7628755644683158
30
0
10
-300
20
-8.0000000000000444
30
0
0
LINE
5
102
100
AcDbEntity
8
0
100
AcDbLine
10
-300
20
-8.0000000000000444
30
0
11
-300
21
-69.789033820517119
31
0
0
LINE
5
103
100
AcDbEntity
8
0
100
AcDbLine
10
-300
20
-69.789033820517119
30
0
11
-274
21
-69.789033820517119
31
0
0
LINE
5
104
100
AcDbEntity
8
0
100
AcDbLine
10
-274
20
-69.789033820517119
30
0
11
-274
21
-40.000000000000057
31
0
0
LINE
5
105
100
AcDbEntity
8
0
100
AcDbLine
10
-274
20
-40.000000000000057
30
0
11
-268
21
-40.000000000000057
31
0
0
LINE
5
106
100
AcDbEntity
8
0
100
AcDbLine
10
-268
20
-40.000000000000057
30
0
11
-268
21
-25.000000000000053
31
0
0
LINE
5
107
100
AcDbEntity
8
0
100
AcDbLine
10
-268
20
-25.000000000000053
30
0
11
-274
21
-25.000000000000053
31
0
0
LINE
5
108
100
AcDbEntity
8
0
100
AcDbLine
10
-274
20
-25.000000000000053
30
0
11
-274
21
24.999999999999947
31
0
0
LINE
5
109
100
AcDbEntity
8
0
100
AcDbLine
10
-274
20
24.999999999999947
30
0
11
-268
21
24.999999999999947
31
0
0
LINE
5
110
100
AcDbEntity
8
0
100
AcDbLine
10
-268
20
24.999999999999947
30
0
11
-268
21
39.999999999999943
31
0
0
LINE
5
111
100
AcDbEntity
8
0
100
AcDbLine
10
-268
20
39.999999999999943
30
0
11
-274
21
39.999999999999943
31
0
0
LINE
5
112
100
AcDbEntity
8
0
100
AcDbLine
10
-274
20
39.999999999999943
30
0
11
-274
21
69.789033820517034
31
0
0
LINE
5
113
100
AcDbEntity
8
0
100
AcDbLine
10
-274
20
69.789033820517034
30
0
11
-300
21
69.789033820517034
31
0
0
LINE
5
114
100
AcDbEntity
8
0
100
AcDbLine
10
-300
20
69.789033820517034
30
0
11
-300
21
7.9999999999999556
31
0
0
CIRCLE
5
115
100
AcDbEntity
8
0
100
AcDbCircle
10
-277.5
20
-12.000000000000055
30
0
40
1.5000000000000213
210
0
220
0
230
1
0
CIRCLE
5
116
100
AcDbEntity
8
0
100
AcDbCircle
10
-277.5
20
11.999999999999948
30
0
40
1.5000000000000213
210
0
220
0
230
1
0
ENDSEC
0
SECTION
2
OBJECTS
0
DICTIONARY
5
C
100
AcDbDictionary
3
ACAD_GROUP
350
D
3
ACAD_MLINESTYLE
350
17
0
DICTIONARY
5
D
100
AcDbDictionary
0
DICTIONARY
5
1A
330
C
100
AcDbDictionary
0
DICTIONARY
5
17
100
AcDbDictionary
0
ENDSEC
0
EOF
