0
SECTION
2
HEADER
9
$INSUNITS
70
4
9
$ACADVER
1
AC1014
9
$HANDSEED
5
FFFF
0
ENDSEC
0
SECTION
2
TABLES
0
TABLE
2
VPORT
5
8
100
AcDbSymbolTable
0
ENDTAB
0
TABLE
2
LTYPE
5
5
100
AcDbSymbolTable
0
LTYPE
5
14
100
AcDbSymbolTableRecord
100
AcDbLinetypeTableRecord
2
BYBLOCK
70
0
0
LTYPE
5
15
100
AcDbSymbolTableRecord
100
AcDbLinetypeTableRecord
2
BYLAYER
70
0
0
ENDTAB
0
TABLE
2
LAYER
5
2
100
AcDbSymbolTable
70
2
0
LAYER
5
50
100
AcDbSymbolTableRecord
100
AcDbLayerTableRecord
2
0
70
0
6
CONTINUOUS
0
ENDTAB
0
TABLE
2
STYLE
5
3
100
AcDbSymbolTable
70
1
0
STYLE
5
11
100
AcDbSymbolTableRecord
100
AcDbTextStyleTableRecord
2
STANDARD
70
0
0
ENDTAB
0
TABLE
2
VIEW
5
6
100
AcDbSymbolTable
70
0
0
ENDTAB
0
TABLE
2
UCS
5
7
100
AcDbSymbolTable
70
0
0
ENDTAB
0
TABLE
2
APPID
5
9
100
AcDbSymbolTable
70
2
0
APPID
5
12
100
AcDbSymbolTableRecord
100
AcDbRegAppTableRecord
2
ACAD
70
0
0
ENDTAB
0
TABLE
2
DIMSTYLE
5
A
100
AcDbSymbolTable
70
1
0
ENDTAB
0
TABLE
2
BLOCK_RECORD
5
1
100
AcDbSymbolTable
70
1
0
BLOCK_RECORD
5
1F
100
AcDbSymbolTableRecord
100
AcDbBlockTableRecord
2
*MODEL_SPACE
0
BLOCK_RECORD
5
1B
100
AcDbSymbolTableRecord
100
AcDbBlockTableRecord
2
*PAPER_SPACE
0
ENDTAB
0
ENDSEC
0
SECTION
2
BLOCKS
0
BLOCK
5
20
100
AcDbEntity
100
AcDbBlockBegin
2
*MODEL_SPACE
0
ENDBLK
5
21
100
AcDbEntity
100
AcDbBlockEnd
0
BLOCK
5
1C
100
AcDbEntity
100
AcDbBlockBegin
2
*PAPER_SPACE
0
ENDBLK
5
1D
100
AcDbEntity
100
AcDbBlockEnd
0
ENDSEC
0
SECTION
2
ENTITIES
0
CIRCLE
5
100
100
AcDbEntity
8
0
100
AcDbCircle
10
43.323453791837849
20
69
30
0
40
1.0000000000000004
210
0
220
0
230
1
0
LWPOLYLINE
5
101
100
AcDbEntity
8
0
100
AcDbPolyline
90
4
70
1
43
0.0
10
20.323453791837856
20
61
10
36.323453791837849
20
61
10
36.323453791837849
20
63.999999999999993
10
20.323453791837856
20
63.999999999999993
0
LWPOLYLINE
5
102
100
AcDbEntity
8
0
100
AcDbPolyline
90
3
70
1
43
0.0
10
20.500000000003048
20
79.255442521342005
10
27.000000000003087
20
79.255442521342005
42
0.37556530083176737
10
20.500000000003116
20
86.68847689500123
0
LWPOLYLINE
5
103
100
AcDbEntity
8
0
100
AcDbPolyline
90
4
70
1
43
0.0
10
20.500000000003048
20
73.255442521342005
10
27.000000000003077
20
73.255442521342005
10
27.000000000003084
20
77.255442521342005
10
20.500000000003048
20
77.255442521342005
0
LWPOLYLINE
5
104
100
AcDbEntity
8
0
100
AcDbPolyline
90
4
70
1
43
0.0
10
20.500000000003048
20
71.255442521342005
10
20.500000000003023
20
67
10
27.00000000000302
20
67
10
27.000000000003066
20
71.255442521342005
0
LWPOLYLINE
5
105
100
AcDbEntity
8
0
100
AcDbPolyline
90
4
70
1
43
0.0
10
12.000000000003022
20
67
10
18.500000000003087
20
67
10
18.500000000003126
20
71.255442521342005
10
12.00000000000308
20
71.255442521342005
0
LWPOLYLINE
5
106
100
AcDbEntity
8
0
100
AcDbPolyline
90
4
70
1
43
0.0
10
18.500000000003126
20
73.255442521342005
10
18.500000000003126
20
77.255442521342005
10
12.00000000000311
20
77.255442521342005
10
12.000000000003087
20
73.255442521342005
0
LWPOLYLINE
5
107
100
AcDbEntity
8
0
100
AcDbPolyline
90
3
70
1
43
0.0
10
12.000000000003123
20
79.255442521342019
42
-0.37556530083176975
10
18.500000000003126
20
86.68847689500123
10
18.500000000003126
20
79.255442521342005
0
LWPOLYLINE
5
108
100
AcDbEntity
8
0
100
AcDbPolyline
90
3
70
1
43
0.0
10
-18.499999999996987
20
86.68847689500133
42
-0.37556530083177003
10
-11.999999999997023
20
79.255442521342076
10
-18.49999999999703
20
79.255442521342118
0
LWPOLYLINE
5
109
100
AcDbEntity
8
0
100
AcDbPolyline
90
4
70
1
43
0.0
10
-18.499999999997044
20
77.255442521342118
10
-18.499999999997069
20
73.255442521342118
10
-11.999999999997028
20
73.255442521342076
10
-11.999999999997026
20
77.255442521342076
0
LWPOLYLINE
5
110
100
AcDbEntity
8
0
100
AcDbPolyline
90
4
70
1
43
0.0
10
-18.499999999997065
20
67.000000000000114
10
-11.999999999997
20
67.000000000000057
10
-11.99999999999703
20
71.255442521342076
10
-18.49999999999708
20
71.255442521342118
0
LWPOLYLINE
5
111
100
AcDbEntity
8
0
100
AcDbPolyline
90
4
70
1
43
0.0
10
-20.499999999997002
20
67.000000000000114
10
-20.499999999997002
20
71.255442521342133
10
-26.999999999997016
20
71.255442521342161
10
-26.999999999997002
20
67.000000000000156
0
LWPOLYLINE
5
112
100
AcDbEntity
8
0
100
AcDbPolyline
90
4
70
1
43
0.0
10
-26.999999999997012
20
73.255442521342161
10
-20.499999999996987
20
73.255442521342133
10
-20.499999999996966
20
77.255442521342133
10
-26.999999999997002
20
77.255442521342161
0
LWPOLYLINE
5
113
100
AcDbEntity
8
0
100
AcDbPolyline
90
3
70
1
43
0.0
10
-26.999999999996991
20
79.255442521342161
10
-20.499999999996952
20
79.255442521342133
10
-20.49999999999697
20
86.688476895001344
42
0.37556530083176776
0
LWPOLYLINE
5
114
100
AcDbEntity
8
0
100
AcDbPolyline
90
4
70
1
43
0.0
10
-36.323453791831859
20
61.00000000000022
10
-20.32345379183187
20
61.000000000000121
10
-20.323453791831852
20
64.000000000000114
10
-36.323453791831845
20
64.000000000000213
0
CIRCLE
5
115
100
AcDbEntity
8
0
100
AcDbCircle
10
-43.323453791831817
20
69.000000000000256
30
0
40
1.0000000000000004
210
0
220
0
230
1
0
LWPOLYLINE
5
116
100
AcDbEntity
8
0
100
AcDbPolyline
90
8
70
1
43
0.0
10
-15.323453791831888
20
58.000000000000078
10
-48.323453791831888
20
58.000000000000284
10
-48.323453791831668
20
93.255442521342218
10
48.323453791837849
20
93.255442521341934
10
48.323453791837849
20
57.999999999999986
10
15.323453791837856
20
57.999999999999986
10
12.323453791837856
20
61.000000000000007
10
-12.32345379183187
20
61.000000000000078
0
CIRCLE
5
117
100
AcDbEntity
8
0
100
AcDbCircle
10
3.0581693092719605e-12
20
83.25544252134209
30
0
40
0.99999999999999645
210
0
220
-0
230
1
0
ENDSEC
0
SECTION
2
OBJECTS
0
DICTIONARY
5
C
100
AcDbDictionary
3
ACAD_GROUP
350
D
3
ACAD_MLINESTYLE
350
17
0
DICTIONARY
5
D
100
AcDbDictionary
0
DICTIONARY
5
1A
330
C
100
AcDbDictionary
0
DICTIONARY
5
17
100
AcDbDictionary
0
ENDSEC
0
EOF
