0
SECTION
2
HEADER
9
$INSUNITS
70
4
9
$ACADVER
1
AC1014
9
$HANDSEED
5
FFFF
0
ENDSEC
0
SECTION
2
TABLES
0
TABLE
2
VPORT
5
8
100
AcDbSymbolTable
0
ENDTAB
0
TABLE
2
LTYPE
5
5
100
AcDbSymbolTable
0
LTYPE
5
14
100
AcDbSymbolTableRecord
100
AcDbLinetypeTableRecord
2
BYBLOCK
70
0
0
LTYPE
5
15
100
AcDbSymbolTableRecord
100
AcDbLinetypeTableRecord
2
BYLAYER
70
0
0
ENDTAB
0
TABLE
2
LAYER
5
2
100
AcDbSymbolTable
70
2
0
LAYER
5
50
100
AcDbSymbolTableRecord
100
AcDbLayerTableRecord
2
0
70
0
6
CONTINUOUS
0
ENDTAB
0
TABLE
2
STYLE
5
3
100
AcDbSymbolTable
70
1
0
STYLE
5
11
100
AcDbSymbolTableRecord
100
AcDbTextStyleTableRecord
2
STANDARD
70
0
0
ENDTAB
0
TABLE
2
VIEW
5
6
100
AcDbSymbolTable
70
0
0
ENDTAB
0
TABLE
2
UCS
5
7
100
AcDbSymbolTable
70
0
0
ENDTAB
0
TABLE
2
APPID
5
9
100
AcDbSymbolTable
70
2
0
APPID
5
12
100
AcDbSymbolTableRecord
100
AcDbRegAppTableRecord
2
ACAD
70
0
0
ENDTAB
0
TABLE
2
DIMSTYLE
5
A
100
AcDbSymbolTable
70
1
0
ENDTAB
0
TABLE
2
BLOCK_RECORD
5
1
100
AcDbSymbolTable
70
1
0
BLOCK_RECORD
5
1F
100
AcDbSymbolTableRecord
100
AcDbBlockTableRecord
2
*MODEL_SPACE
0
BLOCK_RECORD
5
1B
100
AcDbSymbolTableRecord
100
AcDbBlockTableRecord
2
*PAPER_SPACE
0
ENDTAB
0
ENDSEC
0
SECTION
2
BLOCKS
0
BLOCK
5
20
100
AcDbEntity
100
AcDbBlockBegin
2
*MODEL_SPACE
0
ENDBLK
5
21
100
AcDbEntity
100
AcDbBlockEnd
0
BLOCK
5
1C
100
AcDbEntity
100
AcDbBlockBegin
2
*PAPER_SPACE
0
ENDBLK
5
1D
100
AcDbEntity
100
AcDbBlockEnd
0
ENDSEC
0
SECTION
2
ENTITIES
0
CIRCLE
5
100
100
AcDbEntity
8
0
100
AcDbCircle
10
-340.0000000000224
20
-21.999999999999808
30
0
40
0.99999999999999978
210
0
220
-0
230
1
0
CIRCLE
5
101
100
AcDbEntity
8
0
100
AcDbCircle
10
-340.00000000002302
20
21.999999999999858
30
0
40
0.99999999999999978
210
0
220
-0
230
1
0
LINE
5
102
100
AcDbEntity
8
0
100
AcDbLine
10
-306.00000000000171
20
69.789033820517645
30
0
11
-344.00000000002279
21
69.789033820517773
31
0
0
LINE
5
103
100
AcDbEntity
8
0
100
AcDbLine
10
-344.00000000002279
20
69.789033820517773
30
0
11
-344.00000000002285
21
62.832514686174015
31
0
0
LINE
5
104
100
AcDbEntity
8
0
100
AcDbLine
10
-344.00000000002285
20
62.832514686174015
30
0
11
-350.00000000002285
21
62.832514686174036
31
0
0
LINE
5
105
100
AcDbEntity
8
0
100
AcDbLine
10
-350.00000000002285
20
62.832514686174036
30
0
11
-350.00000000002285
21
51.999999999999808
31
0
0
LINE
5
106
100
AcDbEntity
8
0
100
AcDbLine
10
-350.00000000002285
20
51.999999999999808
30
0
11
-356.00000000002274
21
51.999999999999822
31
0
0
LINE
5
107
100
AcDbEntity
8
0
100
AcDbLine
10
-356.00000000002274
20
51.999999999999822
30
0
11
-356.00000000002274
21
33.999999999999815
31
0
0
LINE
5
108
100
AcDbEntity
8
0
100
AcDbLine
10
-356.00000000002274
20
33.999999999999815
30
0
11
-350.00000000002296
21
33.99999999999978
31
0
0
LINE
5
109
100
AcDbEntity
8
0
100
AcDbLine
10
-350.00000000002296
20
33.99999999999978
30
0
11
-350.00000000002308
21
8.9999999999997904
31
0
0
LINE
5
110
100
AcDbEntity
8
0
100
AcDbLine
10
-350.00000000002308
20
8.9999999999997904
30
0
11
-356.00000000002211
21
8.999999999999817
31
0
0
LINE
5
111
100
AcDbEntity
8
0
100
AcDbLine
10
-356.00000000002211
20
8.999999999999817
30
0
11
-356.00000000002183
21
-9.0000000000001812
31
0
0
LINE
5
112
100
AcDbEntity
8
0
100
AcDbLine
10
-356.00000000002183
20
-9.0000000000001812
30
0
11
-350.00000000002279
21
-8.9999999999999947
31
0
0
LINE
5
113
100
AcDbEntity
8
0
100
AcDbLine
10
-350.00000000002279
20
-8.9999999999999947
30
0
11
-350.00000000002206
21
-33.999999999999993
31
0
0
LINE
5
114
100
AcDbEntity
8
0
100
AcDbLine
10
-350.00000000002206
20
-33.999999999999993
30
0
11
-356.00000000002183
21
-34.000000000000185
31
0
0
LINE
5
115
100
AcDbEntity
8
0
100
AcDbLine
10
-356.00000000002183
20
-34.000000000000185
30
0
11
-356.00000000002132
21
-52.000000000000185
31
0
0
LINE
5
116
100
AcDbEntity
8
0
100
AcDbLine
10
-356.00000000002132
20
-52.000000000000185
30
0
11
-350.00000000002154
21
-52
31
0
0
LINE
5
117
100
AcDbEntity
8
0
100
AcDbLine
10
-350.00000000002154
20
-52
30
0
11
-350.00000000002115
21
-62.832514686174228
31
0
0
LINE
5
118
100
AcDbEntity
8
0
100
AcDbLine
10
-350.00000000002115
20
-62.832514686174228
30
0
11
-344.00000000002115
21
-62.832514686174051
31
0
0
LINE
5
119
100
AcDbEntity
8
0
100
AcDbLine
10
-344.00000000002115
20
-62.832514686174051
30
0
11
-344.00000000002092
21
-69.789033820517815
31
0
0
LINE
5
120
100
AcDbEntity
8
0
100
AcDbLine
10
-344.00000000002092
20
-69.789033820517815
30
0
11
-305.99999999999977
21
-69.78903382051665
31
0
0
LINE
5
121
100
AcDbEntity
8
0
100
AcDbLine
10
-305.99999999999977
20
-69.78903382051665
30
0
11
-306
21
-62.78903382051665
31
0
0
LINE
5
122
100
AcDbEntity
8
0
100
AcDbLine
10
-306
20
-62.78903382051665
30
0
11
-300
21
-62.789033820516487
31
0
0
LINE
5
123
100
AcDbEntity
8
0
100
AcDbLine
10
-300
20
-62.789033820516487
30
0
11
-300
21
-50.500000000000412
31
0
0
ARC
5
124
100
AcDbEntity
8
0
100
AcDbCircle
10
-306
20
-50.500000000000412
30
0
40
5.9999999999999787
210
0
220
-0
230
1
100
AcDbArc
50
0
51
90
0
LINE
5
125
100
AcDbEntity
8
0
100
AcDbLine
10
-306
20
-44.500000000000426
30
0
11
-310.99999999999977
21
-44.500000000000426
31
0
0
ARC
5
126
100
AcDbEntity
8
0
100
AcDbCircle
10
-310.99999999999977
20
-31.500000000000426
30
0
40
12.999999999999998
210
0
220
-0
230
1
100
AcDbArc
50
90
51
270
0
LINE
5
127
100
AcDbEntity
8
0
100
AcDbLine
10
-310.99999999999977
20
-18.500000000000426
30
0
11
-306
21
-18.500000000000426
31
0
0
ARC
5
128
100
AcDbEntity
8
0
100
AcDbCircle
10
-306
20
-12.50000000000043
30
0
40
5.9999999999999947
210
-0
220
0
230
1
100
AcDbArc
50
-90
51
0
0
LINE
5
129
100
AcDbEntity
8
0
100
AcDbLine
10
-300.00000000000006
20
-12.500000000000423
30
0
11
-300
21
-7.9999999999993854
31
0
0
SPLINE
5
130
100
AcDbEntity
8
0
100
AcDbSpline
70
4
71
5
72
21
73
15
74
0
42
0.000000001
43
0.0000000001
44
0.0000000001
40
0
40
0
40
0
40
0
40
0
40
0
40
0.10000000000000001
40
0.20000000000000001
40
0.30000000000000004
40
0.40000000000000002
40
0.5
40
0.59999999999999998
40
0.69999999999999996
40
0.79999999999999993
40
0.89999999999999991
40
1
40
1
40
1
40
1
40
1
40
1
41
1
41
1
41
1
41
1
41
1
41
1
41
1
41
1
41
1
41
1
41
1
41
1
41
1
41
1
41
1
10
-296.74860375817707
20
6.1284310959308641e-13
30
0
10
-296.74860375817707
20
-0.12109853340442456
30
0
10
-296.75490808901276
20
-0.36795226062598996
30
0
10
-296.78331128696681
20
-0.75227928241190067
30
0
10
-296.86717928899657
20
-1.2976574132652141
30
0
10
-297.08828841663467
20
-2.0567216230596097
30
0
10
-297.4553069300332
20
-2.8928172518455808
30
0
10
-297.97194513349575
20
-3.7835230035287593
30
0
10
-298.561256896869
20
-4.5991277138933073
30
0
10
-299.13585603725886
20
-5.3277183745111145
30
0
10
-299.61884495610025
20
-6.0507723113170098
30
0
10
-299.87754033044632
20
-6.716560189836942
30
0
10
-299.97773558253027
20
-7.3139600717055053
30
0
10
-300
20
-7.762875564467655
30
0
10
-300
20
-7.9999999999993854
30
0
0
SPLINE
5
131
100
AcDbEntity
8
0
100
AcDbSpline
70
4
71
5
72
21
73
15
74
0
42
0.000000001
43
0.0000000001
44
0.0000000001
40
0
40
0
40
0
40
0
40
0
40
0
40
0.10000000000000001
40
0.20000000000000001
40
0.30000000000000004
40
0.40000000000000002
40
0.5
40
0.59999999999999998
40
0.69999999999999996
40
0.79999999999999993
40
0.89999999999999991
40
1
40
1
40
1
40
1
40
1
40
1
41
1
41
1
41
1
41
1
41
1
41
1
41
1
41
1
41
1
41
1
41
1
41
1
41
1
41
1
41
1
10
-296.74860375817707
20
6.1284310959308641e-13
30
0
10
-296.74860375817707
20
0.12109853340565024
30
0
10
-296.75490808901276
20
0.36795226062721564
30
0
10
-296.78331128696686
20
0.75227928241312636
30
0
10
-296.86717928899662
20
1.2976574132664354
30
0
10
-297.08828841663478
20
2.0567216230608265
30
0
10
-297.45530693003326
20
2.8928172518467887
30
0
10
-297.97194513349586
20
3.7835230035299494
30
0
10
-298.56125689686911
20
4.5991277138944842
30
0
10
-299.13585603725897
20
5.3277183745122736
30
0
10
-299.61884495610042
20
6.05077231131816
30
0
10
-299.87754033044649
20
6.7165601898380833
30
0
10
-299.97773558253044
20
7.3139600717066422
30
0
10
-300.00000000000023
20
7.7628755644687919
30
0
10
-300.00000000000023
20
8.0000000000005222
30
0
0
LINE
5
132
100
AcDbEntity
8
0
100
AcDbLine
10
-300.00000000000023
20
8.0000000000005205
30
0
11
-300.00000000000171
21
62.789033820517631
31
0
0
LINE
5
133
100
AcDbEntity
8
0
100
AcDbLine
10
-300.00000000000171
20
62.789033820517631
30
0
11
-306.00000000000171
21
62.789033820517631
31
0
0
LINE
5
134
100
AcDbEntity
8
0
100
AcDbLine
10
-306.00000000000171
20
62.789033820517631
30
0
11
-306.00000000000171
21
69.789033820517645
31
0
0
ENDSEC
0
SECTION
2
OBJECTS
0
DICTIONARY
5
C
100
AcDbDictionary
3
ACAD_GROUP
350
D
3
ACAD_MLINESTYLE
350
17
0
DICTIONARY
5
D
100
AcDbDictionary
0
DICTIONARY
5
1A
330
C
100
AcDbDictionary
0
DICTIONARY
5
17
100
AcDbDictionary
0
ENDSEC
0
EOF
