0
SECTION
2
HEADER
9
$INSUNITS
70
4
9
$ACADVER
1
AC1014
9
$HANDSEED
5
FFFF
0
ENDSEC
0
SECTION
2
TABLES
0
TABLE
2
VPORT
5
8
100
AcDbSymbolTable
0
ENDTAB
0
TABLE
2
LTYPE
5
5
100
AcDbSymbolTable
0
LTYPE
5
14
100
AcDbSymbolTableRecord
100
AcDbLinetypeTableRecord
2
BYBLOCK
70
0
0
LTYPE
5
15
100
AcDbSymbolTableRecord
100
AcDbLinetypeTableRecord
2
BYLAYER
70
0
0
ENDTAB
0
TABLE
2
LAYER
5
2
100
AcDbSymbolTable
70
2
0
LAYER
5
50
100
AcDbSymbolTableRecord
100
AcDbLayerTableRecord
2
0
70
0
6
CONTINUOUS
0
ENDTAB
0
TABLE
2
STYLE
5
3
100
AcDbSymbolTable
70
1
0
STYLE
5
11
100
AcDbSymbolTableRecord
100
AcDbTextStyleTableRecord
2
STANDARD
70
0
0
ENDTAB
0
TABLE
2
VIEW
5
6
100
AcDbSymbolTable
70
0
0
ENDTAB
0
TABLE
2
UCS
5
7
100
AcDbSymbolTable
70
0
0
ENDTAB
0
TABLE
2
APPID
5
9
100
AcDbSymbolTable
70
2
0
APPID
5
12
100
AcDbSymbolTableRecord
100
AcDbRegAppTableRecord
2
ACAD
70
0
0
ENDTAB
0
TABLE
2
DIMSTYLE
5
A
100
AcDbSymbolTable
70
1
0
ENDTAB
0
TABLE
2
BLOCK_RECORD
5
1
100
AcDbSymbolTable
70
1
0
BLOCK_RECORD
5
1F
100
AcDbSymbolTableRecord
100
AcDbBlockTableRecord
2
*MODEL_SPACE
0
BLOCK_RECORD
5
1B
100
AcDbSymbolTableRecord
100
AcDbBlockTableRecord
2
*PAPER_SPACE
0
ENDTAB
0
ENDSEC
0
SECTION
2
BLOCKS
0
BLOCK
5
20
100
AcDbEntity
100
AcDbBlockBegin
2
*MODEL_SPACE
0
ENDBLK
5
21
100
AcDbEntity
100
AcDbBlockEnd
0
BLOCK
5
1C
100
AcDbEntity
100
AcDbBlockBegin
2
*PAPER_SPACE
0
ENDBLK
5
1D
100
AcDbEntity
100
AcDbBlockEnd
0
ENDSEC
0
SECTION
2
ENTITIES
0
CIRCLE
5
100
100
AcDbEntity
8
0
100
AcDbCircle
10
4.3520742565306136e-13
20
41.499999999999623
30
0
40
1.5000000000000002
210
0
220
-0
230
1
0
CIRCLE
5
101
100
AcDbEntity
8
0
100
AcDbCircle
10
4.2075433175943691e-13
20
57.000000000000064
30
0
40
1.5000000000000002
210
0
220
-0
230
1
0
LWPOLYLINE
5
102
100
AcDbEntity
8
0
100
AcDbPolyline
90
70
70
1
43
0.0
10
-49.925928863833811
20
69.000000000000696
10
-49.925928863833811
20
72.000000000001336
10
49.925928863833953
20
72.000000000001336
10
49.925928863833953
20
69.000000000000696
42
0.99999999999999989
10
55.925928863833967
20
69.000000000000696
10
55.925928863833967
20
72.000000000000696
10
65.621300880269658
20
71.999999999999304
10
67.650732921244398
20
60.490518961868062
10
75.360151470830942
20
51.873052296923817
10
80.918895705727778
20
43.732271152962696
10
83.435793437643639
20
34.218635188406864
10
84.153782891035036
20
24.368441408701376
10
82.648674233399149
20
14.550895497895953
10
78.846153846153854
20
4.999999999998348
10
78.846153846154166
20
10.999999999998344
10
72.99999999999882
20
10.999999999998415
10
72.999999999998749
20
4.9999999999984102
10
67.999999999998749
20
4.9999999999986677
10
67.999999999999034
20
24.799999999998555
10
69.999999999998991
20
24.79999999999853
42
0.41421356237309337
10
72.999999999999076
20
27.799999999998466
10
72.999999999999318
20
39.699999999998361
42
0.4142135623730942
10
69.999999999999375
20
42.699999999998433
10
67.999999999999375
20
42.699999999998468
10
67.999999999999503
20
48.799999999998434
42
0.37810453983394021
10
66.499999999999602
20
50.499999999998451
10
64.999999999999602
20
50.499999999998494
10
64.999999999999716
20
58.999999999998494
42
0.41421356237309243
10
59.999999999999822
20
63.999999999998508
10
43.999999999999844
20
63.999999999998884
42
0.41421356237309037
10
38.999999999999744
20
58.999999999999062
10
38.999999999999595
20
50.499999999999055
10
37.499999999999588
20
50.499999999999083
42
0.3781045398339592
10
35.999999999999517
20
48.79999999999913
10
35.999999999998792
20
5.0000001639120217
10
29.999999999998792
20
5.000000163912075
10
29.999999999998856
20
10.99999999999886
10
-29.999999999998622
20
10.999999999999488
10
-29.999999999998685
20
5.0000001639127092
10
-35.999999999998685
20
5.0000001639127767
10
-35.999999999998494
20
48.799999999999891
42
0.37810453983395353
10
-37.499999999998529
20
50.499999999999872
10
-38.999999999998508
20
50.499999999999872
10
-38.999999999998508
20
58.999999999999851
42
0.41421356237309398
10
-43.999999999998494
20
63.999999999999801
10
-59.999999999998472
20
63.999999999999744
42
0.41421356237309348
10
-64.999999999998508
20
58.999999999999858
10
-64.999999999998536
20
50.499999999999865
10
-66.499999999998536
20
50.499999999999858
42
0.37810453983394443
10
-67.999999999998494
20
48.799999999999869
10
-67.999999999998494
20
42.699999999999896
10
-69.999999999998479
20
42.699999999999896
42
0.41421356237309809
10
-72.999999999998479
20
39.699999999999889
10
-72.999999999998494
20
27.799999999999994
42
0.41421356237309548
10
-69.999999999998479
20
24.799999999999997
10
-67.999999999998522
20
24.79999999999999
10
-67.99999999999865
20
5.0000000000000986
10
-72.99999999999865
20
4.9999999999999378
10
-72.999999999998593
20
10.99999999999994
10
-78.846153846153939
20
11
10
-78.84615384615374
20
5
10
-82.64867423339885
20
14.550895497897688
10
-84.153782891034552
20
24.368441408703141
10
-83.435793437642914
20
34.218635188408612
10
-80.918895705726882
20
43.732271152964387
10
-75.360151470829862
20
51.873052296925401
10
-67.650732921243147
20
60.490518961869483
10
-65.621300880268137
20
72.00000000000081
10
-55.925928863833825
20
72.000000000000696
10
-55.925928863833825
20
69.000000000000696
42
0.99999999999999989
0
ENDSEC
0
SECTION
2
OBJECTS
0
DICTIONARY
5
C
100
AcDbDictionary
3
ACAD_GROUP
350
D
3
ACAD_MLINESTYLE
350
17
0
DICTIONARY
5
D
100
AcDbDictionary
0
DICTIONARY
5
1A
330
C
100
AcDbDictionary
0
DICTIONARY
5
17
100
AcDbDictionary
0
ENDSEC
0
EOF
