0
SECTION
2
HEADER
9
$INSUNITS
70
4
9
$ACADVER
1
AC1014
9
$HANDSEED
5
FFFF
0
ENDSEC
0
SECTION
2
TABLES
0
TABLE
2
VPORT
5
8
100
AcDbSymbolTable
0
ENDTAB
0
TABLE
2
LTYPE
5
5
100
AcDbSymbolTable
0
LTYPE
5
14
100
AcDbSymbolTableRecord
100
AcDbLinetypeTableRecord
2
BYBLOCK
70
0
0
LTYPE
5
15
100
AcDbSymbolTableRecord
100
AcDbLinetypeTableRecord
2
BYLAYER
70
0
0
ENDTAB
0
TABLE
2
LAYER
5
2
100
AcDbSymbolTable
70
2
0
LAYER
5
50
100
AcDbSymbolTableRecord
100
AcDbLayerTableRecord
2
0
70
0
6
CONTINUOUS
0
ENDTAB
0
TABLE
2
STYLE
5
3
100
AcDbSymbolTable
70
1
0
STYLE
5
11
100
AcDbSymbolTableRecord
100
AcDbTextStyleTableRecord
2
STANDARD
70
0
0
ENDTAB
0
TABLE
2
VIEW
5
6
100
AcDbSymbolTable
70
0
0
ENDTAB
0
TABLE
2
UCS
5
7
100
AcDbSymbolTable
70
0
0
ENDTAB
0
TABLE
2
APPID
5
9
100
AcDbSymbolTable
70
2
0
APPID
5
12
100
AcDbSymbolTableRecord
100
AcDbRegAppTableRecord
2
ACAD
70
0
0
ENDTAB
0
TABLE
2
DIMSTYLE
5
A
100
AcDbSymbolTable
70
1
0
ENDTAB
0
TABLE
2
BLOCK_RECORD
5
1
100
AcDbSymbolTable
70
1
0
BLOCK_RECORD
5
1F
100
AcDbSymbolTableRecord
100
AcDbBlockTableRecord
2
*MODEL_SPACE
0
BLOCK_RECORD
5
1B
100
AcDbSymbolTableRecord
100
AcDbBlockTableRecord
2
*PAPER_SPACE
0
ENDTAB
0
ENDSEC
0
SECTION
2
BLOCKS
0
BLOCK
5
20
100
AcDbEntity
100
AcDbBlockBegin
2
*MODEL_SPACE
0
ENDBLK
5
21
100
AcDbEntity
100
AcDbBlockEnd
0
BLOCK
5
1C
100
AcDbEntity
100
AcDbBlockBegin
2
*PAPER_SPACE
0
ENDBLK
5
1D
100
AcDbEntity
100
AcDbBlockEnd
0
ENDSEC
0
SECTION
2
ENTITIES
0
LWPOLYLINE
5
100
100
AcDbEntity
8
0
100
AcDbPolyline
90
4
70
1
43
0.0
10
70.046797163487497
20
32.36593133640342
10
65.046797163487497
20
32.36593133640342
10
65.046797163487497
20
22.365931336403424
10
70.046797163487497
20
22.365931336403424
0
LWPOLYLINE
5
101
100
AcDbEntity
8
0
100
AcDbPolyline
90
4
70
1
43
0.0
10
-65.046797163540532
20
32.365931336403122
10
-70.046797163540532
20
32.365931336403101
10
-70.046797163540475
20
22.365931336403094
10
-65.046797163540475
20
22.365931336403122
0
LINE
5
102
100
AcDbEntity
8
0
100
AcDbLine
10
-21.989654044131932
20
14.999999999975548
30
0
11
-21.989654044150576
21
10.999999999999943
31
0
0
LINE
5
103
100
AcDbEntity
8
0
100
AcDbLine
10
-21.989654044150576
20
10.999999999999943
30
0
11
-5.0000000000264633
21
10.999999999999989
31
0
0
LINE
5
104
100
AcDbEntity
8
0
100
AcDbLine
10
-5.0000000000264633
20
10.999999999999989
30
0
11
-5.0000000000264659
21
4.9999999999999876
31
0
0
LINE
5
105
100
AcDbEntity
8
0
100
AcDbLine
10
-5.0000000000264659
20
4.9999999999999876
30
0
11
4.9999999999735341
21
4.9999999999999876
31
0
0
LINE
5
106
100
AcDbEntity
8
0
100
AcDbLine
10
4.9999999999735341
20
4.9999999999999876
30
0
11
4.9999999999735332
21
10.999999999999989
31
0
0
LINE
5
107
100
AcDbEntity
8
0
100
AcDbLine
10
4.9999999999735332
20
10.999999999999989
30
0
11
21.989654044110903
21
10.999999999999943
31
0
0
LINE
5
108
100
AcDbEntity
8
0
100
AcDbLine
10
21.989654044110903
20
10.999999999999943
30
0
11
21.989654044110345
21
14.999999999987319
31
0
0
ARC
5
109
100
AcDbEntity
8
0
100
AcDbCircle
10
23.989654044110065
20
14.999999999987878
30
-3.1861838222649046e-57
40
1.9999999999997176
210
1.60389209811555e-54
220
-5.739718509874452e-42
230
1
100
AcDbArc
50
0
51
180
0
LINE
5
110
100
AcDbEntity
8
0
100
AcDbLine
10
25.989654044109784
20
14.999999999988438
30
7.02912790112357e-58
11
25.9896540441109
21
10.999999999988439
31
0
0
LINE
5
111
100
AcDbEntity
8
0
100
AcDbLine
10
25.9896540441109
20
10.999999999988439
30
0
11
39.999999999973539
21
10.999999999999996
31
0
0
LINE
5
112
100
AcDbEntity
8
0
100
AcDbLine
10
39.999999999973539
20
10.999999999999996
30
0
11
39.999999999973539
21
4.9999999999999867
31
0
0
LINE
5
113
100
AcDbEntity
8
0
100
AcDbLine
10
39.999999999973539
20
4.9999999999999867
30
0
11
49.999999999973539
21
4.9999999999999893
31
0
0
LINE
5
114
100
AcDbEntity
8
0
100
AcDbLine
10
49.999999999973539
20
4.9999999999999893
30
0
11
49.999999999973539
21
10.999999999999998
31
0
0
LINE
5
115
100
AcDbEntity
8
0
100
AcDbLine
10
49.999999999973539
20
10.999999999999998
30
0
11
69.999999999980176
21
11
31
0
0
LINE
5
116
100
AcDbEntity
8
0
100
AcDbLine
10
69.999999999980176
20
11
30
0
11
69.999999999980162
21
5
31
0
0
LINE
5
117
100
AcDbEntity
8
0
100
AcDbLine
10
69.999999999980162
20
5
30
0
11
70.248541977143546
21
5
31
0
0
LINE
5
118
100
AcDbEntity
8
0
100
AcDbLine
10
70.248541977143546
20
5
30
0
11
75.227403282705311
21
17.505543477808878
31
0
0
LINE
5
119
100
AcDbEntity
8
0
100
AcDbLine
10
75.227403282705311
20
17.505543477808878
30
0
11
75.560675850027934
21
17.372856890249349
31
0
0
LINE
5
120
100
AcDbEntity
8
0
100
AcDbLine
10
75.560675850027934
20
17.372856890249349
30
0
11
76.805856074752
21
25.494937619396509
31
0
0
LINE
5
121
100
AcDbEntity
8
0
100
AcDbLine
10
76.805856074752
20
25.494937619396509
30
0
11
77.259469162640741
21
25.425395088910676
31
0
0
LINE
5
122
100
AcDbEntity
8
0
100
AcDbLine
10
77.259469162640741
20
25.425395088910676
30
0
11
76.654551311016931
21
33.724344371731526
31
0
0
LINE
5
123
100
AcDbEntity
8
0
100
AcDbLine
10
76.654551311016931
20
33.724344371731526
30
0
11
77.342524994052866
21
33.774491390123032
31
0
0
LINE
5
124
100
AcDbEntity
8
0
100
AcDbLine
10
77.342524994052866
20
33.774491390123032
30
0
11
75.114385585322168
21
42.196648136558331
31
0
0
LINE
5
125
100
AcDbEntity
8
0
100
AcDbLine
10
75.114385585322168
20
42.196648136558331
30
0
11
75.578160088039141
21
42.319342866350155
31
0
0
LINE
5
126
100
AcDbEntity
8
0
100
AcDbLine
10
75.578160088039141
20
42.319342866350155
30
0
11
71.059718360102096
21
48.936600949201711
31
0
0
LINE
5
127
100
AcDbEntity
8
0
100
AcDbLine
10
71.059718360102096
20
48.936600949201711
30
0
11
71.687767056505095
21
49.365449484572864
31
0
0
LINE
5
128
100
AcDbEntity
8
0
100
AcDbLine
10
71.687767056505095
20
49.365449484572864
30
0
11
64.36485574467217
21
57.550884444962307
31
0
0
LINE
5
129
100
AcDbEntity
8
0
100
AcDbLine
10
64.36485574467217
20
57.550884444962307
30
0
11
64.490683977587054
21
59.933317072747158
31
0
0
LINE
5
130
100
AcDbEntity
8
0
100
AcDbLine
10
64.490683977587054
20
59.933317072747158
30
0
11
62.363002209858138
21
72.000000000000767
31
0
0
LINE
5
131
100
AcDbEntity
8
0
100
AcDbLine
10
62.363002209858138
20
72.000000000000767
30
0
11
60.239029912848295
21
72.000000000000739
31
0
0
LINE
5
132
100
AcDbEntity
8
0
100
AcDbLine
10
60.239029912848295
20
72.000000000000739
30
0
11
63.325289159617753
21
54.496954043169325
31
0
0
ARC
5
133
100
AcDbEntity
8
0
100
AcDbCircle
10
51.999999999977035
20
52.499999999999744
30
0
40
11.500000000000306
210
-0
220
0
230
1
100
AcDbArc
50
-3.8103302275260416
51
9.9999999999991349
0
LINE
5
134
100
AcDbEntity
8
0
100
AcDbLine
10
63.47457928589521
20
51.735781306702798
30
0
11
61.525827908409099
21
22.475698576933677
31
0
0
LINE
5
135
100
AcDbEntity
8
0
100
AcDbLine
10
61.525827908409099
20
22.475698576933677
30
0
11
58.757684512585811
21
15.954361408944013
31
0
0
ARC
5
136
100
AcDbEntity
8
0
100
AcDbCircle
10
51.999999999977035
20
52.499999999999744
30
0
40
37.165171868296028
210
0
220
0
230
1
100
AcDbArc
50
221.05948671348011
51
280.47627829610457
0
ARC
5
137
100
AcDbEntity
8
0
100
AcDbCircle
10
-2.6455485589734795e-11
20
7.2022186819223597
30
0
40
31.797781318077632
210
0
220
-0
230
1
100
AcDbArc
50
41.0594867134797
51
138.94051328652057
0
ARC
5
138
100
AcDbEntity
8
0
100
AcDbCircle
10
-52.000000000030589
20
52.499999999999503
30
0
40
37.165171868294678
210
0
220
0
230
1
100
AcDbArc
50
259.52372170389634
51
318.94051328652057
0
LINE
5
139
100
AcDbEntity
8
0
100
AcDbLine
10
-58.757684512638448
20
15.954361408945408
30
0
11
-61.52582790846207
21
22.475698576933389
31
0
0
LINE
5
140
100
AcDbEntity
8
0
100
AcDbLine
10
-61.52582790846207
20
22.475698576933389
30
0
11
-63.474579285948337
21
51.735781306702506
31
0
0
ARC
5
141
100
AcDbEntity
8
0
100
AcDbCircle
10
-52.000000000030589
20
52.499999999999503
30
0
40
11.499999999999877
210
0
220
0
230
1
100
AcDbArc
50
170.00000000000074
51
183.81033022752638
0
LINE
5
142
100
AcDbEntity
8
0
100
AcDbLine
10
-63.325289159670888
20
54.49695404316904
30
0
11
-60.239029912901508
21
72.000000000000455
31
0
0
LINE
5
143
100
AcDbEntity
8
0
100
AcDbLine
10
-60.239029912901508
20
72.000000000000455
30
0
11
-62.363002209911336
21
71.999999999999346
31
0
0
LINE
5
144
100
AcDbEntity
8
0
100
AcDbLine
10
-62.363002209911336
20
71.999999999999346
30
0
11
-64.490683977640003
21
59.933317072747137
31
0
0
LINE
5
145
100
AcDbEntity
8
0
100
AcDbLine
10
-64.490683977640003
20
59.933317072747137
30
0
11
-64.364855744725119
21
57.5508844449623
31
1.9721522630525295e-30
0
LINE
5
146
100
AcDbEntity
8
0
100
AcDbLine
10
-64.364855744725119
20
57.5508844449623
30
1.9721522630525295e-30
11
-71.687767056558044
21
49.365449484572828
31
0
0
LINE
5
147
100
AcDbEntity
8
0
100
AcDbLine
10
-71.687767056558044
20
49.365449484572828
30
0
11
-71.059718360155046
21
48.936600949201683
31
0
0
LINE
5
148
100
AcDbEntity
8
0
100
AcDbLine
10
-71.059718360155046
20
48.936600949201683
30
0
11
-75.578160088092105
21
42.319342866350134
31
0
0
LINE
5
149
100
AcDbEntity
8
0
100
AcDbLine
10
-75.578160088092105
20
42.319342866350134
30
0
11
-75.114385585375118
21
42.196648136558309
31
0
0
LINE
5
150
100
AcDbEntity
8
0
100
AcDbLine
10
-75.114385585375118
20
42.196648136558309
30
0
11
-77.342524994105787
21
33.774491390123011
31
0
0
LINE
5
151
100
AcDbEntity
8
0
100
AcDbLine
10
-77.342524994105787
20
33.774491390123011
30
0
11
-76.654551311069866
21
33.724344371731505
31
0
0
LINE
5
152
100
AcDbEntity
8
0
100
AcDbLine
10
-76.654551311069866
20
33.724344371731505
30
0
11
-77.259469162693676
21
25.425395088910648
31
0
0
LINE
5
153
100
AcDbEntity
8
0
100
AcDbLine
10
-77.259469162693676
20
25.425395088910648
30
0
11
-76.805856074804936
21
25.494937619396481
31
0
0
LINE
5
154
100
AcDbEntity
8
0
100
AcDbLine
10
-76.805856074804936
20
25.494937619396481
30
0
11
-75.560675850080855
21
17.372856890249327
31
0
0
LINE
5
155
100
AcDbEntity
8
0
100
AcDbLine
10
-75.560675850080855
20
17.372856890249327
30
0
11
-75.227403282758246
21
17.50554347780886
31
0
0
LINE
5
156
100
AcDbEntity
8
0
100
AcDbLine
10
-75.227403282758246
20
17.50554347780886
30
0
11
-70.248541977196467
21
4.9999999999999822
31
0
0
LINE
5
157
100
AcDbEntity
8
0
100
AcDbLine
10
-70.248541977196467
20
4.9999999999999822
30
0
11
-70.000000000033097
21
4.9999999999999822
31
0
0
LINE
5
158
100
AcDbEntity
8
0
100
AcDbLine
10
-70.000000000033097
20
4.9999999999999822
30
0
11
-70.000000000033097
21
10.999999999999979
31
0
0
LINE
5
159
100
AcDbEntity
8
0
100
AcDbLine
10
-70.000000000033097
20
10.999999999999979
30
0
11
-50.000000000026461
21
10.999999999999998
31
0
0
LINE
5
160
100
AcDbEntity
8
0
100
AcDbLine
10
-50.000000000026461
20
10.999999999999998
30
0
11
-50.000000000026461
21
4.9999999999999893
31
0
0
LINE
5
161
100
AcDbEntity
8
0
100
AcDbLine
10
-50.000000000026461
20
4.9999999999999893
30
0
11
-40.000000000026461
21
4.9999999999999867
31
0
0
LINE
5
162
100
AcDbEntity
8
0
100
AcDbLine
10
-40.000000000026461
20
4.9999999999999867
30
0
11
-40.000000000026461
21
10.999999999999996
31
0
0
LINE
5
163
100
AcDbEntity
8
0
100
AcDbLine
10
-40.000000000026461
20
10.999999999999996
30
0
11
-25.989654044129679
21
10.999999999973863
31
0
0
LINE
5
164
100
AcDbEntity
8
0
100
AcDbLine
10
-25.989654044129679
20
10.999999999973863
30
0
11
-25.989654044130805
21
14.999999999973861
31
0
0
ARC
5
165
100
AcDbEntity
8
0
100
AcDbCircle
10
-23.989654044131086
20
14.99999999997442
30
0
40
1.999999999999158
210
0
220
-0
230
1
100
AcDbArc
50
0
51
180
0
ENDSEC
0
SECTION
2
OBJECTS
0
DICTIONARY
5
C
100
AcDbDictionary
3
ACAD_GROUP
350
D
3
ACAD_MLINESTYLE
350
17
0
DICTIONARY
5
D
100
AcDbDictionary
0
DICTIONARY
5
1A
330
C
100
AcDbDictionary
0
DICTIONARY
5
17
100
AcDbDictionary
0
ENDSEC
0
EOF
