0
SECTION
2
HEADER
9
$INSUNITS
70
4
9
$ACADVER
1
AC1014
9
$HANDSEED
5
FFFF
0
ENDSEC
0
SECTION
2
TABLES
0
TABLE
2
VPORT
5
8
100
AcDbSymbolTable
0
ENDTAB
0
TABLE
2
LTYPE
5
5
100
AcDbSymbolTable
0
LTYPE
5
14
100
AcDbSymbolTableRecord
100
AcDbLinetypeTableRecord
2
BYBLOCK
70
0
0
LTYPE
5
15
100
AcDbSymbolTableRecord
100
AcDbLinetypeTableRecord
2
BYLAYER
70
0
0
ENDTAB
0
TABLE
2
LAYER
5
2
100
AcDbSymbolTable
70
2
0
LAYER
5
50
100
AcDbSymbolTableRecord
100
AcDbLayerTableRecord
2
0
70
0
6
CONTINUOUS
0
ENDTAB
0
TABLE
2
STYLE
5
3
100
AcDbSymbolTable
70
1
0
STYLE
5
11
100
AcDbSymbolTableRecord
100
AcDbTextStyleTableRecord
2
STANDARD
70
0
0
ENDTAB
0
TABLE
2
VIEW
5
6
100
AcDbSymbolTable
70
0
0
ENDTAB
0
TABLE
2
UCS
5
7
100
AcDbSymbolTable
70
0
0
ENDTAB
0
TABLE
2
APPID
5
9
100
AcDbSymbolTable
70
2
0
APPID
5
12
100
AcDbSymbolTableRecord
100
AcDbRegAppTableRecord
2
ACAD
70
0
0
ENDTAB
0
TABLE
2
DIMSTYLE
5
A
100
AcDbSymbolTable
70
1
0
ENDTAB
0
TABLE
2
BLOCK_RECORD
5
1
100
AcDbSymbolTable
70
1
0
BLOCK_RECORD
5
1F
100
AcDbSymbolTableRecord
100
AcDbBlockTableRecord
2
*MODEL_SPACE
0
BLOCK_RECORD
5
1B
100
AcDbSymbolTableRecord
100
AcDbBlockTableRecord
2
*PAPER_SPACE
0
ENDTAB
0
ENDSEC
0
SECTION
2
BLOCKS
0
BLOCK
5
20
100
AcDbEntity
100
AcDbBlockBegin
2
*MODEL_SPACE
0
ENDBLK
5
21
100
AcDbEntity
100
AcDbBlockEnd
0
BLOCK
5
1C
100
AcDbEntity
100
AcDbBlockBegin
2
*PAPER_SPACE
0
ENDBLK
5
1D
100
AcDbEntity
100
AcDbBlockEnd
0
ENDSEC
0
SECTION
2
ENTITIES
0
CIRCLE
5
100
100
AcDbEntity
8
0
100
AcDbCircle
10
-128.49999859849629
20
86.54189557647112
30
-4.4408920985006262e-15
40
1.5000000000000038
210
-2.5780305232767864e-48
220
5.3374891459972867e-81
230
1
0
LWPOLYLINE
5
101
100
AcDbEntity
8
0
100
AcDbPolyline
90
35
70
1
43
0.0
10
-144.49999859849626
20
11.000000000000004
10
-153.99999765972314
20
10.999999999999996
10
-153.99999765972314
20
31.000000000000007
10
-147.99999765972311
20
31.000000000000007
10
-147.99999765972311
20
62.999999999967343
10
-153.99999765972314
20
62.999999999967329
10
-153.99999765972328
20
82.999999999967358
10
-147.99999765972311
20
82.999999999967372
10
-147.99999765972314
20
91.843245008181768
10
-102.74999859849623
20
98.202717646529095
10
-102.74999859849623
20
113.49999999999972
10
-66.499998598496433
20
113.49999999999973
10
-66.499998598496447
20
79.015832377769385
10
-48.373347604052597
20
82.212050017975741
10
-50.512342379653404
20
70.087535580274576
10
-44.604894526007264
20
69.044555339284102
10
-48.082183711065227
20
49.349163494401218
10
-53.987063795193002
20
50.391690386849731
10
-57.461785210732614
20
30.695845193424883
10
-51.55947289612314
20
29.653771649518315
10
-55.036762081181067
20
9.9583798046354293
10
-60.936506626271921
20
11.000000000000011
10
-65.499998598496234
20
11.000000000000005
10
-65.499998598496319
20
71.499999999999872
42
0.41421356237310414
10
-67.499998598496319
20
73.499999999999915
10
-86.499998598496347
20
73.499999999999829
42
-0.41421356237310542
10
-88.499998598496333
20
75.499999999999858
10
-88.499998598496333
20
76.499999999999801
42
0.41421356237309503
10
-90.499998598496333
20
78.499999999999844
10
-119.49999859849629
20
78.499999999999773
42
0.41421356237309115
10
-121.4999985984963
20
76.499999999999815
10
-121.49999859849632
20
75.499999999999787
42
-0.41421356237310025
10
-123.49999859849629
20
73.499999999999829
10
-142.49999859849632
20
73.499999999999773
42
0.41421356237308982
10
-144.49999859849632
20
71.499999999999801
0
CIRCLE
5
102
100
AcDbEntity
8
0
100
AcDbCircle
10
-82.249998598496333
20
97.49999999999973
30
0
40
1.0500000000000047
210
-2.7105054312137617e-20
220
1.9721522630525295e-31
230
1
0
CIRCLE
5
103
100
AcDbEntity
8
0
100
AcDbCircle
10
-82.249998598496333
20
105.4999999999997
30
-4.4408920985006262e-15
40
1.0500000000000047
210
-2.7105054312137617e-20
220
1.9721522630525295e-31
230
1
0
CIRCLE
5
104
100
AcDbEntity
8
0
100
AcDbCircle
10
-82.249998598496347
20
89.499999999999758
30
0
40
1.0500000000000047
210
-2.7105054312137617e-20
220
1.9721522630525295e-31
230
1
0
CIRCLE
5
105
100
AcDbEntity
8
0
100
AcDbCircle
10
-90.24999859849629
20
89.499999999999758
30
-4.4408920985006262e-15
40
1.0500000000000047
210
-2.7105054312137617e-20
220
1.9721522630525295e-31
230
1
0
CIRCLE
5
106
100
AcDbEntity
8
0
100
AcDbCircle
10
-98.249998598496234
20
89.499999999999758
30
-4.4408920985006262e-15
40
1.0500000000000047
210
-2.7105054312137617e-20
220
1.9721522630525295e-31
230
1
0
CIRCLE
5
107
100
AcDbEntity
8
0
100
AcDbCircle
10
-98.249998598496234
20
97.49999999999973
30
-4.4408920985006262e-15
40
1.0500000000000047
210
-2.7105054312137617e-20
220
1.9721522630525295e-31
230
1
0
CIRCLE
5
108
100
AcDbEntity
8
0
100
AcDbCircle
10
-98.249998598496205
20
105.4999999999997
30
-8.8817841970012523e-15
40
1.0500000000000047
210
-2.7105054312137617e-20
220
1.9721522630525295e-31
230
1
0
CIRCLE
5
109
100
AcDbEntity
8
0
100
AcDbCircle
10
-90.24999859849629
20
105.4999999999997
30
-4.4408920985006262e-15
40
1.0500000000000047
210
-2.7105054312137617e-20
220
1.9721522630525295e-31
230
1
0
ENDSEC
0
SECTION
2
OBJECTS
0
DICTIONARY
5
C
100
AcDbDictionary
3
ACAD_GROUP
350
D
3
ACAD_MLINESTYLE
350
17
0
DICTIONARY
5
D
100
AcDbDictionary
0
DICTIONARY
5
1A
330
C
100
AcDbDictionary
0
DICTIONARY
5
17
100
AcDbDictionary
0
ENDSEC
0
EOF
