  0
SECTION
  2
HEADER
  9
$ACADVER
  1
AC1024
  9
$ACADMAINTVER
 70
     6
  9
$DWGCODEPAGE
  3
ANSI_1252
  9
$INSBASE
 10
0.0
 20
0.0
 30
0.0
  9
$EXTMIN
 10
1.000000000000000E+20
 20
1.000000000000000E+20
 30
1.000000000000000E+20
  9
$EXTMAX
 10
-1.000000000000000E+20
 20
-1.000000000000000E+20
 30
-1.000000000000000E+20
  9
$LIMMIN
 10
0.0
 20
0.0
  9
$LIMMAX
 10
12.0
 20
9.0
  9
$ORTHOMODE
 70
     0
  9
$REGENMODE
 70
     1
  9
$FILLMODE
 70
     1
  9
$QTEXTMODE
 70
     0
  9
$MIRRTEXT
 70
     1
  9
$LTSCALE
 40
1.0
  9
$ATTMODE
 70
     1
  9
$TEXTSIZE
 40
0.2
  9
$TRACEWID
 40
0.05
  9
$TEXTSTYLE
  7
Standard
  9
$CLAYER
  8
0
  9
$CELTYPE
  6
ByLayer
  9
$CECOLOR
 62
   256
  9
$CELTSCALE
 40
1.0
  9
$DISPSILH
 70
     0
  9
$DIMSCALE
 40
1.0
  9
$DIMASZ
 40
0.18
  9
$DIMEXO
 40
0.0625
  9
$DIMDLI
 40
0.38
  9
$DIMRND
 40
0.0
  9
$DIMDLE
 40
0.0
  9
$DIMEXE
 40
0.18
  9
$DIMTP
 40
0.0
  9
$DIMTM
 40
0.0
  9
$DIMTXT
 40
0.18
  9
$DIMCEN
 40
0.09
  9
$DIMTSZ
 40
0.0
  9
$DIMTOL
 70
     0
  9
$DIMLIM
 70
     0
  9
$DIMTIH
 70
     1
  9
$DIMTOH
 70
     1
  9
$DIMSE1
 70
     0
  9
$DIMSE2
 70
     0
  9
$DIMTAD
 70
     0
  9
$DIMZIN
 70
     0
  9
$DIMBLK
  1

  9
$DIMASO
 70
     1
  9
$DIMSHO
 70
     1
  9
$DIMPOST
  1

  9
$DIMAPOST
  1

  9
$DIMALT
 70
     0
  9
$DIMALTD
 70
     2
  9
$DIMALTF
 40
25.4
  9
$DIMLFAC
 40
1.0
  9
$DIMTOFL
 70
     0
  9
$DIMTVP
 40
0.0
  9
$DIMTIX
 70
     0
  9
$DIMSOXD
 70
     0
  9
$DIMSAH
 70
     0
  9
$DIMBLK1
  1

  9
$DIMBLK2
  1

  9
$DIMSTYLE
  2
Standard
  9
$DIMCLRD
 70
     0
  9
$DIMCLRE
 70
     0
  9
$DIMCLRT
 70
     0
  9
$DIMTFAC
 40
1.0
  9
$DIMGAP
 40
0.09
  9
$DIMJUST
 70
     0
  9
$DIMSD1
 70
     0
  9
$DIMSD2
 70
     0
  9
$DIMTOLJ
 70
     1
  9
$DIMTZIN
 70
     0
  9
$DIMALTZ
 70
     0
  9
$DIMALTTZ
 70
     0
  9
$DIMUPT
 70
     0
  9
$DIMDEC
 70
     4
  9
$DIMTDEC
 70
     4
  9
$DIMALTU
 70
     2
  9
$DIMALTTD
 70
     2
  9
$DIMTXSTY
  7
Standard
  9
$DIMAUNIT
 70
     0
  9
$DIMADEC
 70
     0
  9
$DIMALTRND
 40
0.0
  9
$DIMAZIN
 70
     0
  9
$DIMDSEP
 70
    46
  9
$DIMATFIT
 70
     3
  9
$DIMFRAC
 70
     0
  9
$DIMLDRBLK
  1

  9
$DIMLUNIT
 70
     2
  9
$DIMLWD
 70
    -2
  9
$DIMLWE
 70
    -2
  9
$DIMTMOVE
 70
     0
  9
$DIMFXL
 40
1.0
  9
$DIMFXLON
 70
     0
  9
$DIMJOGANG
 40
0.7853981633974483
  9
$DIMTFILL
 70
     0
  9
$DIMTFILLCLR
 70
     0
  9
$DIMARCSYM
 70
     0
  9
$DIMLTYPE
  6

  9
$DIMLTEX1
  6

  9
$DIMLTEX2
  6

  9
$DIMTXTDIRECTION
 70
     0
  9
$LUNITS
 70
     2
  9
$LUPREC
 70
     4
  9
$SKETCHINC
 40
0.1
  9
$FILLETRAD
 40
0.5
  9
$AUNITS
 70
     0
  9
$AUPREC
 70
     0
  9
$MENU
  1
.
  9
$ELEVATION
 40
0.0
  9
$PELEVATION
 40
0.0
  9
$THICKNESS
 40
0.0
  9
$LIMCHECK
 70
     0
  9
$CHAMFERA
 40
0.5
  9
$CHAMFERB
 40
0.5
  9
$CHAMFERC
 40
1.0
  9
$CHAMFERD
 40
0.0
  9
$SKPOLY
 70
     0
  9
$TDCREATE
 40
2458854.678089421
  9
$TDUCREATE
 40
2458854.636422755
  9
$TDUPDATE
 40
2458854.678089479
  9
$TDUUPDATE
 40
2458854.636422812
  9
$TDINDWG
 40
0.0000000116
  9
$TDUSRTIMER
 40
0.0000000116
  9
$USRTIMER
 70
     1
  9
$ANGBASE
 50
0.0
  9
$ANGDIR
 70
     0
  9
$PDMODE
 70
     0
  9
$PDSIZE
 40
0.0
  9
$PLINEWID
 40
0.0
  9
$SPLFRAME
 70
     0
  9
$SPLINETYPE
 70
     6
  9
$SPLINESEGS
 70
     8
  9
$HANDSEED
  5
2EB
  9
$SURFTAB1
 70
     6
  9
$SURFTAB2
 70
     6
  9
$SURFTYPE
 70
     6
  9
$SURFU
 70
     6
  9
$SURFV
 70
     6
  9
$UCSBASE
  2

  9
$UCSNAME
  2

  9
$UCSORG
 10
0.0
 20
0.0
 30
0.0
  9
$UCSXDIR
 10
1.0
 20
0.0
 30
0.0
  9
$UCSYDIR
 10
0.0
 20
1.0
 30
0.0
  9
$UCSORTHOREF
  2

  9
$UCSORTHOVIEW
 70
     0
  9
$UCSORGTOP
 10
0.0
 20
0.0
 30
0.0
  9
$UCSORGBOTTOM
 10
0.0
 20
0.0
 30
0.0
  9
$UCSORGLEFT
 10
0.0
 20
0.0
 30
0.0
  9
$UCSORGRIGHT
 10
0.0
 20
0.0
 30
0.0
  9
$UCSORGFRONT
 10
0.0
 20
0.0
 30
0.0
  9
$UCSORGBACK
 10
0.0
 20
0.0
 30
0.0
  9
$PUCSBASE
  2

  9
$PUCSNAME
  2

  9
$PUCSORG
 10
0.0
 20
0.0
 30
0.0
  9
$PUCSXDIR
 10
1.0
 20
0.0
 30
0.0
  9
$PUCSYDIR
 10
0.0
 20
1.0
 30
0.0
  9
$PUCSORTHOREF
  2

  9
$PUCSORTHOVIEW
 70
     0
  9
$PUCSORGTOP
 10
0.0
 20
0.0
 30
0.0
  9
$PUCSORGBOTTOM
 10
0.0
 20
0.0
 30
0.0
  9
$PUCSORGLEFT
 10
0.0
 20
0.0
 30
0.0
  9
$PUCSORGRIGHT
 10
0.0
 20
0.0
 30
0.0
  9
$PUCSORGFRONT
 10
0.0
 20
0.0
 30
0.0
  9
$PUCSORGBACK
 10
0.0
 20
0.0
 30
0.0
  9
$USERI1
 70
     0
  9
$USERI2
 70
     0
  9
$USERI3
 70
     0
  9
$USERI4
 70
     0
  9
$USERI5
 70
     0
  9
$USERR1
 40
0.0
  9
$USERR2
 40
0.0
  9
$USERR3
 40
0.0
  9
$USERR4
 40
0.0
  9
$USERR5
 40
0.0
  9
$WORLDVIEW
 70
     1
  9
$SHADEDGE
 70
     3
  9
$SHADEDIF
 70
    70
  9
$TILEMODE
 70
     1
  9
$MAXACTVP
 70
    64
  9
$PINSBASE
 10
0.0
 20
0.0
 30
0.0
  9
$PLIMCHECK
 70
     0
  9
$PEXTMIN
 10
1.000000000000000E+20
 20
1.000000000000000E+20
 30
1.000000000000000E+20
  9
$PEXTMAX
 10
-1.000000000000000E+20
 20
-1.000000000000000E+20
 30
-1.000000000000000E+20
  9
$PLIMMIN
 10
0.0
 20
0.0
  9
$PLIMMAX
 10
12.0
 20
9.0
  9
$UNITMODE
 70
     0
  9
$VISRETAIN
 70
     1
  9
$PLINEGEN
 70
     0
  9
$PSLTSCALE
 70
     1
  9
$TREEDEPTH
 70
  3020
  9
$CMLSTYLE
  2
Standard
  9
$CMLJUST
 70
     0
  9
$CMLSCALE
 40
1.0
  9
$PROXYGRAPHICS
 70
     1
  9
$MEASUREMENT
 70
     0
  9
$CELWEIGHT
370
    -1
  9
$ENDCAPS
280
     0
  9
$JOINSTYLE
280
     0
  9
$LWDISPLAY
290
     1
  9
$INSUNITS
 70
     1
  9
$HYPERLINKBASE
  1

  9
$STYLESHEET
  1

  9
$XEDIT
290
     1
  9
$CEPSNTYPE
380
     0
  9
$PSTYLEMODE
290
     1
  9
$FINGERPRINTGUID
  2
{EEB8C5ED-4948-43B9-9FE6-22E6EA102F0B}
  9
$VERSIONGUID
  2
{FAEB1C32-E019-11D5-929B-00C0DF256EC4}
  9
$EXTNAMES
290
     1
  9
$PSVPSCALE
 40
0.0
  9
$OLESTARTUP
290
     0
  9
$SORTENTS
280
   127
  9
$INDEXCTL
280
     0
  9
$HIDETEXT
280
     1
  9
$XCLIPFRAME
280
     2
  9
$HALOGAP
280
     0
  9
$OBSCOLOR
 70
   257
  9
$OBSLTYPE
280
     0
  9
$INTERSECTIONDISPLAY
280
     0
  9
$INTERSECTIONCOLOR
 70
   257
  9
$DIMASSOC
280
     2
  9
$PROJECTNAME
  1

  9
$CAMERADISPLAY
290
     0
  9
$LENSLENGTH
 40
50.0
  9
$CAMERAHEIGHT
 40
0.0
  9
$STEPSPERSEC
 40
2.0
  9
$STEPSIZE
 40
6.0
  9
$3DDWFPREC
 40
2.0
  9
$PSOLWIDTH
 40
0.25
  9
$PSOLHEIGHT
 40
4.0
  9
$LOFTANG1
 40
1.570796326794897
  9
$LOFTANG2
 40
1.570796326794897
  9
$LOFTMAG1
 40
0.0
  9
$LOFTMAG2
 40
0.0
  9
$LOFTPARAM
 70
     7
  9
$LOFTNORMALS
280
     1
  9
$LATITUDE
 40
37.795
  9
$LONGITUDE
 40
-122.394
  9
$NORTHDIRECTION
 40
0.0
  9
$TIMEZONE
 70
 -8000
  9
$LIGHTGLYPHDISPLAY
280
     1
  9
$TILEMODELIGHTSYNCH
280
     1
  9
$CMATERIAL
347
3C
  9
$SOLIDHIST
280
     1
  9
$SHOWHIST
280
     1
  9
$DWFFRAME
280
     2
  9
$DGNFRAME
280
     2
  9
$REALWORLDSCALE
290
     1
  9
$INTERFERECOLOR
 62
   256
  9
$CSHADOW
280
     0
  9
$SHADOWPLANELOCATION
 40
0.0
  0
ENDSEC
  0
SECTION
  2
CLASSES
  0
CLASS
  1
ACDBDICTIONARYWDFLT
  2
AcDbDictionaryWithDefault
  3
ObjectDBX Classes
 90
        0
 91
        4
280
     0
281
     0
  0
CLASS
  1
VISUALSTYLE
  2
AcDbVisualStyle
  3
ObjectDBX Classes
 90
     4095
 91
        4
280
     0
281
     0
  0
CLASS
  1
MATERIAL
  2
AcDbMaterial
  3
ObjectDBX Classes
 90
     1153
 91
        4
280
     0
281
     0
  0
CLASS
  1
SUN
  2
AcDbSun
  3
SCENEOE
 90
     1024
 91
        4
280
     0
281
     0
  0
ENDSEC
  0
SECTION
  2
TABLES
  0
TABLE
  2
VPORT
  5
8
330
0
100
AcDbSymbolTable
 70
     1
  0
VPORT
  5
29
330
8
100
AcDbSymbolTableRecord
100
AcDbViewportTableRecord
  2
*Active
 70
     0
 10
0.0
 20
0.0
 11
1.0
 21
1.0
 12
0.0
 22
0.0
 13
0.0
 23
0.0
 14
0.5
 24
0.5
 15
0.5
 25
0.5
 16
0.0
 26
0.0
 36
1.0
 17
124.99999996875
 27
-99.99999997500005
 37
0.0
 40
199.9999999500001
 41
1.249999999999999
 42
50.0
 43
0.0
 44
0.0
 50
0.0
 51
0.0
 71
     0
 72
   100
 73
     1
 74
     3
 75
     0
 76
     0
 77
     0
 78
     0
281
     0
 65
     1
110
0.0
120
0.0
130
0.0
111
1.0
121
0.0
131
0.0
112
0.0
122
1.0
132
0.0
 79
     0
146
0.0
 60
     3
 61
     5
292
     1
282
     1
141
0.0
142
0.0
 63
   250
361
3F
  0
ENDTAB
  0
TABLE
  2
LTYPE
  5
5
330
0
100
AcDbSymbolTable
 70
     1
  0
LTYPE
  5
14
330
5
100
AcDbSymbolTableRecord
100
AcDbLinetypeTableRecord
  2
ByBlock
 70
     0
  3

 72
    65
 73
     0
 40
0.0
  0
LTYPE
  5
15
330
5
100
AcDbSymbolTableRecord
100
AcDbLinetypeTableRecord
  2
ByLayer
 70
     0
  3

 72
    65
 73
     0
 40
0.0
  0
LTYPE
  5
16
330
5
100
AcDbSymbolTableRecord
100
AcDbLinetypeTableRecord
  2
Continuous
 70
     0
  3
Solid line
 72
    65
 73
     0
 40
0.0
  0
ENDTAB
  0
TABLE
  2
LAYER
  5
2
330
0
100
AcDbSymbolTable
 70
     2
  0
LAYER
  5
10
330
2
100
AcDbSymbolTableRecord
100
AcDbLayerTableRecord
  2
0
 70
     0
 62
     7
  6
Continuous
370
    -3
390
F
347
3E
  0
LAYER
  5
40
330
2
100
AcDbSymbolTableRecord
100
AcDbLayerTableRecord
  2
Layer 1
 70
     0
 62
     7
  6
Continuous
370
    -3
390
F
347
3E
  0
ENDTAB
  0
TABLE
  2
STYLE
  5
3
330
0
100
AcDbSymbolTable
 70
     1
  0
STYLE
  5
11
330
3
100
AcDbSymbolTableRecord
100
AcDbTextStyleTableRecord
  2
Standard
 70
     0
 40
0.0
 41
1.0
 50
0.0
 71
     0
 42
0.2
  3
txt
  4

  0
ENDTAB
  0
TABLE
  2
VIEW
  5
6
330
0
100
AcDbSymbolTable
 70
     0
  0
ENDTAB
  0
TABLE
  2
UCS
  5
7
330
0
100
AcDbSymbolTable
 70
     0
  0
ENDTAB
  0
TABLE
  2
APPID
  5
9
330
0
100
AcDbSymbolTable
 70
     1
  0
APPID
  5
12
330
9
100
AcDbSymbolTableRecord
100
AcDbRegAppTableRecord
  2
ACAD
 70
     0
  0
ENDTAB
  0
TABLE
  2
DIMSTYLE
  5
A
330
0
100
AcDbSymbolTable
 70
     1
100
AcDbDimStyleTable
  0
DIMSTYLE
105
27
330
A
100
AcDbSymbolTableRecord
100
AcDbDimStyleTableRecord
  2
Standard
 70
     0
178
     0
340
11
  0
ENDTAB
  0
TABLE
  2
BLOCK_RECORD
  5
1
330
0
100
AcDbSymbolTable
 70
   112
  0
BLOCK_RECORD
  5
1F
330
1
100
AcDbSymbolTableRecord
100
AcDbBlockTableRecord
  2
*Model_Space
340
22
 70
     0
280
     1
281
     0
  0
BLOCK_RECORD
  5
1B
330
1
100
AcDbSymbolTableRecord
100
AcDbBlockTableRecord
  2
*Paper_Space
340
1E
 70
     0
280
     1
281
     0
  0
BLOCK_RECORD
  5
23
330
1
100
AcDbSymbolTableRecord
100
AcDbBlockTableRecord
  2
*Paper_Space0
340
26
 70
     0
280
     1
281
     0
  0
BLOCK_RECORD
  5
41
330
1
100
AcDbSymbolTableRecord
100
AcDbBlockTableRecord
  2
block 2
340
0
102
{BLKREFS
331
42
102
}
 70
     0
280
     1
281
     0
  0
BLOCK_RECORD
  5
45
330
1
100
AcDbSymbolTableRecord
100
AcDbBlockTableRecord
  2
block 3
340
0
102
{BLKREFS
331
46
102
}
 70
     0
280
     1
281
     0
  0
BLOCK_RECORD
  5
49
330
1
100
AcDbSymbolTableRecord
100
AcDbBlockTableRecord
  2
block 4
340
0
102
{BLKREFS
331
4A
102
}
 70
     0
280
     1
281
     0
  0
BLOCK_RECORD
  5
4E
330
1
100
AcDbSymbolTableRecord
100
AcDbBlockTableRecord
  2
block 5
340
0
102
{BLKREFS
331
4F
102
}
 70
     0
280
     1
281
     0
  0
BLOCK_RECORD
  5
53
330
1
100
AcDbSymbolTableRecord
100
AcDbBlockTableRecord
  2
block 6
340
0
102
{BLKREFS
331
54
102
}
 70
     0
280
     1
281
     0
  0
BLOCK_RECORD
  5
58
330
1
100
AcDbSymbolTableRecord
100
AcDbBlockTableRecord
  2
block 7
340
0
102
{BLKREFS
331
59
102
}
 70
     0
280
     1
281
     0
  0
BLOCK_RECORD
  5
5C
330
1
100
AcDbSymbolTableRecord
100
AcDbBlockTableRecord
  2
block 8
340
0
102
{BLKREFS
331
5D
102
}
 70
     0
280
     1
281
     0
  0
BLOCK_RECORD
  5
61
330
1
100
AcDbSymbolTableRecord
100
AcDbBlockTableRecord
  2
block 9
340
0
102
{BLKREFS
331
62
102
}
 70
     0
280
     1
281
     0
  0
BLOCK_RECORD
  5
66
330
1
100
AcDbSymbolTableRecord
100
AcDbBlockTableRecord
  2
block 10
340
0
102
{BLKREFS
331
67
102
}
 70
     0
280
     1
281
     0
  0
BLOCK_RECORD
  5
73
330
1
100
AcDbSymbolTableRecord
100
AcDbBlockTableRecord
  2
block 11
340
0
102
{BLKREFS
331
74
102
}
 70
     0
280
     1
281
     0
  0
BLOCK_RECORD
  5
77
330
1
100
AcDbSymbolTableRecord
100
AcDbBlockTableRecord
  2
block 12
340
0
102
{BLKREFS
331
78
102
}
 70
     0
280
     1
281
     0
  0
BLOCK_RECORD
  5
7C
330
1
100
AcDbSymbolTableRecord
100
AcDbBlockTableRecord
  2
block 13
340
0
102
{BLKREFS
331
7D
102
}
 70
     0
280
     1
281
     0
  0
BLOCK_RECORD
  5
81
330
1
100
AcDbSymbolTableRecord
100
AcDbBlockTableRecord
  2
block 14
340
0
102
{BLKREFS
331
82
102
}
 70
     0
280
     1
281
     0
  0
BLOCK_RECORD
  5
8E
330
1
100
AcDbSymbolTableRecord
100
AcDbBlockTableRecord
  2
block 15
340
0
102
{BLKREFS
331
8F
102
}
 70
     0
280
     1
281
     0
  0
BLOCK_RECORD
  5
92
330
1
100
AcDbSymbolTableRecord
100
AcDbBlockTableRecord
  2
block 16
340
0
102
{BLKREFS
331
93
102
}
 70
     0
280
     1
281
     0
  0
BLOCK_RECORD
  5
97
330
1
100
AcDbSymbolTableRecord
100
AcDbBlockTableRecord
  2
block 17
340
0
102
{BLKREFS
331
98
102
}
 70
     0
280
     1
281
     0
  0
BLOCK_RECORD
  5
9C
330
1
100
AcDbSymbolTableRecord
100
AcDbBlockTableRecord
  2
block 18
340
0
102
{BLKREFS
331
9D
102
}
 70
     0
280
     1
281
     0
  0
BLOCK_RECORD
  5
AB
330
1
100
AcDbSymbolTableRecord
100
AcDbBlockTableRecord
  2
block 19
340
0
102
{BLKREFS
331
AC
102
}
 70
     0
280
     1
281
     0
  0
BLOCK_RECORD
  5
AF
330
1
100
AcDbSymbolTableRecord
100
AcDbBlockTableRecord
  2
block 20
340
0
102
{BLKREFS
331
B0
102
}
 70
     0
280
     1
281
     0
  0
BLOCK_RECORD
  5
B4
330
1
100
AcDbSymbolTableRecord
100
AcDbBlockTableRecord
  2
block 21
340
0
102
{BLKREFS
331
B5
102
}
 70
     0
280
     1
281
     0
  0
BLOCK_RECORD
  5
B9
330
1
100
AcDbSymbolTableRecord
100
AcDbBlockTableRecord
  2
block 22
340
0
102
{BLKREFS
331
BA
102
}
 70
     0
280
     1
281
     0
  0
BLOCK_RECORD
  5
C8
330
1
100
AcDbSymbolTableRecord
100
AcDbBlockTableRecord
  2
block 23
340
0
102
{BLKREFS
331
C9
102
}
 70
     0
280
     1
281
     0
  0
BLOCK_RECORD
  5
CC
330
1
100
AcDbSymbolTableRecord
100
AcDbBlockTableRecord
  2
block 24
340
0
102
{BLKREFS
331
CD
102
}
 70
     0
280
     1
281
     0
  0
BLOCK_RECORD
  5
D1
330
1
100
AcDbSymbolTableRecord
100
AcDbBlockTableRecord
  2
block 25
340
0
102
{BLKREFS
331
D2
102
}
 70
     0
280
     1
281
     0
  0
BLOCK_RECORD
  5
D6
330
1
100
AcDbSymbolTableRecord
100
AcDbBlockTableRecord
  2
block 26
340
0
102
{BLKREFS
331
D7
102
}
 70
     0
280
     1
281
     0
  0
BLOCK_RECORD
  5
E1
330
1
100
AcDbSymbolTableRecord
100
AcDbBlockTableRecord
  2
block 27
340
0
102
{BLKREFS
331
E2
102
}
 70
     0
280
     1
281
     0
  0
BLOCK_RECORD
  5
E5
330
1
100
AcDbSymbolTableRecord
100
AcDbBlockTableRecord
  2
block 28
340
0
102
{BLKREFS
331
E6
102
}
 70
     0
280
     1
281
     0
  0
BLOCK_RECORD
  5
EA
330
1
100
AcDbSymbolTableRecord
100
AcDbBlockTableRecord
  2
block 29
340
0
102
{BLKREFS
331
EB
102
}
 70
     0
280
     1
281
     0
  0
BLOCK_RECORD
  5
EF
330
1
100
AcDbSymbolTableRecord
100
AcDbBlockTableRecord
  2
block 30
340
0
102
{BLKREFS
331
F0
102
}
 70
     0
280
     1
281
     0
  0
BLOCK_RECORD
  5
FA
330
1
100
AcDbSymbolTableRecord
100
AcDbBlockTableRecord
  2
block 31
340
0
102
{BLKREFS
331
FB
102
}
 70
     0
280
     1
281
     0
  0
BLOCK_RECORD
  5
FE
330
1
100
AcDbSymbolTableRecord
100
AcDbBlockTableRecord
  2
block 32
340
0
102
{BLKREFS
331
FF
102
}
 70
     0
280
     1
281
     0
  0
BLOCK_RECORD
  5
103
330
1
100
AcDbSymbolTableRecord
100
AcDbBlockTableRecord
  2
block 33
340
0
102
{BLKREFS
331
104
102
}
 70
     0
280
     1
281
     0
  0
BLOCK_RECORD
  5
108
330
1
100
AcDbSymbolTableRecord
100
AcDbBlockTableRecord
  2
block 34
340
0
102
{BLKREFS
331
109
102
}
 70
     0
280
     1
281
     0
  0
BLOCK_RECORD
  5
10D
330
1
100
AcDbSymbolTableRecord
100
AcDbBlockTableRecord
  2
block 35
340
0
102
{BLKREFS
331
10E
102
}
 70
     0
280
     1
281
     0
  0
BLOCK_RECORD
  5
112
330
1
100
AcDbSymbolTableRecord
100
AcDbBlockTableRecord
  2
block 36
340
0
102
{BLKREFS
331
113
102
}
 70
     0
280
     1
281
     0
  0
BLOCK_RECORD
  5
117
330
1
100
AcDbSymbolTableRecord
100
AcDbBlockTableRecord
  2
block 37
340
0
102
{BLKREFS
331
118
102
}
 70
     0
280
     1
281
     0
  0
BLOCK_RECORD
  5
11C
330
1
100
AcDbSymbolTableRecord
100
AcDbBlockTableRecord
  2
block 38
340
0
102
{BLKREFS
331
11D
102
}
 70
     0
280
     1
281
     0
  0
BLOCK_RECORD
  5
121
330
1
100
AcDbSymbolTableRecord
100
AcDbBlockTableRecord
  2
block 39
340
0
102
{BLKREFS
331
122
102
}
 70
     0
280
     1
281
     0
  0
BLOCK_RECORD
  5
126
330
1
100
AcDbSymbolTableRecord
100
AcDbBlockTableRecord
  2
block 40
340
0
102
{BLKREFS
331
127
102
}
 70
     0
280
     1
281
     0
  0
BLOCK_RECORD
  5
12B
330
1
100
AcDbSymbolTableRecord
100
AcDbBlockTableRecord
  2
block 41
340
0
102
{BLKREFS
331
12C
102
}
 70
     0
280
     1
281
     0
  0
BLOCK_RECORD
  5
130
330
1
100
AcDbSymbolTableRecord
100
AcDbBlockTableRecord
  2
block 42
340
0
102
{BLKREFS
331
131
102
}
 70
     0
280
     1
281
     0
  0
BLOCK_RECORD
  5
134
330
1
100
AcDbSymbolTableRecord
100
AcDbBlockTableRecord
  2
block 43
340
0
102
{BLKREFS
331
135
102
}
 70
     0
280
     1
281
     0
  0
BLOCK_RECORD
  5
139
330
1
100
AcDbSymbolTableRecord
100
AcDbBlockTableRecord
  2
block 44
340
0
102
{BLKREFS
331
13A
102
}
 70
     0
280
     1
281
     0
  0
BLOCK_RECORD
  5
13E
330
1
100
AcDbSymbolTableRecord
100
AcDbBlockTableRecord
  2
block 45
340
0
102
{BLKREFS
331
13F
102
}
 70
     0
280
     1
281
     0
  0
BLOCK_RECORD
  5
14A
330
1
100
AcDbSymbolTableRecord
100
AcDbBlockTableRecord
  2
block 46
340
0
102
{BLKREFS
331
14B
102
}
 70
     0
280
     1
281
     0
  0
BLOCK_RECORD
  5
14E
330
1
100
AcDbSymbolTableRecord
100
AcDbBlockTableRecord
  2
block 47
340
0
102
{BLKREFS
331
14F
102
}
 70
     0
280
     1
281
     0
  0
BLOCK_RECORD
  5
15C
330
1
100
AcDbSymbolTableRecord
100
AcDbBlockTableRecord
  2
block 48
340
0
102
{BLKREFS
331
15D
102
}
 70
     0
280
     1
281
     0
  0
BLOCK_RECORD
  5
161
330
1
100
AcDbSymbolTableRecord
100
AcDbBlockTableRecord
  2
block 49
340
0
102
{BLKREFS
331
162
102
}
 70
     0
280
     1
281
     0
  0
BLOCK_RECORD
  5
166
330
1
100
AcDbSymbolTableRecord
100
AcDbBlockTableRecord
  2
block 50
340
0
102
{BLKREFS
331
167
102
}
 70
     0
280
     1
281
     0
  0
BLOCK_RECORD
  5
16A
330
1
100
AcDbSymbolTableRecord
100
AcDbBlockTableRecord
  2
block 51
340
0
102
{BLKREFS
331
16B
102
}
 70
     0
280
     1
281
     0
  0
BLOCK_RECORD
  5
175
330
1
100
AcDbSymbolTableRecord
100
AcDbBlockTableRecord
  2
block 52
340
0
102
{BLKREFS
331
176
102
}
 70
     0
280
     1
281
     0
  0
BLOCK_RECORD
  5
17A
330
1
100
AcDbSymbolTableRecord
100
AcDbBlockTableRecord
  2
block 53
340
0
102
{BLKREFS
331
17B
102
}
 70
     0
280
     1
281
     0
  0
BLOCK_RECORD
  5
17F
330
1
100
AcDbSymbolTableRecord
100
AcDbBlockTableRecord
  2
block 54
340
0
102
{BLKREFS
331
180
102
}
 70
     0
280
     1
281
     0
  0
BLOCK_RECORD
  5
183
330
1
100
AcDbSymbolTableRecord
100
AcDbBlockTableRecord
  2
block 55
340
0
102
{BLKREFS
331
184
102
}
 70
     0
280
     1
281
     0
  0
BLOCK_RECORD
  5
188
330
1
100
AcDbSymbolTableRecord
100
AcDbBlockTableRecord
  2
block 56
340
0
102
{BLKREFS
331
189
102
}
 70
     0
280
     1
281
     0
  0
BLOCK_RECORD
  5
193
330
1
100
AcDbSymbolTableRecord
100
AcDbBlockTableRecord
  2
block 57
340
0
102
{BLKREFS
331
194
102
}
 70
     0
280
     1
281
     0
  0
BLOCK_RECORD
  5
197
330
1
100
AcDbSymbolTableRecord
100
AcDbBlockTableRecord
  2
block 58
340
0
102
{BLKREFS
331
198
102
}
 70
     0
280
     1
281
     0
  0
BLOCK_RECORD
  5
1A5
330
1
100
AcDbSymbolTableRecord
100
AcDbBlockTableRecord
  2
block 59
340
0
102
{BLKREFS
331
1A6
102
}
 70
     0
280
     1
281
     0
  0
BLOCK_RECORD
  5
1AA
330
1
100
AcDbSymbolTableRecord
100
AcDbBlockTableRecord
  2
block 60
340
0
102
{BLKREFS
331
1AB
102
}
 70
     0
280
     1
281
     0
  0
BLOCK_RECORD
  5
1AF
330
1
100
AcDbSymbolTableRecord
100
AcDbBlockTableRecord
  2
block 61
340
0
102
{BLKREFS
331
1B0
102
}
 70
     0
280
     1
281
     0
  0
BLOCK_RECORD
  5
1B3
330
1
100
AcDbSymbolTableRecord
100
AcDbBlockTableRecord
  2
block 62
340
0
102
{BLKREFS
331
1B4
102
}
 70
     0
280
     1
281
     0
  0
BLOCK_RECORD
  5
1B8
330
1
100
AcDbSymbolTableRecord
100
AcDbBlockTableRecord
  2
block 63
340
0
102
{BLKREFS
331
1B9
102
}
 70
     0
280
     1
281
     0
  0
BLOCK_RECORD
  5
1BD
330
1
100
AcDbSymbolTableRecord
100
AcDbBlockTableRecord
  2
block 64
340
0
102
{BLKREFS
331
1BE
102
}
 70
     0
280
     1
281
     0
  0
BLOCK_RECORD
  5
1C8
330
1
100
AcDbSymbolTableRecord
100
AcDbBlockTableRecord
  2
block 65
340
0
102
{BLKREFS
331
1C9
102
}
 70
     0
280
     1
281
     0
  0
BLOCK_RECORD
  5
1CC
330
1
100
AcDbSymbolTableRecord
100
AcDbBlockTableRecord
  2
block 66
340
0
102
{BLKREFS
331
1CD
102
}
 70
     0
280
     1
281
     0
  0
BLOCK_RECORD
  5
1D1
330
1
100
AcDbSymbolTableRecord
100
AcDbBlockTableRecord
  2
block 67
340
0
102
{BLKREFS
331
1D2
102
}
 70
     0
280
     1
281
     0
  0
BLOCK_RECORD
  5
1D6
330
1
100
AcDbSymbolTableRecord
100
AcDbBlockTableRecord
  2
block 68
340
0
102
{BLKREFS
331
1D7
102
}
 70
     0
280
     1
281
     0
  0
BLOCK_RECORD
  5
1E0
330
1
100
AcDbSymbolTableRecord
100
AcDbBlockTableRecord
  2
block 69
340
0
102
{BLKREFS
331
1E1
102
}
 70
     0
280
     1
281
     0
  0
BLOCK_RECORD
  5
1E4
330
1
100
AcDbSymbolTableRecord
100
AcDbBlockTableRecord
  2
block 70
340
0
102
{BLKREFS
331
1E5
102
}
 70
     0
280
     1
281
     0
  0
BLOCK_RECORD
  5
1E9
330
1
100
AcDbSymbolTableRecord
100
AcDbBlockTableRecord
  2
block 71
340
0
102
{BLKREFS
331
1EA
102
}
 70
     0
280
     1
281
     0
  0
BLOCK_RECORD
  5
1EE
330
1
100
AcDbSymbolTableRecord
100
AcDbBlockTableRecord
  2
block 72
340
0
102
{BLKREFS
331
1EF
102
}
 70
     0
280
     1
281
     0
  0
BLOCK_RECORD
  5
1FA
330
1
100
AcDbSymbolTableRecord
100
AcDbBlockTableRecord
  2
block 73
340
0
102
{BLKREFS
331
1FB
102
}
 70
     0
280
     1
281
     0
  0
BLOCK_RECORD
  5
1FE
330
1
100
AcDbSymbolTableRecord
100
AcDbBlockTableRecord
  2
block 74
340
0
102
{BLKREFS
331
1FF
102
}
 70
     0
280
     1
281
     0
  0
BLOCK_RECORD
  5
203
330
1
100
AcDbSymbolTableRecord
100
AcDbBlockTableRecord
  2
block 75
340
0
102
{BLKREFS
331
204
102
}
 70
     0
280
     1
281
     0
  0
BLOCK_RECORD
  5
208
330
1
100
AcDbSymbolTableRecord
100
AcDbBlockTableRecord
  2
block 76
340
0
102
{BLKREFS
331
209
102
}
 70
     0
280
     1
281
     0
  0
BLOCK_RECORD
  5
213
330
1
100
AcDbSymbolTableRecord
100
AcDbBlockTableRecord
  2
block 77
340
0
102
{BLKREFS
331
214
102
}
 70
     0
280
     1
281
     0
  0
BLOCK_RECORD
  5
217
330
1
100
AcDbSymbolTableRecord
100
AcDbBlockTableRecord
  2
block 78
340
0
102
{BLKREFS
331
218
102
}
 70
     0
280
     1
281
     0
  0
BLOCK_RECORD
  5
21B
330
1
100
AcDbSymbolTableRecord
100
AcDbBlockTableRecord
  2
block 79
340
0
102
{BLKREFS
331
21C
102
}
 70
     0
280
     1
281
     0
  0
BLOCK_RECORD
  5
220
330
1
100
AcDbSymbolTableRecord
100
AcDbBlockTableRecord
  2
block 80
340
0
102
{BLKREFS
331
221
102
}
 70
     0
280
     1
281
     0
  0
BLOCK_RECORD
  5
225
330
1
100
AcDbSymbolTableRecord
100
AcDbBlockTableRecord
  2
block 81
340
0
102
{BLKREFS
331
226
102
}
 70
     0
280
     1
281
     0
  0
BLOCK_RECORD
  5
232
330
1
100
AcDbSymbolTableRecord
100
AcDbBlockTableRecord
  2
block 82
340
0
102
{BLKREFS
331
233
102
}
 70
     0
280
     1
281
     0
  0
BLOCK_RECORD
  5
236
330
1
100
AcDbSymbolTableRecord
100
AcDbBlockTableRecord
  2
block 83
340
0
102
{BLKREFS
331
237
102
}
 70
     0
280
     1
281
     0
  0
BLOCK_RECORD
  5
23B
330
1
100
AcDbSymbolTableRecord
100
AcDbBlockTableRecord
  2
block 84
340
0
102
{BLKREFS
331
23C
102
}
 70
     0
280
     1
281
     0
  0
BLOCK_RECORD
  5
240
330
1
100
AcDbSymbolTableRecord
100
AcDbBlockTableRecord
  2
block 85
340
0
102
{BLKREFS
331
241
102
}
 70
     0
280
     1
281
     0
  0
BLOCK_RECORD
  5
24C
330
1
100
AcDbSymbolTableRecord
100
AcDbBlockTableRecord
  2
block 86
340
0
102
{BLKREFS
331
24D
102
}
 70
     0
280
     1
281
     0
  0
BLOCK_RECORD
  5
250
330
1
100
AcDbSymbolTableRecord
100
AcDbBlockTableRecord
  2
block 87
340
0
102
{BLKREFS
331
251
102
}
 70
     0
280
     1
281
     0
  0
BLOCK_RECORD
  5
255
330
1
100
AcDbSymbolTableRecord
100
AcDbBlockTableRecord
  2
block 88
340
0
102
{BLKREFS
331
256
102
}
 70
     0
280
     1
281
     0
  0
BLOCK_RECORD
  5
25A
330
1
100
AcDbSymbolTableRecord
100
AcDbBlockTableRecord
  2
block 89
340
0
102
{BLKREFS
331
25B
102
}
 70
     0
280
     1
281
     0
  0
BLOCK_RECORD
  5
266
330
1
100
AcDbSymbolTableRecord
100
AcDbBlockTableRecord
  2
block 90
340
0
102
{BLKREFS
331
267
102
}
 70
     0
280
     1
281
     0
  0
BLOCK_RECORD
  5
26A
330
1
100
AcDbSymbolTableRecord
100
AcDbBlockTableRecord
  2
block 91
340
0
102
{BLKREFS
331
26B
102
}
 70
     0
280
     1
281
     0
  0
BLOCK_RECORD
  5
26F
330
1
100
AcDbSymbolTableRecord
100
AcDbBlockTableRecord
  2
block 92
340
0
102
{BLKREFS
331
270
102
}
 70
     0
280
     1
281
     0
  0
BLOCK_RECORD
  5
274
330
1
100
AcDbSymbolTableRecord
100
AcDbBlockTableRecord
  2
block 93
340
0
102
{BLKREFS
331
275
102
}
 70
     0
280
     1
281
     0
  0
BLOCK_RECORD
  5
280
330
1
100
AcDbSymbolTableRecord
100
AcDbBlockTableRecord
  2
block 94
340
0
102
{BLKREFS
331
281
102
}
 70
     0
280
     1
281
     0
  0
BLOCK_RECORD
  5
284
330
1
100
AcDbSymbolTableRecord
100
AcDbBlockTableRecord
  2
block 95
340
0
102
{BLKREFS
331
285
102
}
 70
     0
280
     1
281
     0
  0
BLOCK_RECORD
  5
289
330
1
100
AcDbSymbolTableRecord
100
AcDbBlockTableRecord
  2
block 96
340
0
102
{BLKREFS
331
28A
102
}
 70
     0
280
     1
281
     0
  0
BLOCK_RECORD
  5
28E
330
1
100
AcDbSymbolTableRecord
100
AcDbBlockTableRecord
  2
block 97
340
0
102
{BLKREFS
331
28F
102
}
 70
     0
280
     1
281
     0
  0
BLOCK_RECORD
  5
29A
330
1
100
AcDbSymbolTableRecord
100
AcDbBlockTableRecord
  2
block 98
340
0
102
{BLKREFS
331
29B
102
}
 70
     0
280
     1
281
     0
  0
BLOCK_RECORD
  5
29E
330
1
100
AcDbSymbolTableRecord
100
AcDbBlockTableRecord
  2
block 99
340
0
102
{BLKREFS
331
29F
102
}
 70
     0
280
     1
281
     0
  0
BLOCK_RECORD
  5
2A3
330
1
100
AcDbSymbolTableRecord
100
AcDbBlockTableRecord
  2
block 100
340
0
102
{BLKREFS
331
2A4
102
}
 70
     0
280
     1
281
     0
  0
BLOCK_RECORD
  5
2A8
330
1
100
AcDbSymbolTableRecord
100
AcDbBlockTableRecord
  2
block 101
340
0
102
{BLKREFS
331
2A9
102
}
 70
     0
280
     1
281
     0
  0
BLOCK_RECORD
  5
2B3
330
1
100
AcDbSymbolTableRecord
100
AcDbBlockTableRecord
  2
block 102
340
0
102
{BLKREFS
331
2B4
102
}
 70
     0
280
     1
281
     0
  0
BLOCK_RECORD
  5
2B7
330
1
100
AcDbSymbolTableRecord
100
AcDbBlockTableRecord
  2
block 103
340
0
102
{BLKREFS
331
2B8
102
}
 70
     0
280
     1
281
     0
  0
BLOCK_RECORD
  5
2BC
330
1
100
AcDbSymbolTableRecord
100
AcDbBlockTableRecord
  2
block 104
340
0
102
{BLKREFS
331
2BD
102
}
 70
     0
280
     1
281
     0
  0
BLOCK_RECORD
  5
2C1
330
1
100
AcDbSymbolTableRecord
100
AcDbBlockTableRecord
  2
block 105
340
0
102
{BLKREFS
331
2C2
102
}
 70
     0
280
     1
281
     0
  0
BLOCK_RECORD
  5
2C6
330
1
100
AcDbSymbolTableRecord
100
AcDbBlockTableRecord
  2
block 106
340
0
102
{BLKREFS
331
2C7
102
}
 70
     0
280
     1
281
     0
  0
BLOCK_RECORD
  5
2CB
330
1
100
AcDbSymbolTableRecord
100
AcDbBlockTableRecord
  2
block 107
340
0
102
{BLKREFS
331
2CC
102
}
 70
     0
280
     1
281
     0
  0
BLOCK_RECORD
  5
2D0
330
1
100
AcDbSymbolTableRecord
100
AcDbBlockTableRecord
  2
block 108
340
0
102
{BLKREFS
331
2D1
102
}
 70
     0
280
     1
281
     0
  0
BLOCK_RECORD
  5
2D5
330
1
100
AcDbSymbolTableRecord
100
AcDbBlockTableRecord
  2
block 109
340
0
102
{BLKREFS
331
2D6
102
}
 70
     0
280
     1
281
     0
  0
BLOCK_RECORD
  5
2DA
330
1
100
AcDbSymbolTableRecord
100
AcDbBlockTableRecord
  2
block 110
340
0
102
{BLKREFS
331
2DB
102
}
 70
     0
280
     1
281
     0
  0
BLOCK_RECORD
  5
2DF
330
1
100
AcDbSymbolTableRecord
100
AcDbBlockTableRecord
  2
block 111
340
0
102
{BLKREFS
331
2E0
102
}
 70
     0
280
     1
281
     0
  0
BLOCK_RECORD
  5
2E4
330
1
100
AcDbSymbolTableRecord
100
AcDbBlockTableRecord
  2
block 112
340
0
102
{BLKREFS
331
2E5
102
}
 70
     0
280
     1
281
     0
  0
ENDTAB
  0
ENDSEC
  0
SECTION
  2
BLOCKS
  0
BLOCK
  5
20
330
1F
100
AcDbEntity
  8
0
100
AcDbBlockBegin
  2
*Model_Space
 70
     0
 10
0.0
 20
0.0
 30
0.0
  3
*Model_Space
  1

  0
ENDBLK
  5
21
330
1F
100
AcDbEntity
  8
0
100
AcDbBlockEnd
  0
BLOCK
  5
1C
330
1B
100
AcDbEntity
 67
     1
  8
0
100
AcDbBlockBegin
  2
*Paper_Space
 70
     0
 10
0.0
 20
0.0
 30
0.0
  3
*Paper_Space
  1

  0
ENDBLK
  5
1D
330
1B
100
AcDbEntity
 67
     1
  8
0
100
AcDbBlockEnd
  0
BLOCK
  5
24
330
23
100
AcDbEntity
  8
0
100
AcDbBlockBegin
  2
*Paper_Space0
 70
     0
 10
0.0
 20
0.0
 30
0.0
  3
*Paper_Space0
  1

  0
ENDBLK
  5
25
330
23
100
AcDbEntity
  8
0
100
AcDbBlockEnd
  0
BLOCK
  5
43
330
41
100
AcDbEntity
  8
0
100
AcDbBlockBegin
  2
block 2
 70
     0
 10
0.0
 20
0.0
 30
0.0
  3
block 2
  1

  0
INSERT
  5
46
330
41
100
AcDbEntity
  8
Layer 1
100
AcDbBlockReference
  2
block 3
 10
0.0
 20
0.0
 30
0.0
  0
INSERT
  5
59
330
41
100
AcDbEntity
  8
Layer 1
100
AcDbBlockReference
  2
block 7
 10
0.0
 20
0.0
 30
0.0
  0
INSERT
  5
74
330
41
100
AcDbEntity
  8
Layer 1
100
AcDbBlockReference
  2
block 11
 10
0.0
 20
0.0
 30
0.0
  0
INSERT
  5
8F
330
41
100
AcDbEntity
  8
Layer 1
100
AcDbBlockReference
  2
block 15
 10
0.0
 20
0.0
 30
0.0
  0
INSERT
  5
AC
330
41
100
AcDbEntity
  8
Layer 1
100
AcDbBlockReference
  2
block 19
 10
0.0
 20
0.0
 30
0.0
  0
INSERT
  5
C9
330
41
100
AcDbEntity
  8
Layer 1
100
AcDbBlockReference
  2
block 23
 10
0.0
 20
0.0
 30
0.0
  0
INSERT
  5
E2
330
41
100
AcDbEntity
  8
Layer 1
100
AcDbBlockReference
  2
block 27
 10
0.0
 20
0.0
 30
0.0
  0
INSERT
  5
FB
330
41
100
AcDbEntity
  8
Layer 1
100
AcDbBlockReference
  2
block 31
 10
0.0
 20
0.0
 30
0.0
  0
INSERT
  5
131
330
41
100
AcDbEntity
  8
Layer 1
100
AcDbBlockReference
  2
block 42
 10
0.0
 20
0.0
 30
0.0
  0
INSERT
  5
14B
330
41
100
AcDbEntity
  8
Layer 1
100
AcDbBlockReference
  2
block 46
 10
0.0
 20
0.0
 30
0.0
  0
INSERT
  5
167
330
41
100
AcDbEntity
  8
Layer 1
100
AcDbBlockReference
  2
block 50
 10
0.0
 20
0.0
 30
0.0
  0
INSERT
  5
180
330
41
100
AcDbEntity
  8
Layer 1
100
AcDbBlockReference
  2
block 54
 10
0.0
 20
0.0
 30
0.0
  0
INSERT
  5
194
330
41
100
AcDbEntity
  8
Layer 1
100
AcDbBlockReference
  2
block 57
 10
0.0
 20
0.0
 30
0.0
  0
INSERT
  5
1B0
330
41
100
AcDbEntity
  8
Layer 1
100
AcDbBlockReference
  2
block 61
 10
0.0
 20
0.0
 30
0.0
  0
INSERT
  5
1C9
330
41
100
AcDbEntity
  8
Layer 1
100
AcDbBlockReference
  2
block 65
 10
0.0
 20
0.0
 30
0.0
  0
INSERT
  5
1E1
330
41
100
AcDbEntity
  8
Layer 1
100
AcDbBlockReference
  2
block 69
 10
0.0
 20
0.0
 30
0.0
  0
INSERT
  5
1FB
330
41
100
AcDbEntity
  8
Layer 1
100
AcDbBlockReference
  2
block 73
 10
0.0
 20
0.0
 30
0.0
  0
INSERT
  5
214
330
41
100
AcDbEntity
  8
Layer 1
100
AcDbBlockReference
  2
block 77
 10
0.0
 20
0.0
 30
0.0
  0
ENDBLK
  5
44
330
41
100
AcDbEntity
  8
0
100
AcDbBlockEnd
  0
BLOCK
  5
47
330
45
100
AcDbEntity
  8
0
100
AcDbBlockBegin
  2
block 3
 70
     0
 10
0.0
 20
0.0
 30
0.0
  3
block 3
  1

  0
INSERT
  5
4A
330
45
100
AcDbEntity
  8
Layer 1
100
AcDbBlockReference
  2
block 4
 10
0.0
 20
0.0
 30
0.0
  0
INSERT
  5
4F
330
45
100
AcDbEntity
  8
Layer 1
100
AcDbBlockReference
  2
block 5
 10
0.0
 20
0.0
 30
0.0
  0
INSERT
  5
54
330
45
100
AcDbEntity
  8
Layer 1
100
AcDbBlockReference
  2
block 6
 10
0.0
 20
0.0
 30
0.0
  0
ENDBLK
  5
48
330
45
100
AcDbEntity
  8
0
100
AcDbBlockEnd
  0
BLOCK
  5
4B
330
49
100
AcDbEntity
  8
0
100
AcDbBlockBegin
  2
block 4
 70
     0
 10
0.0
 20
0.0
 30
0.0
  3
block 4
  1

  0
SPLINE
  5
4D
330
49
100
AcDbEntity
  8
Layer 1
 62
     7
420
 16777215
370
    25
100
AcDbSpline
210
0.0
220
0.0
230
1.0
 70
    11
 71
     3
 72
    20
 73
    16
 74
     0
 42
0.0000000001
 43
0.0000000001
 12
1.0
 22
0.0
 32
0.0
 13
1.0
 23
0.0
 33
0.0
 40
0.0
 40
0.0
 40
0.0
 40
0.0
 40
1.0
 40
1.0
 40
1.0
 40
2.0
 40
2.0
 40
2.0
 40
3.0
 40
3.0
 40
3.0
 40
4.0
 40
4.0
 40
4.0
 40
5.0
 40
5.0
 40
5.0
 40
5.0
 10
58.03516544396859
 20
-137.1391953560168
 30
0.0
 10
58.03516544396859
 20
-136.5869106061858
 30
0.0
 10
58.48288069413767
 20
-136.1391953560167
 30
0.0
 10
59.03516544396927
 20
-136.1391953560167
 30
0.0
 10
59.58745019379958
 20
-136.1391953560167
 30
0.0
 10
60.03516544396866
 20
-136.5869106061858
 30
0.0
 10
60.03516544396866
 20
-137.1391953560168
 30
0.0
 10
60.03516544396866
 20
-137.6914801058477
 30
0.0
 10
59.58745019379958
 20
-138.1391953560168
 30
0.0
 10
59.03516544396927
 20
-138.1391953560168
 30
0.0
 10
58.48288069413767
 20
-138.1391953560168
 30
0.0
 10
58.03516544396859
 20
-137.6914801058477
 30
0.0
 10
58.03516544396859
 20
-137.1391953560168
 30
0.0
 10
58.03516544396859
 20
-137.1391953560168
 30
0.0
 10
58.03516544396859
 20
-137.1391953560168
 30
0.0
 10
58.03516544396859
 20
-137.1391953560168
 30
0.0
  0
ENDBLK
  5
4C
330
49
100
AcDbEntity
  8
0
100
AcDbBlockEnd
  0
BLOCK
  5
50
330
4E
100
AcDbEntity
  8
0
100
AcDbBlockBegin
  2
block 5
 70
     0
 10
0.0
 20
0.0
 30
0.0
  3
block 5
  1

  0
SPLINE
  5
52
330
4E
100
AcDbEntity
  8
Layer 1
 62
     7
420
 16777215
370
    25
100
AcDbSpline
210
0.0
220
0.0
230
1.0
 70
    11
 71
     3
 72
    20
 73
    16
 74
     0
 42
0.0000000001
 43
0.0000000001
 12
1.0
 22
0.0
 32
0.0
 13
1.0
 23
0.0
 33
0.0
 40
0.0
 40
0.0
 40
0.0
 40
0.0
 40
1.0
 40
1.0
 40
1.0
 40
2.0
 40
2.0
 40
2.0
 40
3.0
 40
3.0
 40
3.0
 40
4.0
 40
4.0
 40
4.0
 40
5.0
 40
5.0
 40
5.0
 40
5.0
 10
120.0351654439695
 20
-137.1391953560168
 30
0.0
 10
120.0351654439695
 20
-136.5869106061858
 30
0.0
 10
120.4828806941386
 20
-136.1391953560167
 30
0.0
 10
121.0351654439689
 20
-136.1391953560167
 30
0.0
 10
121.5874501937992
 20
-136.1391953560167
 30
0.0
 10
122.0351654439683
 20
-136.5869106061858
 30
0.0
 10
122.0351654439683
 20
-137.1391953560168
 30
0.0
 10
122.0351654439683
 20
-137.6914801058477
 30
0.0
 10
121.5874501937992
 20
-138.1391953560168
 30
0.0
 10
121.0351654439689
 20
-138.1391953560168
 30
0.0
 10
120.4828806941386
 20
-138.1391953560168
 30
0.0
 10
120.0351654439695
 20
-137.6914801058477
 30
0.0
 10
120.0351654439695
 20
-137.1391953560168
 30
0.0
 10
120.0351654439695
 20
-137.1391953560168
 30
0.0
 10
120.0351654439695
 20
-137.1391953560168
 30
0.0
 10
120.0351654439695
 20
-137.1391953560168
 30
0.0
  0
ENDBLK
  5
51
330
4E
100
AcDbEntity
  8
0
100
AcDbBlockEnd
  0
BLOCK
  5
55
330
53
100
AcDbEntity
  8
0
100
AcDbBlockBegin
  2
block 6
 70
     0
 10
0.0
 20
0.0
 30
0.0
  3
block 6
  1

  0
SPLINE
  5
57
330
53
100
AcDbEntity
  8
Layer 1
 62
     7
420
 16777215
370
    25
100
AcDbSpline
210
0.0
220
0.0
230
1.0
 70
    11
 71
     3
 72
    26
 73
    22
 74
     0
 42
0.0000000001
 43
0.0000000001
 12
1.0
 22
0.0
 32
0.0
 13
1.0
 23
0.0
 33
0.0
 40
0.0
 40
0.0
 40
0.0
 40
0.0
 40
1.0
 40
1.0
 40
1.0
 40
2.0
 40
2.0
 40
2.0
 40
3.0
 40
3.0
 40
3.0
 40
4.0
 40
4.0
 40
4.0
 40
5.0
 40
5.0
 40
5.0
 40
6.0
 40
6.0
 40
6.0
 40
7.0
 40
7.0
 40
7.0
 40
7.0
 10
52.39434683833835
 20
-128.9732828098463
 30
0.0
 10
52.39434683833835
 20
-128.9732828098463
 30
0.0
 10
56.03516544396852
 20
-124.5974348683328
 30
0.0
 10
56.03516544396852
 20
-124.5974348683328
 30
0.0
 10
56.03516544396852
 20
-124.5974348683328
 30
0.0
 10
117.0162193425096
 20
-120.5920138607912
 30
0.0
 10
117.0162193425096
 20
-120.5920138607912
 30
0.0
 10
119.9752197259956
 20
-120.3976576757132
 30
0.0
 10
122.6264818653729
 20
-118.6957160952325
 30
0.0
 10
124.035165504976
 20
-116.0862971487965
 30
0.0
 10
124.0351654439684
 20
-116.0862972618042
 30
0.0
 10
124.0351654439684
 20
-145.1187855132822
 30
0.0
 10
124.0351654439684
 20
-145.1187855132822
 30
0.0
 10
124.0351654439684
 20
-145.1187855132816
 30
0.0
 10
30.03516544396889
 20
-145.1187855132816
 30
0.0
 10
30.03516544396889
 20
-145.1187855132816
 30
0.0
 10
30.03516544396889
 20
-145.1187855132816
 30
0.0
 10
30.03516544396889
 20
-128.973282809846
 30
0.0
 10
30.03516544396889
 20
-128.973282809846
 30
0.0
 10
30.03516544396889
 20
-128.973282809846
 30
0.0
 10
52.39434683833835
 20
-128.9732828098463
 30
0.0
 10
52.39434683833835
 20
-128.9732828098463
 30
0.0
  0
ENDBLK
  5
56
330
53
100
AcDbEntity
  8
0
100
AcDbBlockEnd
  0
BLOCK
  5
5A
330
58
100
AcDbEntity
  8
0
100
AcDbBlockBegin
  2
block 7
 70
     0
 10
0.0
 20
0.0
 30
0.0
  3
block 7
  1

  0
INSERT
  5
5D
330
58
100
AcDbEntity
  8
Layer 1
100
AcDbBlockReference
  2
block 8
 10
0.0
 20
0.0
 30
0.0
  0
INSERT
  5
62
330
58
100
AcDbEntity
  8
Layer 1
100
AcDbBlockReference
  2
block 9
 10
0.0
 20
0.0
 30
0.0
  0
INSERT
  5
67
330
58
100
AcDbEntity
  8
Layer 1
100
AcDbBlockReference
  2
block 10
 10
0.0
 20
0.0
 30
0.0
  0
ENDBLK
  5
5B
330
58
100
AcDbEntity
  8
0
100
AcDbBlockEnd
  0
BLOCK
  5
5E
330
5C
100
AcDbEntity
  8
0
100
AcDbBlockBegin
  2
block 8
 70
     0
 10
0.0
 20
0.0
 30
0.0
  3
block 8
  1

  0
SPLINE
  5
60
330
5C
100
AcDbEntity
  8
Layer 1
 62
     7
420
 16777215
370
    25
100
AcDbSpline
210
0.0
220
0.0
230
1.0
 70
    11
 71
     3
 72
    20
 73
    16
 74
     0
 42
0.0000000001
 43
0.0000000001
 12
1.0
 22
0.0
 32
0.0
 13
1.0
 23
0.0
 33
0.0
 40
0.0
 40
0.0
 40
0.0
 40
0.0
 40
1.0
 40
1.0
 40
1.0
 40
2.0
 40
2.0
 40
2.0
 40
3.0
 40
3.0
 40
3.0
 40
4.0
 40
4.0
 40
4.0
 40
5.0
 40
5.0
 40
5.0
 40
5.0
 10
120.0351654744727
 20
-149.6187855131573
 30
0.0
 10
120.0351654744727
 20
-149.0665007633263
 30
0.0
 10
120.4828807246417
 20
-148.6187855131572
 30
0.0
 10
121.0351654744727
 20
-148.6187855131572
 30
0.0
 10
121.587450224303
 20
-148.6187855131572
 30
0.0
 10
122.0351654744721
 20
-149.0665007633263
 30
0.0
 10
122.0351654744721
 20
-149.6187855131573
 30
0.0
 10
122.0351654744721
 20
-150.1710702629882
 30
0.0
 10
121.587450224303
 20
-150.6187855131573
 30
0.0
 10
121.0351654744727
 20
-150.6187855131573
 30
0.0
 10
120.4828807246417
 20
-150.6187855131573
 30
0.0
 10
120.0351654744727
 20
-150.1710702629882
 30
0.0
 10
120.0351654744727
 20
-149.6187855131573
 30
0.0
 10
120.0351654744727
 20
-149.6187855131573
 30
0.0
 10
120.0351654744727
 20
-149.6187855131573
 30
0.0
 10
120.0351654744727
 20
-149.6187855131573
 30
0.0
  0
ENDBLK
  5
5F
330
5C
100
AcDbEntity
  8
0
100
AcDbBlockEnd
  0
BLOCK
  5
63
330
61
100
AcDbEntity
  8
0
100
AcDbBlockBegin
  2
block 9
 70
     0
 10
0.0
 20
0.0
 30
0.0
  3
block 9
  1

  0
SPLINE
  5
65
330
61
100
AcDbEntity
  8
Layer 1
 62
     7
420
 16777215
370
    25
100
AcDbSpline
210
0.0
220
0.0
230
1.0
 70
    11
 71
     3
 72
    20
 73
    16
 74
     0
 42
0.0000000001
 43
0.0000000001
 12
1.0
 22
0.0
 32
0.0
 13
1.0
 23
0.0
 33
0.0
 40
0.0
 40
0.0
 40
0.0
 40
0.0
 40
1.0
 40
1.0
 40
1.0
 40
2.0
 40
2.0
 40
2.0
 40
3.0
 40
3.0
 40
3.0
 40
4.0
 40
4.0
 40
4.0
 40
5.0
 40
5.0
 40
5.0
 40
5.0
 10
58.03516547447239
 20
-147.0986538030166
 30
0.0
 10
58.03516547447239
 20
-146.5463690531856
 30
0.0
 10
58.48288072464148
 20
-146.0986538030165
 30
0.0
 10
59.03516547447243
 20
-146.0986538030165
 30
0.0
 10
59.58745022430339
 20
-146.0986538030165
 30
0.0
 10
60.03516547447246
 20
-146.5463690531856
 30
0.0
 10
60.03516547447246
 20
-147.0986538030166
 30
0.0
 10
60.03516547447246
 20
-147.6509385528472
 30
0.0
 10
59.58745022430339
 20
-148.0986538030163
 30
0.0
 10
59.03516547447243
 20
-148.0986538030163
 30
0.0
 10
58.48288072464148
 20
-148.0986538030163
 30
0.0
 10
58.03516547447239
 20
-147.6509385528472
 30
0.0
 10
58.03516547447239
 20
-147.0986538030166
 30
0.0
 10
58.03516547447239
 20
-147.0986538030166
 30
0.0
 10
58.03516547447239
 20
-147.0986538030166
 30
0.0
 10
58.03516547447239
 20
-147.0986538030166
 30
0.0
  0
ENDBLK
  5
64
330
61
100
AcDbEntity
  8
0
100
AcDbBlockEnd
  0
BLOCK
  5
68
330
66
100
AcDbEntity
  8
0
100
AcDbBlockBegin
  2
block 10
 70
     0
 10
0.0
 20
0.0
 30
0.0
  3
block 10
  1

  0
POLYLINE
  5
6A
330
66
100
AcDbEntity
  8
Layer 1
 62
     7
420
 16777215
370
    25
100
AcDb2dPolyline
 66
     1
 10
0.0
 20
0.0
 30
0.0
  0
VERTEX
  5
6B
330
6A
100
AcDbEntity
  8
Layer 1
 62
     7
420
 16777215
370
    25
100
AcDbVertex
100
AcDb2dVertex
 10
64.0351654744726
 20
-153.2624031623371
 30
0.0
  0
VERTEX
  5
6C
330
6A
100
AcDbEntity
  8
Layer 1
 62
     7
420
 16777215
370
    25
100
AcDbVertex
100
AcDb2dVertex
 10
30.03516547447269
 20
-153.2624031623371
 30
0.0
  0
VERTEX
  5
6D
330
6A
100
AcDbEntity
  8
Layer 1
 62
     7
420
 16777215
370
    25
100
AcDbVertex
100
AcDb2dVertex
 10
30.03516547447269
 20
-145.6187855131571
 30
0.0
  0
VERTEX
  5
6E
330
6A
100
AcDbEntity
  8
Layer 1
 62
     7
420
 16777215
370
    25
100
AcDbVertex
100
AcDb2dVertex
 10
124.0351654744722
 20
-145.6187855131574
 30
0.0
  0
VERTEX
  5
6F
330
6A
100
AcDbEntity
  8
Layer 1
 62
     7
420
 16777215
370
    25
100
AcDbVertex
100
AcDb2dVertex
 10
124.0351654744722
 20
-155.6187855131575
 30
0.0
  0
VERTEX
  5
70
330
6A
100
AcDbEntity
  8
Layer 1
 62
     7
420
 16777215
370
    25
100
AcDbVertex
100
AcDb2dVertex
 10
64.0351654744726
 20
-155.6187855131575
 30
0.0
  0
VERTEX
  5
71
330
6A
100
AcDbEntity
  8
Layer 1
 62
     7
420
 16777215
370
    25
100
AcDbVertex
100
AcDb2dVertex
 10
64.0351654744726
 20
-153.2624031623371
 30
0.0
  0
SEQEND
  5
72
330
6A
100
AcDbEntity
  8
Layer 1
 62
     7
420
 16777215
370
    25
  0
ENDBLK
  5
69
330
66
100
AcDbEntity
  8
0
100
AcDbBlockEnd
  0
BLOCK
  5
75
330
73
100
AcDbEntity
  8
0
100
AcDbBlockBegin
  2
block 11
 70
     0
 10
0.0
 20
0.0
 30
0.0
  3
block 11
  1

  0
INSERT
  5
78
330
73
100
AcDbEntity
  8
Layer 1
100
AcDbBlockReference
  2
block 12
 10
0.0
 20
0.0
 30
0.0
  0
INSERT
  5
7D
330
73
100
AcDbEntity
  8
Layer 1
100
AcDbBlockReference
  2
block 13
 10
0.0
 20
0.0
 30
0.0
  0
INSERT
  5
82
330
73
100
AcDbEntity
  8
Layer 1
100
AcDbBlockReference
  2
block 14
 10
0.0
 20
0.0
 30
0.0
  0
ENDBLK
  5
76
330
73
100
AcDbEntity
  8
0
100
AcDbBlockEnd
  0
BLOCK
  5
79
330
77
100
AcDbEntity
  8
0
100
AcDbBlockBegin
  2
block 12
 70
     0
 10
0.0
 20
0.0
 30
0.0
  3
block 12
  1

  0
SPLINE
  5
7B
330
77
100
AcDbEntity
  8
Layer 1
 62
     7
420
 16777215
370
    25
100
AcDbSpline
210
0.0
220
0.0
230
1.0
 70
    11
 71
     3
 72
    20
 73
    16
 74
     0
 42
0.0000000001
 43
0.0000000001
 12
1.0
 22
0.0
 32
0.0
 13
1.0
 23
0.0
 33
0.0
 40
0.0
 40
0.0
 40
0.0
 40
0.0
 40
1.0
 40
1.0
 40
1.0
 40
2.0
 40
2.0
 40
2.0
 40
3.0
 40
3.0
 40
3.0
 40
4.0
 40
4.0
 40
4.0
 40
5.0
 40
5.0
 40
5.0
 40
5.0
 10
120.0351654744727
 20
-161.1187855130322
 30
0.0
 10
120.0351654744727
 20
-160.5665007632013
 30
0.0
 10
120.4828807246417
 20
-160.1187855130322
 30
0.0
 10
121.0351654744727
 20
-160.1187855130322
 30
0.0
 10
121.587450224303
 20
-160.1187855130322
 30
0.0
 10
122.0351654744727
 20
-160.5665007632013
 30
0.0
 10
122.0351654744727
 20
-161.1187855130322
 30
0.0
 10
122.0351654744727
 20
-161.6710702628632
 30
0.0
 10
121.587450224303
 20
-162.1187855130323
 30
0.0
 10
121.0351654744727
 20
-162.1187855130323
 30
0.0
 10
120.4828807246417
 20
-162.1187855130323
 30
0.0
 10
120.0351654744727
 20
-161.6710702628632
 30
0.0
 10
120.0351654744727
 20
-161.1187855130322
 30
0.0
 10
120.0351654744727
 20
-161.1187855130322
 30
0.0
 10
120.0351654744727
 20
-161.1187855130322
 30
0.0
 10
120.0351654744727
 20
-161.1187855130322
 30
0.0
  0
ENDBLK
  5
7A
330
77
100
AcDbEntity
  8
0
100
AcDbBlockEnd
  0
BLOCK
  5
7E
330
7C
100
AcDbEntity
  8
0
100
AcDbBlockBegin
  2
block 13
 70
     0
 10
0.0
 20
0.0
 30
0.0
  3
block 13
  1

  0
SPLINE
  5
80
330
7C
100
AcDbEntity
  8
Layer 1
 62
     7
420
 16777215
370
    25
100
AcDbSpline
210
0.0
220
0.0
230
1.0
 70
    11
 71
     3
 72
    20
 73
    16
 74
     0
 42
0.0000000001
 43
0.0000000001
 12
1.0
 22
0.0
 32
0.0
 13
1.0
 23
0.0
 33
0.0
 40
0.0
 40
0.0
 40
0.0
 40
0.0
 40
1.0
 40
1.0
 40
1.0
 40
2.0
 40
2.0
 40
2.0
 40
3.0
 40
3.0
 40
3.0
 40
4.0
 40
4.0
 40
4.0
 40
5.0
 40
5.0
 40
5.0
 40
5.0
 10
33.78516547447266
 20
-164.1187855130323
 30
0.0
 10
33.78516547447266
 20
-163.5665007632014
 30
0.0
 10
34.23288072464175
 20
-163.1187855130323
 30
0.0
 10
34.7851654744727
 20
-163.1187855130323
 30
0.0
 10
35.33745022430301
 20
-163.1187855130323
 30
0.0
 10
35.78516547447209
 20
-163.5665007632014
 30
0.0
 10
35.78516547447209
 20
-164.1187855130323
 30
0.0
 10
35.78516547447209
 20
-164.6710702628633
 30
0.0
 10
35.33745022430301
 20
-165.118785513032
 30
0.0
 10
34.7851654744727
 20
-165.118785513032
 30
0.0
 10
34.23288072464175
 20
-165.118785513032
 30
0.0
 10
33.78516547447266
 20
-164.6710702628633
 30
0.0
 10
33.78516547447266
 20
-164.1187855130323
 30
0.0
 10
33.78516547447266
 20
-164.1187855130323
 30
0.0
 10
33.78516547447266
 20
-164.1187855130323
 30
0.0
 10
33.78516547447266
 20
-164.1187855130323
 30
0.0
  0
ENDBLK
  5
7F
330
7C
100
AcDbEntity
  8
0
100
AcDbBlockEnd
  0
BLOCK
  5
83
330
81
100
AcDbEntity
  8
0
100
AcDbBlockBegin
  2
block 14
 70
     0
 10
0.0
 20
0.0
 30
0.0
  3
block 14
  1

  0
POLYLINE
  5
85
330
81
100
AcDbEntity
  8
Layer 1
 62
     7
420
 16777215
370
    25
100
AcDb2dPolyline
 66
     1
 10
0.0
 20
0.0
 30
0.0
  0
VERTEX
  5
86
330
85
100
AcDbEntity
  8
Layer 1
 62
     7
420
 16777215
370
    25
100
AcDbVertex
100
AcDb2dVertex
 10
30.03516547447269
 20
-159.6734072657984
 30
0.0
  0
VERTEX
  5
87
330
85
100
AcDbEntity
  8
Layer 1
 62
     7
420
 16777215
370
    25
100
AcDbVertex
100
AcDb2dVertex
 10
64.0351654744726
 20
-159.6734072657984
 30
0.0
  0
VERTEX
  5
88
330
85
100
AcDbEntity
  8
Layer 1
 62
     7
420
 16777215
370
    25
100
AcDbVertex
100
AcDb2dVertex
 10
64.0351654744726
 20
-156.1187855130324
 30
0.0
  0
VERTEX
  5
89
330
85
100
AcDbEntity
  8
Layer 1
 62
     7
420
 16777215
370
    25
100
AcDbVertex
100
AcDb2dVertex
 10
124.0351654744722
 20
-156.1187855130324
 30
0.0
  0
VERTEX
  5
8A
330
85
100
AcDbEntity
  8
Layer 1
 62
     7
420
 16777215
370
    25
100
AcDbVertex
100
AcDb2dVertex
 10
124.0351654744722
 20
-166.118785513033
 30
0.0
  0
VERTEX
  5
8B
330
85
100
AcDbEntity
  8
Layer 1
 62
     7
420
 16777215
370
    25
100
AcDbVertex
100
AcDb2dVertex
 10
30.03516547447269
 20
-166.118785513033
 30
0.0
  0
VERTEX
  5
8C
330
85
100
AcDbEntity
  8
Layer 1
 62
     7
420
 16777215
370
    25
100
AcDbVertex
100
AcDb2dVertex
 10
30.03516547447269
 20
-159.6734072657984
 30
0.0
  0
SEQEND
  5
8D
330
85
100
AcDbEntity
  8
Layer 1
 62
     7
420
 16777215
370
    25
  0
ENDBLK
  5
84
330
81
100
AcDbEntity
  8
0
100
AcDbBlockEnd
  0
BLOCK
  5
90
330
8E
100
AcDbEntity
  8
0
100
AcDbBlockBegin
  2
block 15
 70
     0
 10
0.0
 20
0.0
 30
0.0
  3
block 15
  1

  0
INSERT
  5
93
330
8E
100
AcDbEntity
  8
Layer 1
100
AcDbBlockReference
  2
block 16
 10
0.0
 20
0.0
 30
0.0
  0
INSERT
  5
98
330
8E
100
AcDbEntity
  8
Layer 1
100
AcDbBlockReference
  2
block 17
 10
0.0
 20
0.0
 30
0.0
  0
INSERT
  5
9D
330
8E
100
AcDbEntity
  8
Layer 1
100
AcDbBlockReference
  2
block 18
 10
0.0
 20
0.0
 30
0.0
  0
ENDBLK
  5
91
330
8E
100
AcDbEntity
  8
0
100
AcDbBlockEnd
  0
BLOCK
  5
94
330
92
100
AcDbEntity
  8
0
100
AcDbBlockBegin
  2
block 16
 70
     0
 10
0.0
 20
0.0
 30
0.0
  3
block 16
  1

  0
SPLINE
  5
96
330
92
100
AcDbEntity
  8
Layer 1
 62
     7
420
 16777215
370
    25
100
AcDbSpline
210
0.0
220
0.0
230
1.0
 70
    11
 71
     3
 72
    20
 73
    16
 74
     0
 42
0.0000000001
 43
0.0000000001
 12
1.0
 22
0.0
 32
0.0
 13
1.0
 23
0.0
 33
0.0
 40
0.0
 40
0.0
 40
0.0
 40
0.0
 40
1.0
 40
1.0
 40
1.0
 40
2.0
 40
2.0
 40
2.0
 40
3.0
 40
3.0
 40
3.0
 40
4.0
 40
4.0
 40
4.0
 40
5.0
 40
5.0
 40
5.0
 40
5.0
 10
120.0351654744727
 20
-171.6187855129084
 30
0.0
 10
120.0351654744727
 20
-171.0665007630768
 30
0.0
 10
120.4828807246417
 20
-170.6187855129077
 30
0.0
 10
121.0351654744727
 20
-170.6187855129077
 30
0.0
 10
121.587450224303
 20
-170.6187855129077
 30
0.0
 10
122.0351654744721
 20
-171.0665007630768
 30
0.0
 10
122.0351654744721
 20
-171.6187855129084
 30
0.0
 10
122.0351654744721
 20
-172.1710702627387
 30
0.0
 10
121.587450224303
 20
-172.6187855129078
 30
0.0
 10
121.0351654744727
 20
-172.6187855129078
 30
0.0
 10
120.4828807246417
 20
-172.6187855129078
 30
0.0
 10
120.0351654744727
 20
-172.1710702627387
 30
0.0
 10
120.0351654744727
 20
-171.6187855129084
 30
0.0
 10
120.0351654744727
 20
-171.6187855129084
 30
0.0
 10
120.0351654744727
 20
-171.6187855129084
 30
0.0
 10
120.0351654744727
 20
-171.6187855129084
 30
0.0
  0
ENDBLK
  5
95
330
92
100
AcDbEntity
  8
0
100
AcDbBlockEnd
  0
BLOCK
  5
99
330
97
100
AcDbEntity
  8
0
100
AcDbBlockBegin
  2
block 17
 70
     0
 10
0.0
 20
0.0
 30
0.0
  3
block 17
  1

  0
SPLINE
  5
9B
330
97
100
AcDbEntity
  8
Layer 1
 62
     7
420
 16777215
370
    25
100
AcDbSpline
210
0.0
220
0.0
230
1.0
 70
    11
 71
     3
 72
    20
 73
    16
 74
     0
 42
0.0000000001
 43
0.0000000001
 12
1.0
 22
0.0
 32
0.0
 13
1.0
 23
0.0
 33
0.0
 40
0.0
 40
0.0
 40
0.0
 40
0.0
 40
1.0
 40
1.0
 40
1.0
 40
2.0
 40
2.0
 40
2.0
 40
3.0
 40
3.0
 40
3.0
 40
4.0
 40
4.0
 40
4.0
 40
5.0
 40
5.0
 40
5.0
 40
5.0
 10
33.78516547447266
 20
-171.6187855129084
 30
0.0
 10
33.78516547447266
 20
-171.0665007630768
 30
0.0
 10
34.23288072464175
 20
-170.6187855129077
 30
0.0
 10
34.7851654744727
 20
-170.6187855129077
 30
0.0
 10
35.33745022430301
 20
-170.6187855129077
 30
0.0
 10
35.78516547447209
 20
-171.0665007630768
 30
0.0
 10
35.78516547447209
 20
-171.6187855129084
 30
0.0
 10
35.78516547447209
 20
-172.1710702627387
 30
0.0
 10
35.33745022430301
 20
-172.6187855129078
 30
0.0
 10
34.7851654744727
 20
-172.6187855129078
 30
0.0
 10
34.23288072464175
 20
-172.6187855129078
 30
0.0
 10
33.78516547447266
 20
-172.1710702627387
 30
0.0
 10
33.78516547447266
 20
-171.6187855129084
 30
0.0
 10
33.78516547447266
 20
-171.6187855129084
 30
0.0
 10
33.78516547447266
 20
-171.6187855129084
 30
0.0
 10
33.78516547447266
 20
-171.6187855129084
 30
0.0
  0
ENDBLK
  5
9A
330
97
100
AcDbEntity
  8
0
100
AcDbBlockEnd
  0
BLOCK
  5
9E
330
9C
100
AcDbEntity
  8
0
100
AcDbBlockBegin
  2
block 18
 70
     0
 10
0.0
 20
0.0
 30
0.0
  3
block 18
  1

  0
POLYLINE
  5
A0
330
9C
100
AcDbEntity
  8
Layer 1
 62
     7
420
 16777215
370
    25
100
AcDb2dPolyline
 66
     1
 10
0.0
 20
0.0
 30
0.0
  0
VERTEX
  5
A1
330
A0
100
AcDbEntity
  8
Layer 1
 62
     7
420
 16777215
370
    25
100
AcDbVertex
100
AcDb2dVertex
 10
41.53516547447278
 20
-170.2241327768743
 30
0.0
  0
VERTEX
  5
A2
330
A0
100
AcDbEntity
  8
Layer 1
 62
     7
420
 16777215
370
    25
100
AcDbVertex
100
AcDb2dVertex
 10
41.53516547447278
 20
-176.6187855129079
 30
0.0
  0
VERTEX
  5
A3
330
A0
100
AcDbEntity
  8
Layer 1
 62
     7
420
 16777215
370
    25
100
AcDbVertex
100
AcDb2dVertex
 10
30.03516547447269
 20
-176.6187855129079
 30
0.0
  0
VERTEX
  5
A4
330
A0
100
AcDbEntity
  8
Layer 1
 62
     7
420
 16777215
370
    25
100
AcDbVertex
100
AcDb2dVertex
 10
30.03516547447269
 20
-166.6187855129076
 30
0.0
  0
VERTEX
  5
A5
330
A0
100
AcDbEntity
  8
Layer 1
 62
     7
420
 16777215
370
    25
100
AcDbVertex
100
AcDb2dVertex
 10
124.0351654744722
 20
-166.6187855129076
 30
0.0
  0
VERTEX
  5
A6
330
A0
100
AcDbEntity
  8
Layer 1
 62
     7
420
 16777215
370
    25
100
AcDbVertex
100
AcDb2dVertex
 10
124.0351654744722
 20
-176.6187855129079
 30
0.0
  0
VERTEX
  5
A7
330
A0
100
AcDbEntity
  8
Layer 1
 62
     7
420
 16777215
370
    25
100
AcDbVertex
100
AcDb2dVertex
 10
52.53516547447252
 20
-176.6187855129079
 30
0.0
  0
VERTEX
  5
A8
330
A0
100
AcDbEntity
  8
Layer 1
 62
     7
420
 16777215
370
    25
100
AcDbVertex
100
AcDb2dVertex
 10
52.53516547447252
 20
-170.2241327768743
 30
0.0
  0
VERTEX
  5
A9
330
A0
100
AcDbEntity
  8
Layer 1
 62
     7
420
 16777215
370
    25
100
AcDbVertex
100
AcDb2dVertex
 10
41.53516547447278
 20
-170.2241327768743
 30
0.0
  0
SEQEND
  5
AA
330
A0
100
AcDbEntity
  8
Layer 1
 62
     7
420
 16777215
370
    25
  0
ENDBLK
  5
9F
330
9C
100
AcDbEntity
  8
0
100
AcDbBlockEnd
  0
BLOCK
  5
AD
330
AB
100
AcDbEntity
  8
0
100
AcDbBlockBegin
  2
block 19
 70
     0
 10
0.0
 20
0.0
 30
0.0
  3
block 19
  1

  0
INSERT
  5
B0
330
AB
100
AcDbEntity
  8
Layer 1
100
AcDbBlockReference
  2
block 20
 10
0.0
 20
0.0
 30
0.0
  0
INSERT
  5
B5
330
AB
100
AcDbEntity
  8
Layer 1
100
AcDbBlockReference
  2
block 21
 10
0.0
 20
0.0
 30
0.0
  0
INSERT
  5
BA
330
AB
100
AcDbEntity
  8
Layer 1
100
AcDbBlockReference
  2
block 22
 10
0.0
 20
0.0
 30
0.0
  0
ENDBLK
  5
AE
330
AB
100
AcDbEntity
  8
0
100
AcDbBlockEnd
  0
BLOCK
  5
B1
330
AF
100
AcDbEntity
  8
0
100
AcDbBlockBegin
  2
block 20
 70
     0
 10
0.0
 20
0.0
 30
0.0
  3
block 20
  1

  0
SPLINE
  5
B3
330
AF
100
AcDbEntity
  8
Layer 1
 62
     7
420
 16777215
370
    25
100
AcDbSpline
210
0.0
220
0.0
230
1.0
 70
    11
 71
     3
 72
    20
 73
    16
 74
     0
 42
0.0000000001
 43
0.0000000001
 12
1.0
 22
0.0
 32
0.0
 13
1.0
 23
0.0
 33
0.0
 40
0.0
 40
0.0
 40
0.0
 40
0.0
 40
1.0
 40
1.0
 40
1.0
 40
2.0
 40
2.0
 40
2.0
 40
3.0
 40
3.0
 40
3.0
 40
4.0
 40
4.0
 40
4.0
 40
5.0
 40
5.0
 40
5.0
 40
5.0
 10
120.0351654744727
 20
-182.1187855127833
 30
0.0
 10
120.0351654744727
 20
-181.5665007629517
 30
0.0
 10
120.4828807246417
 20
-181.1187855127827
 30
0.0
 10
121.0351654744727
 20
-181.1187855127827
 30
0.0
 10
121.587450224303
 20
-181.1187855127827
 30
0.0
 10
122.0351654744727
 20
-181.5665007629517
 30
0.0
 10
122.0351654744727
 20
-182.1187855127833
 30
0.0
 10
122.0351654744727
 20
-182.6710702626137
 30
0.0
 10
121.587450224303
 20
-183.1187855127827
 30
0.0
 10
121.0351654744727
 20
-183.1187855127827
 30
0.0
 10
120.4828807246417
 20
-183.1187855127827
 30
0.0
 10
120.0351654744727
 20
-182.6710702626137
 30
0.0
 10
120.0351654744727
 20
-182.1187855127833
 30
0.0
 10
120.0351654744727
 20
-182.1187855127833
 30
0.0
 10
120.0351654744727
 20
-182.1187855127833
 30
0.0
 10
120.0351654744727
 20
-182.1187855127833
 30
0.0
  0
ENDBLK
  5
B2
330
AF
100
AcDbEntity
  8
0
100
AcDbBlockEnd
  0
BLOCK
  5
B6
330
B4
100
AcDbEntity
  8
0
100
AcDbBlockBegin
  2
block 21
 70
     0
 10
0.0
 20
0.0
 30
0.0
  3
block 21
  1

  0
SPLINE
  5
B8
330
B4
100
AcDbEntity
  8
Layer 1
 62
     7
420
 16777215
370
    25
100
AcDbSpline
210
0.0
220
0.0
230
1.0
 70
    11
 71
     3
 72
    20
 73
    16
 74
     0
 42
0.0000000001
 43
0.0000000001
 12
1.0
 22
0.0
 32
0.0
 13
1.0
 23
0.0
 33
0.0
 40
0.0
 40
0.0
 40
0.0
 40
0.0
 40
1.0
 40
1.0
 40
1.0
 40
2.0
 40
2.0
 40
2.0
 40
3.0
 40
3.0
 40
3.0
 40
4.0
 40
4.0
 40
4.0
 40
5.0
 40
5.0
 40
5.0
 40
5.0
 10
33.78516547447266
 20
-182.1187855127833
 30
0.0
 10
33.78516547447266
 20
-181.5665007629517
 30
0.0
 10
34.23288072464175
 20
-181.1187855127827
 30
0.0
 10
34.7851654744727
 20
-181.1187855127827
 30
0.0
 10
35.33745022430301
 20
-181.1187855127827
 30
0.0
 10
35.78516547447209
 20
-181.5665007629517
 30
0.0
 10
35.78516547447209
 20
-182.1187855127833
 30
0.0
 10
35.78516547447209
 20
-182.6710702626137
 30
0.0
 10
35.33745022430301
 20
-183.1187855127827
 30
0.0
 10
34.7851654744727
 20
-183.1187855127827
 30
0.0
 10
34.23288072464175
 20
-183.1187855127827
 30
0.0
 10
33.78516547447266
 20
-182.6710702626137
 30
0.0
 10
33.78516547447266
 20
-182.1187855127833
 30
0.0
 10
33.78516547447266
 20
-182.1187855127833
 30
0.0
 10
33.78516547447266
 20
-182.1187855127833
 30
0.0
 10
33.78516547447266
 20
-182.1187855127833
 30
0.0
  0
ENDBLK
  5
B7
330
B4
100
AcDbEntity
  8
0
100
AcDbBlockEnd
  0
BLOCK
  5
BB
330
B9
100
AcDbEntity
  8
0
100
AcDbBlockBegin
  2
block 22
 70
     0
 10
0.0
 20
0.0
 30
0.0
  3
block 22
  1

  0
POLYLINE
  5
BD
330
B9
100
AcDbEntity
  8
Layer 1
 62
     7
420
 16777215
370
    25
100
AcDb2dPolyline
 66
     1
 10
0.0
 20
0.0
 30
0.0
  0
VERTEX
  5
BE
330
BD
100
AcDbEntity
  8
Layer 1
 62
     7
420
 16777215
370
    25
100
AcDbVertex
100
AcDb2dVertex
 10
52.53516547447252
 20
-181.9495957964733
 30
0.0
  0
VERTEX
  5
BF
330
BD
100
AcDbEntity
  8
Layer 1
 62
     7
420
 16777215
370
    25
100
AcDbVertex
100
AcDb2dVertex
 10
52.53516547447252
 20
-177.1187855127838
 30
0.0
  0
VERTEX
  5
C0
330
BD
100
AcDbEntity
  8
Layer 1
 62
     7
420
 16777215
370
    25
100
AcDbVertex
100
AcDb2dVertex
 10
124.0351654744722
 20
-177.1187855127838
 30
0.0
  0
VERTEX
  5
C1
330
BD
100
AcDbEntity
  8
Layer 1
 62
     7
420
 16777215
370
    25
100
AcDbVertex
100
AcDb2dVertex
 10
124.0351654744722
 20
-187.1187855127829
 30
0.0
  0
VERTEX
  5
C2
330
BD
100
AcDbEntity
  8
Layer 1
 62
     7
420
 16777215
370
    25
100
AcDbVertex
100
AcDb2dVertex
 10
30.03516547447269
 20
-187.1187855127829
 30
0.0
  0
VERTEX
  5
C3
330
BD
100
AcDbEntity
  8
Layer 1
 62
     7
420
 16777215
370
    25
100
AcDbVertex
100
AcDb2dVertex
 10
30.03516547447269
 20
-177.1187855127825
 30
0.0
  0
VERTEX
  5
C4
330
BD
100
AcDbEntity
  8
Layer 1
 62
     7
420
 16777215
370
    25
100
AcDbVertex
100
AcDb2dVertex
 10
41.53516547447278
 20
-177.1187855127838
 30
0.0
  0
VERTEX
  5
C5
330
BD
100
AcDbEntity
  8
Layer 1
 62
     7
420
 16777215
370
    25
100
AcDbVertex
100
AcDb2dVertex
 10
41.53516547447278
 20
-181.9495957964733
 30
0.0
  0
VERTEX
  5
C6
330
BD
100
AcDbEntity
  8
Layer 1
 62
     7
420
 16777215
370
    25
100
AcDbVertex
100
AcDb2dVertex
 10
52.53516547447252
 20
-181.9495957964733
 30
0.0
  0
SEQEND
  5
C7
330
BD
100
AcDbEntity
  8
Layer 1
 62
     7
420
 16777215
370
    25
  0
ENDBLK
  5
BC
330
B9
100
AcDbEntity
  8
0
100
AcDbBlockEnd
  0
BLOCK
  5
CA
330
C8
100
AcDbEntity
  8
0
100
AcDbBlockBegin
  2
block 23
 70
     0
 10
0.0
 20
0.0
 30
0.0
  3
block 23
  1

  0
INSERT
  5
CD
330
C8
100
AcDbEntity
  8
Layer 1
100
AcDbBlockReference
  2
block 24
 10
0.0
 20
0.0
 30
0.0
  0
INSERT
  5
D2
330
C8
100
AcDbEntity
  8
Layer 1
100
AcDbBlockReference
  2
block 25
 10
0.0
 20
0.0
 30
0.0
  0
INSERT
  5
D7
330
C8
100
AcDbEntity
  8
Layer 1
100
AcDbBlockReference
  2
block 26
 10
0.0
 20
0.0
 30
0.0
  0
ENDBLK
  5
CB
330
C8
100
AcDbEntity
  8
0
100
AcDbBlockEnd
  0
BLOCK
  5
CE
330
CC
100
AcDbEntity
  8
0
100
AcDbBlockBegin
  2
block 24
 70
     0
 10
0.0
 20
0.0
 30
0.0
  3
block 24
  1

  0
SPLINE
  5
D0
330
CC
100
AcDbEntity
  8
Layer 1
 62
     7
420
 16777215
370
    25
100
AcDbSpline
210
0.0
220
0.0
230
1.0
 70
    11
 71
     3
 72
    20
 73
    16
 74
     0
 42
0.0000000001
 43
0.0000000001
 12
1.0
 22
0.0
 32
0.0
 13
1.0
 23
0.0
 33
0.0
 40
0.0
 40
0.0
 40
0.0
 40
0.0
 40
1.0
 40
1.0
 40
1.0
 40
2.0
 40
2.0
 40
2.0
 40
3.0
 40
3.0
 40
3.0
 40
4.0
 40
4.0
 40
4.0
 40
5.0
 40
5.0
 40
5.0
 40
5.0
 10
215.2701536303334
 20
-171.3920715699738
 30
0.0
 10
215.2701536303334
 20
-170.8397868201422
 30
0.0
 10
215.7178688805025
 20
-170.3920715699731
 30
0.0
 10
216.2701536303335
 20
-170.3920715699731
 30
0.0
 10
216.8224383801638
 20
-170.3920715699731
 30
0.0
 10
217.2701536303335
 20
-170.8397868201422
 30
0.0
 10
217.2701536303335
 20
-171.3920715699738
 30
0.0
 10
217.2701536303335
 20
-171.9443563198041
 30
0.0
 10
216.8224383801638
 20
-172.3920715699732
 30
0.0
 10
216.2701536303335
 20
-172.3920715699732
 30
0.0
 10
215.7178688805025
 20
-172.3920715699732
 30
0.0
 10
215.2701536303334
 20
-171.9443563198041
 30
0.0
 10
215.2701536303334
 20
-171.3920715699738
 30
0.0
 10
215.2701536303334
 20
-171.3920715699738
 30
0.0
 10
215.2701536303334
 20
-171.3920715699738
 30
0.0
 10
215.2701536303334
 20
-171.3920715699738
 30
0.0
  0
ENDBLK
  5
CF
330
CC
100
AcDbEntity
  8
0
100
AcDbBlockEnd
  0
BLOCK
  5
D3
330
D1
100
AcDbEntity
  8
0
100
AcDbBlockBegin
  2
block 25
 70
     0
 10
0.0
 20
0.0
 30
0.0
  3
block 25
  1

  0
SPLINE
  5
D5
330
D1
100
AcDbEntity
  8
Layer 1
 62
     7
420
 16777215
370
    25
100
AcDbSpline
210
0.0
220
0.0
230
1.0
 70
    11
 71
     3
 72
    20
 73
    16
 74
     0
 42
0.0000000001
 43
0.0000000001
 12
1.0
 22
0.0
 32
0.0
 13
1.0
 23
0.0
 33
0.0
 40
0.0
 40
0.0
 40
0.0
 40
0.0
 40
1.0
 40
1.0
 40
1.0
 40
2.0
 40
2.0
 40
2.0
 40
3.0
 40
3.0
 40
3.0
 40
4.0
 40
4.0
 40
4.0
 40
5.0
 40
5.0
 40
5.0
 40
5.0
 10
129.0201536303335
 20
-171.3920715699738
 30
0.0
 10
129.0201536303335
 20
-170.8397868201422
 30
0.0
 10
129.4678688805025
 20
-170.3920715699731
 30
0.0
 10
130.0201536303335
 20
-170.3920715699731
 30
0.0
 10
130.5724383801638
 20
-170.3920715699731
 30
0.0
 10
131.0201536303329
 20
-170.8397868201422
 30
0.0
 10
131.0201536303329
 20
-171.3920715699738
 30
0.0
 10
131.0201536303329
 20
-171.9443563198041
 30
0.0
 10
130.5724383801638
 20
-172.3920715699732
 30
0.0
 10
130.0201536303335
 20
-172.3920715699732
 30
0.0
 10
129.4678688805025
 20
-172.3920715699732
 30
0.0
 10
129.0201536303335
 20
-171.9443563198041
 30
0.0
 10
129.0201536303335
 20
-171.3920715699738
 30
0.0
 10
129.0201536303335
 20
-171.3920715699738
 30
0.0
 10
129.0201536303335
 20
-171.3920715699738
 30
0.0
 10
129.0201536303335
 20
-171.3920715699738
 30
0.0
  0
ENDBLK
  5
D4
330
D1
100
AcDbEntity
  8
0
100
AcDbBlockEnd
  0
BLOCK
  5
D8
330
D6
100
AcDbEntity
  8
0
100
AcDbBlockBegin
  2
block 26
 70
     0
 10
0.0
 20
0.0
 30
0.0
  3
block 26
  1

  0
POLYLINE
  5
DA
330
D6
100
AcDbEntity
  8
Layer 1
 62
     7
420
 16777215
370
    25
100
AcDb2dPolyline
 66
     1
 10
0.0
 20
0.0
 30
0.0
  0
VERTEX
  5
DB
330
DA
100
AcDbEntity
  8
Layer 1
 62
     7
420
 16777215
370
    25
100
AcDbVertex
100
AcDb2dVertex
 10
125.2701536303335
 20
-166.3920715699743
 30
0.0
  0
VERTEX
  5
DC
330
DA
100
AcDbEntity
  8
Layer 1
 62
     7
420
 16777215
370
    25
100
AcDbVertex
100
AcDb2dVertex
 10
219.2701536303329
 20
-166.3920715699743
 30
0.0
  0
VERTEX
  5
DD
330
DA
100
AcDbEntity
  8
Layer 1
 62
     7
420
 16777215
370
    25
100
AcDbVertex
100
AcDb2dVertex
 10
219.2701536303329
 20
-176.3920715699733
 30
0.0
  0
VERTEX
  5
DE
330
DA
100
AcDbEntity
  8
Layer 1
 62
     7
420
 16777215
370
    25
100
AcDbVertex
100
AcDb2dVertex
 10
125.2701536303335
 20
-176.3920715699733
 30
0.0
  0
VERTEX
  5
DF
330
DA
100
AcDbEntity
  8
Layer 1
 62
     7
420
 16777215
370
    25
100
AcDbVertex
100
AcDb2dVertex
 10
125.2701536303335
 20
-166.3920715699743
 30
0.0
  0
SEQEND
  5
E0
330
DA
100
AcDbEntity
  8
Layer 1
 62
     7
420
 16777215
370
    25
  0
ENDBLK
  5
D9
330
D6
100
AcDbEntity
  8
0
100
AcDbBlockEnd
  0
BLOCK
  5
E3
330
E1
100
AcDbEntity
  8
0
100
AcDbBlockBegin
  2
block 27
 70
     0
 10
0.0
 20
0.0
 30
0.0
  3
block 27
  1

  0
INSERT
  5
E6
330
E1
100
AcDbEntity
  8
Layer 1
100
AcDbBlockReference
  2
block 28
 10
0.0
 20
0.0
 30
0.0
  0
INSERT
  5
EB
330
E1
100
AcDbEntity
  8
Layer 1
100
AcDbBlockReference
  2
block 29
 10
0.0
 20
0.0
 30
0.0
  0
INSERT
  5
F0
330
E1
100
AcDbEntity
  8
Layer 1
100
AcDbBlockReference
  2
block 30
 10
0.0
 20
0.0
 30
0.0
  0
ENDBLK
  5
E4
330
E1
100
AcDbEntity
  8
0
100
AcDbBlockEnd
  0
BLOCK
  5
E7
330
E5
100
AcDbEntity
  8
0
100
AcDbBlockBegin
  2
block 28
 70
     0
 10
0.0
 20
0.0
 30
0.0
  3
block 28
  1

  0
SPLINE
  5
E9
330
E5
100
AcDbEntity
  8
Layer 1
 62
     7
420
 16777215
370
    25
100
AcDbSpline
210
0.0
220
0.0
230
1.0
 70
    11
 71
     3
 72
    20
 73
    16
 74
     0
 42
0.0000000001
 43
0.0000000001
 12
1.0
 22
0.0
 32
0.0
 13
1.0
 23
0.0
 33
0.0
 40
0.0
 40
0.0
 40
0.0
 40
0.0
 40
1.0
 40
1.0
 40
1.0
 40
2.0
 40
2.0
 40
2.0
 40
3.0
 40
3.0
 40
3.0
 40
4.0
 40
4.0
 40
4.0
 40
5.0
 40
5.0
 40
5.0
 40
5.0
 10
215.2701536303334
 20
-179.8920715698486
 30
0.0
 10
215.2701536303334
 20
-179.3397868200183
 30
0.0
 10
215.7178688805025
 20
-178.892071569848
 30
0.0
 10
216.2701536303335
 20
-178.892071569848
 30
0.0
 10
216.8224383801638
 20
-178.892071569848
 30
0.0
 10
217.2701536303335
 20
-179.3397868200183
 30
0.0
 10
217.2701536303335
 20
-179.8920715698486
 30
0.0
 10
217.2701536303335
 20
-180.4443563196789
 30
0.0
 10
216.8224383801638
 20
-180.892071569848
 30
0.0
 10
216.2701536303335
 20
-180.892071569848
 30
0.0
 10
215.7178688805025
 20
-180.892071569848
 30
0.0
 10
215.2701536303334
 20
-180.4443563196789
 30
0.0
 10
215.2701536303334
 20
-179.8920715698486
 30
0.0
 10
215.2701536303334
 20
-179.8920715698486
 30
0.0
 10
215.2701536303334
 20
-179.8920715698486
 30
0.0
 10
215.2701536303334
 20
-179.8920715698486
 30
0.0
  0
ENDBLK
  5
E8
330
E5
100
AcDbEntity
  8
0
100
AcDbBlockEnd
  0
BLOCK
  5
EC
330
EA
100
AcDbEntity
  8
0
100
AcDbBlockBegin
  2
block 29
 70
     0
 10
0.0
 20
0.0
 30
0.0
  3
block 29
  1

  0
SPLINE
  5
EE
330
EA
100
AcDbEntity
  8
Layer 1
 62
     7
420
 16777215
370
    25
100
AcDbSpline
210
0.0
220
0.0
230
1.0
 70
    11
 71
     3
 72
    20
 73
    16
 74
     0
 42
0.0000000001
 43
0.0000000001
 12
1.0
 22
0.0
 32
0.0
 13
1.0
 23
0.0
 33
0.0
 40
0.0
 40
0.0
 40
0.0
 40
0.0
 40
1.0
 40
1.0
 40
1.0
 40
2.0
 40
2.0
 40
2.0
 40
3.0
 40
3.0
 40
3.0
 40
4.0
 40
4.0
 40
4.0
 40
5.0
 40
5.0
 40
5.0
 40
5.0
 10
129.0201536303335
 20
-179.8920715698486
 30
0.0
 10
129.0201536303335
 20
-179.3397868200183
 30
0.0
 10
129.4678688805025
 20
-178.892071569848
 30
0.0
 10
130.0201536303335
 20
-178.892071569848
 30
0.0
 10
130.5724383801638
 20
-178.892071569848
 30
0.0
 10
131.0201536303329
 20
-179.3397868200183
 30
0.0
 10
131.0201536303329
 20
-179.8920715698486
 30
0.0
 10
131.0201536303329
 20
-180.4443563196789
 30
0.0
 10
130.5724383801638
 20
-180.892071569848
 30
0.0
 10
130.0201536303335
 20
-180.892071569848
 30
0.0
 10
129.4678688805025
 20
-180.892071569848
 30
0.0
 10
129.0201536303335
 20
-180.4443563196789
 30
0.0
 10
129.0201536303335
 20
-179.8920715698486
 30
0.0
 10
129.0201536303335
 20
-179.8920715698486
 30
0.0
 10
129.0201536303335
 20
-179.8920715698486
 30
0.0
 10
129.0201536303335
 20
-179.8920715698486
 30
0.0
  0
ENDBLK
  5
ED
330
EA
100
AcDbEntity
  8
0
100
AcDbBlockEnd
  0
BLOCK
  5
F1
330
EF
100
AcDbEntity
  8
0
100
AcDbBlockBegin
  2
block 30
 70
     0
 10
0.0
 20
0.0
 30
0.0
  3
block 30
  1

  0
POLYLINE
  5
F3
330
EF
100
AcDbEntity
  8
Layer 1
 62
     7
420
 16777215
370
    25
100
AcDb2dPolyline
 66
     1
 10
0.0
 20
0.0
 30
0.0
  0
VERTEX
  5
F4
330
F3
100
AcDbEntity
  8
Layer 1
 62
     7
420
 16777215
370
    25
100
AcDbVertex
100
AcDb2dVertex
 10
125.2701536303335
 20
-176.8920715698492
 30
0.0
  0
VERTEX
  5
F5
330
F3
100
AcDbEntity
  8
Layer 1
 62
     7
420
 16777215
370
    25
100
AcDbVertex
100
AcDb2dVertex
 10
219.2701536303329
 20
-176.8920715698492
 30
0.0
  0
VERTEX
  5
F6
330
F3
100
AcDbEntity
  8
Layer 1
 62
     7
420
 16777215
370
    25
100
AcDbVertex
100
AcDb2dVertex
 10
219.2701536303329
 20
-186.8920715698482
 30
0.0
  0
VERTEX
  5
F7
330
F3
100
AcDbEntity
  8
Layer 1
 62
     7
420
 16777215
370
    25
100
AcDbVertex
100
AcDb2dVertex
 10
125.2701536303335
 20
-186.8920715698482
 30
0.0
  0
VERTEX
  5
F8
330
F3
100
AcDbEntity
  8
Layer 1
 62
     7
420
 16777215
370
    25
100
AcDbVertex
100
AcDb2dVertex
 10
125.2701536303335
 20
-176.8920715698492
 30
0.0
  0
SEQEND
  5
F9
330
F3
100
AcDbEntity
  8
Layer 1
 62
     7
420
 16777215
370
    25
  0
ENDBLK
  5
F2
330
EF
100
AcDbEntity
  8
0
100
AcDbBlockEnd
  0
BLOCK
  5
FC
330
FA
100
AcDbEntity
  8
0
100
AcDbBlockBegin
  2
block 31
 70
     0
 10
0.0
 20
0.0
 30
0.0
  3
block 31
  1

  0
INSERT
  5
FF
330
FA
100
AcDbEntity
  8
Layer 1
100
AcDbBlockReference
  2
block 32
 10
0.0
 20
0.0
 30
0.0
  0
INSERT
  5
104
330
FA
100
AcDbEntity
  8
Layer 1
100
AcDbBlockReference
  2
block 33
 10
0.0
 20
0.0
 30
0.0
  0
INSERT
  5
109
330
FA
100
AcDbEntity
  8
Layer 1
100
AcDbBlockReference
  2
block 34
 10
0.0
 20
0.0
 30
0.0
  0
INSERT
  5
10E
330
FA
100
AcDbEntity
  8
Layer 1
100
AcDbBlockReference
  2
block 35
 10
0.0
 20
0.0
 30
0.0
  0
INSERT
  5
113
330
FA
100
AcDbEntity
  8
Layer 1
100
AcDbBlockReference
  2
block 36
 10
0.0
 20
0.0
 30
0.0
  0
INSERT
  5
118
330
FA
100
AcDbEntity
  8
Layer 1
100
AcDbBlockReference
  2
block 37
 10
0.0
 20
0.0
 30
0.0
  0
INSERT
  5
11D
330
FA
100
AcDbEntity
  8
Layer 1
100
AcDbBlockReference
  2
block 38
 10
0.0
 20
0.0
 30
0.0
  0
INSERT
  5
122
330
FA
100
AcDbEntity
  8
Layer 1
100
AcDbBlockReference
  2
block 39
 10
0.0
 20
0.0
 30
0.0
  0
INSERT
  5
127
330
FA
100
AcDbEntity
  8
Layer 1
100
AcDbBlockReference
  2
block 40
 10
0.0
 20
0.0
 30
0.0
  0
INSERT
  5
12C
330
FA
100
AcDbEntity
  8
Layer 1
100
AcDbBlockReference
  2
block 41
 10
0.0
 20
0.0
 30
0.0
  0
ENDBLK
  5
FD
330
FA
100
AcDbEntity
  8
0
100
AcDbBlockEnd
  0
BLOCK
  5
100
330
FE
100
AcDbEntity
  8
0
100
AcDbBlockBegin
  2
block 32
 70
     0
 10
0.0
 20
0.0
 30
0.0
  3
block 32
  1

  0
SPLINE
  5
102
330
FE
100
AcDbEntity
  8
Layer 1
 62
     7
420
 16777215
370
    25
100
AcDbSpline
210
0.0
220
0.0
230
1.0
 70
    11
 71
     3
 72
    20
 73
    16
 74
     0
 42
0.0000000001
 43
0.0000000001
 12
1.0
 22
0.0
 32
0.0
 13
1.0
 23
0.0
 33
0.0
 40
0.0
 40
0.0
 40
0.0
 40
0.0
 40
1.0
 40
1.0
 40
1.0
 40
2.0
 40
2.0
 40
2.0
 40
3.0
 40
3.0
 40
3.0
 40
4.0
 40
4.0
 40
4.0
 40
5.0
 40
5.0
 40
5.0
 40
5.0
 10
143.6176982594244
 20
-17.45754160866361
 30
0.0
 10
143.6176982594244
 20
-16.90525685883266
 30
0.0
 10
144.0654135095935
 20
-16.45754160866358
 30
0.0
 10
144.6176982594245
 20
-16.45754160866358
 30
0.0
 10
145.1699830092548
 20
-16.45754160866358
 30
0.0
 10
145.6176982594245
 20
-16.90525685883266
 30
0.0
 10
145.6176982594245
 20
-17.45754160866361
 30
0.0
 10
145.6176982594245
 20
-18.00982635849425
 30
0.0
 10
145.1699830092548
 20
-18.45754160866365
 30
0.0
 10
144.6176982594245
 20
-18.45754160866365
 30
0.0
 10
144.0654135095935
 20
-18.45754160866365
 30
0.0
 10
143.6176982594244
 20
-18.00982635849425
 30
0.0
 10
143.6176982594244
 20
-17.45754160866361
 30
0.0
 10
143.6176982594244
 20
-17.45754160866361
 30
0.0
 10
143.6176982594244
 20
-17.45754160866361
 30
0.0
 10
143.6176982594244
 20
-17.45754160866361
 30
0.0
  0
ENDBLK
  5
101
330
FE
100
AcDbEntity
  8
0
100
AcDbBlockEnd
  0
BLOCK
  5
105
330
103
100
AcDbEntity
  8
0
100
AcDbBlockBegin
  2
block 33
 70
     0
 10
0.0
 20
0.0
 30
0.0
  3
block 33
  1

  0
SPLINE
  5
107
330
103
100
AcDbEntity
  8
Layer 1
 62
     7
420
 16777215
370
    25
100
AcDbSpline
210
0.0
220
0.0
230
1.0
 70
    11
 71
     3
 72
    20
 73
    16
 74
     0
 42
0.0000000001
 43
0.0000000001
 12
1.0
 22
0.0
 32
0.0
 13
1.0
 23
0.0
 33
0.0
 40
0.0
 40
0.0
 40
0.0
 40
0.0
 40
1.0
 40
1.0
 40
1.0
 40
2.0
 40
2.0
 40
2.0
 40
3.0
 40
3.0
 40
3.0
 40
4.0
 40
4.0
 40
4.0
 40
5.0
 40
5.0
 40
5.0
 40
5.0
 10
87.85522688487137
 20
-58.16991061778575
 30
0.0
 10
86.78536421120369
 20
-57.89519687754714
 30
0.0
 10
85.69171660672137
 20
-58.55401914935454
 30
0.0
 10
85.41249659129969
 20
-59.64143134788883
 30
0.0
 10
85.13327657587736
 20
-60.72884354642313
 30
0.0
 10
85.77421908902753
 20
-61.83306479393531
 30
0.0
 10
86.84408176269459
 20
-62.10777853417393
 30
0.0
 10
87.91394443636227
 20
-62.38249227441255
 30
0.0
 10
89.00759204084395
 20
-61.72367000260579
 30
0.0
 10
89.28681205626627
 20
-60.63625780407084
 30
0.0
 10
89.56603207168796
 20
-59.54884560553655
 30
0.0
 10
88.92508955853843
 20
-58.444624358025
 30
0.0
 10
87.85522688487137
 20
-58.16991061778575
 30
0.0
 10
87.85522688487137
 20
-58.16991061778575
 30
0.0
 10
87.85522688487137
 20
-58.16991061778575
 30
0.0
 10
87.85522688487137
 20
-58.16991061778575
 30
0.0
  0
ENDBLK
  5
106
330
103
100
AcDbEntity
  8
0
100
AcDbBlockEnd
  0
BLOCK
  5
10A
330
108
100
AcDbEntity
  8
0
100
AcDbBlockBegin
  2
block 34
 70
     0
 10
0.0
 20
0.0
 30
0.0
  3
block 34
  1

  0
SPLINE
  5
10C
330
108
100
AcDbEntity
  8
Layer 1
 62
     7
420
 16777215
370
    25
100
AcDbSpline
210
0.0
220
0.0
230
1.0
 70
    11
 71
     3
 72
    20
 73
    16
 74
     0
 42
0.0000000001
 43
0.0000000001
 12
1.0
 22
0.0
 32
0.0
 13
1.0
 23
0.0
 33
0.0
 40
0.0
 40
0.0
 40
0.0
 40
0.0
 40
1.0
 40
1.0
 40
1.0
 40
2.0
 40
2.0
 40
2.0
 40
3.0
 40
3.0
 40
3.0
 40
4.0
 40
4.0
 40
4.0
 40
5.0
 40
5.0
 40
5.0
 40
5.0
 10
71.9649113104275
 20
-41.92356535254566
 30
0.0
 10
70.89504863675981
 20
-41.64885161230705
 30
0.0
 10
69.80140103227781
 20
-42.30767388411413
 30
0.0
 10
69.52218101685581
 20
-43.39508608264875
 30
0.0
 10
69.2429610014338
 20
-44.48249828118304
 30
0.0
 10
69.88390351458365
 20
-45.58671952869491
 30
0.0
 10
70.95376618825102
 20
-45.86143326893384
 30
0.0
 10
72.0236288619184
 20
-46.13614700917246
 30
0.0
 10
73.11727646640071
 20
-45.47732473736537
 30
0.0
 10
73.3964964818224
 20
-44.38991253883076
 30
0.0
 10
73.67571649724441
 20
-43.30250034029646
 30
0.0
 10
73.03477398409456
 20
-42.1982790927846
 30
0.0
 10
71.9649113104275
 20
-41.92356535254566
 30
0.0
 10
71.9649113104275
 20
-41.92356535254566
 30
0.0
 10
71.9649113104275
 20
-41.92356535254566
 30
0.0
 10
71.9649113104275
 20
-41.92356535254566
 30
0.0
  0
ENDBLK
  5
10B
330
108
100
AcDbEntity
  8
0
100
AcDbBlockEnd
  0
BLOCK
  5
10F
330
10D
100
AcDbEntity
  8
0
100
AcDbBlockBegin
  2
block 35
 70
     0
 10
0.0
 20
0.0
 30
0.0
  3
block 35
  1

  0
SPLINE
  5
111
330
10D
100
AcDbEntity
  8
Layer 1
 62
     7
420
 16777215
370
    25
100
AcDbSpline
210
0.0
220
0.0
230
1.0
 70
    11
 71
     3
 72
    20
 73
    16
 74
     0
 42
0.0000000001
 43
0.0000000001
 12
1.0
 22
0.0
 32
0.0
 13
1.0
 23
0.0
 33
0.0
 40
0.0
 40
0.0
 40
0.0
 40
0.0
 40
1.0
 40
1.0
 40
1.0
 40
2.0
 40
2.0
 40
2.0
 40
3.0
 40
3.0
 40
3.0
 40
4.0
 40
4.0
 40
4.0
 40
5.0
 40
5.0
 40
5.0
 40
5.0
 10
87.98077823486823
 20
-41.92356535254566
 30
0.0
 10
86.91091556120118
 20
-41.64885161230705
 30
0.0
 10
85.81726795671887
 20
-42.30767388411413
 30
0.0
 10
85.53804794129718
 20
-43.39508608264875
 30
0.0
 10
85.25882792587485
 20
-44.48249828118304
 30
0.0
 10
85.89977043902502
 20
-45.58671952869491
 30
0.0
 10
86.96963311269208
 20
-45.86143326893352
 30
0.0
 10
88.03949578635913
 20
-46.13614700917246
 30
0.0
 10
89.13314339084144
 20
-45.47732473736537
 30
0.0
 10
89.41236340626376
 20
-44.38991253883076
 30
0.0
 10
89.69158342168545
 20
-43.30250034029614
 30
0.0
 10
89.05064090853593
 20
-42.1982790927846
 30
0.0
 10
87.98077823486823
 20
-41.92356535254566
 30
0.0
 10
87.98077823486823
 20
-41.92356535254566
 30
0.0
 10
87.98077823486823
 20
-41.92356535254566
 30
0.0
 10
87.98077823486823
 20
-41.92356535254566
 30
0.0
  0
ENDBLK
  5
110
330
10D
100
AcDbEntity
  8
0
100
AcDbBlockEnd
  0
BLOCK
  5
114
330
112
100
AcDbEntity
  8
0
100
AcDbBlockBegin
  2
block 36
 70
     0
 10
0.0
 20
0.0
 30
0.0
  3
block 36
  1

  0
SPLINE
  5
116
330
112
100
AcDbEntity
  8
Layer 1
 62
     7
420
 16777215
370
    25
100
AcDbSpline
210
0.0
220
0.0
230
1.0
 70
    11
 71
     3
 72
    20
 73
    16
 74
     0
 42
0.0000000001
 43
0.0000000001
 12
1.0
 22
0.0
 32
0.0
 13
1.0
 23
0.0
 33
0.0
 40
0.0
 40
0.0
 40
0.0
 40
0.0
 40
1.0
 40
1.0
 40
1.0
 40
2.0
 40
2.0
 40
2.0
 40
3.0
 40
3.0
 40
3.0
 40
4.0
 40
4.0
 40
4.0
 40
5.0
 40
5.0
 40
5.0
 40
5.0
 10
41.7889357117139
 20
-60.18909275089403
 30
0.0
 10
40.18414170121301
 20
-59.77702214053578
 30
0.0
 10
38.54367029448954
 20
-60.76525554824656
 30
0.0
 10
38.12484027135669
 20
-62.39637384604833
 30
0.0
 10
37.70601024822384
 20
-64.0274921438501
 30
0.0
 10
38.66742401794846
 20
-65.68382401511741
 30
0.0
 10
40.27221802844936
 20
-66.09589462547565
 30
0.0
 10
41.87701203895058
 20
-66.5079652358339
 30
0.0
 10
43.51748344567405
 20
-65.51973182812375
 30
0.0
 10
43.93631346880657
 20
-63.88861353032134
 30
0.0
 10
44.35514349193975
 20
-62.25749523251958
 30
0.0
 10
43.39372972221513
 20
-60.60116336125227
 30
0.0
 10
41.7889357117139
 20
-60.18909275089403
 30
0.0
 10
41.7889357117139
 20
-60.18909275089403
 30
0.0
 10
41.7889357117139
 20
-60.18909275089403
 30
0.0
 10
41.7889357117139
 20
-60.18909275089403
 30
0.0
  0
ENDBLK
  5
115
330
112
100
AcDbEntity
  8
0
100
AcDbBlockEnd
  0
BLOCK
  5
119
330
117
100
AcDbEntity
  8
0
100
AcDbBlockBegin
  2
block 37
 70
     0
 10
0.0
 20
0.0
 30
0.0
  3
block 37
  1

  0
SPLINE
  5
11B
330
117
100
AcDbEntity
  8
Layer 1
 62
     7
420
 16777215
370
    25
100
AcDbSpline
210
0.0
220
0.0
230
1.0
 70
    11
 71
     3
 72
    20
 73
    16
 74
     0
 42
0.0000000001
 43
0.0000000001
 12
1.0
 22
0.0
 32
0.0
 13
1.0
 23
0.0
 33
0.0
 40
0.0
 40
0.0
 40
0.0
 40
0.0
 40
1.0
 40
1.0
 40
1.0
 40
2.0
 40
2.0
 40
2.0
 40
3.0
 40
3.0
 40
3.0
 40
4.0
 40
4.0
 40
4.0
 40
5.0
 40
5.0
 40
5.0
 40
5.0
 10
24.54195176901899
 20
-81.88752116043038
 30
0.0
 10
24.54195176901899
 20
-81.33523641059942
 30
0.0
 10
24.98966701918807
 20
-80.88752116043034
 30
0.0
 10
25.54195176901903
 20
-80.88752116043034
 30
0.0
 10
26.09423651884966
 20
-80.88752116043034
 30
0.0
 10
26.54195176901906
 20
-81.33523641059942
 30
0.0
 10
26.54195176901906
 20
-81.88752116043038
 30
0.0
 10
26.54195176901906
 20
-82.43980591026069
 30
0.0
 10
26.09423651884966
 20
-82.88752116043041
 30
0.0
 10
25.54195176901903
 20
-82.88752116043041
 30
0.0
 10
24.98966701918807
 20
-82.88752116043041
 30
0.0
 10
24.54195176901899
 20
-82.43980591026069
 30
0.0
 10
24.54195176901899
 20
-81.88752116043038
 30
0.0
 10
24.54195176901899
 20
-81.88752116043038
 30
0.0
 10
24.54195176901899
 20
-81.88752116043038
 30
0.0
 10
24.54195176901899
 20
-81.88752116043038
 30
0.0
  0
ENDBLK
  5
11A
330
117
100
AcDbEntity
  8
0
100
AcDbBlockEnd
  0
BLOCK
  5
11E
330
11C
100
AcDbEntity
  8
0
100
AcDbBlockBegin
  2
block 38
 70
     0
 10
0.0
 20
0.0
 30
0.0
  3
block 38
  1

  0
SPLINE
  5
120
330
11C
100
AcDbEntity
  8
Layer 1
 62
     7
420
 16777215
370
    25
100
AcDbSpline
210
0.0
220
0.0
230
1.0
 70
    11
 71
     3
 72
    20
 73
    16
 74
     0
 42
0.0000000001
 43
0.0000000001
 12
1.0
 22
0.0
 32
0.0
 13
1.0
 23
0.0
 33
0.0
 40
0.0
 40
0.0
 40
0.0
 40
0.0
 40
1.0
 40
1.0
 40
1.0
 40
2.0
 40
2.0
 40
2.0
 40
3.0
 40
3.0
 40
3.0
 40
4.0
 40
4.0
 40
4.0
 40
5.0
 40
5.0
 40
5.0
 40
5.0
 10
113.3907360771353
 20
-82.88752116043041
 30
0.0
 10
113.3907360771353
 20
-82.33523641059946
 30
0.0
 10
113.8384513273044
 20
-81.88752116043038
 30
0.0
 10
114.3907360771353
 20
-81.88752116043038
 30
0.0
 10
114.9430208269656
 20
-81.88752116043038
 30
0.0
 10
115.3907360771354
 20
-82.33523641059946
 30
0.0
 10
115.3907360771354
 20
-82.88752116043041
 30
0.0
 10
115.3907360771354
 20
-83.43980591026073
 30
0.0
 10
114.9430208269656
 20
-83.88752116042981
 30
0.0
 10
114.3907360771353
 20
-83.88752116042981
 30
0.0
 10
113.8384513273044
 20
-83.88752116042981
 30
0.0
 10
113.3907360771353
 20
-83.43980591026073
 30
0.0
 10
113.3907360771353
 20
-82.88752116043041
 30
0.0
 10
113.3907360771353
 20
-82.88752116043041
 30
0.0
 10
113.3907360771353
 20
-82.88752116043041
 30
0.0
 10
113.3907360771353
 20
-82.88752116043041
 30
0.0
  0
ENDBLK
  5
11F
330
11C
100
AcDbEntity
  8
0
100
AcDbBlockEnd
  0
BLOCK
  5
123
330
121
100
AcDbEntity
  8
0
100
AcDbBlockBegin
  2
block 39
 70
     0
 10
0.0
 20
0.0
 30
0.0
  3
block 39
  1

  0
SPLINE
  5
125
330
121
100
AcDbEntity
  8
Layer 1
 62
     7
420
 16777215
370
    25
100
AcDbSpline
210
0.0
220
0.0
230
1.0
 70
    11
 71
     3
 72
    20
 73
    16
 74
     0
 42
0.0000000001
 43
0.0000000001
 12
1.0
 22
0.0
 32
0.0
 13
1.0
 23
0.0
 33
0.0
 40
0.0
 40
0.0
 40
0.0
 40
0.0
 40
1.0
 40
1.0
 40
1.0
 40
2.0
 40
2.0
 40
2.0
 40
3.0
 40
3.0
 40
3.0
 40
4.0
 40
4.0
 40
4.0
 40
5.0
 40
5.0
 40
5.0
 40
5.0
 10
131.4056415376552
 20
-74.46206490858079
 30
0.0
 10
131.4056415376552
 20
-73.90978015875046
 30
0.0
 10
131.8533567878249
 20
-73.46206490858074
 30
0.0
 10
132.4056415376552
 20
-73.46206490858074
 30
0.0
 10
132.9579262874861
 20
-73.46206490858074
 30
0.0
 10
133.4056415376552
 20
-73.90978015875046
 30
0.0
 10
133.4056415376552
 20
-74.46206490858079
 30
0.0
 10
133.4056415376552
 20
-75.01434965841173
 30
0.0
 10
132.9579262874861
 20
-75.46206490858081
 30
0.0
 10
132.4056415376552
 20
-75.46206490858081
 30
0.0
 10
131.8533567878249
 20
-75.46206490858081
 30
0.0
 10
131.4056415376552
 20
-75.01434965841173
 30
0.0
 10
131.4056415376552
 20
-74.46206490858079
 30
0.0
 10
131.4056415376552
 20
-74.46206490858079
 30
0.0
 10
131.4056415376552
 20
-74.46206490858079
 30
0.0
 10
131.4056415376552
 20
-74.46206490858079
 30
0.0
  0
ENDBLK
  5
124
330
121
100
AcDbEntity
  8
0
100
AcDbBlockEnd
  0
BLOCK
  5
128
330
126
100
AcDbEntity
  8
0
100
AcDbBlockBegin
  2
block 40
 70
     0
 10
0.0
 20
0.0
 30
0.0
  3
block 40
  1

  0
SPLINE
  5
12A
330
126
100
AcDbEntity
  8
Layer 1
 62
     7
420
 16777215
370
    25
100
AcDbSpline
210
0.0
220
0.0
230
1.0
 70
    11
 71
     3
 72
    20
 73
    16
 74
     0
 42
0.0000000001
 43
0.0000000001
 12
1.0
 22
0.0
 32
0.0
 13
1.0
 23
0.0
 33
0.0
 40
0.0
 40
0.0
 40
0.0
 40
0.0
 40
1.0
 40
1.0
 40
1.0
 40
2.0
 40
2.0
 40
2.0
 40
3.0
 40
3.0
 40
3.0
 40
4.0
 40
4.0
 40
4.0
 40
5.0
 40
5.0
 40
5.0
 40
5.0
 10
95.42727433292323
 20
-60.54336468538824
 30
0.0
 10
95.42727433292323
 20
-59.99107993555729
 30
0.0
 10
95.87498958309232
 20
-59.54336468538821
 30
0.0
 10
96.42727433292328
 20
-59.54336468538821
 30
0.0
 10
96.97955908275424
 20
-59.54336468538821
 30
0.0
 10
97.4272743329233
 20
-59.99107993555729
 30
0.0
 10
97.4272743329233
 20
-60.54336468538824
 30
0.0
 10
97.4272743329233
 20
-61.09564943521919
 30
0.0
 10
96.97955908275424
 20
-61.54336468538828
 30
0.0
 10
96.42727433292328
 20
-61.54336468538828
 30
0.0
 10
95.87498958309232
 20
-61.54336468538828
 30
0.0
 10
95.42727433292323
 20
-61.09564943521919
 30
0.0
 10
95.42727433292323
 20
-60.54336468538824
 30
0.0
 10
95.42727433292323
 20
-60.54336468538824
 30
0.0
 10
95.42727433292323
 20
-60.54336468538824
 30
0.0
 10
95.42727433292323
 20
-60.54336468538824
 30
0.0
  0
ENDBLK
  5
129
330
126
100
AcDbEntity
  8
0
100
AcDbBlockEnd
  0
BLOCK
  5
12D
330
12B
100
AcDbEntity
  8
0
100
AcDbBlockBegin
  2
block 41
 70
     0
 10
0.0
 20
0.0
 30
0.0
  3
block 41
  1

  0
SPLINE
  5
12F
330
12B
100
AcDbEntity
  8
Layer 1
 62
     7
420
 16777215
370
    25
100
AcDbSpline
210
0.0
220
0.0
230
1.0
 70
    11
 71
     3
 72
    56
 73
    52
 74
     0
 42
0.0000000001
 43
0.0000000001
 12
1.0
 22
0.0
 32
0.0
 13
1.0
 23
0.0
 33
0.0
 40
0.0
 40
0.0
 40
0.0
 40
0.0
 40
1.0
 40
1.0
 40
1.0
 40
2.0
 40
2.0
 40
2.0
 40
3.0
 40
3.0
 40
3.0
 40
4.0
 40
4.0
 40
4.0
 40
5.0
 40
5.0
 40
5.0
 40
6.0
 40
6.0
 40
6.0
 40
7.0
 40
7.0
 40
7.0
 40
8.0
 40
8.0
 40
8.0
 40
9.0
 40
9.0
 40
9.0
 40
10.0
 40
10.0
 40
10.0
 40
11.0
 40
11.0
 40
11.0
 40
12.0
 40
12.0
 40
12.0
 40
13.0
 40
13.0
 40
13.0
 40
14.0
 40
14.0
 40
14.0
 40
15.0
 40
15.0
 40
15.0
 40
16.0
 40
16.0
 40
16.0
 40
17.0
 40
17.0
 40
17.0
 40
17.0
 10
149.3366358464535
 20
-22.91492489871175
 30
0.0
 10
149.3366358464535
 20
-22.91492489871175
 30
0.0
 10
121.7181070568656
 20
-27.84807857968104
 30
0.0
 10
121.7181070568656
 20
-27.84807857968104
 30
0.0
 10
121.7181070568656
 20
-27.84807857968104
 30
0.0
 10
122.3335282580437
 20
-31.29354759639556
 30
0.0
 10
122.3335282580437
 20
-31.29354759639556
 30
0.0
 10
122.3335282580437
 20
-31.29354759639556
 30
0.0
 10
102.6443400596614
 20
-34.80579304463407
 30
0.0
 10
102.6443400596614
 20
-34.80579304463407
 30
0.0
 10
102.6443400596614
 20
-34.80579304463407
 30
0.0
 10
95.94009298712578
 20
-71.57870834234961
 30
0.0
 10
95.94009298712578
 20
-71.57870834234961
 30
0.0
 10
95.94009298712578
 20
-71.57870834234961
 30
0.0
 10
115.6284873683521
 20
-68.06201576418668
 30
0.0
 10
115.6284873683521
 20
-68.06201576418668
 30
0.0
 10
115.6284873683521
 20
-68.06201576418668
 30
0.0
 10
116.2439085695302
 20
-71.5074847809015
 30
0.0
 10
116.2439085695302
 20
-71.5074847809015
 30
0.0
 10
116.2439085695302
 20
-71.5074847809015
 30
0.0
 10
142.5188375250042
 20
-66.82048258226997
 30
0.0
 10
142.5188375250042
 20
-66.82048258226997
 30
0.0
 10
142.5188375250042
 20
-66.82048258226997
 30
0.0
 10
140.9252808770893
 20
-77.08273881636057
 30
0.0
 10
140.9252808770893
 20
-77.08273881636057
 30
0.0
 10
133.9643297180488
 20
-78.65157236225065
 30
0.0
 10
127.7989744067167
 20
-82.66972271387895
 30
0.0
 10
123.5531979444232
 20
-88.40465563746722
 30
0.0
 10
123.5531982082379
 20
-88.40465528112212
 30
0.0
 10
122.7263591985359
 20
-92.95986008917444
 30
0.0
 10
122.7263591985359
 20
-92.95986008917444
 30
0.0
 10
122.7263591985359
 20
-92.95986008917444
 30
0.0
 10
85.36119610670292
 20
-92.67247434910567
 30
0.0
 10
85.36119610670292
 20
-92.67247434910567
 30
0.0
 10
85.36119610670292
 20
-92.67247434910567
 30
0.0
 10
15.4736644715311
 20
-90.52695788802043
 30
0.0
 10
15.4736644715311
 20
-90.52695788802043
 30
0.0
 10
15.47366447153078
 20
-90.52695788802043
 30
0.0
 10
15.44456264392455
 20
-90.52673405786531
 30
0.0
 10
15.44456264392455
 20
-90.52673405786531
 30
0.0
 10
15.44456264392455
 20
-90.52673405786531
 30
0.0
 10
15.80489604745421
 20
-43.6771012713651
 30
0.0
 10
15.80489604745421
 20
-43.6771012713651
 30
0.0
 10
60.60991316899878
 20
-37.88884613839285
 30
0.0
 10
104.7718334502763
 20
-27.90281334600517
 30
0.0
 10
147.708202955378
 20
-13.85070921645818
 30
0.0
 10
147.7082029553773
 20
-13.85070921645785
 30
0.0
 10
150.6726748552819
 20
-14.31104209023256
 30
0.0
 10
150.6726748552819
 20
-14.31104209023256
 30
0.0
 10
150.6726748552819
 20
-14.31104209023256
 30
0.0
 10
149.3366358464535
 20
-22.91492489871175
 30
0.0
 10
149.3366358464535
 20
-22.91492489871175
 30
0.0
  0
ENDBLK
  5
12E
330
12B
100
AcDbEntity
  8
0
100
AcDbBlockEnd
  0
BLOCK
  5
132
330
130
100
AcDbEntity
  8
0
100
AcDbBlockBegin
  2
block 42
 70
     0
 10
0.0
 20
0.0
 30
0.0
  3
block 42
  1

  0
INSERT
  5
135
330
130
100
AcDbEntity
  8
Layer 1
100
AcDbBlockReference
  2
block 43
 10
0.0
 20
0.0
 30
0.0
  0
INSERT
  5
13A
330
130
100
AcDbEntity
  8
Layer 1
100
AcDbBlockReference
  2
block 44
 10
0.0
 20
0.0
 30
0.0
  0
INSERT
  5
13F
330
130
100
AcDbEntity
  8
Layer 1
100
AcDbBlockReference
  2
block 45
 10
0.0
 20
0.0
 30
0.0
  0
ENDBLK
  5
133
330
130
100
AcDbEntity
  8
0
100
AcDbBlockEnd
  0
BLOCK
  5
136
330
134
100
AcDbEntity
  8
0
100
AcDbBlockBegin
  2
block 43
 70
     0
 10
0.0
 20
0.0
 30
0.0
  3
block 43
  1

  0
SPLINE
  5
138
330
134
100
AcDbEntity
  8
Layer 1
 62
     7
420
 16777215
370
    25
100
AcDbSpline
210
0.0
220
0.0
230
1.0
 70
    11
 71
     3
 72
    20
 73
    16
 74
     0
 42
0.0000000001
 43
0.0000000001
 12
1.0
 22
0.0
 32
0.0
 13
1.0
 23
0.0
 33
0.0
 40
0.0
 40
0.0
 40
0.0
 40
0.0
 40
1.0
 40
1.0
 40
1.0
 40
2.0
 40
2.0
 40
2.0
 40
3.0
 40
3.0
 40
3.0
 40
4.0
 40
4.0
 40
4.0
 40
5.0
 40
5.0
 40
5.0
 40
5.0
 10
25.15295974798742
 20
-96.92124695679408
 30
0.0
 10
25.15295974798742
 20
-96.36896220696345
 30
0.0
 10
25.60067499815651
 20
-95.92124695679436
 30
0.0
 10
26.15295974798714
 20
-95.92124695679436
 30
0.0
 10
26.7052444978181
 20
-95.92124695679436
 30
0.0
 10
27.15295974798718
 20
-96.36896220696345
 30
0.0
 10
27.15295974798718
 20
-96.92124695679408
 30
0.0
 10
27.15295974798718
 20
-97.47353170662504
 30
0.0
 10
26.7052444978181
 20
-97.92124695679412
 30
0.0
 10
26.15295974798714
 20
-97.92124695679412
 30
0.0
 10
25.60067499815651
 20
-97.92124695679412
 30
0.0
 10
25.15295974798742
 20
-97.47353170662504
 30
0.0
 10
25.15295974798742
 20
-96.92124695679408
 30
0.0
 10
25.15295974798742
 20
-96.92124695679408
 30
0.0
 10
25.15295974798742
 20
-96.92124695679408
 30
0.0
 10
25.15295974798742
 20
-96.92124695679408
 30
0.0
  0
ENDBLK
  5
137
330
134
100
AcDbEntity
  8
0
100
AcDbBlockEnd
  0
BLOCK
  5
13B
330
139
100
AcDbEntity
  8
0
100
AcDbBlockBegin
  2
block 44
 70
     0
 10
0.0
 20
0.0
 30
0.0
  3
block 44
  1

  0
SPLINE
  5
13D
330
139
100
AcDbEntity
  8
Layer 1
 62
     7
420
 16777215
370
    25
100
AcDbSpline
210
0.0
220
0.0
230
1.0
 70
    11
 71
     3
 72
    20
 73
    16
 74
     0
 42
0.0000000001
 43
0.0000000001
 12
1.0
 22
0.0
 32
0.0
 13
1.0
 23
0.0
 33
0.0
 40
0.0
 40
0.0
 40
0.0
 40
0.0
 40
1.0
 40
1.0
 40
1.0
 40
2.0
 40
2.0
 40
2.0
 40
3.0
 40
3.0
 40
3.0
 40
4.0
 40
4.0
 40
4.0
 40
5.0
 40
5.0
 40
5.0
 40
5.0
 10
80.8472429194556
 20
-95.81489649696404
 30
0.0
 10
80.8472429194556
 20
-95.2626117471334
 30
0.0
 10
81.29495816962468
 20
-94.814896496964
 30
0.0
 10
81.84724291945564
 20
-94.814896496964
 30
0.0
 10
82.3995276692866
 20
-94.814896496964
 30
0.0
 10
82.84724291945567
 20
-95.2626117471334
 30
0.0
 10
82.84724291945567
 20
-95.81489649696404
 30
0.0
 10
82.84724291945567
 20
-96.36718124679498
 30
0.0
 10
82.3995276692866
 20
-96.81489649696407
 30
0.0
 10
81.84724291945564
 20
-96.81489649696407
 30
0.0
 10
81.29495816962468
 20
-96.81489649696407
 30
0.0
 10
80.8472429194556
 20
-96.36718124679498
 30
0.0
 10
80.8472429194556
 20
-95.81489649696404
 30
0.0
 10
80.8472429194556
 20
-95.81489649696404
 30
0.0
 10
80.8472429194556
 20
-95.81489649696404
 30
0.0
 10
80.8472429194556
 20
-95.81489649696404
 30
0.0
  0
ENDBLK
  5
13C
330
139
100
AcDbEntity
  8
0
100
AcDbBlockEnd
  0
BLOCK
  5
140
330
13E
100
AcDbEntity
  8
0
100
AcDbBlockBegin
  2
block 45
 70
     0
 10
0.0
 20
0.0
 30
0.0
  3
block 45
  1

  0
POLYLINE
  5
142
330
13E
100
AcDbEntity
  8
Layer 1
 62
     7
420
 16777215
370
    25
100
AcDb2dPolyline
 66
     1
 10
0.0
 20
0.0
 30
0.0
  0
VERTEX
  5
143
330
142
100
AcDbEntity
  8
Layer 1
 62
     7
420
 16777215
370
    25
100
AcDbVertex
100
AcDb2dVertex
 10
123.1861879561171
 20
-95.14829910508399
 30
0.0
  0
VERTEX
  5
144
330
142
100
AcDbEntity
  8
Layer 1
 62
     7
420
 16777215
370
    25
100
AcDbVertex
100
AcDb2dVertex
 10
123.1118248105153
 20
-95.58377712190621
 30
0.0
  0
VERTEX
  5
145
330
142
100
AcDbEntity
  8
Layer 1
 62
     7
420
 16777215
370
    25
100
AcDbVertex
100
AcDb2dVertex
 10
21.94221820794884
 20
-102.2436633945144
 30
0.0
  0
VERTEX
  5
146
330
142
100
AcDbEntity
  8
Layer 1
 62
     7
420
 16777215
370
    25
100
AcDbVertex
100
AcDb2dVertex
 10
15.94678139992808
 20
-102.0097029683094
 30
0.0
  0
VERTEX
  5
147
330
142
100
AcDbEntity
  8
Layer 1
 62
     7
420
 16777215
370
    25
100
AcDbVertex
100
AcDb2dVertex
 10
16.37718338706641
 20
-90.98028248983779
 30
0.0
  0
VERTEX
  5
148
330
142
100
AcDbEntity
  8
Layer 1
 62
     7
420
 16777215
370
    25
100
AcDbVertex
100
AcDb2dVertex
 10
123.1861879561171
 20
-95.14829910508399
 30
0.0
  0
SEQEND
  5
149
330
142
100
AcDbEntity
  8
Layer 1
 62
     7
420
 16777215
370
    25
  0
ENDBLK
  5
141
330
13E
100
AcDbEntity
  8
0
100
AcDbBlockEnd
  0
BLOCK
  5
14C
330
14A
100
AcDbEntity
  8
0
100
AcDbBlockBegin
  2
block 46
 70
     0
 10
0.0
 20
0.0
 30
0.0
  3
block 46
  1

  0
INSERT
  5
14F
330
14A
100
AcDbEntity
  8
Layer 1
100
AcDbBlockReference
  2
block 47
 10
0.0
 20
0.0
 30
0.0
  0
INSERT
  5
15D
330
14A
100
AcDbEntity
  8
Layer 1
100
AcDbBlockReference
  2
block 48
 10
0.0
 20
0.0
 30
0.0
  0
INSERT
  5
162
330
14A
100
AcDbEntity
  8
Layer 1
100
AcDbBlockReference
  2
block 49
 10
0.0
 20
0.0
 30
0.0
  0
ENDBLK
  5
14D
330
14A
100
AcDbEntity
  8
0
100
AcDbBlockEnd
  0
BLOCK
  5
150
330
14E
100
AcDbEntity
  8
0
100
AcDbBlockBegin
  2
block 47
 70
     0
 10
0.0
 20
0.0
 30
0.0
  3
block 47
  1

  0
POLYLINE
  5
152
330
14E
100
AcDbEntity
  8
Layer 1
 62
     7
420
 16777215
370
    25
100
AcDb2dPolyline
 66
     1
 10
0.0
 20
0.0
 30
0.0
  0
VERTEX
  5
153
330
152
100
AcDbEntity
  8
Layer 1
 62
     7
420
 16777215
370
    25
100
AcDbVertex
100
AcDb2dVertex
 10
74.40420587095298
 20
-102.5551312856829
 30
0.0
  0
VERTEX
  5
154
330
152
100
AcDbEntity
  8
Layer 1
 62
     7
420
 16777215
370
    25
100
AcDbVertex
100
AcDb2dVertex
 10
74.40270063437349
 20
-103.1315387820105
 30
0.0
  0
VERTEX
  5
155
330
152
100
AcDbEntity
  8
Layer 1
 62
     7
420
 16777215
370
    25
100
AcDbVertex
100
AcDb2dVertex
 10
26.65295974811229
 20
-102.5393156549061
 30
0.0
  0
VERTEX
  5
156
330
152
100
AcDbEntity
  8
Layer 1
 62
     7
420
 16777215
370
    25
100
AcDbVertex
100
AcDb2dVertex
 10
123.3567865708897
 20
-96.11197294230122
 30
0.0
  0
VERTEX
  5
157
330
152
100
AcDbEntity
  8
Layer 1
 62
     7
420
 16777215
370
    25
100
AcDbVertex
100
AcDb2dVertex
 10
122.0220507847659
 20
-103.7221447189917
 30
0.0
  0
VERTEX
  5
158
330
152
100
AcDbEntity
  8
Layer 1
 62
     7
420
 16777215
370
    25
100
AcDbVertex
100
AcDb2dVertex
 10
85.4472017967834
 20
-103.2685198188563
 30
0.0
  0
VERTEX
  5
159
330
152
100
AcDbEntity
  8
Layer 1
 62
     7
420
 16777215
370
    25
100
AcDbVertex
100
AcDb2dVertex
 10
85.44953473690425
 20
-102.375155817251
 30
0.0
  0
VERTEX
  5
15A
330
152
100
AcDbEntity
  8
Layer 1
 62
     7
420
 16777215
370
    25
100
AcDbVertex
100
AcDb2dVertex
 10
74.40420587095298
 20
-102.5551312856829
 30
0.0
  0
SEQEND
  5
15B
330
152
100
AcDbEntity
  8
Layer 1
 62
     7
420
 16777215
370
    25
  0
ENDBLK
  5
151
330
14E
100
AcDbEntity
  8
0
100
AcDbBlockEnd
  0
BLOCK
  5
15E
330
15C
100
AcDbEntity
  8
0
100
AcDbBlockBegin
  2
block 48
 70
     0
 10
0.0
 20
0.0
 30
0.0
  3
block 48
  1

  0
SPLINE
  5
160
330
15C
100
AcDbEntity
  8
Layer 1
 62
     7
420
 16777215
370
    25
100
AcDbSpline
210
0.0
220
0.0
230
1.0
 70
    11
 71
     3
 72
    20
 73
    16
 74
     0
 42
0.0000000001
 43
0.0000000001
 12
1.0
 22
0.0
 32
0.0
 13
1.0
 23
0.0
 33
0.0
 40
0.0
 40
0.0
 40
0.0
 40
0.0
 40
1.0
 40
1.0
 40
1.0
 40
2.0
 40
2.0
 40
2.0
 40
3.0
 40
3.0
 40
3.0
 40
4.0
 40
4.0
 40
4.0
 40
5.0
 40
5.0
 40
5.0
 40
5.0
 10
111.4516287007144
 20
-100.3705727077756
 30
0.0
 10
111.4426308234035
 20
-99.818361259959
 30
0.0
 10
111.8829924297827
 20
-99.36341121204676
 30
0.0
 10
112.4352038775992
 20
-99.35441333473588
 30
0.0
 10
112.9874153254151
 20
-99.345415457425
 30
0.0
 10
113.442365373328
 20
-99.78577706380418
 30
0.0
 10
113.4513632506389
 20
-100.3379885116207
 30
0.0
 10
113.4603611279497
 20
-100.8901999594376
 30
0.0
 10
113.0199995215699
 20
-101.3451500073495
 30
0.0
 10
112.467788073754
 20
-101.3541478846604
 30
0.0
 10
111.9155766259375
 20
-101.3631457619713
 30
0.0
 10
111.4606265780252
 20
-100.9227841555921
 30
0.0
 10
111.4516287007144
 20
-100.3705727077756
 30
0.0
 10
111.4516287007144
 20
-100.3705727077756
 30
0.0
 10
111.4516287007144
 20
-100.3705727077756
 30
0.0
 10
111.4516287007144
 20
-100.3705727077756
 30
0.0
  0
ENDBLK
  5
15F
330
15C
100
AcDbEntity
  8
0
100
AcDbBlockEnd
  0
BLOCK
  5
163
330
161
100
AcDbEntity
  8
0
100
AcDbBlockBegin
  2
block 49
 70
     0
 10
0.0
 20
0.0
 30
0.0
  3
block 49
  1

  0
SPLINE
  5
165
330
161
100
AcDbEntity
  8
Layer 1
 62
     7
420
 16777215
370
    25
100
AcDbSpline
210
0.0
220
0.0
230
1.0
 70
    11
 71
     3
 72
    20
 73
    16
 74
     0
 42
0.0000000001
 43
0.0000000001
 12
1.0
 22
0.0
 32
0.0
 13
1.0
 23
0.0
 33
0.0
 40
0.0
 40
0.0
 40
0.0
 40
0.0
 40
1.0
 40
1.0
 40
1.0
 40
2.0
 40
2.0
 40
2.0
 40
3.0
 40
3.0
 40
3.0
 40
4.0
 40
4.0
 40
4.0
 40
5.0
 40
5.0
 40
5.0
 40
5.0
 10
90.67786144107407
 20
-100.8703509918844
 30
0.0
 10
90.66886356376318
 20
-100.3181395440675
 30
0.0
 10
91.10922517014235
 20
-99.86318949615556
 30
0.0
 10
91.6614366179589
 20
-99.85419161884468
 30
0.0
 10
92.21364806577544
 20
-99.8451937415338
 30
0.0
 10
92.66859811368737
 20
-100.285555347913
 30
0.0
 10
92.67759599099824
 20
-100.8377667957295
 30
0.0
 10
92.68659386830944
 20
-101.3899782435461
 30
0.0
 10
92.24623226193027
 20
-101.8449282914583
 30
0.0
 10
91.69402081411373
 20
-101.8539261687692
 30
0.0
 10
91.14180936629687
 20
-101.8629240460801
 30
0.0
 10
90.68685931838495
 20
-101.4225624397009
 30
0.0
 10
90.67786144107407
 20
-100.8703509918844
 30
0.0
 10
90.67786144107407
 20
-100.8703509918844
 30
0.0
 10
90.67786144107407
 20
-100.8703509918844
 30
0.0
 10
90.67786144107407
 20
-100.8703509918844
 30
0.0
  0
ENDBLK
  5
164
330
161
100
AcDbEntity
  8
0
100
AcDbBlockEnd
  0
BLOCK
  5
168
330
166
100
AcDbEntity
  8
0
100
AcDbBlockBegin
  2
block 50
 70
     0
 10
0.0
 20
0.0
 30
0.0
  3
block 50
  1

  0
INSERT
  5
16B
330
166
100
AcDbEntity
  8
Layer 1
100
AcDbBlockReference
  2
block 51
 10
0.0
 20
0.0
 30
0.0
  0
INSERT
  5
176
330
166
100
AcDbEntity
  8
Layer 1
100
AcDbBlockReference
  2
block 52
 10
0.0
 20
0.0
 30
0.0
  0
INSERT
  5
17B
330
166
100
AcDbEntity
  8
Layer 1
100
AcDbBlockReference
  2
block 53
 10
0.0
 20
0.0
 30
0.0
  0
ENDBLK
  5
169
330
166
100
AcDbEntity
  8
0
100
AcDbBlockEnd
  0
BLOCK
  5
16C
330
16A
100
AcDbEntity
  8
0
100
AcDbBlockBegin
  2
block 51
 70
     0
 10
0.0
 20
0.0
 30
0.0
  3
block 51
  1

  0
POLYLINE
  5
16E
330
16A
100
AcDbEntity
  8
Layer 1
 62
     7
420
 16777215
370
    25
100
AcDb2dPolyline
 66
     1
 10
0.0
 20
0.0
 30
0.0
  0
VERTEX
  5
16F
330
16E
100
AcDbEntity
  8
Layer 1
 62
     7
420
 16777215
370
    25
100
AcDbVertex
100
AcDb2dVertex
 10
74.08611554856688
 20
-104.6564579234157
 30
0.0
  0
VERTEX
  5
170
330
16E
100
AcDbEntity
  8
Layer 1
 62
     7
420
 16777215
370
    25
100
AcDbVertex
100
AcDb2dVertex
 10
73.86391153531189
 20
-112.3592882084244
 30
0.0
  0
VERTEX
  5
171
330
16E
100
AcDbEntity
  8
Layer 1
 62
     7
420
 16777215
370
    25
100
AcDbVertex
100
AcDb2dVertex
 10
15.44456264392455
 20
-119.1713269080907
 30
0.0
  0
VERTEX
  5
172
330
16E
100
AcDbEntity
  8
Layer 1
 62
     7
420
 16777215
370
    25
100
AcDbVertex
100
AcDb2dVertex
 10
15.91168397423056
 20
-102.9782965611192
 30
0.0
  0
VERTEX
  5
173
330
16E
100
AcDbEntity
  8
Layer 1
 62
     7
420
 16777215
370
    25
100
AcDbVertex
100
AcDb2dVertex
 10
74.08611554856688
 20
-104.6564579234157
 30
0.0
  0
SEQEND
  5
174
330
16E
100
AcDbEntity
  8
Layer 1
 62
     7
420
 16777215
370
    25
  0
ENDBLK
  5
16D
330
16A
100
AcDbEntity
  8
0
100
AcDbBlockEnd
  0
BLOCK
  5
177
330
175
100
AcDbEntity
  8
0
100
AcDbBlockBegin
  2
block 52
 70
     0
 10
0.0
 20
0.0
 30
0.0
  3
block 52
  1

  0
SPLINE
  5
179
330
175
100
AcDbEntity
  8
Layer 1
 62
     7
420
 16777215
370
    25
100
AcDbSpline
210
0.0
220
0.0
230
1.0
 70
    11
 71
     3
 72
    20
 73
    16
 74
     0
 42
0.0000000001
 43
0.0000000001
 12
1.0
 22
0.0
 32
0.0
 13
1.0
 23
0.0
 33
0.0
 40
0.0
 40
0.0
 40
0.0
 40
0.0
 40
1.0
 40
1.0
 40
1.0
 40
2.0
 40
2.0
 40
2.0
 40
3.0
 40
3.0
 40
3.0
 40
4.0
 40
4.0
 40
4.0
 40
5.0
 40
5.0
 40
5.0
 40
5.0
 10
24.68736628870515
 20
-110.8986038243572
 30
0.0
 10
24.68736628870515
 20
-110.3463190745262
 30
0.0
 10
25.13508153887455
 20
-109.8986038243571
 30
0.0
 10
25.68736628870519
 20
-109.8986038243571
 30
0.0
 10
26.23965103853582
 20
-109.8986038243571
 30
0.0
 10
26.68736628870522
 20
-110.3463190745262
 30
0.0
 10
26.68736628870522
 20
-110.8986038243572
 30
0.0
 10
26.68736628870522
 20
-111.4508885741878
 30
0.0
 10
26.23965103853582
 20
-111.8986038243572
 30
0.0
 10
25.68736628870519
 20
-111.8986038243572
 30
0.0
 10
25.13508153887455
 20
-111.8986038243572
 30
0.0
 10
24.68736628870515
 20
-111.4508885741878
 30
0.0
 10
24.68736628870515
 20
-110.8986038243572
 30
0.0
 10
24.68736628870515
 20
-110.8986038243572
 30
0.0
 10
24.68736628870515
 20
-110.8986038243572
 30
0.0
 10
24.68736628870515
 20
-110.8986038243572
 30
0.0
  0
ENDBLK
  5
178
330
175
100
AcDbEntity
  8
0
100
AcDbBlockEnd
  0
BLOCK
  5
17C
330
17A
100
AcDbEntity
  8
0
100
AcDbBlockBegin
  2
block 53
 70
     0
 10
0.0
 20
0.0
 30
0.0
  3
block 53
  1

  0
SPLINE
  5
17E
330
17A
100
AcDbEntity
  8
Layer 1
 62
     7
420
 16777215
370
    25
100
AcDbSpline
210
0.0
220
0.0
230
1.0
 70
    11
 71
     3
 72
    20
 73
    16
 74
     0
 42
0.0000000001
 43
0.0000000001
 12
1.0
 22
0.0
 32
0.0
 13
1.0
 23
0.0
 33
0.0
 40
0.0
 40
0.0
 40
0.0
 40
0.0
 40
1.0
 40
1.0
 40
1.0
 40
2.0
 40
2.0
 40
2.0
 40
3.0
 40
3.0
 40
3.0
 40
4.0
 40
4.0
 40
4.0
 40
5.0
 40
5.0
 40
5.0
 40
5.0
 10
66.01234028994797
 20
-108.6792767957421
 30
0.0
 10
66.01234028994797
 20
-108.1269920459115
 30
0.0
 10
66.4600555401177
 20
-107.6792767957421
 30
0.0
 10
67.01234028994801
 20
-107.6792767957421
 30
0.0
 10
67.56462503977896
 20
-107.6792767957421
 30
0.0
 10
68.01234028994804
 20
-108.1269920459115
 30
0.0
 10
68.01234028994804
 20
-108.6792767957421
 30
0.0
 10
68.01234028994804
 20
-109.2315615455728
 30
0.0
 10
67.56462503977896
 20
-109.6792767957422
 30
0.0
 10
67.01234028994801
 20
-109.6792767957422
 30
0.0
 10
66.4600555401177
 20
-109.6792767957422
 30
0.0
 10
66.01234028994797
 20
-109.2315615455728
 30
0.0
 10
66.01234028994797
 20
-108.6792767957421
 30
0.0
 10
66.01234028994797
 20
-108.6792767957421
 30
0.0
 10
66.01234028994797
 20
-108.6792767957421
 30
0.0
 10
66.01234028994797
 20
-108.6792767957421
 30
0.0
  0
ENDBLK
  5
17D
330
17A
100
AcDbEntity
  8
0
100
AcDbBlockEnd
  0
BLOCK
  5
181
330
17F
100
AcDbEntity
  8
0
100
AcDbBlockBegin
  2
block 54
 70
     0
 10
0.0
 20
0.0
 30
0.0
  3
block 54
  1

  0
INSERT
  5
184
330
17F
100
AcDbEntity
  8
Layer 1
100
AcDbBlockReference
  2
block 55
 10
0.0
 20
0.0
 30
0.0
  0
INSERT
  5
189
330
17F
100
AcDbEntity
  8
Layer 1
100
AcDbBlockReference
  2
block 56
 10
0.0
 20
0.0
 30
0.0
  0
ENDBLK
  5
182
330
17F
100
AcDbEntity
  8
0
100
AcDbBlockEnd
  0
BLOCK
  5
185
330
183
100
AcDbEntity
  8
0
100
AcDbBlockBegin
  2
block 55
 70
     0
 10
0.0
 20
0.0
 30
0.0
  3
block 55
  1

  0
SPLINE
  5
187
330
183
100
AcDbEntity
  8
Layer 1
 62
     7
420
 16777215
370
    25
100
AcDbSpline
210
0.0
220
0.0
230
1.0
 70
    11
 71
     3
 72
    20
 73
    16
 74
     0
 42
0.0000000001
 43
0.0000000001
 12
1.0
 22
0.0
 32
0.0
 13
1.0
 23
0.0
 33
0.0
 40
0.0
 40
0.0
 40
0.0
 40
0.0
 40
1.0
 40
1.0
 40
1.0
 40
2.0
 40
2.0
 40
2.0
 40
3.0
 40
3.0
 40
3.0
 40
4.0
 40
4.0
 40
4.0
 40
5.0
 40
5.0
 40
5.0
 40
5.0
 10
90.78247912573617
 20
-107.275131185615
 30
0.0
 10
90.78247912573617
 20
-106.722846435784
 30
0.0
 10
91.23019437590526
 20
-106.2751311856149
 30
0.0
 10
91.7824791257362
 20
-106.2751311856149
 30
0.0
 10
92.33476387556684
 20
-106.2751311856149
 30
0.0
 10
92.78247912573624
 20
-106.722846435784
 30
0.0
 10
92.78247912573624
 20
-107.275131185615
 30
0.0
 10
92.78247912573624
 20
-107.8274159354456
 30
0.0
 10
92.33476387556684
 20
-108.275131185615
 30
0.0
 10
91.7824791257362
 20
-108.275131185615
 30
0.0
 10
91.23019437590526
 20
-108.275131185615
 30
0.0
 10
90.78247912573617
 20
-107.8274159354456
 30
0.0
 10
90.78247912573617
 20
-107.275131185615
 30
0.0
 10
90.78247912573617
 20
-107.275131185615
 30
0.0
 10
90.78247912573617
 20
-107.275131185615
 30
0.0
 10
90.78247912573617
 20
-107.275131185615
 30
0.0
  0
ENDBLK
  5
186
330
183
100
AcDbEntity
  8
0
100
AcDbBlockEnd
  0
BLOCK
  5
18A
330
188
100
AcDbEntity
  8
0
100
AcDbBlockBegin
  2
block 56
 70
     0
 10
0.0
 20
0.0
 30
0.0
  3
block 56
  1

  0
POLYLINE
  5
18C
330
188
100
AcDbEntity
  8
Layer 1
 62
     7
420
 16777215
370
    25
100
AcDb2dPolyline
 66
     1
 10
0.0
 20
0.0
 30
0.0
  0
VERTEX
  5
18D
330
18C
100
AcDbEntity
  8
Layer 1
 62
     7
420
 16777215
370
    25
100
AcDbVertex
100
AcDb2dVertex
 10
85.34712105157509
 20
-110.5351011574768
 30
0.0
  0
VERTEX
  5
18E
330
18C
100
AcDbEntity
  8
Layer 1
 62
     7
420
 16777215
370
    25
100
AcDbVertex
100
AcDb2dVertex
 10
85.52285693656944
 20
-104.4431153410675
 30
0.0
  0
VERTEX
  5
18F
330
18C
100
AcDbEntity
  8
Layer 1
 62
     7
420
 16777215
370
    25
100
AcDbVertex
100
AcDb2dVertex
 10
122.0340944173442
 20
-105.4963572270939
 30
0.0
  0
VERTEX
  5
190
330
18C
100
AcDbEntity
  8
Layer 1
 62
     7
420
 16777215
370
    25
100
AcDbVertex
100
AcDb2dVertex
 10
121.8806694329476
 20
-106.2750751535457
 30
0.0
  0
VERTEX
  5
191
330
18C
100
AcDbEntity
  8
Layer 1
 62
     7
420
 16777215
370
    25
100
AcDbVertex
100
AcDb2dVertex
 10
85.34712105157509
 20
-110.5351011574768
 30
0.0
  0
SEQEND
  5
192
330
18C
100
AcDbEntity
  8
Layer 1
 62
     7
420
 16777215
370
    25
  0
ENDBLK
  5
18B
330
188
100
AcDbEntity
  8
0
100
AcDbBlockEnd
  0
BLOCK
  5
195
330
193
100
AcDbEntity
  8
0
100
AcDbBlockBegin
  2
block 57
 70
     0
 10
0.0
 20
0.0
 30
0.0
  3
block 57
  1

  0
INSERT
  5
198
330
193
100
AcDbEntity
  8
Layer 1
100
AcDbBlockReference
  2
block 58
 10
0.0
 20
0.0
 30
0.0
  0
INSERT
  5
1A6
330
193
100
AcDbEntity
  8
Layer 1
100
AcDbBlockReference
  2
block 59
 10
0.0
 20
0.0
 30
0.0
  0
INSERT
  5
1AB
330
193
100
AcDbEntity
  8
Layer 1
100
AcDbBlockReference
  2
block 60
 10
0.0
 20
0.0
 30
0.0
  0
ENDBLK
  5
196
330
193
100
AcDbEntity
  8
0
100
AcDbBlockEnd
  0
BLOCK
  5
199
330
197
100
AcDbEntity
  8
0
100
AcDbBlockBegin
  2
block 58
 70
     0
 10
0.0
 20
0.0
 30
0.0
  3
block 58
  1

  0
POLYLINE
  5
19B
330
197
100
AcDbEntity
  8
Layer 1
 62
     7
420
 16777215
370
    25
100
AcDb2dPolyline
 66
     1
 10
0.0
 20
0.0
 30
0.0
  0
VERTEX
  5
19C
330
19B
100
AcDbEntity
  8
Layer 1
 62
     7
420
 16777215
370
    25
100
AcDbVertex
100
AcDb2dVertex
 10
74.41068214458528
 20
-112.9494395961486
 30
0.0
  0
VERTEX
  5
19D
330
19B
100
AcDbEntity
  8
Layer 1
 62
     7
420
 16777215
370
    25
100
AcDbVertex
100
AcDb2dVertex
 10
74.54875408411799
 20
-115.9311721987977
 30
0.0
  0
VERTEX
  5
19E
330
19B
100
AcDbEntity
  8
Layer 1
 62
     7
420
 16777215
370
    25
100
AcDbVertex
100
AcDb2dVertex
 10
85.69333199947975
 20
-115.9311721987977
 30
0.0
  0
VERTEX
  5
19F
330
19B
100
AcDbEntity
  8
Layer 1
 62
     7
420
 16777215
370
    25
100
AcDbVertex
100
AcDb2dVertex
 10
85.49596643134699
 20
-111.6689640257669
 30
0.0
  0
VERTEX
  5
1A0
330
19B
100
AcDbEntity
  8
Layer 1
 62
     7
420
 16777215
370
    25
100
AcDbVertex
100
AcDb2dVertex
 10
122.0340944173442
 20
-107.4483974563169
 30
0.0
  0
VERTEX
  5
1A1
330
19B
100
AcDbEntity
  8
Layer 1
 62
     7
420
 16777215
370
    25
100
AcDbVertex
100
AcDb2dVertex
 10
120.6737307343835
 20
-118.3359160737826
 30
0.0
  0
VERTEX
  5
1A2
330
19B
100
AcDbEntity
  8
Layer 1
 62
     7
420
 16777215
370
    25
100
AcDbVertex
100
AcDb2dVertex
 10
20.54679653175276
 20
-119.1713269080907
 30
0.0
  0
VERTEX
  5
1A3
330
19B
100
AcDbEntity
  8
Layer 1
 62
     7
420
 16777215
370
    25
100
AcDbVertex
100
AcDb2dVertex
 10
74.41068214458528
 20
-112.9494395961486
 30
0.0
  0
SEQEND
  5
1A4
330
19B
100
AcDbEntity
  8
Layer 1
 62
     7
420
 16777215
370
    25
  0
ENDBLK
  5
19A
330
197
100
AcDbEntity
  8
0
100
AcDbBlockEnd
  0
BLOCK
  5
1A7
330
1A5
100
AcDbEntity
  8
0
100
AcDbBlockBegin
  2
block 59
 70
     0
 10
0.0
 20
0.0
 30
0.0
  3
block 59
  1

  0
SPLINE
  5
1A9
330
1A5
100
AcDbEntity
  8
Layer 1
 62
     7
420
 16777215
370
    25
100
AcDbSpline
210
0.0
220
0.0
230
1.0
 70
    11
 71
     3
 72
    20
 73
    16
 74
     0
 42
0.0000000001
 43
0.0000000001
 12
1.0
 22
0.0
 32
0.0
 13
1.0
 23
0.0
 33
0.0
 40
0.0
 40
0.0
 40
0.0
 40
0.0
 40
1.0
 40
1.0
 40
1.0
 40
2.0
 40
2.0
 40
2.0
 40
3.0
 40
3.0
 40
3.0
 40
4.0
 40
4.0
 40
4.0
 40
5.0
 40
5.0
 40
5.0
 40
5.0
 10
62.03172676946396
 20
-116.6663664428832
 30
0.0
 10
62.03172676946396
 20
-116.1140816930522
 30
0.0
 10
62.47944201963336
 20
-115.6663664428832
 30
0.0
 10
63.03172676946399
 20
-115.6663664428832
 30
0.0
 10
63.58401151929495
 20
-115.6663664428832
 30
0.0
 10
64.03172676946403
 20
-116.1140816930522
 30
0.0
 10
64.03172676946403
 20
-116.6663664428832
 30
0.0
 10
64.03172676946403
 20
-117.2186511927135
 30
0.0
 10
63.58401151929495
 20
-117.6663664428832
 30
0.0
 10
63.03172676946399
 20
-117.6663664428832
 30
0.0
 10
62.47944201963336
 20
-117.6663664428832
 30
0.0
 10
62.03172676946396
 20
-117.2186511927135
 30
0.0
 10
62.03172676946396
 20
-116.6663664428832
 30
0.0
 10
62.03172676946396
 20
-116.6663664428832
 30
0.0
 10
62.03172676946396
 20
-116.6663664428832
 30
0.0
 10
62.03172676946396
 20
-116.6663664428832
 30
0.0
  0
ENDBLK
  5
1A8
330
1A5
100
AcDbEntity
  8
0
100
AcDbBlockEnd
  0
BLOCK
  5
1AC
330
1AA
100
AcDbEntity
  8
0
100
AcDbBlockBegin
  2
block 60
 70
     0
 10
0.0
 20
0.0
 30
0.0
  3
block 60
  1

  0
SPLINE
  5
1AE
330
1AA
100
AcDbEntity
  8
Layer 1
 62
     7
420
 16777215
370
    25
100
AcDbSpline
210
0.0
220
0.0
230
1.0
 70
    11
 71
     3
 72
    20
 73
    16
 74
     0
 42
0.0000000001
 43
0.0000000001
 12
1.0
 22
0.0
 32
0.0
 13
1.0
 23
0.0
 33
0.0
 40
0.0
 40
0.0
 40
0.0
 40
0.0
 40
1.0
 40
1.0
 40
1.0
 40
2.0
 40
2.0
 40
2.0
 40
3.0
 40
3.0
 40
3.0
 40
4.0
 40
4.0
 40
4.0
 40
5.0
 40
5.0
 40
5.0
 40
5.0
 10
109.9996949574159
 20
-114.0964888867789
 30
0.0
 10
109.9996949574159
 20
-113.5442041369483
 30
0.0
 10
110.4474102075849
 20
-113.0964888867792
 30
0.0
 10
110.9996949574159
 20
-113.0964888867792
 30
0.0
 10
111.5519797072469
 20
-113.0964888867792
 30
0.0
 10
111.9996949574159
 20
-113.5442041369483
 30
0.0
 10
111.9996949574159
 20
-114.0964888867789
 30
0.0
 10
111.9996949574159
 20
-114.6487736366099
 30
0.0
 10
111.5519797072469
 20
-115.096488886779
 30
0.0
 10
110.9996949574159
 20
-115.096488886779
 30
0.0
 10
110.4474102075849
 20
-115.096488886779
 30
0.0
 10
109.9996949574159
 20
-114.6487736366099
 30
0.0
 10
109.9996949574159
 20
-114.0964888867789
 30
0.0
 10
109.9996949574159
 20
-114.0964888867789
 30
0.0
 10
109.9996949574159
 20
-114.0964888867789
 30
0.0
 10
109.9996949574159
 20
-114.0964888867789
 30
0.0
  0
ENDBLK
  5
1AD
330
1AA
100
AcDbEntity
  8
0
100
AcDbBlockEnd
  0
BLOCK
  5
1B1
330
1AF
100
AcDbEntity
  8
0
100
AcDbBlockBegin
  2
block 61
 70
     0
 10
0.0
 20
0.0
 30
0.0
  3
block 61
  1

  0
INSERT
  5
1B4
330
1AF
100
AcDbEntity
  8
Layer 1
100
AcDbBlockReference
  2
block 62
 10
0.0
 20
0.0
 30
0.0
  0
INSERT
  5
1B9
330
1AF
100
AcDbEntity
  8
Layer 1
100
AcDbBlockReference
  2
block 63
 10
0.0
 20
0.0
 30
0.0
  0
INSERT
  5
1BE
330
1AF
100
AcDbEntity
  8
Layer 1
100
AcDbBlockReference
  2
block 64
 10
0.0
 20
0.0
 30
0.0
  0
ENDBLK
  5
1B2
330
1AF
100
AcDbEntity
  8
0
100
AcDbBlockEnd
  0
BLOCK
  5
1B5
330
1B3
100
AcDbEntity
  8
0
100
AcDbBlockBegin
  2
block 62
 70
     0
 10
0.0
 20
0.0
 30
0.0
  3
block 62
  1

  0
SPLINE
  5
1B7
330
1B3
100
AcDbEntity
  8
Layer 1
 62
     7
420
 16777215
370
    25
100
AcDbSpline
210
0.0
220
0.0
230
1.0
 70
    11
 71
     3
 72
    20
 73
    16
 74
     0
 42
0.0000000001
 43
0.0000000001
 12
1.0
 22
0.0
 32
0.0
 13
1.0
 23
0.0
 33
0.0
 40
0.0
 40
0.0
 40
0.0
 40
0.0
 40
1.0
 40
1.0
 40
1.0
 40
2.0
 40
2.0
 40
2.0
 40
3.0
 40
3.0
 40
3.0
 40
4.0
 40
4.0
 40
4.0
 40
5.0
 40
5.0
 40
5.0
 40
5.0
 10
112.8388630742098
 20
-53.74221028289912
 30
0.0
 10
112.6774483289014
 20
-53.21404011629313
 30
0.0
 10
112.9747623417318
 20
-52.65502109314357
 30
0.0
 10
113.5029325083378
 20
-52.49360634783527
 30
0.0
 10
114.0311026749438
 20
-52.33219160252697
 30
0.0
 10
114.5901216980934
 20
-52.62950561535765
 30
0.0
 10
114.7515364434017
 20
-53.15767578196365
 30
0.0
 10
114.91295118871
 20
-53.68584594856932
 30
0.0
 10
114.6156371758793
 20
-54.24486497171856
 30
0.0
 10
114.0874670092733
 20
-54.40627971702686
 30
0.0
 10
113.5592968426676
 20
-54.56769446233516
 30
0.0
 10
113.000277819518
 20
-54.27038044950513
 30
0.0
 10
112.8388630742098
 20
-53.74221028289912
 30
0.0
 10
112.8388630742098
 20
-53.74221028289912
 30
0.0
 10
112.8388630742098
 20
-53.74221028289912
 30
0.0
 10
112.8388630742098
 20
-53.74221028289912
 30
0.0
  0
ENDBLK
  5
1B6
330
1B3
100
AcDbEntity
  8
0
100
AcDbBlockEnd
  0
BLOCK
  5
1BA
330
1B8
100
AcDbEntity
  8
0
100
AcDbBlockBegin
  2
block 63
 70
     0
 10
0.0
 20
0.0
 30
0.0
  3
block 63
  1

  0
SPLINE
  5
1BC
330
1B8
100
AcDbEntity
  8
Layer 1
 62
     7
420
 16777215
370
    25
100
AcDbSpline
210
0.0
220
0.0
230
1.0
 70
    11
 71
     3
 72
    20
 73
    16
 74
     0
 42
0.0000000001
 43
0.0000000001
 12
1.0
 22
0.0
 32
0.0
 13
1.0
 23
0.0
 33
0.0
 40
0.0
 40
0.0
 40
0.0
 40
0.0
 40
1.0
 40
1.0
 40
1.0
 40
2.0
 40
2.0
 40
2.0
 40
3.0
 40
3.0
 40
3.0
 40
4.0
 40
4.0
 40
4.0
 40
5.0
 40
5.0
 40
5.0
 40
5.0
 10
161.8025088913273
 20
-33.97910393559599
 30
0.0
 10
161.641094146019
 20
-33.45093376898999
 30
0.0
 10
161.9384081588493
 20
-32.89191474584075
 30
0.0
 10
162.4665783254553
 20
-32.73050000053245
 30
0.0
 10
162.994748492061
 20
-32.56908525522415
 30
0.0
 10
163.5537675152109
 20
-32.86639926805419
 30
0.0
 10
163.7151822605192
 20
-33.39456943466051
 30
0.0
 10
163.8765970058275
 20
-33.92273960126683
 30
0.0
 10
163.5792829929968
 20
-34.48175862441607
 30
0.0
 10
163.0511128263911
 20
-34.64317336972437
 30
0.0
 10
162.5229426597848
 20
-34.80458811503267
 30
0.0
 10
161.9639236366356
 20
-34.50727410220231
 30
0.0
 10
161.8025088913273
 20
-33.97910393559599
 30
0.0
 10
161.8025088913273
 20
-33.97910393559599
 30
0.0
 10
161.8025088913273
 20
-33.97910393559599
 30
0.0
 10
161.8025088913273
 20
-33.97910393559599
 30
0.0
  0
ENDBLK
  5
1BB
330
1B8
100
AcDbEntity
  8
0
100
AcDbBlockEnd
  0
BLOCK
  5
1BF
330
1BD
100
AcDbEntity
  8
0
100
AcDbBlockBegin
  2
block 64
 70
     0
 10
0.0
 20
0.0
 30
0.0
  3
block 64
  1

  0
POLYLINE
  5
1C1
330
1BD
100
AcDbEntity
  8
Layer 1
 62
     7
420
 16777215
370
    25
100
AcDb2dPolyline
 66
     1
 10
0.0
 20
0.0
 30
0.0
  0
VERTEX
  5
1C2
330
1C1
100
AcDbEntity
  8
Layer 1
 62
     7
420
 16777215
370
    25
100
AcDbVertex
100
AcDb2dVertex
 10
201.7323280238504
 20
-18.04071062978791
 30
0.0
  0
VERTEX
  5
1C3
330
1C1
100
AcDbEntity
  8
Layer 1
 62
     7
420
 16777215
370
    25
100
AcDbVertex
100
AcDb2dVertex
 10
201.7627667261679
 20
-18.27849109575878
 30
0.0
  0
VERTEX
  5
1C4
330
1C1
100
AcDbEntity
  8
Layer 1
 62
     7
420
 16777215
370
    25
100
AcDbVertex
100
AcDb2dVertex
 10
106.8901112263653
 20
-64.84629828282503
 30
0.0
  0
VERTEX
  5
1C5
330
1C1
100
AcDbEntity
  8
Layer 1
 62
     7
420
 16777215
370
    25
100
AcDbVertex
100
AcDb2dVertex
 10
102.0203197372372
 20
-49.32475242655423
 30
0.0
  0
VERTEX
  5
1C6
330
1C1
100
AcDbEntity
  8
Layer 1
 62
     7
420
 16777215
370
    25
100
AcDbVertex
100
AcDb2dVertex
 10
201.7323280238504
 20
-18.04071062978791
 30
0.0
  0
SEQEND
  5
1C7
330
1C1
100
AcDbEntity
  8
Layer 1
 62
     7
420
 16777215
370
    25
  0
ENDBLK
  5
1C0
330
1BD
100
AcDbEntity
  8
0
100
AcDbBlockEnd
  0
BLOCK
  5
1CA
330
1C8
100
AcDbEntity
  8
0
100
AcDbBlockBegin
  2
block 65
 70
     0
 10
0.0
 20
0.0
 30
0.0
  3
block 65
  1

  0
INSERT
  5
1CD
330
1C8
100
AcDbEntity
  8
Layer 1
100
AcDbBlockReference
  2
block 66
 10
0.0
 20
0.0
 30
0.0
  0
INSERT
  5
1D2
330
1C8
100
AcDbEntity
  8
Layer 1
100
AcDbBlockReference
  2
block 67
 10
0.0
 20
0.0
 30
0.0
  0
INSERT
  5
1D7
330
1C8
100
AcDbEntity
  8
Layer 1
100
AcDbBlockReference
  2
block 68
 10
0.0
 20
0.0
 30
0.0
  0
ENDBLK
  5
1CB
330
1C8
100
AcDbEntity
  8
0
100
AcDbBlockEnd
  0
BLOCK
  5
1CE
330
1CC
100
AcDbEntity
  8
0
100
AcDbBlockBegin
  2
block 66
 70
     0
 10
0.0
 20
0.0
 30
0.0
  3
block 66
  1

  0
SPLINE
  5
1D0
330
1CC
100
AcDbEntity
  8
Layer 1
 62
     7
420
 16777215
370
    25
100
AcDbSpline
210
0.0
220
0.0
230
1.0
 70
    11
 71
     3
 72
    20
 73
    16
 74
     0
 42
0.0000000001
 43
0.0000000001
 12
1.0
 22
0.0
 32
0.0
 13
1.0
 23
0.0
 33
0.0
 40
0.0
 40
0.0
 40
0.0
 40
0.0
 40
1.0
 40
1.0
 40
1.0
 40
2.0
 40
2.0
 40
2.0
 40
3.0
 40
3.0
 40
3.0
 40
4.0
 40
4.0
 40
4.0
 40
5.0
 40
5.0
 40
5.0
 40
5.0
 10
150.7677848038403
 20
-47.28085582976949
 30
0.0
 10
150.6206466847236
 20
-46.74853185060086
 30
0.0
 10
150.9329015202001
 20
-46.19771898928634
 30
0.0
 10
151.4652254993688
 20
-46.05058087016899
 30
0.0
 10
151.9975494785383
 20
-45.90344275105162
 30
0.0
 10
152.5483623398525
 20
-46.2156975865288
 30
0.0
 10
152.6955004589696
 20
-46.74802156569744
 30
0.0
 10
152.8426385780869
 20
-47.28034554486672
 30
0.0
 10
152.5303837426101
 20
-47.83115840618091
 30
0.0
 10
151.9980597634411
 20
-47.97829652529828
 30
0.0
 10
151.4657357842718
 20
-48.12543464441531
 30
0.0
 10
150.914922922958
 20
-47.81317980893909
 30
0.0
 10
150.7677848038403
 20
-47.28085582976949
 30
0.0
 10
150.7677848038403
 20
-47.28085582976949
 30
0.0
 10
150.7677848038403
 20
-47.28085582976949
 30
0.0
 10
150.7677848038403
 20
-47.28085582976949
 30
0.0
  0
ENDBLK
  5
1CF
330
1CC
100
AcDbEntity
  8
0
100
AcDbBlockEnd
  0
BLOCK
  5
1D3
330
1D1
100
AcDbEntity
  8
0
100
AcDbBlockBegin
  2
block 67
 70
     0
 10
0.0
 20
0.0
 30
0.0
  3
block 67
  1

  0
SPLINE
  5
1D5
330
1D1
100
AcDbEntity
  8
Layer 1
 62
     7
420
 16777215
370
    25
100
AcDbSpline
210
0.0
220
0.0
230
1.0
 70
    11
 71
     3
 72
    20
 73
    16
 74
     0
 42
0.0000000001
 43
0.0000000001
 12
1.0
 22
0.0
 32
0.0
 13
1.0
 23
0.0
 33
0.0
 40
0.0
 40
0.0
 40
0.0
 40
0.0
 40
1.0
 40
1.0
 40
1.0
 40
2.0
 40
2.0
 40
2.0
 40
3.0
 40
3.0
 40
3.0
 40
4.0
 40
4.0
 40
4.0
 40
5.0
 40
5.0
 40
5.0
 40
5.0
 10
184.6462792289235
 20
-32.74462074730938
 30
0.0
 10
184.4991411098059
 20
-32.2122967681401
 30
0.0
 10
184.811395945283
 20
-31.66148390682591
 30
0.0
 10
185.3437199244523
 20
-31.51434578770855
 30
0.0
 10
185.8760439036209
 20
-31.36720766859118
 30
0.0
 10
186.4268567649358
 20
-31.67946250406805
 30
0.0
 10
186.5739948840528
 20
-32.211786483237
 30
0.0
 10
186.7211330031699
 20
-32.74411046240596
 30
0.0
 10
186.408878167693
 20
-33.29492332372111
 30
0.0
 10
185.8765541885244
 20
-33.44206144283783
 30
0.0
 10
185.3442302093548
 20
-33.58919956195488
 30
0.0
 10
184.7934173480403
 20
-33.27694472647801
 30
0.0
 10
184.6462792289235
 20
-32.74462074730938
 30
0.0
 10
184.6462792289235
 20
-32.74462074730938
 30
0.0
 10
184.6462792289235
 20
-32.74462074730938
 30
0.0
 10
184.6462792289235
 20
-32.74462074730938
 30
0.0
  0
ENDBLK
  5
1D4
330
1D1
100
AcDbEntity
  8
0
100
AcDbBlockEnd
  0
BLOCK
  5
1D8
330
1D6
100
AcDbEntity
  8
0
100
AcDbBlockBegin
  2
block 68
 70
     0
 10
0.0
 20
0.0
 30
0.0
  3
block 68
  1

  0
POLYLINE
  5
1DA
330
1D6
100
AcDbEntity
  8
Layer 1
 62
     7
420
 16777215
370
    25
100
AcDb2dPolyline
 66
     1
 10
0.0
 20
0.0
 30
0.0
  0
VERTEX
  5
1DB
330
1DA
100
AcDbEntity
  8
Layer 1
 62
     7
420
 16777215
370
    25
100
AcDbVertex
100
AcDb2dVertex
 10
99.67542368453331
 20
-69.5335731135635
 30
0.0
  0
VERTEX
  5
1DC
330
1DA
100
AcDbEntity
  8
Layer 1
 62
     7
420
 16777215
370
    25
100
AcDbVertex
100
AcDb2dVertex
 10
193.8042851937417
 20
-23.05893605011859
 30
0.0
  0
VERTEX
  5
1DD
330
1DA
100
AcDbEntity
  8
Layer 1
 62
     7
420
 16777215
370
    25
100
AcDbVertex
100
AcDb2dVertex
 10
196.2775033583353
 20
-32.6340688899343
 30
0.0
  0
VERTEX
  5
1DE
330
1DA
100
AcDbEntity
  8
Layer 1
 62
     7
420
 16777215
370
    25
100
AcDbVertex
100
AcDb2dVertex
 10
99.67542368453331
 20
-69.5335731135635
 30
0.0
  0
SEQEND
  5
1DF
330
1DA
100
AcDbEntity
  8
Layer 1
 62
     7
420
 16777215
370
    25
  0
ENDBLK
  5
1D9
330
1D6
100
AcDbEntity
  8
0
100
AcDbBlockEnd
  0
BLOCK
  5
1E2
330
1E0
100
AcDbEntity
  8
0
100
AcDbBlockBegin
  2
block 69
 70
     0
 10
0.0
 20
0.0
 30
0.0
  3
block 69
  1

  0
INSERT
  5
1E5
330
1E0
100
AcDbEntity
  8
Layer 1
100
AcDbBlockReference
  2
block 70
 10
0.0
 20
0.0
 30
0.0
  0
INSERT
  5
1EA
330
1E0
100
AcDbEntity
  8
Layer 1
100
AcDbBlockReference
  2
block 71
 10
0.0
 20
0.0
 30
0.0
  0
INSERT
  5
1EF
330
1E0
100
AcDbEntity
  8
Layer 1
100
AcDbBlockReference
  2
block 72
 10
0.0
 20
0.0
 30
0.0
  0
ENDBLK
  5
1E3
330
1E0
100
AcDbEntity
  8
0
100
AcDbBlockEnd
  0
BLOCK
  5
1E6
330
1E4
100
AcDbEntity
  8
0
100
AcDbBlockBegin
  2
block 70
 70
     0
 10
0.0
 20
0.0
 30
0.0
  3
block 70
  1

  0
SPLINE
  5
1E8
330
1E4
100
AcDbEntity
  8
Layer 1
 62
     7
420
 16777215
370
    25
100
AcDbSpline
210
0.0
220
0.0
230
1.0
 70
    11
 71
     3
 72
    20
 73
    16
 74
     0
 42
0.0000000001
 43
0.0000000001
 12
1.0
 22
0.0
 32
0.0
 13
1.0
 23
0.0
 33
0.0
 40
0.0
 40
0.0
 40
0.0
 40
0.0
 40
1.0
 40
1.0
 40
1.0
 40
2.0
 40
2.0
 40
2.0
 40
3.0
 40
3.0
 40
3.0
 40
4.0
 40
4.0
 40
4.0
 40
5.0
 40
5.0
 40
5.0
 40
5.0
 10
32.30737504158658
 20
-29.27866623569958
 30
0.0
 10
32.30737504158658
 20
-28.72638148586863
 30
0.0
 10
32.75509029175598
 20
-28.27866623569955
 30
0.0
 10
33.30737504158662
 20
-28.27866623569955
 30
0.0
 10
33.85965979141757
 20
-28.27866623569955
 30
0.0
 10
34.30737504158665
 20
-28.72638148586863
 30
0.0
 10
34.30737504158665
 20
-29.27866623569958
 30
0.0
 10
34.30737504158665
 20
-29.83095098553054
 30
0.0
 10
33.85965979141757
 20
-30.27866623569962
 30
0.0
 10
33.30737504158662
 20
-30.27866623569962
 30
0.0
 10
32.75509029175598
 20
-30.27866623569962
 30
0.0
 10
32.30737504158658
 20
-29.83095098553054
 30
0.0
 10
32.30737504158658
 20
-29.27866623569958
 30
0.0
 10
32.30737504158658
 20
-29.27866623569958
 30
0.0
 10
32.30737504158658
 20
-29.27866623569958
 30
0.0
 10
32.30737504158658
 20
-29.27866623569958
 30
0.0
  0
ENDBLK
  5
1E7
330
1E4
100
AcDbEntity
  8
0
100
AcDbBlockEnd
  0
BLOCK
  5
1EB
330
1E9
100
AcDbEntity
  8
0
100
AcDbBlockBegin
  2
block 71
 70
     0
 10
0.0
 20
0.0
 30
0.0
  3
block 71
  1

  0
SPLINE
  5
1ED
330
1E9
100
AcDbEntity
  8
Layer 1
 62
     7
420
 16777215
370
    25
100
AcDbSpline
210
0.0
220
0.0
230
1.0
 70
    11
 71
     3
 72
    20
 73
    16
 74
     0
 42
0.0000000001
 43
0.0000000001
 12
1.0
 22
0.0
 32
0.0
 13
1.0
 23
0.0
 33
0.0
 40
0.0
 40
0.0
 40
0.0
 40
0.0
 40
1.0
 40
1.0
 40
1.0
 40
2.0
 40
2.0
 40
2.0
 40
3.0
 40
3.0
 40
3.0
 40
4.0
 40
4.0
 40
4.0
 40
5.0
 40
5.0
 40
5.0
 40
5.0
 10
85.17604706262925
 20
-24.04685933957875
 30
0.0
 10
85.17604706262925
 20
-23.49457458974811
 30
0.0
 10
85.62376231279833
 20
-23.04685933957903
 30
0.0
 10
86.1760470626293
 20
-23.04685933957903
 30
0.0
 10
86.72833181246024
 20
-23.04685933957903
 30
0.0
 10
87.17604706262932
 20
-23.49457458974811
 30
0.0
 10
87.17604706262932
 20
-24.04685933957875
 30
0.0
 10
87.17604706262932
 20
-24.5991440894097
 30
0.0
 10
86.72833181246024
 20
-25.04685933957878
 30
0.0
 10
86.1760470626293
 20
-25.04685933957878
 30
0.0
 10
85.62376231279833
 20
-25.04685933957878
 30
0.0
 10
85.17604706262925
 20
-24.5991440894097
 30
0.0
 10
85.17604706262925
 20
-24.04685933957875
 30
0.0
 10
85.17604706262925
 20
-24.04685933957875
 30
0.0
 10
85.17604706262925
 20
-24.04685933957875
 30
0.0
 10
85.17604706262925
 20
-24.04685933957875
 30
0.0
  0
ENDBLK
  5
1EC
330
1E9
100
AcDbEntity
  8
0
100
AcDbBlockEnd
  0
BLOCK
  5
1F0
330
1EE
100
AcDbEntity
  8
0
100
AcDbBlockBegin
  2
block 72
 70
     0
 10
0.0
 20
0.0
 30
0.0
  3
block 72
  1

  0
POLYLINE
  5
1F2
330
1EE
100
AcDbEntity
  8
Layer 1
 62
     7
420
 16777215
370
    25
100
AcDb2dPolyline
 66
     1
 10
0.0
 20
0.0
 30
0.0
  0
VERTEX
  5
1F3
330
1F2
100
AcDbEntity
  8
Layer 1
 62
     7
420
 16777215
370
    25
100
AcDbVertex
100
AcDb2dVertex
 10
126.5174957016676
 20
-17.53768171222143
 30
0.0
  0
VERTEX
  5
1F4
330
1F2
100
AcDbEntity
  8
Layer 1
 62
     7
420
 16777215
370
    25
100
AcDbVertex
100
AcDb2dVertex
 10
126.4907779902225
 20
-17.84888931846476
 30
0.0
  0
VERTEX
  5
1F5
330
1F2
100
AcDbEntity
  8
Layer 1
 62
     7
420
 16777215
370
    25
100
AcDbVertex
100
AcDb2dVertex
 10
30.12920502360685
 20
-39.62015801239709
 30
0.0
  0
VERTEX
  5
1F6
330
1F2
100
AcDbEntity
  8
Layer 1
 62
     7
420
 16777215
370
    25
100
AcDbVertex
100
AcDb2dVertex
 10
24.12920502360696
 20
-39.62015801239709
 30
0.0
  0
VERTEX
  5
1F7
330
1F2
100
AcDbEntity
  8
Layer 1
 62
     7
420
 16777215
370
    25
100
AcDbVertex
100
AcDb2dVertex
 10
23.01052008884155
 20
-26.1056132444837
 30
0.0
  0
VERTEX
  5
1F8
330
1F2
100
AcDbEntity
  8
Layer 1
 62
     7
420
 16777215
370
    25
100
AcDbVertex
100
AcDb2dVertex
 10
126.5174957016676
 20
-17.53768171222143
 30
0.0
  0
SEQEND
  5
1F9
330
1F2
100
AcDbEntity
  8
Layer 1
 62
     7
420
 16777215
370
    25
  0
ENDBLK
  5
1F1
330
1EE
100
AcDbEntity
  8
0
100
AcDbBlockEnd
  0
BLOCK
  5
1FC
330
1FA
100
AcDbEntity
  8
0
100
AcDbBlockBegin
  2
block 73
 70
     0
 10
0.0
 20
0.0
 30
0.0
  3
block 73
  1

  0
INSERT
  5
1FF
330
1FA
100
AcDbEntity
  8
Layer 1
100
AcDbBlockReference
  2
block 74
 10
0.0
 20
0.0
 30
0.0
  0
INSERT
  5
204
330
1FA
100
AcDbEntity
  8
Layer 1
100
AcDbBlockReference
  2
block 75
 10
0.0
 20
0.0
 30
0.0
  0
INSERT
  5
209
330
1FA
100
AcDbEntity
  8
Layer 1
100
AcDbBlockReference
  2
block 76
 10
0.0
 20
0.0
 30
0.0
  0
ENDBLK
  5
1FD
330
1FA
100
AcDbEntity
  8
0
100
AcDbBlockEnd
  0
BLOCK
  5
200
330
1FE
100
AcDbEntity
  8
0
100
AcDbBlockBegin
  2
block 74
 70
     0
 10
0.0
 20
0.0
 30
0.0
  3
block 74
  1

  0
SPLINE
  5
202
330
1FE
100
AcDbEntity
  8
Layer 1
 62
     7
420
 16777215
370
    25
100
AcDbSpline
210
0.0
220
0.0
230
1.0
 70
    11
 71
     3
 72
    20
 73
    16
 74
     0
 42
0.0000000001
 43
0.0000000001
 12
1.0
 22
0.0
 32
0.0
 13
1.0
 23
0.0
 33
0.0
 40
0.0
 40
0.0
 40
0.0
 40
0.0
 40
1.0
 40
1.0
 40
1.0
 40
2.0
 40
2.0
 40
2.0
 40
3.0
 40
3.0
 40
3.0
 40
4.0
 40
4.0
 40
4.0
 40
5.0
 40
5.0
 40
5.0
 40
5.0
 10
168.7605097838488
 20
-48.127275966353
 30
0.0
 10
168.7605097674746
 20
-47.57499121652236
 30
0.0
 10
169.2082250043692
 20
-47.1272759530791
 30
0.0
 10
169.7605097542001
 20
-47.12727593670454
 30
0.0
 10
170.3127945040307
 20
-47.12727592033031
 30
0.0
 10
170.7605097674743
 20
-47.57499115722521
 30
0.0
 10
170.7605097838489
 20
-48.12727590705616
 30
0.0
 10
170.7605098002231
 20
-48.67956065688679
 30
0.0
 10
170.3127945633276
 20
-49.12727592033038
 30
0.0
 10
169.7605098134973
 20
-49.12727593670461
 30
0.0
 10
169.208225063666
 20
-49.12727595307885
 30
0.0
 10
168.7605098002234
 20
-48.67956071618364
 30
0.0
 10
168.7605097838488
 20
-48.127275966353
 30
0.0
 10
168.7605097838488
 20
-48.127275966353
 30
0.0
 10
168.7605097838488
 20
-48.127275966353
 30
0.0
 10
168.7605097838488
 20
-48.127275966353
 30
0.0
  0
ENDBLK
  5
201
330
1FE
100
AcDbEntity
  8
0
100
AcDbBlockEnd
  0
BLOCK
  5
205
330
203
100
AcDbEntity
  8
0
100
AcDbBlockBegin
  2
block 75
 70
     0
 10
0.0
 20
0.0
 30
0.0
  3
block 75
  1

  0
SPLINE
  5
207
330
203
100
AcDbEntity
  8
Layer 1
 62
     7
420
 16777215
370
    25
100
AcDbSpline
210
0.0
220
0.0
230
1.0
 70
    11
 71
     3
 72
    20
 73
    16
 74
     0
 42
0.0000000001
 43
0.0000000001
 12
1.0
 22
0.0
 32
0.0
 13
1.0
 23
0.0
 33
0.0
 40
0.0
 40
0.0
 40
0.0
 40
0.0
 40
1.0
 40
1.0
 40
1.0
 40
2.0
 40
2.0
 40
2.0
 40
3.0
 40
3.0
 40
3.0
 40
4.0
 40
4.0
 40
4.0
 40
5.0
 40
5.0
 40
5.0
 40
5.0
 10
212.8883537745016
 20
-38.28421863999217
 30
0.0
 10
212.888353758127
 20
-37.73193389016154
 30
0.0
 10
213.3360689950225
 20
-37.28421862671794
 30
0.0
 10
213.8883537448529
 20
-37.28421861034403
 30
0.0
 10
214.4406384946835
 20
-37.2842185939698
 30
0.0
 10
214.8883537581271
 20
-37.73193383086469
 30
0.0
 10
214.8883537745016
 20
-38.28421858069532
 30
0.0
 10
214.8883537908756
 20
-38.8365033305266
 30
0.0
 10
214.4406385539807
 20
-39.28421859396923
 30
0.0
 10
213.88835380415
 20
-39.28421861034346
 30
0.0
 10
213.3360690543194
 20
-39.28421862671802
 30
0.0
 10
212.8883537908761
 20
-38.8365033898228
 30
0.0
 10
212.8883537745016
 20
-38.28421863999217
 30
0.0
 10
212.8883537745016
 20
-38.28421863999217
 30
0.0
 10
212.8883537745016
 20
-38.28421863999217
 30
0.0
 10
212.8883537745016
 20
-38.28421863999217
 30
0.0
  0
ENDBLK
  5
206
330
203
100
AcDbEntity
  8
0
100
AcDbBlockEnd
  0
BLOCK
  5
20A
330
208
100
AcDbEntity
  8
0
100
AcDbBlockBegin
  2
block 76
 70
     0
 10
0.0
 20
0.0
 30
0.0
  3
block 76
  1

  0
POLYLINE
  5
20C
330
208
100
AcDbEntity
  8
Layer 1
 62
     7
420
 16777215
370
    25
100
AcDb2dPolyline
 66
     1
 10
0.0
 20
0.0
 30
0.0
  0
VERTEX
  5
20D
330
20C
100
AcDbEntity
  8
Layer 1
 62
     7
420
 16777215
370
    25
100
AcDbVertex
100
AcDb2dVertex
 10
221.0324925477994
 20
-24.79913015414791
 30
0.0
  0
VERTEX
  5
20E
330
20C
100
AcDbEntity
  8
Layer 1
 62
     7
420
 16777215
370
    25
100
AcDbVertex
100
AcDb2dVertex
 10
229.381906907876
 20
-54.71782474692574
 30
0.0
  0
VERTEX
  5
20F
330
20C
100
AcDbEntity
  8
Layer 1
 62
     7
420
 16777215
370
    25
100
AcDbVertex
100
AcDb2dVertex
 10
230.1537564776388
 20
-60.0792417993768
 30
0.0
  0
VERTEX
  5
210
330
20C
100
AcDbEntity
  8
Layer 1
 62
     7
420
 16777215
370
    25
100
AcDbVertex
100
AcDb2dVertex
 10
128.756523870572
 20
-60.07924480564793
 30
0.0
  0
VERTEX
  5
211
330
20C
100
AcDbEntity
  8
Layer 1
 62
     7
420
 16777215
370
    25
100
AcDbVertex
100
AcDb2dVertex
 10
221.0324925477994
 20
-24.79913015414791
 30
0.0
  0
SEQEND
  5
212
330
20C
100
AcDbEntity
  8
Layer 1
 62
     7
420
 16777215
370
    25
  0
ENDBLK
  5
20B
330
208
100
AcDbEntity
  8
0
100
AcDbBlockEnd
  0
BLOCK
  5
215
330
213
100
AcDbEntity
  8
0
100
AcDbBlockBegin
  2
block 77
 70
     0
 10
0.0
 20
0.0
 30
0.0
  3
block 77
  1

  0
INSERT
  5
218
330
213
100
AcDbEntity
  8
Layer 1
100
AcDbBlockReference
  2
block 78
 10
0.0
 20
0.0
 30
0.0
  0
INSERT
  5
233
330
213
100
AcDbEntity
  8
Layer 1
100
AcDbBlockReference
  2
block 82
 10
0.0
 20
0.0
 30
0.0
  0
INSERT
  5
24D
330
213
100
AcDbEntity
  8
Layer 1
100
AcDbBlockReference
  2
block 86
 10
0.0
 20
0.0
 30
0.0
  0
INSERT
  5
267
330
213
100
AcDbEntity
  8
Layer 1
100
AcDbBlockReference
  2
block 90
 10
0.0
 20
0.0
 30
0.0
  0
INSERT
  5
281
330
213
100
AcDbEntity
  8
Layer 1
100
AcDbBlockReference
  2
block 94
 10
0.0
 20
0.0
 30
0.0
  0
INSERT
  5
29B
330
213
100
AcDbEntity
  8
Layer 1
100
AcDbBlockReference
  2
block 98
 10
0.0
 20
0.0
 30
0.0
  0
INSERT
  5
2B4
330
213
100
AcDbEntity
  8
Layer 1
100
AcDbBlockReference
  2
block 102
 10
0.0
 20
0.0
 30
0.0
  0
ENDBLK
  5
216
330
213
100
AcDbEntity
  8
0
100
AcDbBlockEnd
  0
BLOCK
  5
219
330
217
100
AcDbEntity
  8
0
100
AcDbBlockBegin
  2
block 78
 70
     0
 10
0.0
 20
0.0
 30
0.0
  3
block 78
  1

  0
INSERT
  5
21C
330
217
100
AcDbEntity
  8
Layer 1
100
AcDbBlockReference
  2
block 79
 10
0.0
 20
0.0
 30
0.0
  0
INSERT
  5
221
330
217
100
AcDbEntity
  8
Layer 1
100
AcDbBlockReference
  2
block 80
 10
0.0
 20
0.0
 30
0.0
  0
INSERT
  5
226
330
217
100
AcDbEntity
  8
Layer 1
100
AcDbBlockReference
  2
block 81
 10
0.0
 20
0.0
 30
0.0
  0
ENDBLK
  5
21A
330
217
100
AcDbEntity
  8
0
100
AcDbBlockEnd
  0
BLOCK
  5
21D
330
21B
100
AcDbEntity
  8
0
100
AcDbBlockBegin
  2
block 79
 70
     0
 10
0.0
 20
0.0
 30
0.0
  3
block 79
  1

  0
SPLINE
  5
21F
330
21B
100
AcDbEntity
  8
Layer 1
 62
     7
420
 16777215
370
    25
100
AcDbSpline
210
0.0
220
0.0
230
1.0
 70
    11
 71
     3
 72
    20
 73
    16
 74
     0
 42
0.0000000001
 43
0.0000000001
 12
1.0
 22
0.0
 32
0.0
 13
1.0
 23
0.0
 33
0.0
 40
0.0
 40
0.0
 40
0.0
 40
0.0
 40
1.0
 40
1.0
 40
1.0
 40
2.0
 40
2.0
 40
2.0
 40
3.0
 40
3.0
 40
3.0
 40
4.0
 40
4.0
 40
4.0
 40
5.0
 40
5.0
 40
5.0
 40
5.0
 10
144.5292598143066
 20
-106.5516400541503
 30
0.0
 10
144.5292598143066
 20
-105.99935530432
 30
0.0
 10
144.9769750644763
 20
-105.5516400541509
 30
0.0
 10
145.5292598143066
 20
-105.5516400541509
 30
0.0
 10
146.0815445641369
 20
-105.5516400541509
 30
0.0
 10
146.5292598143067
 20
-105.99935530432
 30
0.0
 10
146.5292598143067
 20
-106.5516400541503
 30
0.0
 10
146.5292598143067
 20
-107.1039248039819
 30
0.0
 10
146.0815445641369
 20
-107.551640054151
 30
0.0
 10
145.5292598143066
 20
-107.551640054151
 30
0.0
 10
144.9769750644763
 20
-107.551640054151
 30
0.0
 10
144.5292598143066
 20
-107.1039248039819
 30
0.0
 10
144.5292598143066
 20
-106.5516400541503
 30
0.0
 10
144.5292598143066
 20
-106.5516400541503
 30
0.0
 10
144.5292598143066
 20
-106.5516400541503
 30
0.0
 10
144.5292598143066
 20
-106.5516400541503
 30
0.0
  0
ENDBLK
  5
21E
330
21B
100
AcDbEntity
  8
0
100
AcDbBlockEnd
  0
BLOCK
  5
222
330
220
100
AcDbEntity
  8
0
100
AcDbBlockBegin
  2
block 80
 70
     0
 10
0.0
 20
0.0
 30
0.0
  3
block 80
  1

  0
SPLINE
  5
224
330
220
100
AcDbEntity
  8
Layer 1
 62
     7
420
 16777215
370
    25
100
AcDbSpline
210
0.0
220
0.0
230
1.0
 70
    11
 71
     3
 72
    20
 73
    16
 74
     0
 42
0.0000000001
 43
0.0000000001
 12
1.0
 22
0.0
 32
0.0
 13
1.0
 23
0.0
 33
0.0
 40
0.0
 40
0.0
 40
0.0
 40
0.0
 40
1.0
 40
1.0
 40
1.0
 40
2.0
 40
2.0
 40
2.0
 40
3.0
 40
3.0
 40
3.0
 40
4.0
 40
4.0
 40
4.0
 40
5.0
 40
5.0
 40
5.0
 40
5.0
 10
190.4715308882999
 20
-109.1934443481359
 30
0.0
 10
190.4715308882999
 20
-108.6411595983056
 30
0.0
 10
190.919246138469
 20
-108.1934443481365
 30
0.0
 10
191.4715308882993
 20
-108.1934443481365
 30
0.0
 10
192.0238156381309
 20
-108.1934443481365
 30
0.0
 10
192.4715308883
 20
-108.6411595983056
 30
0.0
 10
192.4715308883
 20
-109.1934443481359
 30
0.0
 10
192.4715308883
 20
-109.7457290979675
 30
0.0
 10
192.0238156381309
 20
-110.1934443481366
 30
0.0
 10
191.4715308882993
 20
-110.1934443481366
 30
0.0
 10
190.919246138469
 20
-110.1934443481366
 30
0.0
 10
190.4715308882999
 20
-109.7457290979675
 30
0.0
 10
190.4715308882999
 20
-109.1934443481359
 30
0.0
 10
190.4715308882999
 20
-109.1934443481359
 30
0.0
 10
190.4715308882999
 20
-109.1934443481359
 30
0.0
 10
190.4715308882999
 20
-109.1934443481359
 30
0.0
  0
ENDBLK
  5
223
330
220
100
AcDbEntity
  8
0
100
AcDbBlockEnd
  0
BLOCK
  5
227
330
225
100
AcDbEntity
  8
0
100
AcDbBlockBegin
  2
block 81
 70
     0
 10
0.0
 20
0.0
 30
0.0
  3
block 81
  1

  0
POLYLINE
  5
229
330
225
100
AcDbEntity
  8
Layer 1
 62
     7
420
 16777215
370
    25
100
AcDb2dPolyline
 66
     1
 10
0.0
 20
0.0
 30
0.0
  0
VERTEX
  5
22A
330
229
100
AcDbEntity
  8
Layer 1
 62
     7
420
 16777215
370
    25
100
AcDbVertex
100
AcDb2dVertex
 10
142.9242781701923
 20
-101.8164241098867
 30
0.0
  0
VERTEX
  5
22B
330
229
100
AcDbEntity
  8
Layer 1
 62
     7
420
 16777215
370
    25
100
AcDbVertex
100
AcDb2dVertex
 10
180.1333888316045
 20
-102.7893443802266
 30
0.0
  0
VERTEX
  5
22C
330
229
100
AcDbEntity
  8
Layer 1
 62
     7
420
 16777215
370
    25
100
AcDbVertex
100
AcDb2dVertex
 10
194.9229277786162
 20
-104.0574911485177
 30
0.0
  0
VERTEX
  5
22D
330
229
100
AcDbEntity
  8
Layer 1
 62
     7
420
 16777215
370
    25
100
AcDbVertex
100
AcDb2dVertex
 10
193.9846200181426
 20
-115.0003406000253
 30
0.0
  0
VERTEX
  5
22E
330
229
100
AcDbEntity
  8
Layer 1
 62
     7
420
 16777215
370
    25
100
AcDbVertex
100
AcDb2dVertex
 10
148.1032742518532
 20
-111.6480056059121
 30
0.0
  0
VERTEX
  5
22F
330
229
100
AcDbEntity
  8
Layer 1
 62
     7
420
 16777215
370
    25
100
AcDbVertex
100
AcDb2dVertex
 10
142.1252105945198
 20
-111.1354093623892
 30
0.0
  0
VERTEX
  5
230
330
229
100
AcDbEntity
  8
Layer 1
 62
     7
420
 16777215
370
    25
100
AcDbVertex
100
AcDb2dVertex
 10
142.9242781701923
 20
-101.8164241098867
 30
0.0
  0
SEQEND
  5
231
330
229
100
AcDbEntity
  8
Layer 1
 62
     7
420
 16777215
370
    25
  0
ENDBLK
  5
228
330
225
100
AcDbEntity
  8
0
100
AcDbBlockEnd
  0
BLOCK
  5
234
330
232
100
AcDbEntity
  8
0
100
AcDbBlockBegin
  2
block 82
 70
     0
 10
0.0
 20
0.0
 30
0.0
  3
block 82
  1

  0
INSERT
  5
237
330
232
100
AcDbEntity
  8
Layer 1
100
AcDbBlockReference
  2
block 83
 10
0.0
 20
0.0
 30
0.0
  0
INSERT
  5
23C
330
232
100
AcDbEntity
  8
Layer 1
100
AcDbBlockReference
  2
block 84
 10
0.0
 20
0.0
 30
0.0
  0
INSERT
  5
241
330
232
100
AcDbEntity
  8
Layer 1
100
AcDbBlockReference
  2
block 85
 10
0.0
 20
0.0
 30
0.0
  0
ENDBLK
  5
235
330
232
100
AcDbEntity
  8
0
100
AcDbBlockEnd
  0
BLOCK
  5
238
330
236
100
AcDbEntity
  8
0
100
AcDbBlockBegin
  2
block 83
 70
     0
 10
0.0
 20
0.0
 30
0.0
  3
block 83
  1

  0
SPLINE
  5
23A
330
236
100
AcDbEntity
  8
Layer 1
 62
     7
420
 16777215
370
    25
100
AcDbSpline
210
0.0
220
0.0
230
1.0
 70
    11
 71
     3
 72
    20
 73
    16
 74
     0
 42
0.0000000001
 43
0.0000000001
 12
1.0
 22
0.0
 32
0.0
 13
1.0
 23
0.0
 33
0.0
 40
0.0
 40
0.0
 40
0.0
 40
0.0
 40
1.0
 40
1.0
 40
1.0
 40
2.0
 40
2.0
 40
2.0
 40
3.0
 40
3.0
 40
3.0
 40
4.0
 40
4.0
 40
4.0
 40
5.0
 40
5.0
 40
5.0
 40
5.0
 10
143.6320190079683
 20
-117.1040531938054
 30
0.0
 10
143.6320190079683
 20
-116.5517684439751
 30
0.0
 10
144.079734258138
 20
-116.104053193806
 30
0.0
 10
144.6320190079683
 20
-116.104053193806
 30
0.0
 10
145.1843037577986
 20
-116.104053193806
 30
0.0
 10
145.6320190079683
 20
-116.5517684439751
 30
0.0
 10
145.6320190079683
 20
-117.1040531938054
 30
0.0
 10
145.6320190079683
 20
-117.656337943637
 30
0.0
 10
145.1843037577986
 20
-118.1040531938061
 30
0.0
 10
144.6320190079683
 20
-118.1040531938061
 30
0.0
 10
144.079734258138
 20
-118.1040531938061
 30
0.0
 10
143.6320190079683
 20
-117.656337943637
 30
0.0
 10
143.6320190079683
 20
-117.1040531938054
 30
0.0
 10
143.6320190079683
 20
-117.1040531938054
 30
0.0
 10
143.6320190079683
 20
-117.1040531938054
 30
0.0
 10
143.6320190079683
 20
-117.1040531938054
 30
0.0
  0
ENDBLK
  5
239
330
236
100
AcDbEntity
  8
0
100
AcDbBlockEnd
  0
BLOCK
  5
23D
330
23B
100
AcDbEntity
  8
0
100
AcDbBlockBegin
  2
block 84
 70
     0
 10
0.0
 20
0.0
 30
0.0
  3
block 84
  1

  0
SPLINE
  5
23F
330
23B
100
AcDbEntity
  8
Layer 1
 62
     7
420
 16777215
370
    25
100
AcDbSpline
210
0.0
220
0.0
230
1.0
 70
    11
 71
     3
 72
    20
 73
    16
 74
     0
 42
0.0000000001
 43
0.0000000001
 12
1.0
 22
0.0
 32
0.0
 13
1.0
 23
0.0
 33
0.0
 40
0.0
 40
0.0
 40
0.0
 40
0.0
 40
1.0
 40
1.0
 40
1.0
 40
2.0
 40
2.0
 40
2.0
 40
3.0
 40
3.0
 40
3.0
 40
4.0
 40
4.0
 40
4.0
 40
5.0
 40
5.0
 40
5.0
 40
5.0
 10
189.5444096680845
 20
-120.0126583071657
 30
0.0
 10
189.5444096680845
 20
-119.4603735573353
 30
0.0
 10
189.9921249182536
 20
-119.012658307165
 30
0.0
 10
190.5444096680839
 20
-119.012658307165
 30
0.0
 10
191.0966944179155
 20
-119.012658307165
 30
0.0
 10
191.5444096680846
 20
-119.4603735573353
 30
0.0
 10
191.5444096680846
 20
-120.0126583071657
 30
0.0
 10
191.5444096680846
 20
-120.564943056996
 30
0.0
 10
191.0966944179155
 20
-121.012658307165
 30
0.0
 10
190.5444096680839
 20
-121.012658307165
 30
0.0
 10
189.9921249182536
 20
-121.012658307165
 30
0.0
 10
189.5444096680845
 20
-120.564943056996
 30
0.0
 10
189.5444096680845
 20
-120.0126583071657
 30
0.0
 10
189.5444096680845
 20
-120.0126583071657
 30
0.0
 10
189.5444096680845
 20
-120.0126583071657
 30
0.0
 10
189.5444096680845
 20
-120.0126583071657
 30
0.0
  0
ENDBLK
  5
23E
330
23B
100
AcDbEntity
  8
0
100
AcDbBlockEnd
  0
BLOCK
  5
242
330
240
100
AcDbEntity
  8
0
100
AcDbBlockBegin
  2
block 85
 70
     0
 10
0.0
 20
0.0
 30
0.0
  3
block 85
  1

  0
POLYLINE
  5
244
330
240
100
AcDbEntity
  8
Layer 1
 62
     7
420
 16777215
370
    25
100
AcDb2dPolyline
 66
     1
 10
0.0
 20
0.0
 30
0.0
  0
VERTEX
  5
245
330
244
100
AcDbEntity
  8
Layer 1
 62
     7
420
 16777215
370
    25
100
AcDbVertex
100
AcDb2dVertex
 10
193.2548129774778
 20
-123.8749198848848
 30
0.0
  0
VERTEX
  5
246
330
244
100
AcDbEntity
  8
Layer 1
 62
     7
420
 16777215
370
    25
100
AcDbVertex
100
AcDb2dVertex
 10
147.2494485010744
 20
-122.1691088704354
 30
0.0
  0
VERTEX
  5
247
330
244
100
AcDbEntity
  8
Layer 1
 62
     7
420
 16777215
370
    25
100
AcDbVertex
100
AcDb2dVertex
 10
141.2672936064374
 20
-121.7066990775378
 30
0.0
  0
VERTEX
  5
248
330
244
100
AcDbEntity
  8
Layer 1
 62
     7
420
 16777215
370
    25
100
AcDbVertex
100
AcDb2dVertex
 10
142.0270008075552
 20
-111.8784337132196
 30
0.0
  0
VERTEX
  5
249
330
244
100
AcDbEntity
  8
Layer 1
 62
     7
420
 16777215
370
    25
100
AcDbVertex
100
AcDb2dVertex
 10
193.8723432277446
 20
-115.8859852516666
 30
0.0
  0
VERTEX
  5
24A
330
244
100
AcDbEntity
  8
Layer 1
 62
     7
420
 16777215
370
    25
100
AcDbVertex
100
AcDb2dVertex
 10
193.2548129774778
 20
-123.8749198848848
 30
0.0
  0
SEQEND
  5
24B
330
244
100
AcDbEntity
  8
Layer 1
 62
     7
420
 16777215
370
    25
  0
ENDBLK
  5
243
330
240
100
AcDbEntity
  8
0
100
AcDbBlockEnd
  0
BLOCK
  5
24E
330
24C
100
AcDbEntity
  8
0
100
AcDbBlockBegin
  2
block 86
 70
     0
 10
0.0
 20
0.0
 30
0.0
  3
block 86
  1

  0
INSERT
  5
251
330
24C
100
AcDbEntity
  8
Layer 1
100
AcDbBlockReference
  2
block 87
 10
0.0
 20
0.0
 30
0.0
  0
INSERT
  5
256
330
24C
100
AcDbEntity
  8
Layer 1
100
AcDbBlockReference
  2
block 88
 10
0.0
 20
0.0
 30
0.0
  0
INSERT
  5
25B
330
24C
100
AcDbEntity
  8
Layer 1
100
AcDbBlockReference
  2
block 89
 10
0.0
 20
0.0
 30
0.0
  0
ENDBLK
  5
24F
330
24C
100
AcDbEntity
  8
0
100
AcDbBlockEnd
  0
BLOCK
  5
252
330
250
100
AcDbEntity
  8
0
100
AcDbBlockBegin
  2
block 87
 70
     0
 10
0.0
 20
0.0
 30
0.0
  3
block 87
  1

  0
SPLINE
  5
254
330
250
100
AcDbEntity
  8
Layer 1
 62
     7
420
 16777215
370
    25
100
AcDbSpline
210
0.0
220
0.0
230
1.0
 70
    11
 71
     3
 72
    20
 73
    16
 74
     0
 42
0.0000000001
 43
0.0000000001
 12
1.0
 22
0.0
 32
0.0
 13
1.0
 23
0.0
 33
0.0
 40
0.0
 40
0.0
 40
0.0
 40
0.0
 40
1.0
 40
1.0
 40
1.0
 40
2.0
 40
2.0
 40
2.0
 40
3.0
 40
3.0
 40
3.0
 40
4.0
 40
4.0
 40
4.0
 40
5.0
 40
5.0
 40
5.0
 40
5.0
 10
143.58231777376
 20
-127.7466951472907
 30
0.0
 10
143.58231777376
 20
-127.1944103974591
 30
0.0
 10
144.030033023929
 20
-126.74669514729
 30
0.0
 10
144.58231777376
 20
-126.74669514729
 30
0.0
 10
145.134602523591
 20
-126.74669514729
 30
0.0
 10
145.58231777376
 20
-127.1944103974591
 30
0.0
 10
145.58231777376
 20
-127.7466951472907
 30
0.0
 10
145.58231777376
 20
-128.298979897121
 30
0.0
 10
145.134602523591
 20
-128.7466951472901
 30
0.0
 10
144.58231777376
 20
-128.7466951472901
 30
0.0
 10
144.030033023929
 20
-128.7466951472901
 30
0.0
 10
143.58231777376
 20
-128.298979897121
 30
0.0
 10
143.58231777376
 20
-127.7466951472907
 30
0.0
 10
143.58231777376
 20
-127.7466951472907
 30
0.0
 10
143.58231777376
 20
-127.7466951472907
 30
0.0
 10
143.58231777376
 20
-127.7466951472907
 30
0.0
  0
ENDBLK
  5
253
330
250
100
AcDbEntity
  8
0
100
AcDbBlockEnd
  0
BLOCK
  5
257
330
255
100
AcDbEntity
  8
0
100
AcDbBlockBegin
  2
block 88
 70
     0
 10
0.0
 20
0.0
 30
0.0
  3
block 88
  1

  0
SPLINE
  5
259
330
255
100
AcDbEntity
  8
Layer 1
 62
     7
420
 16777215
370
    25
100
AcDbSpline
210
0.0
220
0.0
230
1.0
 70
    11
 71
     3
 72
    20
 73
    16
 74
     0
 42
0.0000000001
 43
0.0000000001
 12
1.0
 22
0.0
 32
0.0
 13
1.0
 23
0.0
 33
0.0
 40
0.0
 40
0.0
 40
0.0
 40
0.0
 40
1.0
 40
1.0
 40
1.0
 40
2.0
 40
2.0
 40
2.0
 40
3.0
 40
3.0
 40
3.0
 40
4.0
 40
4.0
 40
4.0
 40
5.0
 40
5.0
 40
5.0
 40
5.0
 10
189.5751744699106
 20
-128.7475481440279
 30
0.0
 10
189.5751744699106
 20
-128.1952633941964
 30
0.0
 10
190.0228897200796
 20
-127.7475481440273
 30
0.0
 10
190.5751744699112
 20
-127.7475481440273
 30
0.0
 10
191.1274592197416
 20
-127.7475481440273
 30
0.0
 10
191.5751744699106
 20
-128.1952633941964
 30
0.0
 10
191.5751744699106
 20
-128.7475481440279
 30
0.0
 10
191.5751744699106
 20
-129.2998328938583
 30
0.0
 10
191.1274592197416
 20
-129.7475481440273
 30
0.0
 10
190.5751744699112
 20
-129.7475481440273
 30
0.0
 10
190.0228897200796
 20
-129.7475481440273
 30
0.0
 10
189.5751744699106
 20
-129.2998328938583
 30
0.0
 10
189.5751744699106
 20
-128.7475481440279
 30
0.0
 10
189.5751744699106
 20
-128.7475481440279
 30
0.0
 10
189.5751744699106
 20
-128.7475481440279
 30
0.0
 10
189.5751744699106
 20
-128.7475481440279
 30
0.0
  0
ENDBLK
  5
258
330
255
100
AcDbEntity
  8
0
100
AcDbBlockEnd
  0
BLOCK
  5
25C
330
25A
100
AcDbEntity
  8
0
100
AcDbBlockBegin
  2
block 89
 70
     0
 10
0.0
 20
0.0
 30
0.0
  3
block 89
  1

  0
POLYLINE
  5
25E
330
25A
100
AcDbEntity
  8
Layer 1
 62
     7
420
 16777215
370
    25
100
AcDb2dPolyline
 66
     1
 10
0.0
 20
0.0
 30
0.0
  0
VERTEX
  5
25F
330
25E
100
AcDbEntity
  8
Layer 1
 62
     7
420
 16777215
370
    25
100
AcDbVertex
100
AcDb2dVertex
 10
193.4234841980802
 20
-133.1921259665475
 30
0.0
  0
VERTEX
  5
260
330
25E
100
AcDbEntity
  8
Layer 1
 62
     7
420
 16777215
370
    25
100
AcDbVertex
100
AcDb2dVertex
 10
147.411921636343
 20
-132.7329757948795
 30
0.0
  0
VERTEX
  5
261
330
25E
100
AcDbEntity
  8
Layer 1
 62
     7
420
 16777215
370
    25
100
AcDbVertex
100
AcDb2dVertex
 10
141.4154957345752
 20
-132.5259096107546
 30
0.0
  0
VERTEX
  5
262
330
25E
100
AcDbEntity
  8
Layer 1
 62
     7
420
 16777215
370
    25
100
AcDbVertex
100
AcDb2dVertex
 10
141.7551166176192
 20
-122.6908345670752
 30
0.0
  0
VERTEX
  5
263
330
25E
100
AcDbEntity
  8
Layer 1
 62
     7
420
 16777215
370
    25
100
AcDbVertex
100
AcDb2dVertex
 10
193.7241410996074
 20
-124.4854081628159
 30
0.0
  0
VERTEX
  5
264
330
25E
100
AcDbEntity
  8
Layer 1
 62
     7
420
 16777215
370
    25
100
AcDbVertex
100
AcDb2dVertex
 10
193.4234841980802
 20
-133.1921259665475
 30
0.0
  0
SEQEND
  5
265
330
25E
100
AcDbEntity
  8
Layer 1
 62
     7
420
 16777215
370
    25
  0
ENDBLK
  5
25D
330
25A
100
AcDbEntity
  8
0
100
AcDbBlockEnd
  0
BLOCK
  5
268
330
266
100
AcDbEntity
  8
0
100
AcDbBlockBegin
  2
block 90
 70
     0
 10
0.0
 20
0.0
 30
0.0
  3
block 90
  1

  0
INSERT
  5
26B
330
266
100
AcDbEntity
  8
Layer 1
100
AcDbBlockReference
  2
block 91
 10
0.0
 20
0.0
 30
0.0
  0
INSERT
  5
270
330
266
100
AcDbEntity
  8
Layer 1
100
AcDbBlockReference
  2
block 92
 10
0.0
 20
0.0
 30
0.0
  0
INSERT
  5
275
330
266
100
AcDbEntity
  8
Layer 1
100
AcDbBlockReference
  2
block 93
 10
0.0
 20
0.0
 30
0.0
  0
ENDBLK
  5
269
330
266
100
AcDbEntity
  8
0
100
AcDbBlockEnd
  0
BLOCK
  5
26C
330
26A
100
AcDbEntity
  8
0
100
AcDbBlockBegin
  2
block 91
 70
     0
 10
0.0
 20
0.0
 30
0.0
  3
block 91
  1

  0
SPLINE
  5
26E
330
26A
100
AcDbEntity
  8
Layer 1
 62
     7
420
 16777215
370
    25
100
AcDbSpline
210
0.0
220
0.0
230
1.0
 70
    11
 71
     3
 72
    20
 73
    16
 74
     0
 42
0.0000000001
 43
0.0000000001
 12
1.0
 22
0.0
 32
0.0
 13
1.0
 23
0.0
 33
0.0
 40
0.0
 40
0.0
 40
0.0
 40
0.0
 40
1.0
 40
1.0
 40
1.0
 40
2.0
 40
2.0
 40
2.0
 40
3.0
 40
3.0
 40
3.0
 40
4.0
 40
4.0
 40
4.0
 40
5.0
 40
5.0
 40
5.0
 40
5.0
 10
143.5711074632625
 20
-138.1665678326989
 30
0.0
 10
143.5711074632625
 20
-137.6142830828672
 30
0.0
 10
144.0188227134315
 20
-137.1665678326982
 30
0.0
 10
144.5711074632631
 20
-137.1665678326982
 30
0.0
 10
145.1233922130934
 20
-137.1665678326982
 30
0.0
 10
145.5711074632625
 20
-137.6142830828672
 30
0.0
 10
145.5711074632625
 20
-138.1665678326989
 30
0.0
 10
145.5711074632625
 20
-138.7188525825292
 30
0.0
 10
145.1233922130934
 20
-139.1665678326982
 30
0.0
 10
144.5711074632631
 20
-139.1665678326982
 30
0.0
 10
144.0188227134315
 20
-139.1665678326982
 30
0.0
 10
143.5711074632625
 20
-138.7188525825292
 30
0.0
 10
143.5711074632625
 20
-138.1665678326989
 30
0.0
 10
143.5711074632625
 20
-138.1665678326989
 30
0.0
 10
143.5711074632625
 20
-138.1665678326989
 30
0.0
 10
143.5711074632625
 20
-138.1665678326989
 30
0.0
  0
ENDBLK
  5
26D
330
26A
100
AcDbEntity
  8
0
100
AcDbBlockEnd
  0
BLOCK
  5
271
330
26F
100
AcDbEntity
  8
0
100
AcDbBlockBegin
  2
block 92
 70
     0
 10
0.0
 20
0.0
 30
0.0
  3
block 92
  1

  0
SPLINE
  5
273
330
26F
100
AcDbEntity
  8
Layer 1
 62
     7
420
 16777215
370
    25
100
AcDbSpline
210
0.0
220
0.0
230
1.0
 70
    11
 71
     3
 72
    20
 73
    16
 74
     0
 42
0.0000000001
 43
0.0000000001
 12
1.0
 22
0.0
 32
0.0
 13
1.0
 23
0.0
 33
0.0
 40
0.0
 40
0.0
 40
0.0
 40
0.0
 40
1.0
 40
1.0
 40
1.0
 40
2.0
 40
2.0
 40
2.0
 40
3.0
 40
3.0
 40
3.0
 40
4.0
 40
4.0
 40
4.0
 40
5.0
 40
5.0
 40
5.0
 40
5.0
 10
189.5762367195896
 20
-137.9382827321865
 30
0.0
 10
189.5762367195896
 20
-137.3859979823561
 30
0.0
 10
190.0239519697586
 20
-136.938282732187
 30
0.0
 10
190.5762367195889
 20
-136.938282732187
 30
0.0
 10
191.1285214694205
 20
-136.938282732187
 30
0.0
 10
191.5762367195896
 20
-137.3859979823561
 30
0.0
 10
191.5762367195896
 20
-137.9382827321865
 30
0.0
 10
191.5762367195896
 20
-138.4905674820168
 30
0.0
 10
191.1285214694205
 20
-138.9382827321859
 30
0.0
 10
190.5762367195889
 20
-138.9382827321859
 30
0.0
 10
190.0239519697586
 20
-138.9382827321859
 30
0.0
 10
189.5762367195896
 20
-138.4905674820168
 30
0.0
 10
189.5762367195896
 20
-137.9382827321865
 30
0.0
 10
189.5762367195896
 20
-137.9382827321865
 30
0.0
 10
189.5762367195896
 20
-137.9382827321865
 30
0.0
 10
189.5762367195896
 20
-137.9382827321865
 30
0.0
  0
ENDBLK
  5
272
330
26F
100
AcDbEntity
  8
0
100
AcDbBlockEnd
  0
BLOCK
  5
276
330
274
100
AcDbEntity
  8
0
100
AcDbBlockBegin
  2
block 93
 70
     0
 10
0.0
 20
0.0
 30
0.0
  3
block 93
  1

  0
POLYLINE
  5
278
330
274
100
AcDbEntity
  8
Layer 1
 62
     7
420
 16777215
370
    25
100
AcDb2dPolyline
 66
     1
 10
0.0
 20
0.0
 30
0.0
  0
VERTEX
  5
279
330
278
100
AcDbEntity
  8
Layer 1
 62
     7
420
 16777215
370
    25
100
AcDbVertex
100
AcDb2dVertex
 10
193.5318654576848
 20
-142.0728230764677
 30
0.0
  0
VERTEX
  5
27A
330
278
100
AcDbEntity
  8
Layer 1
 62
     7
420
 16777215
370
    25
100
AcDbVertex
100
AcDb2dVertex
 10
147.5177786099719
 20
-143.1325193761195
 30
0.0
  0
VERTEX
  5
27B
330
278
100
AcDbEntity
  8
Layer 1
 62
     7
420
 16777215
370
    25
100
AcDbVertex
100
AcDb2dVertex
 10
141.5181268143309
 20
-143.0678793649008
 30
0.0
  0
VERTEX
  5
27C
330
278
100
AcDbEntity
  8
Layer 1
 62
     7
420
 16777215
370
    25
100
AcDbVertex
100
AcDb2dVertex
 10
141.6245277909546
 20
-133.1921259665475
 30
0.0
  0
VERTEX
  5
27D
330
278
100
AcDbEntity
  8
Layer 1
 62
     7
420
 16777215
370
    25
100
AcDbVertex
100
AcDb2dVertex
 10
193.6215100198518
 20
-133.7523393971052
 30
0.0
  0
VERTEX
  5
27E
330
278
100
AcDbEntity
  8
Layer 1
 62
     7
420
 16777215
370
    25
100
AcDbVertex
100
AcDb2dVertex
 10
193.5318654576848
 20
-142.0728230764677
 30
0.0
  0
SEQEND
  5
27F
330
278
100
AcDbEntity
  8
Layer 1
 62
     7
420
 16777215
370
    25
  0
ENDBLK
  5
277
330
274
100
AcDbEntity
  8
0
100
AcDbBlockEnd
  0
BLOCK
  5
282
330
280
100
AcDbEntity
  8
0
100
AcDbBlockBegin
  2
block 94
 70
     0
 10
0.0
 20
0.0
 30
0.0
  3
block 94
  1

  0
INSERT
  5
285
330
280
100
AcDbEntity
  8
Layer 1
100
AcDbBlockReference
  2
block 95
 10
0.0
 20
0.0
 30
0.0
  0
INSERT
  5
28A
330
280
100
AcDbEntity
  8
Layer 1
100
AcDbBlockReference
  2
block 96
 10
0.0
 20
0.0
 30
0.0
  0
INSERT
  5
28F
330
280
100
AcDbEntity
  8
Layer 1
100
AcDbBlockReference
  2
block 97
 10
0.0
 20
0.0
 30
0.0
  0
ENDBLK
  5
283
330
280
100
AcDbEntity
  8
0
100
AcDbBlockEnd
  0
BLOCK
  5
286
330
284
100
AcDbEntity
  8
0
100
AcDbBlockBegin
  2
block 95
 70
     0
 10
0.0
 20
0.0
 30
0.0
  3
block 95
  1

  0
SPLINE
  5
288
330
284
100
AcDbEntity
  8
Layer 1
 62
     7
420
 16777215
370
    25
100
AcDbSpline
210
0.0
220
0.0
230
1.0
 70
    11
 71
     3
 72
    20
 73
    16
 74
     0
 42
0.0000000001
 43
0.0000000001
 12
1.0
 22
0.0
 32
0.0
 13
1.0
 23
0.0
 33
0.0
 40
0.0
 40
0.0
 40
0.0
 40
0.0
 40
1.0
 40
1.0
 40
1.0
 40
2.0
 40
2.0
 40
2.0
 40
3.0
 40
3.0
 40
3.0
 40
4.0
 40
4.0
 40
4.0
 40
5.0
 40
5.0
 40
5.0
 40
5.0
 10
143.5957370901504
 20
-148.6883812854353
 30
0.0
 10
143.5957370901504
 20
-148.136096535605
 30
0.0
 10
144.0434523403194
 20
-147.6883812854359
 30
0.0
 10
144.5957370901504
 20
-147.6883812854359
 30
0.0
 10
145.1480218399814
 20
-147.6883812854359
 30
0.0
 10
145.5957370901505
 20
-148.136096535605
 30
0.0
 10
145.5957370901505
 20
-148.6883812854353
 30
0.0
 10
145.5957370901505
 20
-149.2406660352669
 30
0.0
 10
145.1480218399814
 20
-149.688381285436
 30
0.0
 10
144.5957370901504
 20
-149.688381285436
 30
0.0
 10
144.0434523403194
 20
-149.688381285436
 30
0.0
 10
143.5957370901504
 20
-149.2406660352669
 30
0.0
 10
143.5957370901504
 20
-148.6883812854353
 30
0.0
 10
143.5957370901504
 20
-148.6883812854353
 30
0.0
 10
143.5957370901504
 20
-148.6883812854353
 30
0.0
 10
143.5957370901504
 20
-148.6883812854353
 30
0.0
  0
ENDBLK
  5
287
330
284
100
AcDbEntity
  8
0
100
AcDbBlockEnd
  0
BLOCK
  5
28B
330
289
100
AcDbEntity
  8
0
100
AcDbBlockBegin
  2
block 96
 70
     0
 10
0.0
 20
0.0
 30
0.0
  3
block 96
  1

  0
SPLINE
  5
28D
330
289
100
AcDbEntity
  8
Layer 1
 62
     7
420
 16777215
370
    25
100
AcDbSpline
210
0.0
220
0.0
230
1.0
 70
    11
 71
     3
 72
    20
 73
    16
 74
     0
 42
0.0000000001
 43
0.0000000001
 12
1.0
 22
0.0
 32
0.0
 13
1.0
 23
0.0
 33
0.0
 40
0.0
 40
0.0
 40
0.0
 40
0.0
 40
1.0
 40
1.0
 40
1.0
 40
2.0
 40
2.0
 40
2.0
 40
3.0
 40
3.0
 40
3.0
 40
4.0
 40
4.0
 40
4.0
 40
5.0
 40
5.0
 40
5.0
 40
5.0
 10
189.5646558975693
 20
-146.8641096830046
 30
0.0
 10
189.5646558975693
 20
-146.3118249331743
 30
0.0
 10
190.012371147739
 20
-145.8641096830052
 30
0.0
 10
190.5646558975693
 20
-145.8641096830052
 30
0.0
 10
191.1169406474002
 20
-145.8641096830052
 30
0.0
 10
191.5646558975693
 20
-146.3118249331743
 30
0.0
 10
191.5646558975693
 20
-146.8641096830046
 30
0.0
 10
191.5646558975693
 20
-147.4163944328349
 30
0.0
 10
191.1169406474002
 20
-147.8641096830053
 30
0.0
 10
190.5646558975693
 20
-147.8641096830053
 30
0.0
 10
190.012371147739
 20
-147.8641096830053
 30
0.0
 10
189.5646558975693
 20
-147.4163944328349
 30
0.0
 10
189.5646558975693
 20
-146.8641096830046
 30
0.0
 10
189.5646558975693
 20
-146.8641096830046
 30
0.0
 10
189.5646558975693
 20
-146.8641096830046
 30
0.0
 10
189.5646558975693
 20
-146.8641096830046
 30
0.0
  0
ENDBLK
  5
28C
330
289
100
AcDbEntity
  8
0
100
AcDbBlockEnd
  0
BLOCK
  5
290
330
28E
100
AcDbEntity
  8
0
100
AcDbBlockBegin
  2
block 97
 70
     0
 10
0.0
 20
0.0
 30
0.0
  3
block 97
  1

  0
POLYLINE
  5
292
330
28E
100
AcDbEntity
  8
Layer 1
 62
     7
420
 16777215
370
    25
100
AcDb2dPolyline
 66
     1
 10
0.0
 20
0.0
 30
0.0
  0
VERTEX
  5
293
330
292
100
AcDbEntity
  8
Layer 1
 62
     7
420
 16777215
370
    25
100
AcDbVertex
100
AcDb2dVertex
 10
193.6635997948349
 20
-150.8206253809697
 30
0.0
  0
VERTEX
  5
294
330
292
100
AcDbEntity
  8
Layer 1
 62
     7
420
 16777215
370
    25
100
AcDbVertex
100
AcDb2dVertex
 10
147.7201940593199
 20
-153.6746811607734
 30
0.0
  0
VERTEX
  5
295
330
292
100
AcDbEntity
  8
Layer 1
 62
     7
420
 16777215
370
    25
100
AcDbVertex
100
AcDb2dVertex
 10
141.7220346382972
 20
-153.8232865442697
 30
0.0
  0
VERTEX
  5
296
330
292
100
AcDbEntity
  8
Layer 1
 62
     7
420
 16777215
370
    25
100
AcDbVertex
100
AcDb2dVertex
 10
141.4760370393471
 20
-143.894084916577
 30
0.0
  0
VERTEX
  5
297
330
292
100
AcDbEntity
  8
Layer 1
 62
     7
420
 16777215
370
    25
100
AcDbVertex
100
AcDb2dVertex
 10
193.4600853548726
 20
-142.606171592947
 30
0.0
  0
VERTEX
  5
298
330
292
100
AcDbEntity
  8
Layer 1
 62
     7
420
 16777215
370
    25
100
AcDbVertex
100
AcDb2dVertex
 10
193.6635997948349
 20
-150.8206253809697
 30
0.0
  0
SEQEND
  5
299
330
292
100
AcDbEntity
  8
Layer 1
 62
     7
420
 16777215
370
    25
  0
ENDBLK
  5
291
330
28E
100
AcDbEntity
  8
0
100
AcDbBlockEnd
  0
BLOCK
  5
29C
330
29A
100
AcDbEntity
  8
0
100
AcDbBlockBegin
  2
block 98
 70
     0
 10
0.0
 20
0.0
 30
0.0
  3
block 98
  1

  0
INSERT
  5
29F
330
29A
100
AcDbEntity
  8
Layer 1
100
AcDbBlockReference
  2
block 99
 10
0.0
 20
0.0
 30
0.0
  0
INSERT
  5
2A4
330
29A
100
AcDbEntity
  8
Layer 1
100
AcDbBlockReference
  2
block 100
 10
0.0
 20
0.0
 30
0.0
  0
INSERT
  5
2A9
330
29A
100
AcDbEntity
  8
Layer 1
100
AcDbBlockReference
  2
block 101
 10
0.0
 20
0.0
 30
0.0
  0
ENDBLK
  5
29D
330
29A
100
AcDbEntity
  8
0
100
AcDbBlockEnd
  0
BLOCK
  5
2A0
330
29E
100
AcDbEntity
  8
0
100
AcDbBlockBegin
  2
block 99
 70
     0
 10
0.0
 20
0.0
 30
0.0
  3
block 99
  1

  0
SPLINE
  5
2A2
330
29E
100
AcDbEntity
  8
Layer 1
 62
     7
420
 16777215
370
    25
100
AcDbSpline
210
0.0
220
0.0
230
1.0
 70
    11
 71
     3
 72
    20
 73
    16
 74
     0
 42
0.0000000001
 43
0.0000000001
 12
1.0
 22
0.0
 32
0.0
 13
1.0
 23
0.0
 33
0.0
 40
0.0
 40
0.0
 40
0.0
 40
0.0
 40
1.0
 40
1.0
 40
1.0
 40
2.0
 40
2.0
 40
2.0
 40
3.0
 40
3.0
 40
3.0
 40
4.0
 40
4.0
 40
4.0
 40
5.0
 40
5.0
 40
5.0
 40
5.0
 10
160.9806728913603
 20
-158.6131170530329
 30
0.0
 10
160.9806728913603
 20
-158.0608323032025
 30
0.0
 10
161.4283881415294
 20
-157.6131170530334
 30
0.0
 10
161.980672891361
 20
-157.6131170530334
 30
0.0
 10
162.5329576411913
 20
-157.6131170530334
 30
0.0
 10
162.9806728913603
 20
-158.0608323032025
 30
0.0
 10
162.9806728913603
 20
-158.6131170530329
 30
0.0
 10
162.9806728913603
 20
-159.1654018028644
 30
0.0
 10
162.5329576411913
 20
-159.6131170530335
 30
0.0
 10
161.980672891361
 20
-159.6131170530335
 30
0.0
 10
161.4283881415294
 20
-159.6131170530335
 30
0.0
 10
160.9806728913603
 20
-159.1654018028644
 30
0.0
 10
160.9806728913603
 20
-158.6131170530329
 30
0.0
 10
160.9806728913603
 20
-158.6131170530329
 30
0.0
 10
160.9806728913603
 20
-158.6131170530329
 30
0.0
 10
160.9806728913603
 20
-158.6131170530329
 30
0.0
  0
ENDBLK
  5
2A1
330
29E
100
AcDbEntity
  8
0
100
AcDbBlockEnd
  0
BLOCK
  5
2A5
330
2A3
100
AcDbEntity
  8
0
100
AcDbBlockBegin
  2
block 100
 70
     0
 10
0.0
 20
0.0
 30
0.0
  3
block 100
  1

  0
SPLINE
  5
2A7
330
2A3
100
AcDbEntity
  8
Layer 1
 62
     7
420
 16777215
370
    25
100
AcDbSpline
210
0.0
220
0.0
230
1.0
 70
    11
 71
     3
 72
    20
 73
    16
 74
     0
 42
0.0000000001
 43
0.0000000001
 12
1.0
 22
0.0
 32
0.0
 13
1.0
 23
0.0
 33
0.0
 40
0.0
 40
0.0
 40
0.0
 40
0.0
 40
1.0
 40
1.0
 40
1.0
 40
2.0
 40
2.0
 40
2.0
 40
3.0
 40
3.0
 40
3.0
 40
4.0
 40
4.0
 40
4.0
 40
5.0
 40
5.0
 40
5.0
 40
5.0
 10
206.9823559021517
 20
-157.0492524271159
 30
0.0
 10
206.9823559021517
 20
-156.4969676772843
 30
0.0
 10
207.4300711523207
 20
-156.0492524271152
 30
0.0
 10
207.9823559021523
 20
-156.0492524271152
 30
0.0
 10
208.5346406519827
 20
-156.0492524271152
 30
0.0
 10
208.9823559021517
 20
-156.4969676772843
 30
0.0
 10
208.9823559021517
 20
-157.0492524271159
 30
0.0
 10
208.9823559021517
 20
-157.6015371769462
 30
0.0
 10
208.5346406519827
 20
-158.0492524271153
 30
0.0
 10
207.9823559021523
 20
-158.0492524271153
 30
0.0
 10
207.4300711523207
 20
-158.0492524271153
 30
0.0
 10
206.9823559021517
 20
-157.6015371769462
 30
0.0
 10
206.9823559021517
 20
-157.0492524271159
 30
0.0
 10
206.9823559021517
 20
-157.0492524271159
 30
0.0
 10
206.9823559021517
 20
-157.0492524271159
 30
0.0
 10
206.9823559021517
 20
-157.0492524271159
 30
0.0
  0
ENDBLK
  5
2A6
330
2A3
100
AcDbEntity
  8
0
100
AcDbBlockEnd
  0
BLOCK
  5
2AA
330
2A8
100
AcDbEntity
  8
0
100
AcDbBlockBegin
  2
block 101
 70
     0
 10
0.0
 20
0.0
 30
0.0
  3
block 101
  1

  0
POLYLINE
  5
2AC
330
2A8
100
AcDbEntity
  8
Layer 1
 62
     7
420
 16777215
370
    25
100
AcDb2dPolyline
 66
     1
 10
0.0
 20
0.0
 30
0.0
  0
VERTEX
  5
2AD
330
2AC
100
AcDbEntity
  8
Layer 1
 62
     7
420
 16777215
370
    25
100
AcDbVertex
100
AcDb2dVertex
 10
211.461450499078
 20
-163.8755196381282
 30
0.0
  0
VERTEX
  5
2AE
330
2AC
100
AcDbEntity
  8
Layer 1
 62
     7
420
 16777215
370
    25
100
AcDbVertex
100
AcDb2dVertex
 10
159.3373279435441
 20
-163.8755196381282
 30
0.0
  0
VERTEX
  5
2AF
330
2AC
100
AcDbEntity
  8
Layer 1
 62
     7
420
 16777215
370
    25
100
AcDbVertex
100
AcDb2dVertex
 10
158.6569213334963
 20
-154.0338034678372
 30
0.0
  0
VERTEX
  5
2B0
330
2AC
100
AcDbEntity
  8
Layer 1
 62
     7
420
 16777215
370
    25
100
AcDbVertex
100
AcDb2dVertex
 10
210.5330943495328
 20
-150.4473465518527
 30
0.0
  0
VERTEX
  5
2B1
330
2AC
100
AcDbEntity
  8
Layer 1
 62
     7
420
 16777215
370
    25
100
AcDbVertex
100
AcDb2dVertex
 10
211.461450499078
 20
-163.8755196381282
 30
0.0
  0
SEQEND
  5
2B2
330
2AC
100
AcDbEntity
  8
Layer 1
 62
     7
420
 16777215
370
    25
  0
ENDBLK
  5
2AB
330
2A8
100
AcDbEntity
  8
0
100
AcDbBlockEnd
  0
BLOCK
  5
2B5
330
2B3
100
AcDbEntity
  8
0
100
AcDbBlockBegin
  2
block 102
 70
     0
 10
0.0
 20
0.0
 30
0.0
  3
block 102
  1

  0
INSERT
  5
2B8
330
2B3
100
AcDbEntity
  8
Layer 1
100
AcDbBlockReference
  2
block 103
 10
0.0
 20
0.0
 30
0.0
  0
INSERT
  5
2BD
330
2B3
100
AcDbEntity
  8
Layer 1
100
AcDbBlockReference
  2
block 104
 10
0.0
 20
0.0
 30
0.0
  0
INSERT
  5
2C2
330
2B3
100
AcDbEntity
  8
Layer 1
100
AcDbBlockReference
  2
block 105
 10
0.0
 20
0.0
 30
0.0
  0
INSERT
  5
2C7
330
2B3
100
AcDbEntity
  8
Layer 1
100
AcDbBlockReference
  2
block 106
 10
0.0
 20
0.0
 30
0.0
  0
INSERT
  5
2CC
330
2B3
100
AcDbEntity
  8
Layer 1
100
AcDbBlockReference
  2
block 107
 10
0.0
 20
0.0
 30
0.0
  0
INSERT
  5
2D1
330
2B3
100
AcDbEntity
  8
Layer 1
100
AcDbBlockReference
  2
block 108
 10
0.0
 20
0.0
 30
0.0
  0
INSERT
  5
2D6
330
2B3
100
AcDbEntity
  8
Layer 1
100
AcDbBlockReference
  2
block 109
 10
0.0
 20
0.0
 30
0.0
  0
INSERT
  5
2DB
330
2B3
100
AcDbEntity
  8
Layer 1
100
AcDbBlockReference
  2
block 110
 10
0.0
 20
0.0
 30
0.0
  0
INSERT
  5
2E0
330
2B3
100
AcDbEntity
  8
Layer 1
100
AcDbBlockReference
  2
block 111
 10
0.0
 20
0.0
 30
0.0
  0
INSERT
  5
2E5
330
2B3
100
AcDbEntity
  8
Layer 1
100
AcDbBlockReference
  2
block 112
 10
0.0
 20
0.0
 30
0.0
  0
ENDBLK
  5
2B6
330
2B3
100
AcDbEntity
  8
0
100
AcDbBlockEnd
  0
BLOCK
  5
2B9
330
2B7
100
AcDbEntity
  8
0
100
AcDbBlockBegin
  2
block 103
 70
     0
 10
0.0
 20
0.0
 30
0.0
  3
block 103
  1

  0
SPLINE
  5
2BB
330
2B7
100
AcDbEntity
  8
Layer 1
 62
     7
420
 16777215
370
    25
100
AcDbSpline
210
0.0
220
0.0
230
1.0
 70
    11
 71
     3
 72
    20
 73
    16
 74
     0
 42
0.0000000001
 43
0.0000000001
 12
1.0
 22
0.0
 32
0.0
 13
1.0
 23
0.0
 33
0.0
 40
0.0
 40
0.0
 40
0.0
 40
0.0
 40
1.0
 40
1.0
 40
1.0
 40
2.0
 40
2.0
 40
2.0
 40
3.0
 40
3.0
 40
3.0
 40
4.0
 40
4.0
 40
4.0
 40
5.0
 40
5.0
 40
5.0
 40
5.0
 10
148.8273630925402
 20
-87.83500001926382
 30
0.0
 10
148.8273630925402
 20
-87.0065728945177
 30
0.0
 10
149.4989359677932
 20
-86.33500001926407
 30
0.0
 10
150.3273630925399
 20
-86.33500001926407
 30
0.0
 10
151.1557902172861
 20
-86.33500001926407
 30
0.0
 10
151.8273630925397
 20
-87.0065728945177
 30
0.0
 10
151.8273630925397
 20
-87.83500001926382
 30
0.0
 10
151.8273630925397
 20
-88.66342714400992
 30
0.0
 10
151.1557902172861
 20
-89.33500001926355
 30
0.0
 10
150.3273630925399
 20
-89.33500001926355
 30
0.0
 10
149.4989359677932
 20
-89.33500001926355
 30
0.0
 10
148.8273630925402
 20
-88.66342714400992
 30
0.0
 10
148.8273630925402
 20
-87.83500001926382
 30
0.0
 10
148.8273630925402
 20
-87.83500001926382
 30
0.0
 10
148.8273630925402
 20
-87.83500001926382
 30
0.0
 10
148.8273630925402
 20
-87.83500001926382
 30
0.0
  0
ENDBLK
  5
2BA
330
2B7
100
AcDbEntity
  8
0
100
AcDbBlockEnd
  0
BLOCK
  5
2BE
330
2BC
100
AcDbEntity
  8
0
100
AcDbBlockBegin
  2
block 104
 70
     0
 10
0.0
 20
0.0
 30
0.0
  3
block 104
  1

  0
SPLINE
  5
2C0
330
2BC
100
AcDbEntity
  8
Layer 1
 62
     7
420
 16777215
370
    25
100
AcDbSpline
210
0.0
220
0.0
230
1.0
 70
    11
 71
     3
 72
   110
 73
   106
 74
     0
 42
0.0000000001
 43
0.0000000001
 12
1.0
 22
0.0
 32
0.0
 13
1.0
 23
0.0
 33
0.0
 40
0.0
 40
0.0
 40
0.0
 40
0.0
 40
1.0
 40
1.0
 40
1.0
 40
2.0
 40
2.0
 40
2.0
 40
3.0
 40
3.0
 40
3.0
 40
4.0
 40
4.0
 40
4.0
 40
5.0
 40
5.0
 40
5.0
 40
6.0
 40
6.0
 40
6.0
 40
7.0
 40
7.0
 40
7.0
 40
8.0
 40
8.0
 40
8.0
 40
9.0
 40
9.0
 40
9.0
 40
10.0
 40
10.0
 40
10.0
 40
11.0
 40
11.0
 40
11.0
 40
12.0
 40
12.0
 40
12.0
 40
13.0
 40
13.0
 40
13.0
 40
14.0
 40
14.0
 40
14.0
 40
15.0
 40
15.0
 40
15.0
 40
16.0
 40
16.0
 40
16.0
 40
17.0
 40
17.0
 40
17.0
 40
18.0
 40
18.0
 40
18.0
 40
19.0
 40
19.0
 40
19.0
 40
20.0
 40
20.0
 40
20.0
 40
21.0
 40
21.0
 40
21.0
 40
22.0
 40
22.0
 40
22.0
 40
23.0
 40
23.0
 40
23.0
 40
24.0
 40
24.0
 40
24.0
 40
25.0
 40
25.0
 40
25.0
 40
26.0
 40
26.0
 40
26.0
 40
27.0
 40
27.0
 40
27.0
 40
28.0
 40
28.0
 40
28.0
 40
29.0
 40
29.0
 40
29.0
 40
30.0
 40
30.0
 40
30.0
 40
31.0
 40
31.0
 40
31.0
 40
32.0
 40
32.0
 40
32.0
 40
33.0
 40
33.0
 40
33.0
 40
34.0
 40
34.0
 40
34.0
 40
35.0
 40
35.0
 40
35.0
 40
35.0
 10
134.3273630925394
 20
-163.3768955957348
 30
0.0
 10
134.3273630925394
 20
-163.3768955957348
 30
0.0
 10
124.827364031313
 20
-163.3768955957348
 30
0.0
 10
124.827364031313
 20
-163.3768955957348
 30
0.0
 10
124.827364031313
 20
-163.3768955957348
 30
0.0
 10
124.827364031313
 20
-143.3768955957341
 30
0.0
 10
124.827364031313
 20
-143.3768955957341
 30
0.0
 10
124.827364031313
 20
-143.3768955957341
 30
0.0
 10
130.8273640313132
 20
-143.3768955957341
 30
0.0
 10
130.8273640313132
 20
-143.3768955957341
 30
0.0
 10
130.8273640313132
 20
-143.3768955957341
 30
0.0
 10
130.8273640313132
 20
-111.3768955957676
 30
0.0
 10
130.8273640313132
 20
-111.3768955957676
 30
0.0
 10
130.8273640313132
 20
-111.3768955957676
 30
0.0
 10
124.827364031313
 20
-111.3768955957676
 30
0.0
 10
124.827364031313
 20
-111.3768955957676
 30
0.0
 10
124.827364031313
 20
-111.3768955957676
 30
0.0
 10
124.827364031313
 20
-91.37689559576721
 30
0.0
 10
124.827364031313
 20
-91.37689559576721
 30
0.0
 10
124.827364031313
 20
-91.37689559576721
 30
0.0
 10
130.8273640313132
 20
-91.37689559576721
 30
0.0
 10
130.8273640313132
 20
-91.37689559576721
 30
0.0
 10
130.8273640313132
 20
-91.37689559576721
 30
0.0
 10
130.8273640313132
 20
-82.53365058755293
 30
0.0
 10
130.8273640313132
 20
-82.53365058755293
 30
0.0
 10
130.8273640313132
 20
-82.53365058755293
 30
0.0
 10
176.0773630925401
 20
-76.17417794920541
 30
0.0
 10
176.0773630925401
 20
-76.17417794920541
 30
0.0
 10
176.0773630925401
 20
-76.17417794920541
 30
0.0
 10
176.0773630925401
 20
-60.87689559573501
 30
0.0
 10
176.0773630925401
 20
-60.87689559573501
 30
0.0
 10
176.0773630925401
 20
-60.87689559573501
 30
0.0
 10
212.3273630925396
 20
-60.87689559573501
 30
0.0
 10
212.3273630925396
 20
-60.87689559573501
 30
0.0
 10
212.3273630925396
 20
-60.87689559573501
 30
0.0
 10
212.3273630925396
 20
-95.36106321796598
 30
0.0
 10
212.3273630925396
 20
-95.36106321796598
 30
0.0
 10
212.3273630925396
 20
-95.36106321796598
 30
0.0
 10
230.4540140869837
 20
-92.16484557775898
 30
0.0
 10
230.4540140869837
 20
-92.16484557775898
 30
0.0
 10
230.4540140869837
 20
-92.16484557775898
 30
0.0
 10
228.3150193113827
 20
-104.2893600154596
 30
0.0
 10
228.3150193113827
 20
-104.2893600154596
 30
0.0
 10
228.3150193113827
 20
-104.2893600154596
 30
0.0
 10
234.2224671650286
 20
-105.3323402564508
 30
0.0
 10
234.2224671650286
 20
-105.3323402564508
 30
0.0
 10
234.2224671650286
 20
-105.3323402564508
 30
0.0
 10
230.745177979971
 20
-125.0277321013336
 30
0.0
 10
230.745177979971
 20
-125.0277321013336
 30
0.0
 10
230.745177979971
 20
-125.0277321013336
 30
0.0
 10
224.8402978958434
 20
-123.9852052088846
 30
0.0
 10
224.8402978958434
 20
-123.9852052088846
 30
0.0
 10
224.8402978958434
 20
-123.9852052088846
 30
0.0
 10
221.3655764803034
 20
-143.6810504023097
 30
0.0
 10
221.3655764803034
 20
-143.6810504023097
 30
0.0
 10
221.3655764803034
 20
-143.6810504023097
 30
0.0
 10
227.2678887949128
 20
-144.7231239462164
 30
0.0
 10
227.2678887949128
 20
-144.7231239462164
 30
0.0
 10
227.2678887949128
 20
-144.7231239462164
 30
0.0
 10
223.7905996098552
 20
-164.4185157910992
 30
0.0
 10
223.7905996098552
 20
-164.4185157910992
 30
0.0
 10
223.7905996098552
 20
-164.4185157910992
 30
0.0
 10
217.8908550647641
 20
-163.3768955957348
 30
0.0
 10
217.8908550647641
 20
-163.3768955957348
 30
0.0
 10
217.8908550647641
 20
-163.3768955957348
 30
0.0
 10
213.3273630925396
 20
-163.3768955957348
 30
0.0
 10
213.3273630925396
 20
-163.3768955957348
 30
0.0
 10
213.3273630925396
 20
-163.3768955957348
 30
0.0
 10
213.3273630925396
 20
-102.8768955957349
 30
0.0
 10
213.3273630925396
 20
-102.8768955957349
 30
0.0
 10
213.3273630925396
 20
-101.772326096073
 30
0.0
 10
212.4319325922014
 20
-100.8768955957348
 30
0.0
 10
211.3273630925402
 20
-100.8768955957348
 30
0.0
 10
211.3273630925395
 20
-100.8768955957348
 30
0.0
 10
192.3273630925395
 20
-100.8768955957348
 30
0.0
 10
192.3273630925395
 20
-100.8768955957348
 30
0.0
 10
191.2227935928782
 20
-100.8768955957348
 30
0.0
 10
190.3273630925401
 20
-99.98146509539666
 30
0.0
 10
190.3273630925401
 20
-98.87689559573475
 30
0.0
 10
190.3273630925401
 20
-98.87689559573475
 30
0.0
 10
190.3273630925401
 20
-97.87689559573535
 30
0.0
 10
190.3273630925401
 20
-97.87689559573535
 30
0.0
 10
190.3273630925401
 20
-96.77232609607344
 30
0.0
 10
189.4319325922013
 20
-95.87689559573528
 30
0.0
 10
188.32736309254
 20
-95.87689559573528
 30
0.0
 10
188.32736309254
 20
-95.87689559573528
 30
0.0
 10
159.3273630925396
 20
-95.87689559573528
 30
0.0
 10
159.3273630925396
 20
-95.87689559573528
 30
0.0
 10
158.2227935928784
 20
-95.87689559573528
 30
0.0
 10
157.3273630925395
 20
-96.77232609607344
 30
0.0
 10
157.3273630925395
 20
-97.87689559573535
 30
0.0
 10
157.3273630925395
 20
-97.87689559573535
 30
0.0
 10
157.3273630925395
 20
-98.87689559573475
 30
0.0
 10
157.3273630925395
 20
-98.87689559573475
 30
0.0
 10
157.3273630925395
 20
-99.98146509539666
 30
0.0
 10
156.4319325922014
 20
-100.8768955957348
 30
0.0
 10
155.3273630925395
 20
-100.8768955957348
 30
0.0
 10
155.3273630925395
 20
-100.8768955957348
 30
0.0
 10
136.3273630925395
 20
-100.8768955957348
 30
0.0
 10
136.3273630925395
 20
-100.8768955957348
 30
0.0
 10
135.2227935928782
 20
-100.8768955957348
 30
0.0
 10
134.3273630925394
 20
-101.772326096073
 30
0.0
 10
134.3273630925394
 20
-102.8768955957349
 30
0.0
 10
134.3273630925394
 20
-102.8768955957349
 30
0.0
 10
134.3273630925394
 20
-163.3768955957348
 30
0.0
 10
134.3273630925394
 20
-163.3768955957348
 30
0.0
  0
ENDBLK
  5
2BF
330
2BC
100
AcDbEntity
  8
0
100
AcDbBlockEnd
  0
BLOCK
  5
2C3
330
2C1
100
AcDbEntity
  8
0
100
AcDbBlockBegin
  2
block 105
 70
     0
 10
0.0
 20
0.0
 30
0.0
  3
block 105
  1

  0
SPLINE
  5
2C5
330
2C1
100
AcDbEntity
  8
Layer 1
 62
     7
420
 16777215
370
    25
100
AcDbSpline
210
0.0
220
0.0
230
1.0
 70
    11
 71
     3
 72
    20
 73
    16
 74
     0
 42
0.0000000001
 43
0.0000000001
 12
1.0
 22
0.0
 32
0.0
 13
1.0
 23
0.0
 33
0.0
 40
0.0
 40
0.0
 40
0.0
 40
0.0
 40
1.0
 40
1.0
 40
1.0
 40
2.0
 40
2.0
 40
2.0
 40
3.0
 40
3.0
 40
3.0
 40
4.0
 40
4.0
 40
4.0
 40
5.0
 40
5.0
 40
5.0
 40
5.0
 10
195.5273630925396
 20
-76.87689559573558
 30
0.0
 10
195.5273630925396
 20
-76.29699660841324
 30
0.0
 10
195.9974641052175
 20
-75.82689559573474
 30
0.0
 10
196.5773630925398
 20
-75.82689559573474
 30
0.0
 10
197.1572620798622
 20
-75.82689559573474
 30
0.0
 10
197.62736309254
 20
-76.29699660841324
 30
0.0
 10
197.62736309254
 20
-76.87689559573558
 30
0.0
 10
197.62736309254
 20
-77.45679458305791
 30
0.0
 10
197.1572620798622
 20
-77.92689559573513
 30
0.0
 10
196.5773630925398
 20
-77.92689559573513
 30
0.0
 10
195.9974641052175
 20
-77.92689559573513
 30
0.0
 10
195.5273630925396
 20
-77.45679458305791
 30
0.0
 10
195.5273630925396
 20
-76.87689559573558
 30
0.0
 10
195.5273630925396
 20
-76.87689559573558
 30
0.0
 10
195.5273630925396
 20
-76.87689559573558
 30
0.0
 10
195.5273630925396
 20
-76.87689559573558
 30
0.0
  0
ENDBLK
  5
2C4
330
2C1
100
AcDbEntity
  8
0
100
AcDbBlockEnd
  0
BLOCK
  5
2C8
330
2C6
100
AcDbEntity
  8
0
100
AcDbBlockBegin
  2
block 106
 70
     0
 10
0.0
 20
0.0
 30
0.0
  3
block 106
  1

  0
SPLINE
  5
2CA
330
2C6
100
AcDbEntity
  8
Layer 1
 62
     7
420
 16777215
370
    25
100
AcDbSpline
210
0.0
220
0.0
230
1.0
 70
    11
 71
     3
 72
    20
 73
    16
 74
     0
 42
0.0000000001
 43
0.0000000001
 12
1.0
 22
0.0
 32
0.0
 13
1.0
 23
0.0
 33
0.0
 40
0.0
 40
0.0
 40
0.0
 40
0.0
 40
1.0
 40
1.0
 40
1.0
 40
2.0
 40
2.0
 40
2.0
 40
3.0
 40
3.0
 40
3.0
 40
4.0
 40
4.0
 40
4.0
 40
5.0
 40
5.0
 40
5.0
 40
5.0
 10
195.5273630925396
 20
-68.87689559573529
 30
0.0
 10
195.5273630925396
 20
-68.29699660841295
 30
0.0
 10
195.9974641052175
 20
-67.8268955957351
 30
0.0
 10
196.5773630925398
 20
-67.8268955957351
 30
0.0
 10
197.1572620798622
 20
-67.8268955957351
 30
0.0
 10
197.62736309254
 20
-68.29699660841295
 30
0.0
 10
197.62736309254
 20
-68.87689559573529
 30
0.0
 10
197.62736309254
 20
-69.45679458305763
 30
0.0
 10
197.1572620798622
 20
-69.92689559573485
 30
0.0
 10
196.5773630925398
 20
-69.92689559573485
 30
0.0
 10
195.9974641052175
 20
-69.92689559573485
 30
0.0
 10
195.5273630925396
 20
-69.45679458305763
 30
0.0
 10
195.5273630925396
 20
-68.87689559573529
 30
0.0
 10
195.5273630925396
 20
-68.87689559573529
 30
0.0
 10
195.5273630925396
 20
-68.87689559573529
 30
0.0
 10
195.5273630925396
 20
-68.87689559573529
 30
0.0
  0
ENDBLK
  5
2C9
330
2C6
100
AcDbEntity
  8
0
100
AcDbBlockEnd
  0
BLOCK
  5
2CD
330
2CB
100
AcDbEntity
  8
0
100
AcDbBlockBegin
  2
block 107
 70
     0
 10
0.0
 20
0.0
 30
0.0
  3
block 107
  1

  0
SPLINE
  5
2CF
330
2CB
100
AcDbEntity
  8
Layer 1
 62
     7
420
 16777215
370
    25
100
AcDbSpline
210
0.0
220
0.0
230
1.0
 70
    11
 71
     3
 72
    20
 73
    16
 74
     0
 42
0.0000000001
 43
0.0000000001
 12
1.0
 22
0.0
 32
0.0
 13
1.0
 23
0.0
 33
0.0
 40
0.0
 40
0.0
 40
0.0
 40
0.0
 40
1.0
 40
1.0
 40
1.0
 40
2.0
 40
2.0
 40
2.0
 40
3.0
 40
3.0
 40
3.0
 40
4.0
 40
4.0
 40
4.0
 40
5.0
 40
5.0
 40
5.0
 40
5.0
 10
195.5273630925396
 20
-84.87689559573522
 30
0.0
 10
195.5273630925396
 20
-84.29699660841287
 30
0.0
 10
195.9974641052175
 20
-83.82689559573502
 30
0.0
 10
196.5773630925398
 20
-83.82689559573502
 30
0.0
 10
197.1572620798622
 20
-83.82689559573502
 30
0.0
 10
197.62736309254
 20
-84.29699660841287
 30
0.0
 10
197.62736309254
 20
-84.87689559573522
 30
0.0
 10
197.62736309254
 20
-85.45679458305756
 30
0.0
 10
197.1572620798622
 20
-85.92689559573542
 30
0.0
 10
196.5773630925398
 20
-85.92689559573542
 30
0.0
 10
195.9974641052175
 20
-85.92689559573542
 30
0.0
 10
195.5273630925396
 20
-85.45679458305756
 30
0.0
 10
195.5273630925396
 20
-84.87689559573522
 30
0.0
 10
195.5273630925396
 20
-84.87689559573522
 30
0.0
 10
195.5273630925396
 20
-84.87689559573522
 30
0.0
 10
195.5273630925396
 20
-84.87689559573522
 30
0.0
  0
ENDBLK
  5
2CE
330
2CB
100
AcDbEntity
  8
0
100
AcDbBlockEnd
  0
BLOCK
  5
2D2
330
2D0
100
AcDbEntity
  8
0
100
AcDbBlockBegin
  2
block 108
 70
     0
 10
0.0
 20
0.0
 30
0.0
  3
block 108
  1

  0
SPLINE
  5
2D4
330
2D0
100
AcDbEntity
  8
Layer 1
 62
     7
420
 16777215
370
    25
100
AcDbSpline
210
0.0
220
0.0
230
1.0
 70
    11
 71
     3
 72
    20
 73
    16
 74
     0
 42
0.0000000001
 43
0.0000000001
 12
1.0
 22
0.0
 32
0.0
 13
1.0
 23
0.0
 33
0.0
 40
0.0
 40
0.0
 40
0.0
 40
0.0
 40
1.0
 40
1.0
 40
1.0
 40
2.0
 40
2.0
 40
2.0
 40
3.0
 40
3.0
 40
3.0
 40
4.0
 40
4.0
 40
4.0
 40
5.0
 40
5.0
 40
5.0
 40
5.0
 10
187.52736309254
 20
-84.87689559573522
 30
0.0
 10
187.52736309254
 20
-84.29699660841287
 30
0.0
 10
187.9974641052172
 20
-83.82689559573502
 30
0.0
 10
188.5773630925395
 20
-83.82689559573502
 30
0.0
 10
189.1572620798619
 20
-83.82689559573502
 30
0.0
 10
189.6273630925397
 20
-84.29699660841287
 30
0.0
 10
189.6273630925397
 20
-84.87689559573522
 30
0.0
 10
189.6273630925397
 20
-85.45679458305756
 30
0.0
 10
189.1572620798619
 20
-85.92689559573542
 30
0.0
 10
188.5773630925395
 20
-85.92689559573542
 30
0.0
 10
187.9974641052172
 20
-85.92689559573542
 30
0.0
 10
187.52736309254
 20
-85.45679458305756
 30
0.0
 10
187.52736309254
 20
-84.87689559573522
 30
0.0
 10
187.52736309254
 20
-84.87689559573522
 30
0.0
 10
187.52736309254
 20
-84.87689559573522
 30
0.0
 10
187.52736309254
 20
-84.87689559573522
 30
0.0
  0
ENDBLK
  5
2D3
330
2D0
100
AcDbEntity
  8
0
100
AcDbBlockEnd
  0
BLOCK
  5
2D7
330
2D5
100
AcDbEntity
  8
0
100
AcDbBlockBegin
  2
block 109
 70
     0
 10
0.0
 20
0.0
 30
0.0
  3
block 109
  1

  0
SPLINE
  5
2D9
330
2D5
100
AcDbEntity
  8
Layer 1
 62
     7
420
 16777215
370
    25
100
AcDbSpline
210
0.0
220
0.0
230
1.0
 70
    11
 71
     3
 72
    20
 73
    16
 74
     0
 42
0.0000000001
 43
0.0000000001
 12
1.0
 22
0.0
 32
0.0
 13
1.0
 23
0.0
 33
0.0
 40
0.0
 40
0.0
 40
0.0
 40
0.0
 40
1.0
 40
1.0
 40
1.0
 40
2.0
 40
2.0
 40
2.0
 40
3.0
 40
3.0
 40
3.0
 40
4.0
 40
4.0
 40
4.0
 40
5.0
 40
5.0
 40
5.0
 40
5.0
 10
179.5273630925397
 20
-84.87689559573522
 30
0.0
 10
179.5273630925397
 20
-84.29699660841287
 30
0.0
 10
179.9974641052175
 20
-83.82689559573502
 30
0.0
 10
180.5773630925399
 20
-83.82689559573502
 30
0.0
 10
181.1572620798622
 20
-83.82689559573502
 30
0.0
 10
181.6273630925401
 20
-84.29699660841287
 30
0.0
 10
181.6273630925401
 20
-84.87689559573522
 30
0.0
 10
181.6273630925401
 20
-85.45679458305756
 30
0.0
 10
181.1572620798622
 20
-85.92689559573542
 30
0.0
 10
180.5773630925399
 20
-85.92689559573542
 30
0.0
 10
179.9974641052175
 20
-85.92689559573542
 30
0.0
 10
179.5273630925397
 20
-85.45679458305756
 30
0.0
 10
179.5273630925397
 20
-84.87689559573522
 30
0.0
 10
179.5273630925397
 20
-84.87689559573522
 30
0.0
 10
179.5273630925397
 20
-84.87689559573522
 30
0.0
 10
179.5273630925397
 20
-84.87689559573522
 30
0.0
  0
ENDBLK
  5
2D8
330
2D5
100
AcDbEntity
  8
0
100
AcDbBlockEnd
  0
BLOCK
  5
2DC
330
2DA
100
AcDbEntity
  8
0
100
AcDbBlockBegin
  2
block 110
 70
     0
 10
0.0
 20
0.0
 30
0.0
  3
block 110
  1

  0
SPLINE
  5
2DE
330
2DA
100
AcDbEntity
  8
Layer 1
 62
     7
420
 16777215
370
    25
100
AcDbSpline
210
0.0
220
0.0
230
1.0
 70
    11
 71
     3
 72
    20
 73
    16
 74
     0
 42
0.0000000001
 43
0.0000000001
 12
1.0
 22
0.0
 32
0.0
 13
1.0
 23
0.0
 33
0.0
 40
0.0
 40
0.0
 40
0.0
 40
0.0
 40
1.0
 40
1.0
 40
1.0
 40
2.0
 40
2.0
 40
2.0
 40
3.0
 40
3.0
 40
3.0
 40
4.0
 40
4.0
 40
4.0
 40
5.0
 40
5.0
 40
5.0
 40
5.0
 10
179.5273630925397
 20
-76.87689559573558
 30
0.0
 10
179.5273630925397
 20
-76.29699660841324
 30
0.0
 10
179.9974641052175
 20
-75.82689559573474
 30
0.0
 10
180.5773630925399
 20
-75.82689559573474
 30
0.0
 10
181.1572620798622
 20
-75.82689559573474
 30
0.0
 10
181.6273630925401
 20
-76.29699660841324
 30
0.0
 10
181.6273630925401
 20
-76.87689559573558
 30
0.0
 10
181.6273630925401
 20
-77.45679458305791
 30
0.0
 10
181.1572620798622
 20
-77.92689559573513
 30
0.0
 10
180.5773630925399
 20
-77.92689559573513
 30
0.0
 10
179.9974641052175
 20
-77.92689559573513
 30
0.0
 10
179.5273630925397
 20
-77.45679458305791
 30
0.0
 10
179.5273630925397
 20
-76.87689559573558
 30
0.0
 10
179.5273630925397
 20
-76.87689559573558
 30
0.0
 10
179.5273630925397
 20
-76.87689559573558
 30
0.0
 10
179.5273630925397
 20
-76.87689559573558
 30
0.0
  0
ENDBLK
  5
2DD
330
2DA
100
AcDbEntity
  8
0
100
AcDbBlockEnd
  0
BLOCK
  5
2E1
330
2DF
100
AcDbEntity
  8
0
100
AcDbBlockBegin
  2
block 111
 70
     0
 10
0.0
 20
0.0
 30
0.0
  3
block 111
  1

  0
SPLINE
  5
2E3
330
2DF
100
AcDbEntity
  8
Layer 1
 62
     7
420
 16777215
370
    25
100
AcDbSpline
210
0.0
220
0.0
230
1.0
 70
    11
 71
     3
 72
    20
 73
    16
 74
     0
 42
0.0000000001
 43
0.0000000001
 12
1.0
 22
0.0
 32
0.0
 13
1.0
 23
0.0
 33
0.0
 40
0.0
 40
0.0
 40
0.0
 40
0.0
 40
1.0
 40
1.0
 40
1.0
 40
2.0
 40
2.0
 40
2.0
 40
3.0
 40
3.0
 40
3.0
 40
4.0
 40
4.0
 40
4.0
 40
5.0
 40
5.0
 40
5.0
 40
5.0
 10
179.5273630925397
 20
-68.87689559573529
 30
0.0
 10
179.5273630925397
 20
-68.29699660841295
 30
0.0
 10
179.9974641052175
 20
-67.8268955957351
 30
0.0
 10
180.5773630925399
 20
-67.8268955957351
 30
0.0
 10
181.1572620798622
 20
-67.8268955957351
 30
0.0
 10
181.6273630925401
 20
-68.29699660841295
 30
0.0
 10
181.6273630925401
 20
-68.87689559573529
 30
0.0
 10
181.6273630925401
 20
-69.45679458305763
 30
0.0
 10
181.1572620798622
 20
-69.92689559573485
 30
0.0
 10
180.5773630925399
 20
-69.92689559573485
 30
0.0
 10
179.9974641052175
 20
-69.92689559573485
 30
0.0
 10
179.5273630925397
 20
-69.45679458305763
 30
0.0
 10
179.5273630925397
 20
-68.87689559573529
 30
0.0
 10
179.5273630925397
 20
-68.87689559573529
 30
0.0
 10
179.5273630925397
 20
-68.87689559573529
 30
0.0
 10
179.5273630925397
 20
-68.87689559573529
 30
0.0
  0
ENDBLK
  5
2E2
330
2DF
100
AcDbEntity
  8
0
100
AcDbBlockEnd
  0
BLOCK
  5
2E6
330
2E4
100
AcDbEntity
  8
0
100
AcDbBlockBegin
  2
block 112
 70
     0
 10
0.0
 20
0.0
 30
0.0
  3
block 112
  1

  0
SPLINE
  5
2E8
330
2E4
100
AcDbEntity
  8
Layer 1
 62
     7
420
 16777215
370
    25
100
AcDbSpline
210
0.0
220
0.0
230
1.0
 70
    11
 71
     3
 72
    20
 73
    16
 74
     0
 42
0.0000000001
 43
0.0000000001
 12
1.0
 22
0.0
 32
0.0
 13
1.0
 23
0.0
 33
0.0
 40
0.0
 40
0.0
 40
0.0
 40
0.0
 40
1.0
 40
1.0
 40
1.0
 40
2.0
 40
2.0
 40
2.0
 40
3.0
 40
3.0
 40
3.0
 40
4.0
 40
4.0
 40
4.0
 40
5.0
 40
5.0
 40
5.0
 40
5.0
 10
187.52736309254
 20
-68.87689559573529
 30
0.0
 10
187.52736309254
 20
-68.29699660841295
 30
0.0
 10
187.9974641052172
 20
-67.8268955957351
 30
0.0
 10
188.5773630925395
 20
-67.8268955957351
 30
0.0
 10
189.1572620798619
 20
-67.8268955957351
 30
0.0
 10
189.6273630925397
 20
-68.29699660841295
 30
0.0
 10
189.6273630925397
 20
-68.87689559573529
 30
0.0
 10
189.6273630925397
 20
-69.45679458305763
 30
0.0
 10
189.1572620798619
 20
-69.92689559573485
 30
0.0
 10
188.5773630925395
 20
-69.92689559573485
 30
0.0
 10
187.9974641052172
 20
-69.92689559573485
 30
0.0
 10
187.52736309254
 20
-69.45679458305763
 30
0.0
 10
187.52736309254
 20
-68.87689559573529
 30
0.0
 10
187.52736309254
 20
-68.87689559573529
 30
0.0
 10
187.52736309254
 20
-68.87689559573529
 30
0.0
 10
187.52736309254
 20
-68.87689559573529
 30
0.0
  0
ENDBLK
  5
2E7
330
2E4
100
AcDbEntity
  8
0
100
AcDbBlockEnd
  0
ENDSEC
  0
SECTION
  2
ENTITIES
  0
INSERT
  5
42
330
1F
100
AcDbEntity
  8
Layer 1
100
AcDbBlockReference
  2
block 2
 10
0.0
 20
0.0
 30
0.0
  0
ENDSEC
  0
SECTION
  2
OBJECTS
  0
DICTIONARY
  5
C
330
0
100
AcDbDictionary
281
     1
  3
ACAD_GROUP
350
D
  3
ACAD_LAYOUT
350
1A
  3
ACAD_MATERIAL
350
3B
  3
ACAD_MLEADERSTYLE
350
2EA
  3
ACAD_MLINESTYLE
350
17
  3
ACAD_PLOTSETTINGS
350
19
  3
ACAD_PLOTSTYLENAME
350
E
  3
ACAD_TABLESTYLE
350
2E9
  3
ACAD_VISUALSTYLE
350
2A
  0
SUN
  5
3F
330
29
100
AcDbSun
 90
        1
290
     0
 63
     7
421
 16777215
 40
1.0
291
     1
 91
  2455826
 92
 54000000
292
     0
 70
     2
 71
   256
280
     1
  0
DICTIONARY
  5
D
102
{ACAD_REACTORS
330
C
102
}
330
C
100
AcDbDictionary
281
     1
  0
DICTIONARY
  5
1A
102
{ACAD_REACTORS
330
C
102
}
330
C
100
AcDbDictionary
281
     1
  3
Layout1
350
1E
  3
Layout2
350
26
  3
Model
350
22
  0
DICTIONARY
  5
3B
102
{ACAD_REACTORS
330
C
102
}
330
C
100
AcDbDictionary
281
     1
  3
ByBlock
350
3D
  3
ByLayer
350
3C
  3
Global
350
3E
  0
DICTIONARY
  5
2EA
102
{ACAD_REACTORS
330
C
102
}
330
C
100
AcDbDictionary
281
     1
  0
DICTIONARY
  5
17
102
{ACAD_REACTORS
330
C
102
}
330
C
100
AcDbDictionary
281
     1
  3
Standard
350
18
  0
DICTIONARY
  5
19
102
{ACAD_REACTORS
330
C
102
}
330
C
100
AcDbDictionary
281
     1
  0
ACDBDICTIONARYWDFLT
  5
E
102
{ACAD_REACTORS
330
C
102
}
330
C
100
AcDbDictionary
281
     1
  3
Normal
350
F
100
AcDbDictionaryWithDefault
340
F
  0
DICTIONARY
  5
2E9
102
{ACAD_REACTORS
330
C
102
}
330
C
100
AcDbDictionary
281
     1
  0
DICTIONARY
  5
2A
102
{ACAD_REACTORS
330
C
102
}
330
C
100
AcDbDictionary
281
     1
  3
2dWireframe
350
2F
  3
3D Hidden
350
31
  3
3dWireframe
350
30
  3
Basic
350
32
  3
Brighten
350
36
  3
ColorChange
350
3A
  3
Conceptual
350
34
  3
Dim
350
35
  3
Facepattern
350
39
  3
Flat
350
2B
  3
FlatWithEdges
350
2C
  3
Gouraud
350
2D
  3
GouraudWithEdges
350
2E
  3
Linepattern
350
38
  3
Realistic
350
33
  3
Thicken
350
37
  0
LAYOUT
  5
1E
102
{ACAD_REACTORS
330
1A
102
}
330
1A
100
AcDbPlotSettings
  1

  2
none_device
  4

  6

 40
0.0
 41
0.0
 42
0.0
 43
0.0
 44
0.0
 45
0.0
 46
0.0
 47
0.0
 48
0.0
 49
0.0
140
0.0
141
0.0
142
1.0
143
1.0
 70
   688
 72
     0
 73
     0
 74
     5
  7

 75
    16
 76
     0
 77
     2
 78
   300
147
1.0
148
0.0
149
0.0
100
AcDbLayout
  1
Layout1
 70
     1
 71
     1
 10
0.0
 20
0.0
 11
12.0
 21
9.0
 12
0.0
 22
0.0
 32
0.0
 14
1.000000000000000E+20
 24
1.000000000000000E+20
 34
1.000000000000000E+20
 15
-1.000000000000000E+20
 25
-1.000000000000000E+20
 35
-1.000000000000000E+20
146
0.0
 13
0.0
 23
0.0
 33
0.0
 16
1.0
 26
0.0
 36
0.0
 17
0.0
 27
1.0
 37
0.0
 76
     0
330
1B
  0
LAYOUT
  5
26
102
{ACAD_REACTORS
330
1A
102
}
330
1A
100
AcDbPlotSettings
  1

  2
none_device
  4

  6

 40
0.0
 41
0.0
 42
0.0
 43
0.0
 44
0.0
 45
0.0
 46
0.0
 47
0.0
 48
0.0
 49
0.0
140
0.0
141
0.0
142
1.0
143
1.0
 70
   688
 72
     0
 73
     0
 74
     5
  7

 75
    16
 76
     0
 77
     2
 78
   300
147
1.0
148
0.0
149
0.0
100
AcDbLayout
  1
Layout2
 70
     1
 71
     2
 10
0.0
 20
0.0
 11
0.0
 21
0.0
 12
0.0
 22
0.0
 32
0.0
 14
0.0
 24
0.0
 34
0.0
 15
0.0
 25
0.0
 35
0.0
146
0.0
 13
0.0
 23
0.0
 33
0.0
 16
1.0
 26
0.0
 36
0.0
 17
0.0
 27
1.0
 37
0.0
 76
     0
330
23
  0
LAYOUT
  5
22
102
{ACAD_REACTORS
330
1A
102
}
330
1A
100
AcDbPlotSettings
  1

  2
none_device
  4

  6

 40
0.0
 41
0.0
 42
0.0
 43
0.0
 44
0.0
 45
0.0
 46
0.0
 47
0.0
 48
0.0
 49
0.0
140
0.0
141
0.0
142
1.0
143
1.0
 70
  1712
 72
     0
 73
     0
 74
     0
  7

 75
     0
 76
     0
 77
     2
 78
   300
147
1.0
148
0.0
149
0.0
100
AcDbLayout
  1
Model
 70
     1
 71
     0
 10
0.0
 20
0.0
 11
12.0
 21
9.0
 12
0.0
 22
0.0
 32
0.0
 14
1.000000000000000E+20
 24
1.000000000000000E+20
 34
1.000000000000000E+20
 15
-1.000000000000000E+20
 25
-1.000000000000000E+20
 35
-1.000000000000000E+20
146
0.0
 13
0.0
 23
0.0
 33
0.0
 16
1.0
 26
0.0
 36
0.0
 17
0.0
 27
1.0
 37
0.0
 76
     0
330
1F
331
29
  0
MATERIAL
  5
3D
102
{ACAD_REACTORS
330
3B
102
}
330
3B
100
AcDbMaterial
  1
ByBlock
 72
     1
 94
      127
  0
MATERIAL
  5
3C
102
{ACAD_REACTORS
330
3B
102
}
330
3B
100
AcDbMaterial
  1
ByLayer
 72
     1
 94
      127
  0
MATERIAL
  5
3E
102
{ACAD_REACTORS
330
3B
102
}
330
3B
100
AcDbMaterial
  1
Global
 72
     1
 94
      127
  0
MLINESTYLE
  5
18
102
{ACAD_REACTORS
330
17
102
}
330
17
100
AcDbMlineStyle
  2
Standard
 70
     0
  3

 62
   256
 51
90.0
 52
90.0
 71
     2
 49
0.5
 62
   256
  6
BYLAYER
 49
-0.5
 62
   256
  6
BYLAYER
  0
ACDBPLACEHOLDER
  5
F
102
{ACAD_REACTORS
330
E
102
}
330
E
  0
VISUALSTYLE
  5
2F
102
{ACAD_REACTORS
330
2A
102
}
330
2A
100
AcDbVisualStyle
  2
2dWireframe
 70
     4
177
     2
291
     0
 71
     0
176
     1
 72
     2
176
     1
 73
     0
176
     1
 90
        0
176
     1
 40
-0.6
176
     1
 41
-30.0
176
     1
 62
     5
 63
     7
421
 16777215
176
     1
 74
     1
176
     1
 91
        4
176
     1
 64
     7
176
     1
 65
   257
176
     1
 75
     1
176
     1
175
     1
176
     1
 42
1.0
176
     1
 92
        0
176
     1
 66
   257
176
     1
 43
1.0
176
     1
 76
     1
176
     1
 77
     6
176
     1
 78
     2
176
     1
 67
     7
176
     1
 79
     5
176
     1
170
     0
176
     1
171
     0
176
     1
290
     0
176
     1
 93
        1
176
     1
 44
0.0
176
     1
173
     0
176
     1
  0
VISUALSTYLE
  5
31
102
{ACAD_REACTORS
330
2A
102
}
330
2A
100
AcDbVisualStyle
  2
3D Hidden
 70
     6
177
     2
291
     0
 71
     1
176
     1
 72
     2
176
     1
 73
     2
176
     1
 90
        0
176
     1
 40
-0.6
176
     1
 41
-30.0
176
     1
 62
     5
 63
     7
421
 16777215
176
     1
 74
     2
176
     1
 91
        2
176
     1
 64
     7
176
     1
 65
   257
176
     1
 75
     2
176
     1
175
     1
176
     1
 42
40.0
176
     1
 92
        0
176
     1
 66
   257
176
     1
 43
1.0
176
     1
 76
     1
176
     1
 77
     6
176
     1
 78
     2
176
     1
 67
     7
176
     1
 79
     3
176
     1
170
     0
176
     1
171
     0
176
     1
290
     0
176
     1
 93
        1
176
     1
 44
0.0
176
     1
173
     0
176
     1
  0
VISUALSTYLE
  5
30
102
{ACAD_REACTORS
330
2A
102
}
330
2A
100
AcDbVisualStyle
  2
3dWireframe
 70
     5
177
     2
291
     0
 71
     0
176
     1
 72
     2
176
     1
 73
     0
176
     1
 90
        0
176
     1
 40
-0.6
176
     1
 41
-30.0
176
     1
 62
     5
 63
     7
421
 16777215
176
     1
 74
     1
176
     1
 91
        4
176
     1
 64
     7
176
     1
 65
   257
176
     1
 75
     1
176
     1
175
     1
176
     1
 42
1.0
176
     1
 92
        0
176
     1
 66
   257
176
     1
 43
1.0
176
     1
 76
     1
176
     1
 77
     6
176
     1
 78
     2
176
     1
 67
     7
176
     1
 79
     5
176
     1
170
     0
176
     1
171
     0
176
     1
290
     0
176
     1
 93
        1
176
     1
 44
0.0
176
     1
173
     0
176
     1
  0
VISUALSTYLE
  5
32
102
{ACAD_REACTORS
330
2A
102
}
330
2A
100
AcDbVisualStyle
  2
Basic
 70
     7
177
     2
291
     1
 71
     1
176
     1
 72
     0
176
     1
 73
     1
176
     1
 90
        0
176
     1
 40
-0.6
176
     1
 41
-30.0
176
     1
 62
     5
 63
     7
421
 16777215
176
     1
 74
     0
176
     1
 91
        4
176
     1
 64
     7
176
     1
 65
   257
176
     1
 75
     1
176
     1
175
     1
176
     1
 42
1.0
176
     1
 92
        8
176
     1
 66
     7
176
     1
 43
1.0
176
     1
 76
     1
176
     1
 77
     6
176
     1
 78
     2
176
     1
 67
     7
176
     1
 79
     5
176
     1
170
     0
176
     1
171
     0
176
     1
290
     0
176
     1
 93
        1
176
     1
 44
0.0
176
     1
173
     0
176
     1
  0
VISUALSTYLE
  5
36
102
{ACAD_REACTORS
330
2A
102
}
330
2A
100
AcDbVisualStyle
  2
Brighten
 70
    12
177
     2
291
     1
 71
     2
176
     1
 72
     2
176
     1
 73
     0
176
     1
 90
        0
176
     1
 40
-0.6
176
     1
 41
-30.0
176
     1
 62
     5
 63
     7
421
 16777215
176
     1
 74
     1
176
     1
 91
        4
176
     1
 64
     7
176
     1
 65
   257
176
     1
 75
     1
176
     1
175
     1
176
     1
 42
1.0
176
     1
 92
        8
176
     1
 66
     7
176
     1
 43
1.0
176
     1
 76
     1
176
     1
 77
     6
176
     1
 78
     2
176
     1
 67
     7
176
     1
 79
     5
176
     1
170
     0
176
     1
171
     0
176
     1
290
     0
176
     1
 93
        1
176
     1
 44
50.0
176
     1
173
     0
176
     1
  0
VISUALSTYLE
  5
3A
102
{ACAD_REACTORS
330
2A
102
}
330
2A
100
AcDbVisualStyle
  2
ColorChange
 70
    16
177
     2
291
     1
 71
     2
176
     1
 72
     2
176
     1
 73
     3
176
     1
 90
        0
176
     1
 40
-0.6
176
     1
 41
-30.0
176
     1
 62
     5
 63
     8
421
  8421504
176
     1
 74
     1
176
     1
 91
        4
176
     1
 64
     7
176
     1
 65
   257
176
     1
 75
     1
176
     1
175
     1
176
     1
 42
1.0
176
     1
 92
        8
176
     1
 66
     8
424
  8421504
176
     1
 43
1.0
176
     1
 76
     1
176
     1
 77
     6
176
     1
 78
     2
176
     1
 67
     7
176
     1
 79
     5
176
     1
170
     0
176
     1
171
     0
176
     1
290
     0
176
     1
 93
        1
176
     1
 44
0.0
176
     1
173
     0
176
     1
  0
VISUALSTYLE
  5
34
102
{ACAD_REACTORS
330
2A
102
}
330
2A
100
AcDbVisualStyle
  2
Conceptual
 70
     9
177
     2
291
     0
 71
     3
176
     1
 72
     2
176
     1
 73
     0
176
     1
 90
        0
176
     1
 40
-0.6
176
     1
 41
-30.0
176
     1
 62
     5
 63
     7
421
 16777215
176
     1
 74
     2
176
     1
 91
        2
176
     1
 64
     7
176
     1
 65
   257
176
     1
 75
     1
176
     1
175
     1
176
     1
 42
40.0
176
     1
 92
        8
176
     1
 66
     7
176
     1
 43
1.0
176
     1
 76
     1
176
     1
 77
     6
176
     1
 78
     2
176
     1
 67
     7
176
     1
 79
     3
176
     1
170
     0
176
     1
171
     0
176
     1
290
     0
176
     1
 93
        1
176
     1
 44
0.0
176
     1
173
     0
176
     1
  0
VISUALSTYLE
  5
35
102
{ACAD_REACTORS
330
2A
102
}
330
2A
100
AcDbVisualStyle
  2
Dim
 70
    11
177
     2
291
     1
 71
     2
176
     1
 72
     2
176
     1
 73
     0
176
     1
 90
        0
176
     1
 40
-0.6
176
     1
 41
-30.0
176
     1
 62
     5
 63
     7
421
 16777215
176
     1
 74
     1
176
     1
 91
        4
176
     1
 64
     7
176
     1
 65
   257
176
     1
 75
     1
176
     1
175
     1
176
     1
 42
1.0
176
     1
 92
        8
176
     1
 66
     7
176
     1
 43
1.0
176
     1
 76
     1
176
     1
 77
     6
176
     1
 78
     2
176
     1
 67
     7
176
     1
 79
     5
176
     1
170
     0
176
     1
171
     0
176
     1
290
     0
176
     1
 93
        1
176
     1
 44
-50.0
176
     1
173
     0
176
     1
  0
VISUALSTYLE
  5
39
102
{ACAD_REACTORS
330
2A
102
}
330
2A
100
AcDbVisualStyle
  2
Facepattern
 70
    15
177
     2
291
     1
 71
     2
176
     1
 72
     2
176
     1
 73
     0
176
     1
 90
        0
176
     1
 40
-0.6
176
     1
 41
-30.0
176
     1
 62
     5
 63
     7
421
 16777215
176
     1
 74
     1
176
     1
 91
        4
176
     1
 64
     7
176
     1
 65
   257
176
     1
 75
     1
176
     1
175
     1
176
     1
 42
1.0
176
     1
 92
        8
176
     1
 66
     7
176
     1
 43
1.0
176
     1
 76
     1
176
     1
 77
     6
176
     1
 78
     2
176
     1
 67
     7
176
     1
 79
     5
176
     1
170
     0
176
     1
171
     0
176
     1
290
     0
176
     1
 93
        1
176
     1
 44
0.0
176
     1
173
     0
176
     1
  0
VISUALSTYLE
  5
2B
102
{ACAD_REACTORS
330
2A
102
}
330
2A
100
AcDbVisualStyle
  2
Flat
 70
     0
177
     2
291
     1
 71
     2
176
     1
 72
     1
176
     1
 73
     1
176
     1
 90
        2
176
     1
 40
-0.6
176
     1
 41
30.0
176
     1
 62
     5
 63
     7
421
 16777215
176
     1
 74
     0
176
     1
 91
        4
176
     1
 64
     7
176
     1
 65
   257
176
     1
 75
     1
176
     1
175
     1
176
     1
 42
1.0
176
     1
 92
        8
176
     1
 66
     7
176
     1
 43
1.0
176
     1
 76
     1
176
     1
 77
     6
176
     1
 78
     2
176
     1
 67
     7
176
     1
 79
     5
176
     1
170
     0
176
     1
171
     0
176
     1
290
     0
176
     1
 93
       13
176
     1
 44
0.0
176
     1
173
     0
176
     1
  0
VISUALSTYLE
  5
2C
102
{ACAD_REACTORS
330
2A
102
}
330
2A
100
AcDbVisualStyle
  2
FlatWithEdges
 70
     1
177
     2
291
     1
 71
     2
176
     1
 72
     1
176
     1
 73
     1
176
     1
 90
        2
176
     1
 40
-0.6
176
     1
 41
30.0
176
     1
 62
     5
 63
     7
421
 16777215
176
     1
 74
     1
176
     1
 91
        4
176
     1
 64
     7
176
     1
 65
   257
176
     1
 75
     1
176
     1
175
     1
176
     1
 42
1.0
176
     1
 92
        0
176
     1
 66
   257
176
     1
 43
1.0
176
     1
 76
     1
176
     1
 77
     6
176
     1
 78
     2
176
     1
 67
     7
176
     1
 79
     5
176
     1
170
     0
176
     1
171
     0
176
     1
290
     0
176
     1
 93
       13
176
     1
 44
0.0
176
     1
173
     0
176
     1
  0
VISUALSTYLE
  5
2D
102
{ACAD_REACTORS
330
2A
102
}
330
2A
100
AcDbVisualStyle
  2
Gouraud
 70
     2
177
     2
291
     1
 71
     2
176
     1
 72
     2
176
     1
 73
     1
176
     1
 90
        2
176
     1
 40
-0.6
176
     1
 41
30.0
176
     1
 62
     5
 63
     7
421
 16777215
176
     1
 74
     0
176
     1
 91
        4
176
     1
 64
     7
176
     1
 65
   257
176
     1
 75
     1
176
     1
175
     1
176
     1
 42
1.0
176
     1
 92
        0
176
     1
 66
     7
176
     1
 43
1.0
176
     1
 76
     1
176
     1
 77
     6
176
     1
 78
     2
176
     1
 67
     7
176
     1
 79
     5
176
     1
170
     0
176
     1
171
     0
176
     1
290
     0
176
     1
 93
       13
176
     1
 44
0.0
176
     1
173
     0
176
     1
  0
VISUALSTYLE
  5
2E
102
{ACAD_REACTORS
330
2A
102
}
330
2A
100
AcDbVisualStyle
  2
GouraudWithEdges
 70
     3
177
     2
291
     1
 71
     2
176
     1
 72
     2
176
     1
 73
     1
176
     1
 90
        2
176
     1
 40
-0.6
176
     1
 41
30.0
176
     1
 62
     5
 63
     7
421
 16777215
176
     1
 74
     1
176
     1
 91
        4
176
     1
 64
     7
176
     1
 65
   257
176
     1
 75
     1
176
     1
175
     1
176
     1
 42
1.0
176
     1
 92
        0
176
     1
 66
   257
176
     1
 43
1.0
176
     1
 76
     1
176
     1
 77
     6
176
     1
 78
     2
176
     1
 67
     7
176
     1
 79
     5
176
     1
170
     0
176
     1
171
     0
176
     1
290
     0
176
     1
 93
       13
176
     1
 44
0.0
176
     1
173
     0
176
     1
  0
VISUALSTYLE
  5
38
102
{ACAD_REACTORS
330
2A
102
}
330
2A
100
AcDbVisualStyle
  2
Linepattern
 70
    14
177
     2
291
     1
 71
     2
176
     1
 72
     2
176
     1
 73
     0
176
     1
 90
        0
176
     1
 40
-0.6
176
     1
 41
-30.0
176
     1
 62
     5
 63
     7
421
 16777215
176
     1
 74
     1
176
     1
 91
        4
176
     1
 64
     7
176
     1
 65
   257
176
     1
 75
     7
176
     1
175
     7
176
     1
 42
1.0
176
     1
 92
        8
176
     1
 66
     7
176
     1
 43
1.0
176
     1
 76
     1
176
     1
 77
     6
176
     1
 78
     2
176
     1
 67
     7
176
     1
 79
     5
176
     1
170
     0
176
     1
171
     0
176
     1
290
     0
176
     1
 93
        1
176
     1
 44
0.0
176
     1
173
     0
176
     1
  0
VISUALSTYLE
  5
33
102
{ACAD_REACTORS
330
2A
102
}
330
2A
100
AcDbVisualStyle
  2
Realistic
 70
     8
177
     2
291
     0
 71
     2
176
     1
 72
     2
176
     1
 73
     0
176
     1
 90
        0
176
     1
 40
-0.6
176
     1
 41
-30.0
176
     1
 62
     5
 63
     7
421
 16777215
176
     1
 74
     1
176
     1
 91
        0
176
     1
 64
     7
176
     1
 65
   257
176
     1
 75
     1
176
     1
175
     1
176
     1
 42
1.0
176
     1
 92
        8
176
     1
 66
     8
424
  7895160
176
     1
 43
1.0
176
     1
 76
     1
176
     1
 77
     6
176
     1
 78
     2
176
     1
 67
     7
176
     1
 79
     5
176
     1
170
     0
176
     1
171
     0
176
     1
290
     0
176
     1
 93
       13
176
     1
 44
0.0
176
     1
173
     0
176
     1
  0
VISUALSTYLE
  5
37
102
{ACAD_REACTORS
330
2A
102
}
330
2A
100
AcDbVisualStyle
  2
Thicken
 70
    13
177
     2
291
     1
 71
     2
176
     1
 72
     2
176
     1
 73
     0
176
     1
 90
        0
176
     1
 40
-0.6
176
     1
 41
-30.0
176
     1
 62
     5
 63
     7
421
 16777215
176
     1
 74
     1
176
     1
 91
        4
176
     1
 64
     7
176
     1
 65
   257
176
     1
 75
     1
176
     1
175
     1
176
     1
 42
1.0
176
     1
 92
       12
176
     1
 66
     7
176
     1
 43
1.0
176
     1
 76
     1
176
     1
 77
     6
176
     1
 78
     2
176
     1
 67
     7
176
     1
 79
     5
176
     1
170
     0
176
     1
171
     0
176
     1
290
     0
176
     1
 93
        1
176
     1
 44
0.0
176
     1
173
     0
176
     1
  0
ENDSEC
  0
EOF
